<?xml version="1.0" encoding="UTF-8" standalone="no"?>
<!-- Created with Inkscape (http://www.inkscape.org/) -->

<svg
   xmlns:dc="http://purl.org/dc/elements/1.1/"
   xmlns:cc="http://creativecommons.org/ns#"
   xmlns:rdf="http://www.w3.org/1999/02/22-rdf-syntax-ns#"
   xmlns:svg="http://www.w3.org/2000/svg"
   xmlns="http://www.w3.org/2000/svg"
   version="1.1"
   width="744.09448"
   height="1052.3622"
   id="svg2">
  <defs
     id="defs4" />
  <metadata
     id="metadata7">
    <rdf:RDF>
      <cc:Work
         rdf:about="">
        <dc:format>image/svg+xml</dc:format>
        <dc:type
           rdf:resource="http://purl.org/dc/dcmitype/StillImage" />
        <dc:title></dc:title>
      </cc:Work>
    </rdf:RDF>
  </metadata>
  <g
     id="layer1"
     style="display:inline">
    <rect
       width="744.09448"
       height="1052.3622"
       x="0"
       y="0"
       id="rect3066"
       style="fill:#ececec;fill-opacity:1;fill-rule:nonzero;stroke:none" />
    <g
       id="g3966">
      <path
         d="m 160.75038,222.36218 555.98119,0"
         id="path3942"
         style="fill:none;stroke:#000000;stroke-width:4.99078751;stroke-linecap:butt;stroke-linejoin:miter;stroke-miterlimit:4;stroke-opacity:1;stroke-dasharray:none" />
      <path
         d="m 160.75038,382.36221 559.24962,0"
         id="path3944"
         style="fill:none;stroke:#000000;stroke-width:5.00543547;stroke-linecap:butt;stroke-linejoin:miter;stroke-miterlimit:4;stroke-opacity:1;stroke-dasharray:none" />
      <path
         d="m 160.75038,542.36219 554.7241,0"
         id="path3946"
         style="fill:none;stroke:#000000;stroke-width:4.98514223;stroke-linecap:butt;stroke-linejoin:miter;stroke-miterlimit:4;stroke-opacity:1;stroke-dasharray:none" />
      <path
         d="m 160.75038,702.36222 559.24962,0"
         id="path3948"
         style="fill:none;stroke:#000000;stroke-width:5.00543547;stroke-linecap:butt;stroke-linejoin:miter;stroke-miterlimit:4;stroke-opacity:1;stroke-dasharray:none" />
      <path
         d="m 160.75038,1022.3622 559.24962,0"
         id="path3950"
         style="fill:none;stroke:#000000;stroke-width:5.00543547;stroke-linecap:butt;stroke-linejoin:miter;stroke-miterlimit:4;stroke-opacity:1;stroke-dasharray:none" />
      <path
         d="m 717.09329,60.500144 0,964.040656"
         id="path3954"
         style="fill:none;stroke:#000000;stroke-width:5.5999999;stroke-linecap:butt;stroke-linejoin:miter;stroke-miterlimit:4;stroke-opacity:1;stroke-dasharray:none" />
      <path
         d="m 160.75038,62.362183 559.24962,0"
         id="path3956"
         style="fill:none;stroke:#000000;stroke-width:5.00543547;stroke-linecap:butt;stroke-linejoin:miter;stroke-miterlimit:4;stroke-opacity:1;stroke-dasharray:none" />
      <path
         d="m 440,64.362183 0,956.801117"
         id="path3960"
         style="fill:none;stroke:#000000;stroke-width:5.57893372;stroke-linecap:butt;stroke-linejoin:miter;stroke-miterlimit:4;stroke-opacity:1;stroke-dasharray:none" />
      <path
         d="m 160,59.829647 0,965.075053"
         id="path3962"
         style="fill:none;stroke:#000000;stroke-width:5.6030035;stroke-linecap:butt;stroke-linejoin:miter;stroke-miterlimit:4;stroke-opacity:1;stroke-dasharray:none" />
      <path
         d="m 160.75038,862.36219 559.24962,0"
         id="path3964"
         style="fill:none;stroke:#000000;stroke-width:5.00543547;stroke-linecap:butt;stroke-linejoin:miter;stroke-miterlimit:4;stroke-opacity:1;stroke-dasharray:none" />
    </g>
    <g
       transform="translate(668.06283,-1130.0543)"
       id="g4162">
      <rect
         width="76.799995"
         height="12.799999"
         x="-439.99997"
         y="1264.3628"
         id="rect4083"
         style="fill:#000000;fill-opacity:1;stroke:none" />
      <rect
         width="76.799995"
         height="12.799999"
         x="1233.1844"
         y="302.20224"
         transform="matrix(-0.00259453,0.99999663,-0.99999663,-0.00259453,0,0)"
         id="rect4087"
         style="fill:#000000;fill-opacity:1;stroke:none" />
    </g>
    <g
       transform="translate(648.96245,-942.02083)"
       id="g4174">
      <rect
         width="76.799995"
         height="12.799999"
         x="-439.99997"
         y="1571.5627"
         id="rect4093"
         style="fill:#000000;fill-opacity:1;stroke:none" />
      <path
         d="m -350.40001,1552.3627 19.20003,0 0,25.6 38.39997,0 0,-25.6 19.2,0"
         id="path4095"
         style="fill:none;stroke:#000000;stroke-width:12.79999924;stroke-linecap:butt;stroke-linejoin:miter;stroke-miterlimit:4;stroke-opacity:1;stroke-dasharray:none" />
    </g>
    <g
       transform="translate(652.16247,-903.2208)"
       id="g4166">
      <path
         d="m -440,1360.3627 c 0,0 12.8,-25.6 38.4,-25.6 25.59999,0 38.39999,25.6 38.39999,25.6"
         id="path4085"
         style="fill:none;stroke:#000000;stroke-width:12.79999924;stroke-linecap:butt;stroke-linejoin:miter;stroke-miterlimit:4;stroke-opacity:1;stroke-dasharray:none" />
      <path
         d="m -273.60001,1379.5627 c 0,0 -12.8,25.6 -38.4,25.6 -25.6,0 -38.4,-25.6 -38.4,-25.6"
         id="path4101"
         style="fill:none;stroke:#000000;stroke-width:12.79999924;stroke-linecap:butt;stroke-linejoin:miter;stroke-miterlimit:4;stroke-opacity:1;stroke-dasharray:none" />
    </g>
    <g
       transform="translate(652.16244,-876.42083)"
       id="g4178">
      <rect
         width="76.799995"
         height="12.799999"
         x="-439.99997"
         y="1654.7628"
         id="rect4097"
         style="fill:#000000;fill-opacity:1;stroke:none" />
      <path
         d="m -335.76561,1699.5506 c 0,0 -8.23437,-15.9879 -8.23437,-38.3879 0,-22.4 9.6,-38.4 9.6,-38.4"
         id="path4099"
         style="fill:none;stroke:#000000;stroke-width:12.79999924;stroke-linecap:butt;stroke-linejoin:miter;stroke-miterlimit:4;stroke-opacity:1;stroke-dasharray:none" />
      <path
         d="m -288.23435,1699.5506 c 0,0 8.23437,-15.9879 8.23437,-38.3879 0,-22.4 -9.6,-38.4 -9.6,-38.4"
         id="path4103"
         style="fill:none;stroke:#000000;stroke-width:12.79999924;stroke-linecap:butt;stroke-linejoin:miter;stroke-miterlimit:4;stroke-opacity:1;stroke-dasharray:none" />
    </g>
    <g
       transform="translate(635.11776,-897.3791)"
       id="g4187">
      <path
         d="m -94.399996,1346.6484 c 0,0 10.048608,-12.8 22.609343,-12.8 12.560735,0 17.585054,12.8 30.145789,12.8 12.560735,0 22.609342,-16 22.609342,-16"
         id="path4105"
         style="fill:none;stroke:#000000;stroke-width:12.79999924;stroke-linecap:butt;stroke-linejoin:miter;stroke-miterlimit:4;stroke-opacity:1;stroke-dasharray:none" />
      <path
         d="m -92.964476,1389.1627 c 0,0 10.048575,-16 22.609342,-16 12.560735,0 17.585055,12.8 30.14579,12.8 12.560735,0 22.609342,-12.8 22.609342,-12.8"
         id="path4107"
         style="fill:none;stroke:#000000;stroke-width:12.79999924;stroke-linecap:butt;stroke-linejoin:miter;stroke-miterlimit:4;stroke-opacity:1;stroke-dasharray:none" />
    </g>
    <g
       transform="translate(635.11775,-1132.8006)"
       id="g4183">
      <rect
         width="76.799995"
         height="12.799999"
         x="1232.5205"
         y="46.302738"
         transform="matrix(-0.00259453,0.99999663,-0.99999663,-0.00259453,0,0)"
         id="rect4109"
         style="fill:#000000;fill-opacity:1;stroke:none" />
      <rect
         width="76.799995"
         height="12.799999"
         x="-94.399986"
         y="1264.3628"
         id="rect4111"
         style="fill:#000000;fill-opacity:1;stroke:none" />
    </g>
    <g
       transform="translate(635.11779,-941.54102)"
       id="g4195">
      <rect
         width="76.799995"
         height="12.799999"
         x="-94.399986"
         y="1571.5627"
         id="rect4117"
         style="fill:#000000;fill-opacity:1;stroke:none" />
      <path
         d="m -94.400028,1552.3627 19.200031,0 0,25.6 38.399965,0 0,-25.6 19.199998,0"
         id="path4119"
         style="fill:none;stroke:#000000;stroke-width:12.79999924;stroke-linecap:butt;stroke-linejoin:miter;stroke-miterlimit:4;stroke-opacity:1;stroke-dasharray:none" />
    </g>
    <g
       transform="translate(635.11776,-893.79338)"
       id="g4199">
      <rect
         width="76.799995"
         height="12.799999"
         x="-94.399986"
         y="1705.9628"
         id="rect4121"
         style="fill:#000000;fill-opacity:1;stroke:none" />
      <path
         d="m -86.165628,1693.1506 c 0,0 -8.234368,-11.9903 -8.234368,-28.7894 0,-16.7991 9.6,-28.7985 9.6,-28.7985"
         id="path4123"
         style="fill:none;stroke:#000000;stroke-width:12.79999924;stroke-linecap:butt;stroke-linejoin:miter;stroke-miterlimit:4;stroke-opacity:1;stroke-dasharray:none" />
      <path
         d="m -25.834369,1693.1506 c 0,0 8.234367,-11.9903 8.234367,-28.7894 0,-16.7991 -9.599999,-28.7985 -9.599999,-28.7985"
         id="path4125"
         style="fill:none;stroke:#000000;stroke-width:12.79999924;stroke-linecap:butt;stroke-linejoin:miter;stroke-miterlimit:4;stroke-opacity:1;stroke-dasharray:none" />
    </g>
    <g
       transform="translate(637.92094,-919.20052)"
       id="g4204">
      <path
         d="m -30.400001,1827.5627 -25.599998,0 0,32 -31.999997,0 0,32 c 10.361759,10.3618 35.199997,12.8 47.999996,0 14.488607,-14.4886 9.599999,-38.4 9.599999,-38.4"
         id="path4127"
         style="fill:none;stroke:#000000;stroke-width:12.79999924;stroke-linecap:butt;stroke-linejoin:miter;stroke-miterlimit:4;stroke-opacity:1;stroke-dasharray:none" />
    </g>
    <g
       transform="translate(652.16243,-1181.6209)"
       id="g3198">
      <rect
         width="76.799995"
         height="12.799999"
         x="-350.39996"
         y="1481.9628"
         id="rect3200"
         style="fill:#000000;fill-opacity:1;stroke:none" />
      <rect
         width="76.799995"
         height="12.799999"
         x="-439.99997"
         y="1481.9628"
         id="rect3202"
         style="fill:#000000;fill-opacity:1;stroke:none" />
    </g>
    <g
       transform="translate(635.11775,-1172.0887)"
       id="g3204">
      <rect
         width="76.799995"
         height="12.799999"
         x="-94.399986"
         y="1481.9628"
         id="rect3206"
         style="fill:#000000;fill-opacity:1;stroke:none" />
      <rect
         width="76.799995"
         height="12.799999"
         x="-94.399986"
         y="1443.5627"
         id="rect3208"
         style="fill:#000000;fill-opacity:1;stroke:none" />
    </g>
  </g>
  <g
     id="layer3"
     style="display:none">
    <text
       x="-90.888496"
       y="158.52533"
       transform="matrix(0.70710678,-0.70710678,0.70710678,0.70710678,0,0)"
       id="text3979"
       xml:space="preserve"
       style="font-size:22px;font-style:normal;font-variant:normal;font-weight:bold;font-stretch:normal;line-height:125%;letter-spacing:-2px;word-spacing:0px;fill:#000000;fill-opacity:1;stroke:none;display:inline;font-family:OCRB;-inkscape-font-specification:OCRB Bold"><tspan
         x="-90.888496"
         y="158.52533"
         id="tspan3981">Réaction</tspan></text>
    <text
       x="-246.196"
       y="274.48029"
       transform="matrix(0.70710678,-0.70710678,0.70710678,0.70710678,0,0)"
       id="text3983"
       xml:space="preserve"
       style="font-size:22px;font-style:normal;font-variant:normal;font-weight:bold;font-stretch:normal;line-height:125%;letter-spacing:-2px;word-spacing:0px;fill:#000000;fill-opacity:1;stroke:none;display:inline;font-family:OCRB;-inkscape-font-specification:OCRB Bold"><tspan
         x="-246.196"
         y="274.48029"
         id="tspan3985">Complémentarité</tspan></text>
    <text
       x="-323.66431"
       y="385.37781"
       transform="matrix(0.70710678,-0.70710678,0.70710678,0.70710678,0,0)"
       id="text3987"
       xml:space="preserve"
       style="font-size:22px;font-style:normal;font-weight:normal;line-height:125%;letter-spacing:-2px;word-spacing:0px;fill:#000000;fill-opacity:1;stroke:none;display:inline;font-family:Sans"><tspan
         x="-323.66431"
         y="385.37781"
         id="tspan3989"
         style="font-size:22px;font-style:normal;font-variant:normal;font-weight:bold;font-stretch:normal;letter-spacing:-2px;font-family:OCRB;-inkscape-font-specification:OCRB Bold">Imitation</tspan></text>
    <text
       x="-436.86237"
       y="498.75308"
       transform="matrix(0.70710678,-0.70710678,0.70710678,0.70710678,0,0)"
       id="text3997"
       xml:space="preserve"
       style="font-size:22px;font-style:normal;font-variant:normal;font-weight:bold;font-stretch:normal;line-height:125%;letter-spacing:-2px;word-spacing:0px;fill:#000000;fill-opacity:1;stroke:none;display:inline;font-family:OCRB;-inkscape-font-specification:OCRB Bold"><tspan
         x="-436.86237"
         y="498.75308"
         id="tspan3999">Référence</tspan></text>
    <text
       x="-541.66766"
       y="615.00757"
       transform="matrix(0.70710678,-0.70710678,0.70710678,0.70710678,0,0)"
       id="text4007"
       xml:space="preserve"
       style="font-size:22px;font-style:normal;font-variant:normal;font-weight:bold;font-stretch:normal;line-height:125%;letter-spacing:-2px;word-spacing:0px;fill:#000000;fill-opacity:1;stroke:none;display:inline;font-family:OCRB;-inkscape-font-specification:OCRB Bold"><tspan
         x="-541.66766"
         y="615.00757"
         id="tspan4009">Silence</tspan></text>
    <text
       x="-643.85956"
       y="728.43927"
       transform="matrix(0.70710678,-0.70710678,0.70710678,0.70710678,0,0)"
       id="text4011"
       xml:space="preserve"
       style="font-size:22px;font-style:normal;font-variant:normal;font-weight:bold;font-stretch:normal;line-height:125%;letter-spacing:-2px;word-spacing:0px;fill:#000000;fill-opacity:1;stroke:none;display:inline;font-family:OCRB;-inkscape-font-specification:OCRB Bold"><tspan
         x="-643.85956"
         y="728.43927"
         id="tspan4013">Chaos</tspan></text>
    <text
       x="254"
       y="41.866158"
       id="text4015"
       xml:space="preserve"
       style="font-size:22px;font-style:normal;font-variant:normal;font-weight:bold;font-stretch:normal;line-height:125%;letter-spacing:-2px;word-spacing:0px;fill:#000000;fill-opacity:1;stroke:none;display:inline;font-family:OCRB;-inkscape-font-specification:OCRB Bold"><tspan
         x="254"
         y="41.866158"
         id="tspan4017">Poursuite</tspan></text>
    <text
       x="499.42859"
       y="39.647896"
       id="text4019"
       xml:space="preserve"
       style="font-size:22px;font-style:normal;font-variant:normal;font-weight:bold;font-stretch:normal;line-height:125%;letter-spacing:-2px;word-spacing:0px;fill:#000000;fill-opacity:1;stroke:none;display:inline;font-family:OCRB;-inkscape-font-specification:OCRB Bold"><tspan
         x="499.42859"
         y="39.647896"
         id="tspan4021">Accompagnement</tspan></text>
  </g>
  <g
     id="layer2"
     style="display:inline">
    <g
       transform="matrix(0.70710678,-0.70710678,0.70710678,0.70710678,0,0)"
       id="text3132"
       style="font-size:22px;font-style:normal;font-variant:normal;font-weight:bold;font-stretch:normal;line-height:125%;letter-spacing:-2px;word-spacing:0px;fill:#000000;fill-opacity:1;stroke:none;display:inline;font-family:OCRB;-inkscape-font-specification:OCRB Bold">
      <path
         d="m -87.39607,157.77175 c 0,0.616 0.506001,1.1 1.1,1.1 0.594,0 1.1,-0.506 1.1,-1.1 l 0,-5.434 1.892,0 3.608,6.226 c 0.198,0.22 0.528001,0.308 0.814,0.308 0.594,0 1.1,-0.506 1.1,-1.1 0,-0.198 -0.022,-0.374 -0.132,-0.55 l -2.992,-5.148 c 2.155998,-0.792 2.992,-2.926 2.992,-5.368 0,-2.156 -2.706002,-3.3 -4.774,-3.476 l -3.608,0 c -0.615999,0 -1.1,0.484 -1.1,1.1 l 0,13.442 m 2.2,-7.634 0,-4.708 2.376,0 c 0.704,0 1.408001,0.264 2.024,0.616 0.308,0.154 0.682,0.374 0.682,0.66 0,1.078 -0.044,2.244 -0.858,2.926 -0.483999,0.418 -1.166,0.506 -1.804,0.506 l -2.42,0"
         id="path3088" />
      <path
         d="m -74.069632,152.62375 c 0,3.014 1.232002,5.302 3.586,6.072 0.549999,0.176 1.298001,0.286 2.09,0.286 1.715998,0 3.564,-0.506 3.564,-1.958 0,-0.616 -0.506001,-1.1 -1.122,-1.1 -0.286,0 -0.55,0.11 -0.748,0.308 -0.286,0.286 -0.638001,0.462 -1.1,0.528 -0.264,0.044 -0.528,0.066 -0.77,0.066 -2.067998,0 -3.058,-1.386 -3.256,-3.366 l 7.04,0 c 0.593999,0 1.1,-0.506 1.1,-1.1 0,-3.256 -1.738004,-5.676 -5.082,-5.676 l -0.132,0 c -3.299997,0.066 -5.17,2.662 -5.17,5.94 m 2.354,-1.364 c 0.373999,-1.364 1.298001,-2.376 2.86,-2.376 1.913998,0 2.486,0.88 2.794,2.376 l -5.654,0"
         id="path3090" />
      <path
         d="m -60.171195,155.26375 c 0,2.2 2.002002,3.608 3.85,3.74 0.132,0 0.264,0.022 0.374,0.022 1.385999,0 2.530001,-0.572 3.454,-1.364 l 0,0.176 c 0,0.616 0.506001,1.1 1.1,1.1 0.594,0 1.1,-0.506 1.1,-1.1 l 0,-6.82 c 0,-1.21 -0.484001,-2.398 -1.364,-3.234 -0.879999,-0.814 -2.112001,-1.1 -3.322,-1.1 -1.363998,0 -2.662001,0.506 -3.762,1.298 -0.241999,0.176 -0.418,0.55 -0.418,0.858 0,0.616 0.484001,1.1 1.1,1.1 0.242,0 0.484,-0.066 0.682,-0.22 0.682,-0.55 1.518001,-0.836 2.398,-0.836 0.66,0 1.342001,0.066 1.826,0.528 0.484,0.44 0.594,1.122 0.66,1.782 -3.827996,0.022 -7.678,0.286 -7.678,4.07 m 2.2,0 c 0,-1.65 1.980002,-1.936 3.96,-1.936 0.528,0 1.034001,0.022 1.518,0.044 l 0,0.88 c -0.703999,1.144 -1.848001,2.552 -3.498,2.552 l -0.176,0 c -0.747999,-0.044 -1.804,-0.594 -1.804,-1.54"
         id="path3092" />
      <path
         d="m -45.392757,152.62375 c 0,2.794 0.682002,4.884 2.53,5.874 0.725999,0.396 1.452001,0.55 2.178,0.55 1.935998,0 3.652,-1.232 4.07,-2.904 l 0,-0.264 c 0,-0.594 -0.484001,-1.1 -1.078,-1.1 -0.55,0 -0.968,0.418 -1.078,0.858 -0.154,0.594 -0.682001,0.99 -1.276,1.122 -0.264,0.066 -0.528,0.088 -0.748,0.088 -2.001998,0 -2.398,-2.156 -2.398,-4.224 0,-1.452 0.308001,-2.86 1.32,-3.344 0.373999,-0.176 0.88,-0.264 1.408,-0.264 0.725999,0 1.408,0.198 1.584,0.704 0.154,0.462 0.528,0.858 1.056,0.858 0.615999,0 1.078,-0.484 1.078,-1.1 l 0,-0.264 c -0.33,-1.342 -1.540002,-2.156 -2.948,-2.332 -0.33,-0.044 -0.638001,-0.066 -0.946,-0.066 -3.321997,0 -4.752,2.486 -4.752,5.808"
         id="path3094" />
      <path
         d="m -32.37432,148.15775 c 0,0.594 0.506001,1.1 1.1,1.1 l 1.65,0 -0.066,4.972 0,0.264 c 0,2.09 0.506002,3.564 2.112,4.18 0.418,0.154 1.078001,0.264 1.738,0.264 1.363999,0 2.838,-0.418 2.838,-1.54 0,-0.594 -0.506,-1.1 -1.1,-1.1 -0.637999,0 -1.188,0.44 -1.87,0.44 l -0.044,0 c -1.473998,0 -1.474,-1.012 -1.474,-2.464 l 0.066,-5.016 3.322,0 c 0.594,0 1.1,-0.506 1.1,-1.1 0,-0.594 -0.506,-1.1 -1.1,-1.1 l -3.278,0 0.044,-2.222 c 0,-0.594 -0.484,-1.1 -1.1,-1.1 -0.615999,0 -1.1,0.462 -1.1,1.1 l -0.044,2.222 -1.694,0 c -0.593999,0 -1.1,0.506 -1.1,1.1"
         id="path3096" />
      <path
         d="m -17.287882,148.22375 c 0,0.594 0.506,1.1 1.1,1.1 l 2.86,0 0,8.514 c 0,0.594 0.506,1.1 1.1,1.1 0.593999,0 1.1,-0.484 1.1,-1.1 l 0,-9.614 c 0,-0.616 -0.484001,-1.1 -1.1,-1.1 l -3.96,0 c -0.616,0 -1.1,0.506 -1.1,1.1 m 3.036,-4.466 c 0,0.616 0.506,1.1 1.1,1.1 l 0.99,0 c 0.593999,0 1.1,-0.484 1.1,-1.1 l 0,-1.012 c 0,-0.616 -0.506001,-1.1 -1.1,-1.1 l -0.99,0 c -0.594,0 -1.1,0.484 -1.1,1.1 l 0,1.012"
         id="path3098" />
      <path
         d="m -4.8854447,152.86575 c 0,3.476 1.9580035,6.138 5.5,6.138 3.5199965,0 5.5,-2.706 5.5,-6.138 0,-3.476 -2.0240035,-6.182 -5.5,-6.182 -3.5859964,0 -5.5,2.706 -5.5,6.182 m 2.2,0 c 0,-2.178 1.0560022,-3.982 3.3,-3.982 2.2219978,0 3.3,1.782 3.3,3.982 0,2.178 -1.0340023,3.938 -3.3,3.938 -2.2659977,0 -3.3,-1.76 -3.3,-3.938"
         id="path3100" />
      <path
         d="m 9.3209928,157.83775 c 0,0.594 0.5060006,1.1 1.1000002,1.1 0.593999,0 1.1,-0.506 1.1,-1.1 l 0,-5.852 c 0.571999,-1.408 1.716002,-2.992 3.608,-2.992 2.001998,0 2.376,1.386 2.376,3.366 l 0,5.478 c 0,0.616 0.506,1.1 1.1,1.1 0.571999,0 1.1,-0.506 1.1,-1.1 l 0,-5.478 c 0,-3.278 -1.276004,-5.566 -4.576,-5.566 -1.495999,0 -2.684001,0.55 -3.608,1.364 l 0,-0.198 c 0,-0.594 -0.506001,-1.078 -1.1,-1.078 -0.5939996,0 -1.1000002,0.484 -1.1000002,1.078 l 0,9.878"
         id="path3102" />
    </g>
    <g
       transform="matrix(0.70710678,-0.70710678,0.70710678,0.70710678,0,0)"
       id="text3136"
       style="font-size:22px;font-style:normal;font-variant:normal;font-weight:bold;font-stretch:normal;line-height:125%;letter-spacing:-2px;word-spacing:0px;fill:#000000;fill-opacity:1;stroke:none;display:inline;font-family:OCRB;-inkscape-font-specification:OCRB Bold">
      <path
         d="m -334.34658,381.73903 c 0.044,3.938 1.122,7.81 5.192,7.81 1.936,0 3.432,-1.188 3.718,-2.86 l 0,-0.198 c 0,-0.594 -0.484,-1.1 -1.078,-1.1 -0.528,0 -0.99,0.418 -1.078,0.902 -0.132,0.682 -0.77,1.056 -1.562,1.056 -2.64,0 -2.948,-3.146 -2.992,-5.654 l 0,-0.374 c 0,-2.552 0.462,-5.478 2.882,-5.61 l 0.11,0 c 0.396,0 0.77,0.11 1.1,0.352 0.616,0.462 0.462,1.606 1.54,1.606 0.594,0 1.078,-0.506 1.078,-1.1 l 0,-0.22 c -0.374,-1.65 -1.848,-2.838 -3.762,-2.838 l -0.11,0 c -3.916,0.088 -5.038,3.96001 -5.038,7.986 l 0,0.242"
         id="path3105" />
      <path
         d="m -321.50414,383.47703 c 0,3.476 1.958,6.138 5.5,6.138 3.51999,0 5.5,-2.706 5.5,-6.138 0,-3.476 -2.02401,-6.182 -5.5,-6.182 -3.586,0 -5.5,2.706 -5.5,6.182 m 2.2,0 c 0,-2.178 1.056,-3.982 3.3,-3.982 2.22199,0 3.3,1.782 3.3,3.982 0,2.178 -1.03401,3.938 -3.3,3.938 -2.266,0 -3.3,-1.76 -3.3,-3.938"
         id="path3107" />
      <path
         d="m -307.60571,388.44903 c 0,0.616 0.50601,1.1 1.1,1.1 0.594,0 1.1,-0.506 1.1,-1.1 l 0,-6.116 c 0,-0.858 0.57201,-2.728 1.54,-2.728 0.484,0 0.638,0.55 0.66,0.946 l 0,7.898 c 0,0.616 0.50601,1.1 1.1,1.1 0.594,0 1.1,-0.506 1.1,-1.1 l 0,-6.116 c 0,-0.88 0.59401,-2.728 1.54,-2.728 0.484,0 0.638,0.55 0.66,0.946 l 0,7.898 c 0,0.616 0.50601,1.1 1.1,1.1 0.594,0 1.1,-0.506 1.1,-1.1 l 0,-8.074 c 0,-1.54 -1.188,-2.97 -2.86,-2.97 -0.87999,0 -1.65,0.418 -2.222,1.034 -0.50599,-0.616 -1.276,-1.034 -2.178,-1.034 -0.68199,0 -1.254,0.22 -1.738,0.572 -0.198,-0.308 -0.528,-0.506 -0.902,-0.506 -0.59399,0 -1.1,0.484 -1.1,1.1 l 0,9.878"
         id="path3109" />
      <path
         d="m -293.46527,392.21103 c 0,0.594 0.484,1.1 1.1,1.1 0.616,0 1.1,-0.484 1.1,-1.1 l 0,-3.784 c 0.814,0.66 1.826,1.122 2.992,1.188 l 0.374,0 c 3.388,0 5.192,-2.662 5.192,-6.006 0,-3.19 -1.32,-5.368 -4.004,-6.028 -0.484,-0.11 -0.924,-0.176 -1.364,-0.176 -1.254,0 -2.332,0.462 -3.19,1.166 0,-0.616 -0.506,-1.1 -1.1,-1.1 -0.594,0 -1.1,0.506 -1.1,1.1 l 0,13.64 m 2.2,-7.48 0,-2.596 c 0.528,-1.166 1.628,-2.42 3.124,-2.53 0.11,0 0.198,-0.022 0.286,-0.022 2.178,0 2.948,1.892 2.948,4.026 0,1.87 -0.704,3.278 -2.31,3.696 -0.286,0.066 -0.55,0.11 -0.814,0.11 -1.694,0 -2.64,-1.518 -3.234,-2.684"
         id="path3111" />
      <path
         d="m -276.72883,384.24703 c 0,1.562 0.176,2.684 0.924,3.674 0.968,1.276 2.398,1.496 4.642,1.496 0.594,0 1.1,-0.506 1.1,-1.1 0,-0.594 -0.506,-1.1 -1.1,-1.1 -0.572,0 -1.408,0 -1.716,-0.044 -1.43,-0.198 -1.672,-1.364 -1.672,-2.926 l 0.154,-10.868 c 0,-0.616 -0.506,-1.122 -1.1,-1.122 -0.616,0 -1.1,0.506 -1.1,1.122 l -0.132,10.868"
         id="path3113" />
      <path
         d="m -265.60239,383.23503 c 0,3.014 1.232,5.302 3.586,6.072 0.55,0.176 1.298,0.286 2.09,0.286 1.716,0 3.564,-0.506 3.564,-1.958 0,-0.616 -0.506,-1.1 -1.122,-1.1 -0.286,0 -0.55,0.11 -0.748,0.308 -0.286,0.286 -0.638,0.462 -1.1,0.528 -0.264,0.044 -0.528,0.066 -0.77,0.066 -2.068,0 -3.058,-1.386 -3.256,-3.366 l 7.04,0 c 0.594,0 1.1,-0.506 1.1,-1.1 0,-3.256 -1.73801,-5.676 -5.082,-5.676 l -0.132,0 c -3.3,0.066 -5.17,2.662 -5.17,5.94 m 2.354,-1.364 c 0.374,-1.364 1.298,-2.376 2.86,-2.376 1.914,0 2.486,0.88 2.794,2.376 l -5.654,0"
         id="path3115" />
      <path
         d="m -252.01196,388.44903 c 0,0.616 0.50601,1.1 1.1,1.1 0.594,0 1.1,-0.506 1.1,-1.1 l 0,-6.116 c 0,-0.858 0.57201,-2.728 1.54,-2.728 0.484,0 0.638,0.55 0.66,0.946 l 0,7.898 c 0,0.616 0.50601,1.1 1.1,1.1 0.594,0 1.1,-0.506 1.1,-1.1 l 0,-6.116 c 0,-0.88 0.59401,-2.728 1.54,-2.728 0.484,0 0.638,0.55 0.66,0.946 l 0,7.898 c 0,0.616 0.50601,1.1 1.1,1.1 0.594,0 1.1,-0.506 1.1,-1.1 l 0,-8.074 c 0,-1.54 -1.188,-2.97 -2.86,-2.97 -0.87999,0 -1.65,0.418 -2.222,1.034 -0.50599,-0.616 -1.276,-1.034 -2.178,-1.034 -0.68199,0 -1.254,0.22 -1.738,0.572 -0.198,-0.308 -0.528,-0.506 -0.902,-0.506 -0.59399,0 -1.1,0.484 -1.1,1.1 l 0,9.878"
         id="path3117" />
      <path
         d="m -237.80552,383.23503 c 0,3.014 1.232,5.302 3.586,6.072 0.55,0.176 1.298,0.286 2.09,0.286 1.716,0 3.564,-0.506 3.564,-1.958 0,-0.616 -0.506,-1.1 -1.122,-1.1 -0.286,0 -0.55,0.11 -0.748,0.308 -0.286,0.286 -0.638,0.462 -1.1,0.528 -0.264,0.044 -0.528,0.066 -0.77,0.066 -2.068,0 -3.058,-1.386 -3.256,-3.366 l 7.04,0 c 0.594,0 1.1,-0.506 1.1,-1.1 0,-3.256 -1.738,-5.676 -5.082,-5.676 l -0.132,0 c -3.29999,0.066 -5.17,2.662 -5.17,5.94 m 2.354,-1.364 c 0.374,-1.364 1.298,-2.376 2.86,-2.376 1.914,0 2.486,0.88 2.794,2.376 l -5.654,0"
         id="path3119" />
      <path
         d="m -223.90708,388.44903 c 0,0.594 0.506,1.1 1.1,1.1 0.594,0 1.1,-0.506 1.1,-1.1 l 0,-5.852 c 0.572,-1.408 1.716,-2.992 3.608,-2.992 2.002,0 2.376,1.386 2.376,3.366 l 0,5.478 c 0,0.616 0.506,1.1 1.1,1.1 0.572,0 1.1,-0.506 1.1,-1.1 l 0,-5.478 c 0,-3.278 -1.276,-5.566 -4.576,-5.566 -1.496,0 -2.684,0.55 -3.608,1.364 l 0,-0.198 c 0,-0.594 -0.506,-1.078 -1.1,-1.078 -0.594,0 -1.1,0.484 -1.1,1.078 l 0,9.878"
         id="path3121" />
      <path
         d="m -210.00864,378.76903 c 0,0.594 0.506,1.1 1.1,1.1 l 1.65,0 -0.066,4.972 0,0.264 c 0,2.09 0.506,3.564 2.112,4.18 0.418,0.154 1.078,0.264 1.738,0.264 1.364,0 2.838,-0.418 2.838,-1.54 0,-0.594 -0.506,-1.1 -1.1,-1.1 -0.638,0 -1.188,0.44 -1.87,0.44 l -0.044,0 c -1.474,0 -1.474,-1.012 -1.474,-2.464 l 0.066,-5.016 3.322,0 c 0.594,0 1.1,-0.506 1.1,-1.1 0,-0.594 -0.506,-1.1 -1.1,-1.1 l -3.278,0 0.044,-2.222 c 0,-0.594 -0.484,-1.1 -1.1,-1.1 -0.616,0 -1.1,0.462 -1.1,1.1 l -0.044,2.222 -1.694,0 c -0.594,0 -1.1,0.506 -1.1,1.1"
         id="path3123" />
    </g>
    <g
       transform="matrix(0.70710678,-0.70710678,0.70710678,0.70710678,0,0)"
       id="text3144"
       style="font-size:22px;font-style:normal;font-variant:normal;font-weight:bold;font-stretch:normal;line-height:125%;letter-spacing:-2px;word-spacing:0px;fill:#000000;fill-opacity:1;stroke:none;display:inline;font-family:OCRB;-inkscape-font-specification:OCRB Bold">
      <path
         d="m -417.01929,490.8017 c 0,1.606 0.22,3.212 0.66,4.312 0.726,1.76 2.57401,3.278 4.576,3.278 0.858,0 1.76,-0.286 2.618,-0.946 l 1.188,1.54 c 0.198,0.264 0.506,0.33 0.792,0.33 0.594,0 1.122,-0.506 1.122,-1.1 0,-0.242 -0.088,-0.484 -0.242,-0.682 l -1.43,-1.848 c 0.704,-1.32 1.078,-3.08 1.078,-4.862 0,-3.71799 -1.628,-7.48 -5.126,-7.48 l -0.198,0 c -2.17799,0 -3.718,1.716 -4.378,3.256 -0.44,1.056 -0.66,2.618 -0.66,4.202 m 2.266,-0.528 0,-1.166 c 0.11,-1.65 1.03401,-3.564 2.816,-3.564 2.112,0 3.168,2.70601 3.168,5.39 0,0.99 -0.154,1.98 -0.44,2.838 l -1.738,-2.244 c -0.198,-0.242 -0.528,-0.33 -0.836,-0.33 -0.594,0 -1.078,0.506 -1.078,1.1 0,0.264 0.088,0.484 0.242,0.682 l 2.134,2.75 c -0.396,0.286 -0.836,0.462 -1.364,0.462 -0.22,0 -0.44,-0.022 -0.682,-0.088 -2.06799,-0.55 -2.222,-3.058 -2.222,-5.83"
         id="path3126" />
      <path
         d="m -402.85685,493.7717 c 0,0.858 0.022,1.716 0.22,2.464 0.528,1.892 1.98,3.168 4.312,3.212 l 0.088,0 c 1.496,0 2.662,-0.528 3.564,-1.32 l 0,0.154 c 0,0.616 0.506,1.1 1.1,1.1 0.572,0 1.1,-0.506 1.1,-1.1 l 0,-9.878 c 0,-0.594 -0.528,-1.1 -1.1,-1.1 -0.594,0 -1.1,0.484 -1.1,1.1 l 0,5.698 c -0.506,1.496 -1.584,3.146 -3.498,3.146 l -0.11,0 c -2.134,-0.066 -2.376,-1.496 -2.376,-3.806 l 0,-5.038 c 0,-0.594 -0.528,-1.1 -1.122,-1.1 -0.572,0 -1.078,0.528 -1.078,1.1 l 0,5.038 0,0.33"
         id="path3128" />
      <path
         d="m -389.26641,493.3097 c 0,3.476 1.958,6.138 5.5,6.138 3.52,0 5.5,-2.706 5.5,-6.138 0,-3.47599 -2.024,-6.182 -5.5,-6.182 -3.586,0 -5.5,2.70601 -5.5,6.182 m 2.2,0 c 0,-2.17799 1.056,-3.982 3.3,-3.982 2.222,0 3.3,1.78201 3.3,3.982 0,2.178 -1.034,3.938 -3.3,3.938 -2.266,0 -3.3,-1.76 -3.3,-3.938"
         id="path3130" />
      <path
         d="m -375.05997,488.6017 c 0,0.594 0.506,1.1 1.1,1.1 l 1.65,0 -0.066,4.972 0,0.264 c 0,2.09 0.506,3.564 2.112,4.18 0.418,0.154 1.078,0.264 1.738,0.264 1.364,0 2.838,-0.418 2.838,-1.54 0,-0.594 -0.506,-1.1 -1.1,-1.1 -0.638,0 -1.188,0.44 -1.87,0.44 l -0.044,0 c -1.474,0 -1.474,-1.012 -1.474,-2.464 l 0.066,-5.016 3.322,0 c 0.594,0 1.1,-0.506 1.1,-1.1 0,-0.594 -0.506,-1.1 -1.1,-1.1 l -3.278,0 0.044,-2.222 c 0,-0.594 -0.484,-1.1 -1.1,-1.1 -0.616,0 -1.1,0.462 -1.1,1.1 l -0.044,2.222 -1.694,0 c -0.594,0 -1.1,0.506 -1.1,1.1"
         id="path3132" />
      <path
         d="m -361.16154,493.0677 c 0,3.014 1.23201,5.302 3.586,6.072 0.55,0.176 1.298,0.286 2.09,0.286 1.716,0 3.564,-0.506 3.564,-1.958 0,-0.616 -0.506,-1.1 -1.122,-1.1 -0.286,0 -0.55,0.11 -0.748,0.308 -0.286,0.286 -0.638,0.462 -1.1,0.528 -0.264,0.044 -0.528,0.066 -0.77,0.066 -2.06799,0 -3.058,-1.386 -3.256,-3.366 l 7.04,0 c 0.594,0 1.1,-0.506 1.1,-1.1 0,-3.25599 -1.738,-5.676 -5.082,-5.676 l -0.132,0 c -3.29999,0.066 -5.17,2.66201 -5.17,5.94 m 2.354,-1.364 c 0.374,-1.364 1.29801,-2.376 2.86,-2.376 1.914,0 2.486,0.88 2.794,2.376 l -5.654,0"
         id="path3134" />
    </g>
    <g
       transform="matrix(0.70710678,-0.70710678,0.70710678,0.70710678,0,0)"
       id="text3148"
       style="font-size:22px;font-style:normal;font-variant:normal;font-weight:bold;font-stretch:normal;line-height:125%;letter-spacing:-2px;word-spacing:0px;fill:#000000;fill-opacity:1;stroke:none;display:inline;font-family:OCRB;-inkscape-font-specification:OCRB Bold">
      <path
         d="m -538.30702,611.76822 c 0.286,2.15599 2.26601,3.696 4.598,3.696 0.264,0 0.55,-0.022 0.836,-0.066 2.31,-0.374 4.07,-2.02401 4.07,-4.422 0,-3.476 -3.19,-4.29 -5.5,-5.478 -0.83599,-0.44 -1.672,-0.924 -1.672,-2.178 0,-1.122 1.32001,-1.738 2.552,-1.738 0.638,0 1.254,0.154 1.672,0.506 0.594,0.506 0.59401,1.694 1.65,1.694 0.616,0 1.1,-0.506 1.1,-1.1 0,-0.088 -0.022,-0.198 -0.044,-0.286 -0.506,-1.826 -2.112,-3.014 -4.4,-3.014 l -0.132,0 c -2.41999,0.044 -4.598,1.584 -4.598,3.938 0,3.36599 3.10201,4.224 5.368,5.368 0.902,0.462 1.804,0.946 1.804,2.288 0,0.638 -0.242,1.298 -0.748,1.672 -0.528,0.396 -1.232,0.616 -1.914,0.616 -1.16599,0 -2.266,-0.594 -2.442,-1.804 -0.066,-0.506 -0.528,-0.946 -1.1,-0.946 -0.594,0 -1.1,0.506 -1.1,1.1 l 0,0.154"
         id="path3137" />
      <path
         d="m -523.66058,604.70622 c 0,0.594 0.506,1.1 1.1,1.1 l 2.86,0 0,8.514 c 0,0.594 0.506,1.1 1.1,1.1 0.594,0 1.1,-0.484 1.1,-1.1 l 0,-9.614 c 0,-0.616 -0.484,-1.1 -1.1,-1.1 l -3.96,0 c -0.616,0 -1.1,0.506 -1.1,1.1 m 3.036,-4.466 c 0,0.616 0.506,1.1 1.1,1.1 l 0.99,0 c 0.594,0 1.1,-0.484 1.1,-1.1 l 0,-1.012 c 0,-0.616 -0.506,-1.1 -1.1,-1.1 l -0.99,0 c -0.594,0 -1.1,0.484 -1.1,1.1 l 0,1.012"
         id="path3139" />
      <path
         d="m -508.17814,610.11822 c 0,1.56199 0.176,2.684 0.924,3.674 0.968,1.276 2.398,1.496 4.642,1.496 0.594,0 1.1,-0.506 1.1,-1.1 0,-0.594 -0.506,-1.1 -1.1,-1.1 -0.572,0 -1.408,0 -1.716,-0.044 -1.43,-0.198 -1.672,-1.36401 -1.672,-2.926 l 0.154,-10.868 c 0,-0.616 -0.506,-1.122 -1.1,-1.122 -0.616,0 -1.1,0.506 -1.1,1.122 l -0.132,10.868"
         id="path3141" />
      <path
         d="m -497.0517,609.10622 c 0,3.01399 1.232,5.302 3.586,6.072 0.55,0.176 1.298,0.286 2.09,0.286 1.716,0 3.564,-0.50601 3.564,-1.958 0,-0.616 -0.506,-1.1 -1.122,-1.1 -0.286,0 -0.55,0.11 -0.748,0.308 -0.286,0.286 -0.638,0.462 -1.1,0.528 -0.264,0.044 -0.528,0.066 -0.77,0.066 -2.068,0 -3.058,-1.38601 -3.256,-3.366 l 7.04,0 c 0.594,0 1.1,-0.506 1.1,-1.1 0,-3.256 -1.73801,-5.676 -5.082,-5.676 l -0.132,0 c -3.3,0.066 -5.17,2.662 -5.17,5.94 m 2.354,-1.364 c 0.374,-1.364 1.298,-2.376 2.86,-2.376 1.91399,0 2.486,0.88 2.794,2.376 l -5.654,0"
         id="path3143" />
      <path
         d="m -483.15327,614.32022 c 0,0.594 0.506,1.1 1.1,1.1 0.594,0 1.1,-0.506 1.1,-1.1 l 0,-5.852 c 0.572,-1.408 1.71601,-2.992 3.608,-2.992 2.002,0 2.376,1.386 2.376,3.366 l 0,5.478 c 0,0.616 0.506,1.1 1.1,1.1 0.572,0 1.1,-0.506 1.1,-1.1 l 0,-5.478 c 0,-3.278 -1.276,-5.566 -4.576,-5.566 -1.49599,0 -2.684,0.55 -3.608,1.364 l 0,-0.198 c 0,-0.594 -0.506,-1.078 -1.1,-1.078 -0.594,0 -1.1,0.484 -1.1,1.078 l 0,9.878"
         id="path3145" />
      <path
         d="m -468.37483,609.10622 c 0,2.79399 0.682,4.884 2.53,5.874 0.726,0.396 1.452,0.55 2.178,0.55 1.936,0 3.652,-1.23201 4.07,-2.904 l 0,-0.264 c 0,-0.594 -0.484,-1.1 -1.078,-1.1 -0.55,0 -0.968,0.418 -1.078,0.858 -0.154,0.594 -0.682,0.99 -1.276,1.122 -0.264,0.066 -0.528,0.088 -0.748,0.088 -2.002,0 -2.398,-2.15601 -2.398,-4.224 0,-1.452 0.308,-2.86 1.32,-3.344 0.374,-0.176 0.88,-0.264 1.408,-0.264 0.726,0 1.408,0.198 1.584,0.704 0.154,0.462 0.528,0.858 1.056,0.858 0.616,0 1.078,-0.484 1.078,-1.1 l 0,-0.264 c -0.33,-1.342 -1.54,-2.156 -2.948,-2.332 -0.33,-0.044 -0.638,-0.066 -0.946,-0.066 -3.32199,0 -4.752,2.486 -4.752,5.808"
         id="path3147" />
      <path
         d="m -455.35639,609.10622 c 0,3.01399 1.232,5.302 3.586,6.072 0.55,0.176 1.298,0.286 2.09,0.286 1.716,0 3.564,-0.50601 3.564,-1.958 0,-0.616 -0.506,-1.1 -1.122,-1.1 -0.286,0 -0.55,0.11 -0.748,0.308 -0.286,0.286 -0.638,0.462 -1.1,0.528 -0.264,0.044 -0.528,0.066 -0.77,0.066 -2.068,0 -3.058,-1.38601 -3.256,-3.366 l 7.04,0 c 0.594,0 1.1,-0.506 1.1,-1.1 0,-3.256 -1.738,-5.676 -5.082,-5.676 l -0.132,0 c -3.3,0.066 -5.17,2.662 -5.17,5.94 m 2.354,-1.364 c 0.374,-1.364 1.298,-2.376 2.86,-2.376 1.914,0 2.486,0.88 2.794,2.376 l -5.654,0"
         id="path3149" />
    </g>
    <g
       transform="matrix(0.70710678,-0.70710678,0.70710678,0.70710678,0,0)"
       id="text3152"
       style="font-size:22px;font-style:normal;font-variant:normal;font-weight:bold;font-stretch:normal;line-height:125%;letter-spacing:-2px;word-spacing:0px;fill:#000000;fill-opacity:1;stroke:none;display:inline;font-family:OCRB;-inkscape-font-specification:OCRB Bold">
      <path
         d="m -640.19091,721.04192 c 0.044,3.93799 1.122,7.81 5.192,7.81 1.936,0 3.432,-1.188 3.718,-2.86 l 0,-0.198 c 0,-0.594 -0.484,-1.1 -1.078,-1.1 -0.528,0 -0.99,0.418 -1.078,0.902 -0.132,0.682 -0.77,1.056 -1.562,1.056 -2.64,0 -2.948,-3.146 -2.992,-5.654 l 0,-0.374 c 0,-2.552 0.462,-5.478 2.882,-5.61 l 0.11,0 c 0.396,0 0.77,0.11 1.1,0.352 0.616,0.462 0.462,1.606 1.54,1.606 0.594,0 1.078,-0.506 1.078,-1.1 l 0,-0.22 c -0.374,-1.65 -1.848,-2.838 -3.762,-2.838 l -0.11,0 c -3.916,0.088 -5.038,3.96 -5.038,7.986 l 0,0.242"
         id="path3152" />
      <path
         d="m -626.40247,727.75192 c 0,0.616 0.506,1.1 1.1,1.1 0.594,0 1.1,-0.506 1.1,-1.1 l 0,-6.424 c 0.594,-1.144 1.452,-2.42 3.102,-2.42 1.562,0 1.606,1.518 1.606,3.102 l 0,0.264 0,5.478 c 0,0.594 0.506,1.1 1.1,1.1 0.594,0 1.1,-0.506 1.1,-1.1 l 0,-5.478 c 0,-0.946 0,-1.98 -0.22,-2.794 -0.44,-1.562 -1.738,-2.772 -3.586,-2.772 -1.342,0 -2.332,0.462 -3.102,1.1 l 0,-5.148 c 0,-0.594 -0.506,-1.1 -1.1,-1.1 -0.594,0 -1.1,0.484 -1.1,1.1 l 0,15.092"
         id="path3154" />
      <path
         d="m -613.14204,725.17792 c 0,2.2 2.00201,3.608 3.85,3.74 0.132,0 0.264,0.022 0.374,0.022 1.386,0 2.53001,-0.572 3.454,-1.364 l 0,0.176 c 0,0.616 0.50601,1.1 1.1,1.1 0.594,0 1.1,-0.506 1.1,-1.1 l 0,-6.82 c 0,-1.21 -0.484,-2.398 -1.364,-3.234 -0.87999,-0.814 -2.112,-1.1 -3.322,-1.1 -1.36399,0 -2.662,0.506 -3.762,1.298 -0.24199,0.176 -0.418,0.55 -0.418,0.858 0,0.616 0.48401,1.1 1.1,1.1 0.242,0 0.48401,-0.066 0.682,-0.22 0.682,-0.55 1.51801,-0.836 2.398,-0.836 0.66,0 1.34201,0.066 1.826,0.528 0.484,0.44 0.594,1.122 0.66,1.782 -3.82799,0.022 -7.678,0.286 -7.678,4.07 m 2.2,0 c 0,-1.65 1.98001,-1.936 3.96,-1.936 0.528,0 1.03401,0.022 1.518,0.044 l 0,0.88 c -0.70399,1.144 -1.848,2.552 -3.498,2.552 l -0.176,0 c -0.74799,-0.044 -1.804,-0.594 -1.804,-1.54"
         id="path3156" />
      <path
         d="m -599.5516,722.77992 c 0,3.47599 1.95801,6.138 5.5,6.138 3.52,0 5.5,-2.70601 5.5,-6.138 0,-3.476 -2.024,-6.182 -5.5,-6.182 -3.58599,0 -5.5,2.706 -5.5,6.182 m 2.2,0 c 0,-2.178 1.056,-3.982 3.3,-3.982 2.222,0 3.3,1.782 3.3,3.982 0,2.178 -1.034,3.938 -3.3,3.938 -2.266,0 -3.3,-1.76 -3.3,-3.938"
         id="path3158" />
      <path
         d="m -584.77316,726.43192 c 0,0.198 0.022,0.396 0.132,0.572 0.814,1.32 2.222,1.914 4.268,1.914 l 0.22,0 c 2.53,-0.066 4.752,-1.034 4.752,-3.63 0,-3.058 -3.256,-3.344 -5.698,-3.982 -0.66,-0.176 -1.342,-0.462 -1.342,-1.298 0,-1.122 1.276,-1.21 2.288,-1.21 l 0.572,0 c 0.66,0.044 1.408,0.132 1.562,0.748 0.11,0.462 0.55,0.814 1.078,0.814 0.594,0 1.1,-0.506 1.1,-1.1 0,-0.088 -0.022,-0.176 -0.044,-0.286 -0.396,-1.496 -1.98,-2.288 -3.586,-2.376 l -0.682,0 c -2.354,0 -4.488,0.946 -4.488,3.41 0,3.05799 3.036,3.432 5.456,4.07 0.66,0.176 1.584,0.396 1.584,1.21 0,1.056 -1.364,1.496 -2.684,1.496 -0.726,0 -1.408,-0.132 -1.87,-0.352 -0.55,-0.264 -0.726,-1.1 -1.518,-1.1 -0.594,0 -1.1,0.484 -1.1,1.1"
         id="path3160" />
    </g>
    <g
       id="text3156"
       style="font-size:22px;font-style:normal;font-variant:normal;font-weight:bold;font-stretch:normal;line-height:125%;letter-spacing:-2px;word-spacing:0px;fill:#000000;fill-opacity:1;stroke:none;display:inline;font-family:OCRB;-inkscape-font-specification:OCRB Bold">
      <path
         d="m 258.62,40.986158 c 0,0.593999 0.506,1.1 1.1,1.1 0.594,0 1.1,-0.506001 1.1,-1.1 l 0,-6.072 3.938,0 c 0.594,0 1.1,-0.506001 1.1,-1.1 0,-0.594 -0.528,-1.1 -1.1,-1.1 l -3.938,0 0,-4.07 4.928,0 c 0.594,0 1.1,-0.484001 1.1,-1.1 0,-0.616 -0.484,-1.1 -1.1,-1.1 l -6.028,0 c -0.616,0 -1.1,0.506 -1.1,1.1 l 0,13.442"
         id="path3163" />
      <path
         d="m 270.38444,36.080158 c 0,3.475996 1.958,6.138 5.5,6.138 3.51999,0 5.5,-2.706004 5.5,-6.138 0,-3.475997 -2.02401,-6.182 -5.5,-6.182 -3.586,0 -5.5,2.706003 -5.5,6.182 m 2.2,0 c 0,-2.177998 1.056,-3.982 3.3,-3.982 2.222,0 3.3,1.782002 3.3,3.982 0,2.177997 -1.034,3.938 -3.3,3.938 -2.266,0 -3.3,-1.760003 -3.3,-3.938"
         id="path3165" />
      <path
         d="m 287.36287,36.850158 c 0,1.561998 0.17601,2.684001 0.924,3.674 0.968,1.275998 2.39801,1.496 4.642,1.496 0.594,0 1.10001,-0.506001 1.10001,-1.1 0,-0.594 -0.50601,-1.1 -1.10001,-1.1 -0.57199,0 -1.408,-10e-7 -1.716,-0.044 -1.42999,-0.198 -1.67199,-1.364002 -1.67199,-2.926 l 0.154,-10.868 c 0,-0.616 -0.50601,-1.122 -1.10001,-1.122 -0.61599,0 -1.1,0.506 -1.1,1.122 l -0.132,10.868"
         id="path3167" />
      <path
         d="m 301.26131,36.850158 c 0,1.561998 0.176,2.684001 0.924,3.674 0.968,1.275998 2.398,1.496 4.642,1.496 0.594,0 1.1,-0.506001 1.1,-1.1 0,-0.594 -0.506,-1.1 -1.1,-1.1 -0.572,0 -1.408,-10e-7 -1.716,-0.044 -1.43,-0.198 -1.672,-1.364002 -1.672,-2.926 l 0.154,-10.868 c 0,-0.616 -0.506,-1.122 -1.1,-1.122 -0.616,0 -1.1,0.506 -1.1,1.122 l -0.132,10.868"
         id="path3169" />
      <path
         d="m 312.07975,36.080158 c 0,3.475996 1.958,6.138 5.5,6.138 3.52,0 5.5,-2.706004 5.5,-6.138 0,-3.475997 -2.024,-6.182 -5.5,-6.182 -3.586,0 -5.5,2.706003 -5.5,6.182 m 2.2,0 c 0,-2.177998 1.056,-3.982 3.3,-3.982 2.222,0 3.3,1.782002 3.3,3.982 0,2.177997 -1.034,3.938 -3.3,3.938 -2.266,0 -3.3,-1.760003 -3.3,-3.938"
         id="path3171" />
      <path
         d="m 326.02219,31.174158 1.21,10.01 c 0.066,0.505999 0.528,0.968 1.1,0.968 l 1.1,0 c 0.506,0 0.88,-0.352001 1.034,-0.77 l 1.012,-3.498 1.012,3.498 c 0.132,0.417999 0.528,0.77 1.056,0.77 l 1.078,0 c 0.55,0 1.034,-0.440001 1.078,-0.968 l 1.232,-10.01 0,-0.088 c 0,-0.528 -0.55,-1.012 -1.122,-1.012 -0.572,0 -1.012,0.462 -1.1,0.968 l -0.858,7.128 -0.814,-2.772 c -0.132,-0.44 -0.528,-0.792 -1.056,-0.792 l -1.012,0 c -0.506,0 -0.946,0.352 -1.056,0.792 l -0.814,2.772 -0.88,-7.128 c -0.044,-0.528 -0.528,-0.968 -1.078,-0.968 -0.594,0 -1.122,0.506 -1.122,1.1"
         id="path3173" />
      <path
         d="m 341.37263,31.438158 c 0,0.593999 0.506,1.1 1.09999,1.1 l 2.86,0 0,8.514 c 0,0.593999 0.50601,1.1 1.10001,1.1 0.59399,0 1.09999,-0.484001 1.09999,-1.1 l 0,-9.614 c 0,-0.616 -0.484,-1.1 -1.09999,-1.1 l -3.96001,0 c -0.61599,0 -1.09999,0.506 -1.09999,1.1 m 3.03599,-4.466 c 0,0.615999 0.50601,1.1 1.1,1.1 l 0.99,0 c 0.594,0 1.10001,-0.484001 1.10001,-1.1 l 0,-1.012 c 0,-0.616 -0.50601,-1.1 -1.10001,-1.1 l -0.99,0 c -0.59399,0 -1.1,0.484 -1.1,1.1 l 0,1.012"
         id="path3175" />
      <path
         d="m 354.08306,41.052158 c 0,0.593999 0.506,1.1 1.1,1.1 0.594,0 1.1,-0.506001 1.1,-1.1 l 0,-5.852 c 0.572,-1.407999 1.716,-2.992 3.608,-2.992 2.002,0 2.376,1.386002 2.376,3.366 l 0,5.478 c 0,0.615999 0.506,1.1 1.1,1.1 0.572,0 1.1,-0.506001 1.1,-1.1 l 0,-5.478 c 0,-3.277997 -1.276,-5.566 -4.576,-5.566 -1.496,0 -2.684,0.55 -3.608,1.364 l 0,-0.198 c 0,-0.594 -0.506,-1.078 -1.1,-1.078 -0.594,0 -1.1,0.484 -1.1,1.078 l 0,9.878"
         id="path3177" />
      <path
         d="m 367.7395,35.948158 c 0,2.991997 1.716,5.5 4.796,5.5 1.452,0 2.508,-0.484001 3.366,-1.21 l 0,0.55 0,0.484 c 0,0.483999 -0.022,0.968 -0.22,1.408 -0.396,0.901999 -1.276,1.166 -2.53,1.166 -0.638,0 -1.562,-1e-6 -2.046,-0.22 -0.572,-0.264 -0.594,-1.1 -1.452,-1.1 -0.594,0 -1.1,0.484 -1.1,1.1 0,0.153999 0.022,0.308 0.088,0.44 0.682,1.583998 2.288,1.98 4.51,1.98 3.036,0 5.016,-1.760003 5.016,-4.554 0,-0.308 -0.022,-0.638001 -0.066,-0.968 l 0,-9.35 c 0,-0.594 -0.506,-1.1 -1.1,-1.1 -0.55,0 -1.056,0.462 -1.1,1.012 -0.704,-0.572 -1.584,-0.968001 -2.64,-1.056 -0.176,-0.022 -0.352,-0.022 -0.528,-0.022 -3.3,0 -4.994,2.596003 -4.994,5.94 m 2.2,0 c 0,-2.111998 0.792,-3.74 2.86,-3.74 l 0.286,0 c 1.518,0.109999 2.376,1.474001 2.816,2.684 l 0,1.848 c -0.682,1.165998 -1.562,2.508 -3.366,2.508 -1.804,0 -2.596,-1.584002 -2.596,-3.3"
         id="path3179" />
    </g>
    <g
       id="text3160"
       style="font-size:22px;font-style:normal;font-variant:normal;font-weight:bold;font-stretch:normal;line-height:125%;letter-spacing:-2px;word-spacing:0px;fill:#000000;fill-opacity:1;stroke:none;display:inline;font-family:OCRB;-inkscape-font-specification:OCRB Bold">
      <path
         d="m 502.66259,36.281896 c 0.286,2.155998 2.266,3.696 4.598,3.696 0.264,0 0.55,-0.022 0.836,-0.066 2.31,-0.374 4.07,-2.024003 4.07,-4.422 0,-3.475997 -3.19,-4.290001 -5.5,-5.478 -0.836,-0.44 -1.672,-0.924001 -1.672,-2.178 0,-1.121999 1.32,-1.738 2.552,-1.738 0.638,0 1.254,0.154 1.672,0.506 0.594,0.505999 0.594,1.694 1.65,1.694 0.616,0 1.1,-0.506001 1.1,-1.1 0,-0.088 -0.022,-0.198 -0.044,-0.286 -0.506,-1.825998 -2.112,-3.014 -4.4,-3.014 l -0.132,0 c -2.42,0.044 -4.598,1.584002 -4.598,3.938 0,3.365996 3.102,4.224001 5.368,5.368 0.902,0.461999 1.804,0.946001 1.804,2.288 0,0.637999 -0.242,1.298 -0.748,1.672 -0.528,0.395999 -1.232,0.616 -1.914,0.616 -1.166,0 -2.266,-0.594001 -2.442,-1.804 -0.066,-0.506 -0.528,-0.946 -1.1,-0.946 -0.594,0 -1.1,0.506 -1.1,1.1 l 0,0.154"
         id="path3182" />
      <path
         d="m 517.30903,29.219896 c 0,0.593999 0.506,1.1 1.1,1.1 l 2.86,0 0,8.514 c 0,0.593999 0.506,1.1 1.1,1.1 0.594,0 1.1,-0.484001 1.1,-1.1 l 0,-9.614 c 0,-0.616 -0.484,-1.1 -1.1,-1.1 l -3.96,0 c -0.616,0 -1.1,0.506 -1.1,1.1 m 3.036,-4.466 c 0,0.615999 0.506,1.1 1.1,1.1 l 0.99,0 c 0.594,0 1.1,-0.484001 1.1,-1.1 l 0,-1.012 c 0,-0.616 -0.506,-1.1 -1.1,-1.1 l -0.99,0 c -0.594,0 -1.1,0.484 -1.1,1.1 l 0,1.012"
         id="path3184" />
      <path
         d="m 529.71146,38.833896 c 0,0.615999 0.506,1.1 1.1,1.1 0.594,0 1.1,-0.506001 1.1,-1.1 l 0,-6.116 c 0,-0.857999 0.572,-2.728 1.54,-2.728 0.484,0 0.638,0.55 0.66,0.946 l 0,7.898 c 0,0.615999 0.506,1.1 1.1,1.1 0.594,0 1.1,-0.506001 1.1,-1.1 l 0,-6.116 c 0,-0.879999 0.594,-2.728 1.54,-2.728 0.484,0 0.638,0.55 0.66,0.946 l 0,7.898 c 0,0.615999 0.506,1.1 1.1,1.1 0.594,0 1.1,-0.506001 1.1,-1.1 l 0,-8.074 c 0,-1.539999 -1.188,-2.97 -2.86,-2.97 -0.88,0 -1.65,0.418 -2.222,1.034 -0.506,-0.616 -1.276,-1.034 -2.178,-1.034 -0.682,0 -1.254,0.22 -1.738,0.572 -0.198,-0.308 -0.528,-0.506 -0.902,-0.506 -0.594,0 -1.1,0.484 -1.1,1.1 l 0,9.878"
         id="path3186" />
      <path
         d="m 543.9179,34.323896 c 0,0.857999 0.022,1.716001 0.22,2.464 0.528,1.891998 1.98,3.168 4.312,3.212 l 0.088,0 c 1.496,0 2.662,-0.528001 3.564,-1.32 l 0,0.154 c 0,0.615999 0.506,1.1 1.1,1.1 0.572,0 1.1,-0.506001 1.1,-1.1 l 0,-9.878 c 0,-0.594 -0.528,-1.1 -1.1,-1.1 -0.594,0 -1.1,0.484 -1.1,1.1 l 0,5.698 c -0.506,1.495998 -1.584,3.146 -3.498,3.146 l -0.11,0 c -2.134,-0.066 -2.376,-1.496002 -2.376,-3.806 l 0,-5.038 c 0,-0.594 -0.528,-1.1 -1.122,-1.1 -0.572,0 -1.078,0.528 -1.078,1.1 l 0,5.038 0,0.33"
         id="path3188" />
      <path
         d="m 560.58834,34.631896 c 0,1.561998 0.176,2.684001 0.924,3.674 0.968,1.275999 2.398,1.496 4.642,1.496 0.594,0 1.1,-0.506001 1.1,-1.1 0,-0.594 -0.506,-1.1 -1.1,-1.1 -0.572,0 -1.408,0 -1.716,-0.044 -1.43,-0.198 -1.672,-1.364002 -1.672,-2.926 l 0.154,-10.868 c 0,-0.616 -0.506,-1.122 -1.1,-1.122 -0.616,0 -1.1,0.506 -1.1,1.122 l -0.132,10.868"
         id="path3190" />
      <path
         d="m 571.71478,29.153896 c 0,0.593999 0.506,1.1 1.1,1.1 l 1.65,0 -0.066,4.972 0,0.264 c 0,2.089998 0.506,3.564 2.112,4.18 0.418,0.154 1.078,0.264 1.738,0.264 1.364,0 2.838,-0.418001 2.838,-1.54 0,-0.594 -0.506,-1.1 -1.1,-1.1 -0.638,0 -1.188,0.44 -1.87,0.44 l -0.044,0 c -1.474,0 -1.474,-1.012002 -1.474,-2.464 l 0.066,-5.016 3.322,0 c 0.594,0 1.1,-0.506001 1.1,-1.1 0,-0.594 -0.506,-1.1 -1.1,-1.1 l -3.278,0 0.044,-2.222 c 0,-0.594 -0.484,-1.1 -1.1,-1.1 -0.616,0 -1.1,0.462 -1.1,1.1 l -0.044,2.222 -1.694,0 c -0.594,0 -1.1,0.506 -1.1,1.1"
         id="path3192" />
      <path
         d="m 585.61321,36.259896 c 0,2.199998 2.00201,3.608 3.85,3.74 0.132,0 0.264,0.022 0.374,0.022 1.386,0 2.53,-0.572001 3.454,-1.364 l 0,0.176 c 0,0.615999 0.506,1.1 1.1,1.1 0.594,0 1.1,-0.506001 1.1,-1.1 l 0,-6.82 c 0,-1.209999 -0.484,-2.398001 -1.364,-3.234 -0.88,-0.813999 -2.112,-1.1 -3.322,-1.1 -1.36399,0 -2.662,0.506001 -3.762,1.298 -0.242,0.176 -0.418,0.55 -0.418,0.858 0,0.615999 0.484,1.1 1.1,1.1 0.242,0 0.484,-0.066 0.682,-0.22 0.682,-0.55 1.518,-0.836 2.398,-0.836 0.66,0 1.342,0.066 1.826,0.528 0.484,0.439999 0.594,1.122 0.66,1.782 -3.82799,0.022 -7.678,0.286004 -7.678,4.07 m 2.2,0 c 0,-1.649999 1.98001,-1.936 3.96,-1.936 0.528,0 1.034,0.022 1.518,0.044 l 0,0.88 c -0.704,1.143999 -1.848,2.552 -3.498,2.552 l -0.176,0 c -0.748,-0.044 -1.804,-0.594001 -1.804,-1.54"
         id="path3194" />
      <path
         d="m 599.51165,38.833896 c 0,0.593999 0.506,1.1 1.1,1.1 0.594,0 1.1,-0.506001 1.1,-1.1 l 0,-5.852 c 0.572,-1.407999 1.716,-2.992 3.608,-2.992 2.002,0 2.376,1.386002 2.376,3.366 l 0,5.478 c 0,0.615999 0.506,1.1 1.1,1.1 0.572,0 1.1,-0.506001 1.1,-1.1 l 0,-5.478 c 0,-3.277997 -1.276,-5.566 -4.576,-5.566 -1.496,0 -2.684,0.550001 -3.608,1.364 l 0,-0.198 c 0,-0.594 -0.506,-1.078 -1.1,-1.078 -0.594,0 -1.1,0.484 -1.1,1.078 l 0,9.878"
         id="path3196" />
      <path
         d="m 613.41009,33.619896 c 0,3.013997 1.232,5.302001 3.586,6.072 0.55,0.176 1.298,0.286 2.09,0.286 1.716,0 3.564,-0.506002 3.564,-1.958 0,-0.616 -0.506,-1.1 -1.122,-1.1 -0.286,0 -0.55,0.11 -0.748,0.308 -0.286,0.286 -0.638,0.462 -1.1,0.528 -0.264,0.044 -0.528,0.066 -0.77,0.066 -2.068,0 -3.058,-1.386002 -3.256,-3.366 l 7.04,0 c 0.594,0 1.1,-0.506001 1.1,-1.1 0,-3.255997 -1.738,-5.676 -5.082,-5.676 l -0.132,0 c -3.3,0.066 -5.17,2.662003 -5.17,5.94 m 2.354,-1.364 c 0.374,-1.363999 1.298,-2.376 2.86,-2.376 1.914,0 2.486,0.880001 2.794,2.376 l -5.654,0"
         id="path3198" />
      <path
         d="m 627.00053,33.861896 c 0,3.475996 1.958,6.138 5.5,6.138 3.51999,0 5.5,-2.706004 5.5,-6.138 0,-3.475997 -2.02401,-6.182 -5.5,-6.182 -3.586,0 -5.5,2.706003 -5.5,6.182 m 2.2,0 c 0,-2.177998 1.056,-3.982 3.3,-3.982 2.22199,0 3.3,1.782002 3.3,3.982 0,2.177998 -1.03401,3.938 -3.3,3.938 -2.266,0 -3.3,-1.760002 -3.3,-3.938"
         id="path3200" />
      <path
         d="m 641.20696,34.323896 c 0,0.857999 0.022,1.716001 0.22,2.464 0.528,1.891998 1.98001,3.168 4.312,3.212 l 0.088,0 c 1.496,0 2.662,-0.528001 3.564,-1.32 l 0,0.154 c 0,0.615999 0.506,1.1 1.1,1.1 0.572,0 1.1,-0.506001 1.1,-1.1 l 0,-9.878 c 0,-0.594 -0.528,-1.1 -1.1,-1.1 -0.594,0 -1.1,0.484 -1.1,1.1 l 0,5.698 c -0.506,1.495998 -1.584,3.146 -3.498,3.146 l -0.11,0 c -2.13399,-0.066 -2.376,-1.496002 -2.376,-3.806 l 0,-5.038 c 0,-0.594 -0.528,-1.1 -1.122,-1.1 -0.572,0 -1.078,0.528 -1.078,1.1 l 0,5.038 0,0.33"
         id="path3202" />
      <path
         d="m 655.6774,37.513896 c 0,0.198 0.022,0.396 0.132,0.572 0.814,1.319998 2.222,1.914 4.268,1.914 l 0.22,0 c 2.53,-0.066 4.752,-1.034003 4.752,-3.63 0,-3.057997 -3.256,-3.344001 -5.698,-3.982 -0.66,-0.176 -1.342,-0.462001 -1.342,-1.298 0,-1.121999 1.276,-1.21 2.288,-1.21 l 0.572,0 c 0.66,0.044 1.408,0.132 1.562,0.748 0.11,0.461999 0.55,0.814 1.078,0.814 0.594,0 1.1,-0.506001 1.1,-1.1 0,-0.088 -0.022,-0.176 -0.044,-0.286 -0.396,-1.495999 -1.98,-2.288 -3.586,-2.376 l -0.682,0 c -2.354,0 -4.488,0.946002 -4.488,3.41 0,3.057997 3.036,3.432 5.456,4.07 0.66,0.176 1.584,0.396001 1.584,1.21 0,1.055999 -1.364,1.496 -2.684,1.496 -0.726,0 -1.408,-0.132 -1.87,-0.352 -0.55,-0.264 -0.726,-1.1 -1.518,-1.1 -0.594,0 -1.1,0.484 -1.1,1.1"
         id="path3204" />
    </g>
    <g
       transform="matrix(0.70710678,-0.70710678,0.70710678,0.70710678,0,0)"
       id="text3210"
       style="font-size:22px;font-style:normal;font-weight:normal;line-height:125%;letter-spacing:-2px;word-spacing:0px;fill:#000000;fill-opacity:1;stroke:none;display:inline;font-family:Sans">
      <path
         d="m -205.24651,269.83079 c 0,0.594 0.506,1.1 1.1,1.1 l 6.292,0 c 0.594,0 1.1,-0.506 1.1,-1.1 0,-0.594 -0.484,-1.1 -1.1,-1.1 l -2.046,0 0,-11 1.606,0 c 0.594,0 1.1,-0.506 1.1,-1.1 0,-0.594 -0.484,-1.1 -1.1,-1.1 l -5.412,0 c -0.616,0 -1.1,0.506 -1.1,1.1 0,0.594 0.506,1.1 1.1,1.1 l 1.606,0 0,11 -2.046,0 c -0.616,0 -1.1,0.506 -1.1,1.1"
         id="path3207"
         style="font-variant:normal;font-weight:bold;font-stretch:normal;font-family:OCRB;-inkscape-font-specification:OCRB Bold" />
      <path
         d="m -192.60207,270.13879 c 0,0.616 0.506,1.1 1.1,1.1 0.594,0 1.1,-0.506 1.1,-1.1 l 0,-6.116 c 0,-0.858 0.572,-2.728 1.54,-2.728 0.484,0 0.638,0.55 0.66,0.946 l 0,7.898 c 0,0.616 0.506,1.1 1.1,1.1 0.594,0 1.1,-0.506 1.1,-1.1 l 0,-6.116 c 0,-0.88 0.594,-2.728 1.54,-2.728 0.484,0 0.638,0.55 0.66,0.946 l 0,7.898 c 0,0.616 0.506,1.1 1.1,1.1 0.594,0 1.1,-0.506 1.1,-1.1 l 0,-8.074 c 0,-1.54 -1.18801,-2.97 -2.86,-2.97 -0.88,0 -1.65,0.418 -2.222,1.034 -0.506,-0.616 -1.276,-1.034 -2.178,-1.034 -0.682,0 -1.254,0.22 -1.738,0.572 -0.198,-0.308 -0.528,-0.506 -0.902,-0.506 -0.594,0 -1.1,0.484 -1.1,1.1 l 0,9.878"
         id="path3209"
         style="font-variant:normal;font-weight:bold;font-stretch:normal;font-family:OCRB;-inkscape-font-specification:OCRB Bold" />
      <path
         d="m -177.20764,260.52479 c 0,0.594 0.506,1.1 1.1,1.1 l 2.86,0 0,8.514 c 0,0.594 0.506,1.1 1.1,1.1 0.594,0 1.1,-0.484 1.1,-1.1 l 0,-9.614 c 0,-0.616 -0.484,-1.1 -1.1,-1.1 l -3.96,0 c -0.616,0 -1.1,0.506 -1.1,1.1 m 3.036,-4.466 c 0,0.616 0.506,1.1 1.1,1.1 l 0.99,0 c 0.594,0 1.1,-0.484 1.1,-1.1 l 0,-1.012 c 0,-0.616 -0.506,-1.1 -1.1,-1.1 l -0.99,0 c -0.594,0 -1.1,0.484 -1.1,1.1 l 0,1.012"
         id="path3211"
         style="font-variant:normal;font-weight:bold;font-stretch:normal;font-family:OCRB;-inkscape-font-specification:OCRB Bold" />
      <path
         d="m -164.4972,260.45879 c 0,0.594 0.506,1.1 1.1,1.1 l 1.65,0 -0.066,4.972 0,0.264 c 0,2.09 0.506,3.564 2.112,4.18 0.418,0.154 1.078,0.264 1.738,0.264 1.364,0 2.838,-0.418 2.838,-1.54 0,-0.594 -0.506,-1.1 -1.1,-1.1 -0.638,0 -1.188,0.44 -1.87,0.44 l -0.044,0 c -1.474,0 -1.474,-1.012 -1.474,-2.464 l 0.066,-5.016 3.322,0 c 0.594,0 1.1,-0.506 1.1,-1.1 0,-0.594 -0.506,-1.1 -1.1,-1.1 l -3.278,0 0.044,-2.222 c 0,-0.594 -0.484,-1.1 -1.1,-1.1 -0.616,0 -1.1,0.462 -1.1,1.1 l -0.044,2.222 -1.694,0 c -0.594,0 -1.1,0.506 -1.1,1.1"
         id="path3213"
         style="font-variant:normal;font-weight:bold;font-stretch:normal;font-family:OCRB;-inkscape-font-specification:OCRB Bold" />
      <path
         d="m -150.59876,267.56479 c 0,2.2 2.002,3.608 3.85,3.74 0.132,0 0.264,0.022 0.374,0.022 1.386,0 2.53,-0.572 3.454,-1.364 l 0,0.176 c 0,0.616 0.506,1.1 1.1,1.1 0.594,0 1.1,-0.506 1.1,-1.1 l 0,-6.82 c 0,-1.21 -0.484,-2.398 -1.364,-3.234 -0.88,-0.814 -2.112,-1.1 -3.322,-1.1 -1.364,0 -2.662,0.506 -3.762,1.298 -0.242,0.176 -0.418,0.55 -0.418,0.858 0,0.616 0.484,1.1 1.1,1.1 0.242,0 0.484,-0.066 0.682,-0.22 0.682,-0.55 1.518,-0.836 2.398,-0.836 0.66,0 1.342,0.066 1.826,0.528 0.484,0.44 0.594,1.122 0.66,1.782 -3.828,0.022 -7.678,0.286 -7.678,4.07 m 2.2,0 c 0,-1.65 1.98,-1.936 3.96,-1.936 0.528,0 1.034,0.022 1.518,0.044 l 0,0.88 c -0.704,1.144 -1.848,2.552 -3.498,2.552 l -0.176,0 c -0.748,-0.044 -1.804,-0.594 -1.804,-1.54"
         id="path3215"
         style="font-variant:normal;font-weight:bold;font-stretch:normal;font-family:OCRB;-inkscape-font-specification:OCRB Bold" />
      <path
         d="m -136.70032,260.45879 c 0,0.594 0.506,1.1 1.1,1.1 l 1.65,0 -0.066,4.972 0,0.264 c 0,2.09 0.506,3.564 2.112,4.18 0.418,0.154 1.078,0.264 1.738,0.264 1.36399,0 2.838,-0.418 2.838,-1.54 0,-0.594 -0.506,-1.1 -1.1,-1.1 -0.638,0 -1.188,0.44 -1.87,0.44 l -0.044,0 c -1.474,0 -1.474,-1.012 -1.474,-2.464 l 0.066,-5.016 3.322,0 c 0.594,0 1.1,-0.506 1.1,-1.1 0,-0.594 -0.506,-1.1 -1.1,-1.1 l -3.278,0 0.044,-2.222 c 0,-0.594 -0.484,-1.1 -1.1,-1.1 -0.616,0 -1.1,0.462 -1.1,1.1 l -0.044,2.222 -1.694,0 c -0.594,0 -1.1,0.506 -1.1,1.1"
         id="path3217"
         style="font-variant:normal;font-weight:bold;font-stretch:normal;font-family:OCRB;-inkscape-font-specification:OCRB Bold" />
      <path
         d="m -121.61389,260.52479 c 0,0.594 0.506,1.1 1.1,1.1 l 2.86,0 0,8.514 c 0,0.594 0.506,1.1 1.1,1.1 0.594,0 1.1,-0.484 1.1,-1.1 l 0,-9.614 c 0,-0.616 -0.484,-1.1 -1.1,-1.1 l -3.96,0 c -0.616,0 -1.1,0.506 -1.1,1.1 m 3.036,-4.466 c 0,0.616 0.506,1.1 1.1,1.1 l 0.99,0 c 0.594,0 1.1,-0.484 1.1,-1.1 l 0,-1.012 c 0,-0.616 -0.506,-1.1 -1.1,-1.1 l -0.99,0 c -0.594,0 -1.1,0.484 -1.1,1.1 l 0,1.012"
         id="path3219"
         style="font-variant:normal;font-weight:bold;font-stretch:normal;font-family:OCRB;-inkscape-font-specification:OCRB Bold" />
      <path
         d="m -109.21145,265.16679 c 0,3.476 1.958,6.138 5.5,6.138 3.52,0 5.500001,-2.706 5.500001,-6.138 0,-3.476 -2.024001,-6.182 -5.500001,-6.182 -3.586,0 -5.5,2.706 -5.5,6.182 m 2.2,0 c 0,-2.178 1.056,-3.982 3.3,-3.982 2.222,0 3.3,1.782 3.3,3.982 0,2.178 -1.034,3.938 -3.3,3.938 -2.266,0 -3.3,-1.76 -3.3,-3.938"
         id="path3221"
         style="font-variant:normal;font-weight:bold;font-stretch:normal;font-family:OCRB;-inkscape-font-specification:OCRB Bold" />
      <path
         d="m -95.005011,270.13879 c 0,0.594 0.506,1.1 1.1,1.1 0.593999,0 1.1,-0.506 1.1,-1.1 l 0,-5.852 c 0.571999,-1.408 1.716002,-2.992 3.608,-2.992 2.001998,0 2.376,1.386 2.376,3.366 l 0,5.478 c 0,0.616 0.506,1.1 1.1,1.1 0.571999,0 1.1,-0.506 1.1,-1.1 l 0,-5.478 c 0,-3.278 -1.276004,-5.566 -4.576,-5.566 -1.495999,0 -2.684001,0.55 -3.608,1.364 l 0,-0.198 c 0,-0.594 -0.506001,-1.078 -1.1,-1.078 -0.594,0 -1.1,0.484 -1.1,1.078 l 0,9.878"
         id="path3223"
         style="font-variant:normal;font-weight:bold;font-stretch:normal;font-family:OCRB;-inkscape-font-specification:OCRB Bold" />
    </g>
  </g>
</svg>
