<?xml version="1.0" encoding="UTF-8" standalone="no"?>
<!-- Created with Inkscape (http://www.inkscape.org/) -->

<svg
   xmlns:dc="http://purl.org/dc/elements/1.1/"
   xmlns:cc="http://creativecommons.org/ns#"
   xmlns:rdf="http://www.w3.org/1999/02/22-rdf-syntax-ns#"
   xmlns:svg="http://www.w3.org/2000/svg"
   xmlns="http://www.w3.org/2000/svg"
   xmlns:sodipodi="http://sodipodi.sourceforge.net/DTD/sodipodi-0.dtd"
   xmlns:inkscape="http://www.inkscape.org/namespaces/inkscape"
   version="1.1"
   width="153"
   height="153"
   id="svg3013"
   inkscape:version="0.48.5 r10040"
   sodipodi:docname="ecogex.svg">
  <sodipodi:namedview
     pagecolor="#ffffff"
     bordercolor="#666666"
     borderopacity="1"
     objecttolerance="10"
     gridtolerance="10"
     guidetolerance="10"
     inkscape:pageopacity="0"
     inkscape:pageshadow="2"
     inkscape:window-width="1600"
     inkscape:window-height="879"
     id="namedview9"
     showgrid="false"
     inkscape:snap-bbox="true"
     inkscape:bbox-paths="true"
     inkscape:bbox-nodes="true"
     inkscape:snap-bbox-edge-midpoints="true"
     inkscape:snap-bbox-midpoints="true"
     inkscape:zoom="1.5424837"
     inkscape:cx="87.036871"
     inkscape:cy="32.783486"
     inkscape:window-x="0"
     inkscape:window-y="0"
     inkscape:window-maximized="1"
     inkscape:current-layer="svg3013" />
  <defs
     id="defs3015" />
  <metadata
     id="metadata3018">
    <rdf:RDF>
      <cc:Work
         rdf:about="">
        <dc:format>image/svg+xml</dc:format>
        <dc:type
           rdf:resource="http://purl.org/dc/dcmitype/StillImage" />
        <dc:title />
      </cc:Work>
    </rdf:RDF>
  </metadata>
  <rect
     style="color:#000000;fill:none;stroke:#000080;stroke-width:3;stroke-miterlimit:4;stroke-dasharray:none;marker:none;visibility:visible;display:inline;overflow:visible;enable-background:accumulate"
     id="rect4412"
     y="1.4871826"
     x="1.5"
     height="150"
     width="150" />
  <path
     style="font-size:medium;font-style:normal;font-variant:normal;font-weight:normal;font-stretch:normal;text-indent:0;text-align:start;text-decoration:none;line-height:normal;letter-spacing:normal;word-spacing:normal;text-transform:none;direction:ltr;block-progression:tb;writing-mode:lr-tb;text-anchor:start;baseline-shift:baseline;color:#000000;fill:#000080;fill-opacity:1;stroke:none;stroke-width:10;marker:none;visibility:visible;display:inline;overflow:visible;enable-background:accumulate;font-family:Sans;-inkscape-font-specification:Sans"
     d="m 58.540145,33.98718 0,4.78394 0,14.35182 -4.78394,0 c -5.90019,0 -11.80668,2.03586 -16.35509,6.12942 -4.5484,4.09357 -7.564603,10.34451 -7.564603,17.79028 0,7.44577 3.016203,13.69671 7.564603,17.79028 4.54841,4.09356 10.4549,6.12942 16.35509,6.12942 l 4.78394,0 0,14.35182 0,4.78394 4.78394,0 47.839405,0 0,-9.56789 -43.055465,0 0,-9.56787 23.919703,0 0,-9.56788 -23.919703,0 0,-9.56788 33.487585,0 0,-9.56788 -33.487585,0 0,-9.56788 23.919703,0 0,-9.56788 -23.919703,0 0,-9.56788 43.055465,0 0,-9.56788 -47.839405,0 -4.78394,0 z m -4.78394,28.70364 4.78394,0 0,28.70364 -4.78394,0 c -3.66768,0 -7.32907,-1.31291 -9.95657,-3.67765 -2.6275,-2.36475 -4.39524,-5.6817 -4.39524,-10.67417 0,-4.99247 1.76774,-8.30942 4.39524,-10.67417 2.6275,-2.36474 6.28889,-3.67765 9.95657,-3.67765 z"
     id="path4509"
     inkscape:connector-curvature="0"
     inkscape:export-filename="/Users/raphael/Documents/WORK/EUX/Ecogex/ecogex identiteÌ/ecogex-logopng.png"
     inkscape:export-xdpi="464.51999"
     inkscape:export-ydpi="464.51999" />
</svg>
