<?xml version="1.0" encoding="UTF-8" standalone="no"?>
<!-- Created with Inkscape (http://www.inkscape.org/) -->

<svg
   xmlns:dc="http://purl.org/dc/elements/1.1/"
   xmlns:cc="http://creativecommons.org/ns#"
   xmlns:rdf="http://www.w3.org/1999/02/22-rdf-syntax-ns#"
   xmlns:svg="http://www.w3.org/2000/svg"
   xmlns="http://www.w3.org/2000/svg"
   version="1.1"
   width="300"
   height="300"
   id="svg2"
   xml:space="preserve"><metadata
     id="metadata8"><rdf:RDF><cc:Work
         rdf:about=""><dc:format>image/svg+xml</dc:format><dc:type
           rdf:resource="http://purl.org/dc/dcmitype/StillImage" /><dc:title></dc:title></cc:Work></rdf:RDF></metadata><defs
     id="defs6" /><g
     transform="matrix(1.2533423,0,0,-1.2533423,27.908799,255.73508)"
     id="g10"
     style="stroke:none"><rect
       width="239.36"
       height="239.36"
       x="-22.2675"
       y="-204.0425"
       transform="scale(1,-1)"
       id="rect3167"
       style="fill:#000000;fill-opacity:1;stroke:none" /><g
       transform="matrix(0.94306187,0,0,0.94306187,5.5469571,4.804388)"
       id="g12"
       style="stroke:none"><path
         d="M 48.699,168.725 0,84.35 48.699,-0.002 l 97.426,0 48.699,84.352 -48.699,84.375 -97.426,0 z m 1.602,-2.75 94.222,0 47.125,-81.625 -0.222,-0.375 -46.903,-81.227 -94.222,0 -47.125,81.602 0.222,0.375 46.903,81.25 z m 0.847,-1.5 -46.25,-80.125 46.25,-80.102 92.528,0 46.25,80.102 -46.25,80.125 -92.528,0 z m 1.602,-2.75 89.324,0 L 186.75,84.35 142.074,6.998 52.75,6.998 8.074,84.35 52.75,161.725 z"
         id="path14"
         style="fill:#ffffff;fill-opacity:1;fill-rule:nonzero;stroke:none" /><path
         d="m 132.797,23.069 -70.77,0 -35.382,61.285 35.382,61.285 17.45,0 c 0.828,0 1.5,-0.672 1.5,-1.5 0,-0.828 -0.672,-1.5 -1.5,-1.5 l -15.715,0 -33.653,-58.285 33.653,-58.285 67.304,0 33.649,58.285 -33.649,58.285 -16.546,0 c -0.829,0 -1.5,0.672 -1.5,1.5 0,0.828 0.671,1.5 1.5,1.5 l 18.277,0 35.383,-61.285 -35.383,-61.285 z"
         id="path16"
         style="fill:#ffffff;fill-opacity:1;fill-rule:nonzero;stroke:none" /><path
         d="m 28.32,98.256 c 0.118,0.035 0.231,0.024 0.34,-0.039 0.11,-0.062 0.18,-0.156 0.215,-0.277 0.031,-0.121 0.016,-0.238 -0.047,-0.344 l -1.121,-1.949 c -0.062,-0.109 -0.156,-0.18 -0.277,-0.211 -0.121,-0.035 -0.235,-0.02 -0.344,0.043 -0.109,0.062 -0.18,0.152 -0.207,0.269 -0.027,0.122 -0.012,0.235 0.051,0.344 l 0.336,0.586 -5.078,2.922 -0.336,-0.586 c -0.063,-0.109 -0.157,-0.18 -0.278,-0.211 -0.121,-0.031 -0.238,-0.019 -0.347,0.047 -0.098,0.055 -0.165,0.145 -0.2,0.266 -0.031,0.121 -0.015,0.238 0.047,0.347 l 1.121,1.946 c 0.063,0.113 0.153,0.183 0.274,0.214 0.125,0.032 0.234,0.02 0.336,-0.039 0.105,-0.062 0.179,-0.152 0.211,-0.273 0.035,-0.121 0.019,-0.238 -0.043,-0.348 l -0.34,-0.586 5.082,-2.922 0.336,0.586 c 0.062,0.11 0.152,0.18 0.269,0.215"
         id="path18"
         style="fill:#ffffff;fill-opacity:1;fill-rule:nonzero;stroke:none" /><path
         d="m 24.742,104.041 4.727,-2.718 c 0.246,-0.118 0.476,0.007 0.691,0.382 0.285,0.5 0.285,1.012 -0.004,1.543 -0.285,0.528 -0.836,1.024 -1.644,1.489 -0.797,0.457 -1.5,0.683 -2.102,0.664 -0.601,-0.016 -1.043,-0.274 -1.332,-0.774 l -0.336,-0.586 z m -0.441,1.032 c 0.304,0.527 0.734,0.89 1.297,1.086 0.925,0.328 2.047,0.113 3.363,-0.645 1.324,-0.766 2.078,-1.625 2.262,-2.59 0.113,-0.586 0.015,-1.14 -0.289,-1.664 -0.282,-0.492 -0.641,-0.773 -1.082,-0.847 -0.309,-0.051 -0.582,-0.012 -0.817,0.125 l -5.137,2.953 c -0.097,0.058 -0.164,0.148 -0.199,0.269 -0.031,0.125 -0.015,0.238 0.047,0.348 l 0.555,0.965 z"
         id="path20"
         style="fill:#ffffff;fill-opacity:1;fill-rule:nonzero;stroke:none" /><path
         d="m 31.801,109.534 2.152,-1.239 0.617,1.078 c 0.063,0.106 0.153,0.18 0.266,0.211 0.117,0.028 0.226,0.012 0.336,-0.05 0.109,-0.063 0.18,-0.153 0.215,-0.27 0.035,-0.117 0.023,-0.226 -0.039,-0.336 l -1.684,-2.93 c -0.066,-0.109 -0.156,-0.179 -0.277,-0.21 -0.121,-0.036 -0.239,-0.02 -0.348,0.042 -0.109,0.063 -0.176,0.153 -0.203,0.27 -0.031,0.121 -0.012,0.234 0.051,0.344 l 0.609,1.062 -2.152,1.239 -0.61,-1.063 c -0.062,-0.109 -0.156,-0.18 -0.277,-0.211 -0.121,-0.035 -0.238,-0.019 -0.344,0.043 -0.109,0.063 -0.179,0.156 -0.207,0.274 -0.027,0.117 -0.011,0.23 0.051,0.343 l 0.613,1.059 -2.152,1.242 -0.613,-1.066 c -0.063,-0.106 -0.153,-0.18 -0.278,-0.211 -0.121,-0.032 -0.234,-0.02 -0.343,0.047 -0.102,0.054 -0.164,0.144 -0.2,0.265 -0.031,0.125 -0.019,0.238 0.043,0.348 l 1.688,2.93 c 0.062,0.105 0.152,0.175 0.269,0.203 0.121,0.027 0.231,0.015 0.332,-0.043 0.106,-0.063 0.18,-0.153 0.215,-0.27 0.035,-0.117 0.02,-0.23 -0.043,-0.34 l -0.617,-1.074 2.152,-1.242 0.622,1.078 c 0.058,0.109 0.148,0.18 0.261,0.211 0.117,0.031 0.227,0.012 0.336,-0.047 0.11,-0.066 0.184,-0.156 0.219,-0.269 0.035,-0.118 0.019,-0.231 -0.043,-0.34 l -0.617,-1.078 z"
         id="path22"
         style="fill:#ffffff;fill-opacity:1;fill-rule:nonzero;stroke:none" /><path
         d="m 31.371,117.362 c 0.102,0.179 0.254,0.359 0.453,0.535 0.399,0.351 0.852,0.543 1.364,0.574 0.57,0.047 1.171,-0.109 1.796,-0.469 0.797,-0.461 1.633,-1.238 2.504,-2.332 0.367,-0.175 0.657,-0.086 0.86,0.266 0.062,0.109 0.152,0.184 0.269,0.219 0.117,0.035 0.231,0.019 0.34,-0.039 0.109,-0.067 0.18,-0.157 0.211,-0.278 0.031,-0.121 0.02,-0.238 -0.043,-0.347 -0.262,-0.453 -0.621,-0.711 -1.082,-0.774 -0.383,-0.058 -0.738,0.008 -1.066,0.196 -0.051,0.031 -0.098,0.07 -0.133,0.113 -0.824,1.043 -1.594,1.769 -2.301,2.176 -0.473,0.273 -0.898,0.394 -1.273,0.371 -0.438,-0.028 -0.793,-0.223 -1.063,-0.586 l -0.133,-2.117 4.633,-2.665 c 0.109,-0.062 0.184,-0.156 0.219,-0.273 0.031,-0.113 0.019,-0.227 -0.043,-0.336 -0.063,-0.109 -0.156,-0.18 -0.278,-0.215 -0.121,-0.031 -0.234,-0.015 -0.343,0.047 l -4.875,2.805 c -0.164,0.094 -0.242,0.234 -0.231,0.422 l 0.153,2.504 c 0.003,0.07 0.023,0.136 0.062,0.203"
         id="path24"
         style="fill:#ffffff;fill-opacity:1;fill-rule:nonzero;stroke:none" /><path
         d="m 35.629,124.498 c 0.121,0.028 0.23,0.016 0.332,-0.043 0.109,-0.062 0.18,-0.152 0.215,-0.269 0.035,-0.121 0.023,-0.231 -0.039,-0.34 l -0.621,-1.078 5.461,-3.141 c 0.109,-0.062 0.179,-0.152 0.214,-0.277 0.032,-0.121 0.016,-0.234 -0.046,-0.344 -0.063,-0.109 -0.157,-0.179 -0.278,-0.215 -0.121,-0.031 -0.234,-0.015 -0.344,0.047 l -5.461,3.141 -0.613,-1.063 c -0.062,-0.109 -0.152,-0.179 -0.277,-0.211 -0.121,-0.031 -0.234,-0.019 -0.344,0.043 -0.101,0.059 -0.168,0.149 -0.199,0.27 -0.031,0.121 -0.02,0.238 0.043,0.344 l 1.687,2.933 c 0.063,0.106 0.153,0.176 0.27,0.203"
         id="path26"
         style="fill:#ffffff;fill-opacity:1;fill-rule:nonzero;stroke:none" /><path
         d="m 44.156,125.784 c 0.117,0.035 0.231,0.023 0.34,-0.039 0.109,-0.063 0.18,-0.157 0.215,-0.278 0.031,-0.121 0.016,-0.238 -0.047,-0.344 l -1.121,-1.949 c -0.063,-0.109 -0.156,-0.179 -0.277,-0.211 -0.121,-0.035 -0.235,-0.019 -0.344,0.043 -0.11,0.063 -0.18,0.153 -0.207,0.27 -0.027,0.121 -0.012,0.234 0.051,0.344 l 0.339,0.585 -5.082,2.922 -0.335,-0.586 c -0.063,-0.109 -0.157,-0.179 -0.278,-0.211 -0.121,-0.031 -0.238,-0.019 -0.348,0.047 -0.097,0.055 -0.164,0.145 -0.199,0.266 -0.031,0.121 -0.015,0.238 0.047,0.348 l 1.121,1.945 c 0.063,0.113 0.153,0.184 0.274,0.215 0.125,0.031 0.234,0.019 0.336,-0.039 0.109,-0.063 0.179,-0.153 0.211,-0.274 0.035,-0.121 0.019,-0.238 -0.043,-0.347 l -0.34,-0.586 5.082,-2.922 0.336,0.586 c 0.062,0.109 0.152,0.179 0.269,0.215"
         id="path28"
         style="fill:#ffffff;fill-opacity:1;fill-rule:nonzero;stroke:none" /><path
         d="m 41.539,134.768 c 0.121,0.027 0.231,0.016 0.328,-0.043 0.11,-0.062 0.184,-0.152 0.219,-0.27 0.035,-0.117 0.019,-0.23 -0.043,-0.339 l -0.617,-1.078 5.461,-3.141 c 0.109,-0.063 0.179,-0.152 0.215,-0.274 0.031,-0.125 0.015,-0.238 -0.047,-0.347 -0.063,-0.11 -0.157,-0.18 -0.278,-0.211 -0.121,-0.035 -0.238,-0.02 -0.343,0.043 l -5.465,3.14 -0.61,-1.058 c -0.062,-0.11 -0.156,-0.184 -0.277,-0.215 -0.121,-0.031 -0.234,-0.02 -0.348,0.047 -0.097,0.055 -0.164,0.144 -0.199,0.266 -0.031,0.125 -0.015,0.238 0.047,0.347 l 1.684,2.93 c 0.062,0.105 0.156,0.176 0.273,0.203"
         id="path30"
         style="fill:#ffffff;fill-opacity:1;fill-rule:nonzero;stroke:none" /><path
         d="m 45.355,141.385 c 0.114,0.028 0.227,0.016 0.336,-0.051 l 6.825,-3.925 c 0.16,-0.09 0.238,-0.227 0.234,-0.407 l -0.16,-2.515 c -0.004,-0.074 -0.024,-0.133 -0.055,-0.188 -0.062,-0.109 -0.156,-0.183 -0.277,-0.215 -0.121,-0.031 -0.235,-0.015 -0.344,0.047 -0.156,0.09 -0.226,0.227 -0.215,0.41 l 0.121,2.235 -1.082,0.621 -0.097,-1.789 c -0.004,-0.074 -0.02,-0.133 -0.055,-0.192 -0.102,-0.179 -0.254,-0.363 -0.461,-0.55 -0.398,-0.336 -0.852,-0.524 -1.355,-0.559 -0.571,-0.047 -1.168,0.109 -1.797,0.473 -0.789,0.453 -1.625,1.23 -2.504,2.328 -0.36,0.172 -0.641,0.078 -0.844,-0.278 -0.063,-0.105 -0.156,-0.175 -0.277,-0.21 -0.121,-0.036 -0.239,-0.016 -0.348,0.043 -0.109,0.066 -0.176,0.156 -0.203,0.273 -0.031,0.121 -0.012,0.23 0.051,0.34 0.257,0.449 0.617,0.707 1.074,0.765 0.371,0.063 0.726,-0.003 1.062,-0.195 0.047,-0.027 0.086,-0.066 0.121,-0.109 0.829,-1.043 1.594,-1.766 2.305,-2.176 0.469,-0.27 0.895,-0.391 1.278,-0.356 0.441,0.028 0.792,0.223 1.062,0.586 l 0.125,2.106 -4.633,2.664 c -0.109,0.062 -0.176,0.152 -0.203,0.269 -0.031,0.122 -0.012,0.235 0.051,0.344 0.062,0.11 0.152,0.18 0.265,0.211"
         id="path32"
         style="fill:#ffffff;fill-opacity:1;fill-rule:nonzero;stroke:none" /><path
         d="m 45.887,26.366 c -0.102,0.179 -0.184,0.398 -0.235,0.66 -0.105,0.519 -0.043,1.008 0.184,1.469 0.25,0.515 0.684,0.957 1.312,1.316 0.797,0.461 1.887,0.793 3.27,0.996 0.336,0.234 0.406,0.527 0.199,0.879 -0.062,0.109 -0.078,0.227 -0.051,0.344 0.028,0.117 0.098,0.211 0.204,0.273 0.109,0.063 0.226,0.078 0.347,0.043 0.121,-0.031 0.215,-0.101 0.278,-0.211 0.261,-0.453 0.304,-0.894 0.128,-1.324 -0.144,-0.359 -0.378,-0.633 -0.703,-0.82 -0.058,-0.036 -0.113,-0.055 -0.168,-0.063 -1.316,-0.191 -2.328,-0.492 -3.035,-0.898 -0.472,-0.274 -0.793,-0.578 -0.961,-0.914 -0.195,-0.395 -0.207,-0.801 -0.027,-1.215 l 1.769,-1.176 4.625,2.668 c 0.11,0.066 0.223,0.082 0.344,0.055 0.117,-0.028 0.211,-0.098 0.274,-0.203 0.062,-0.11 0.078,-0.227 0.043,-0.348 -0.032,-0.125 -0.102,-0.215 -0.211,-0.277 l -4.871,-2.813 c -0.164,-0.094 -0.325,-0.09 -0.481,0.016 l -2.09,1.386 c -0.058,0.039 -0.105,0.09 -0.144,0.157"
         id="path34"
         style="fill:#ffffff;fill-opacity:1;fill-rule:nonzero;stroke:none" /><path
         d="m 45.883,34.924 2.152,1.239 -0.621,1.078 c -0.062,0.109 -0.078,0.218 -0.047,0.332 0.031,0.117 0.098,0.207 0.207,0.269 0.11,0.063 0.223,0.078 0.344,0.051 0.117,-0.027 0.207,-0.094 0.273,-0.203 l 1.688,-2.93 c 0.062,-0.105 0.078,-0.222 0.043,-0.344 -0.031,-0.125 -0.102,-0.214 -0.211,-0.277 -0.109,-0.062 -0.223,-0.074 -0.34,-0.039 -0.117,0.035 -0.207,0.105 -0.269,0.215 l -0.614,1.058 -2.148,-1.238 0.613,-1.062 c 0.059,-0.11 0.078,-0.223 0.043,-0.344 -0.031,-0.121 -0.101,-0.215 -0.211,-0.277 -0.109,-0.063 -0.223,-0.079 -0.34,-0.043 -0.117,0.035 -0.207,0.109 -0.269,0.214 l -0.614,1.063 -2.148,-1.242 0.613,-1.059 c 0.063,-0.109 0.078,-0.226 0.043,-0.347 -0.031,-0.122 -0.101,-0.215 -0.211,-0.274 -0.101,-0.062 -0.211,-0.07 -0.332,-0.039 -0.121,0.031 -0.215,0.102 -0.277,0.211 l -1.688,2.926 c -0.066,0.109 -0.078,0.222 -0.042,0.34 0.035,0.117 0.101,0.203 0.203,0.261 0.109,0.067 0.222,0.082 0.343,0.055 0.118,-0.031 0.207,-0.098 0.27,-0.207 l 0.621,-1.074 2.152,1.242 -0.621,1.074 c -0.062,0.106 -0.078,0.219 -0.047,0.336 0.028,0.113 0.098,0.203 0.207,0.266 0.11,0.062 0.223,0.078 0.344,0.05 0.117,-0.027 0.207,-0.097 0.27,-0.207 l 0.621,-1.074 z"
         id="path36"
         style="fill:#ffffff;fill-opacity:1;fill-rule:nonzero;stroke:none" /><path
         d="m 38.293,39.795 c 0.035,0.118 0.102,0.207 0.199,0.262 0.113,0.063 0.227,0.082 0.344,0.051 0.121,-0.024 0.211,-0.094 0.273,-0.203 l 0.621,-1.075 5.458,3.149 c 0.109,0.062 0.222,0.078 0.343,0.047 0.121,-0.035 0.215,-0.106 0.278,-0.215 0.062,-0.109 0.078,-0.223 0.046,-0.344 -0.031,-0.121 -0.105,-0.215 -0.21,-0.277 l -5.457,-3.149 0.609,-1.062 C 40.859,36.87 40.875,36.756 40.844,36.635 40.812,36.51 40.738,36.42 40.629,36.358 40.531,36.299 40.422,36.284 40.297,36.319 40.176,36.35 40.082,36.42 40.02,36.53 l -1.688,2.929 c -0.062,0.106 -0.074,0.219 -0.039,0.336"
         id="path38"
         style="fill:#ffffff;fill-opacity:1;fill-rule:nonzero;stroke:none" /><path
         d="m 33.598,47.928 c -0.121,0.031 -0.211,0.106 -0.278,0.215 -0.054,0.098 -0.066,0.207 -0.035,0.332 0.031,0.121 0.098,0.211 0.199,0.266 l 4.887,2.82 c 0.324,0.187 0.68,0.262 1.059,0.211 0.461,-0.07 0.824,-0.332 1.086,-0.785 0.261,-0.453 0.308,-0.903 0.136,-1.336 -0.148,-0.356 -0.386,-0.621 -0.711,-0.813 l -2.925,-1.687 c -0.391,-0.223 -0.473,-0.535 -0.25,-0.922 0.226,-0.395 0.535,-0.477 0.925,-0.25 l 2.926,1.687 c 0.324,0.192 0.684,0.254 1.067,0.2 0.461,-0.071 0.824,-0.332 1.086,-0.789 0.261,-0.454 0.304,-0.891 0.128,-1.321 -0.14,-0.359 -0.378,-0.636 -0.703,-0.824 l -4.886,-2.816 c -0.102,-0.059 -0.211,-0.075 -0.332,-0.039 -0.122,0.031 -0.215,0.101 -0.278,0.211 -0.062,0.109 -0.078,0.222 -0.043,0.339 0.039,0.118 0.106,0.203 0.203,0.262 l 4.875,2.813 c 0.399,0.23 0.489,0.539 0.262,0.929 -0.226,0.391 -0.535,0.473 -0.926,0.246 L 38.145,45.19 c -0.336,-0.195 -0.696,-0.262 -1.079,-0.203 -0.464,0.07 -0.828,0.332 -1.089,0.785 -0.262,0.453 -0.301,0.894 -0.129,1.324 0.144,0.359 0.382,0.637 0.718,0.832 l 2.914,1.68 c 0.399,0.23 0.489,0.539 0.262,0.93 -0.226,0.39 -0.535,0.472 -0.926,0.246 l -4.882,-2.817 c -0.102,-0.058 -0.211,-0.07 -0.336,-0.039"
         id="path40"
         style="fill:#ffffff;fill-opacity:1;fill-rule:nonzero;stroke:none" /><path
         d="m 36.117,55.088 c 0.211,0.785 0.117,1.528 -0.289,2.231 -0.402,0.695 -0.996,1.148 -1.777,1.355 -0.785,0.207 -1.528,0.11 -2.227,-0.293 -0.699,-0.402 -1.152,-0.996 -1.363,-1.777 -0.207,-0.781 -0.109,-1.52 0.293,-2.215 0.402,-0.699 0.996,-1.156 1.777,-1.371 0.781,-0.215 1.524,-0.117 2.223,0.285 0.699,0.402 1.152,0.996 1.363,1.785 m -3.812,-2.937 c -1.024,0.277 -1.797,0.871 -2.328,1.789 -0.524,0.906 -0.649,1.871 -0.375,2.894 0.277,1.024 0.867,1.797 1.773,2.321 0.918,0.531 1.887,0.656 2.91,0.379 1.024,-0.27 1.797,-0.864 2.32,-1.77 0.532,-0.918 0.657,-1.887 0.383,-2.91 -0.273,-1.024 -0.871,-1.797 -1.789,-2.328 -0.906,-0.524 -1.871,-0.649 -2.894,-0.375"
         id="path42"
         style="fill:#ffffff;fill-opacity:1;fill-rule:nonzero;stroke:none" /><path
         d="m 30.266,67.213 c 0.027,0.117 0.097,0.211 0.203,0.27 0.109,0.066 0.226,0.082 0.347,0.047 0.122,-0.032 0.215,-0.102 0.278,-0.211 0.261,-0.453 0.304,-0.895 0.129,-1.324 -0.145,-0.36 -0.379,-0.637 -0.707,-0.821 l -0.981,-0.566 c -0.387,-0.227 -0.473,-0.535 -0.246,-0.922 0.219,-0.383 0.527,-0.465 0.922,-0.25 0.109,0.062 0.227,0.078 0.348,0.047 0.121,-0.035 0.214,-0.106 0.277,-0.215 0.129,-0.227 0.082,-0.422 -0.141,-0.586 -0.226,-0.168 -0.351,-0.332 -0.379,-0.492 l 2.407,1.387 c 0.109,0.066 0.222,0.082 0.343,0.054 0.118,-0.027 0.211,-0.097 0.274,-0.203 0.062,-0.109 0.074,-0.226 0.043,-0.348 -0.031,-0.121 -0.102,-0.214 -0.211,-0.277 L 27.32,59.428 c -0.101,-0.058 -0.211,-0.07 -0.332,-0.039 -0.121,0.031 -0.215,0.102 -0.277,0.211 l -1.125,1.949 c -0.195,0.336 -0.262,0.688 -0.211,1.055 0.074,0.465 0.332,0.828 0.789,1.09 0.109,0.062 0.223,0.082 0.34,0.051 0.121,-0.028 0.211,-0.094 0.273,-0.204 0.063,-0.109 0.078,-0.222 0.047,-0.347 -0.035,-0.121 -0.105,-0.211 -0.211,-0.278 -0.394,-0.222 -0.476,-0.531 -0.25,-0.921 0.36,-0.625 0.664,-1.149 0.903,-1.563 l 2.191,1.262 c -0.07,0.273 -0.066,0.535 0.016,0.789 -0.407,0.101 -0.731,0.351 -0.961,0.754 -0.262,0.453 -0.305,0.898 -0.137,1.336 0.141,0.343 0.379,0.617 0.715,0.808 l 0.965,0.559 c 0.398,0.23 0.488,0.543 0.261,0.93 -0.062,0.109 -0.078,0.226 -0.05,0.343"
         id="path44"
         style="fill:#ffffff;fill-opacity:1;fill-rule:nonzero;stroke:none" /><path
         d="m 26.387,73.936 c 0.027,0.117 0.093,0.211 0.203,0.273 0.109,0.063 0.222,0.079 0.348,0.043 0.121,-0.031 0.21,-0.101 0.277,-0.211 0.258,-0.453 0.301,-0.894 0.129,-1.324 -0.145,-0.359 -0.379,-0.633 -0.707,-0.82 L 25.656,71.33 c -0.39,-0.226 -0.472,-0.535 -0.246,-0.921 0.219,-0.383 0.528,-0.465 0.922,-0.25 0.109,0.062 0.223,0.078 0.348,0.046 0.121,-0.035 0.211,-0.101 0.277,-0.21 0.129,-0.227 0.082,-0.426 -0.141,-0.59 -0.226,-0.168 -0.351,-0.328 -0.382,-0.492 l 2.41,1.39 c 0.109,0.063 0.222,0.078 0.344,0.051 0.117,-0.027 0.207,-0.098 0.273,-0.203 0.062,-0.11 0.074,-0.227 0.043,-0.348 -0.031,-0.121 -0.102,-0.215 -0.211,-0.277 L 23.438,66.151 C 23.34,66.092 23.23,66.08 23.105,66.112 c -0.121,0.035 -0.21,0.101 -0.273,0.215 -0.066,0.109 -0.078,0.218 -0.043,0.336 0.035,0.121 0.102,0.207 0.203,0.261 l 2.586,1.492 c -0.07,0.274 -0.066,0.539 0.016,0.793 -0.266,0.063 -0.496,0.192 -0.692,0.379 l -1.605,-0.925 c -0.336,-0.196 -0.692,-0.258 -1.067,-0.2 -0.464,0.071 -0.828,0.332 -1.089,0.785 -0.262,0.457 -0.305,0.899 -0.129,1.329 0.136,0.351 0.371,0.628 0.707,0.82 0.105,0.062 0.222,0.078 0.336,0.043 0.121,-0.035 0.211,-0.102 0.277,-0.195 0.063,-0.11 0.078,-0.223 0.047,-0.348 -0.035,-0.121 -0.106,-0.211 -0.211,-0.274 -0.387,-0.238 -0.469,-0.543 -0.25,-0.921 0.227,-0.391 0.531,-0.477 0.922,-0.25 l 1.605,0.925 c -0.101,0.368 -0.058,0.723 0.125,1.071 0.157,0.281 0.368,0.5 0.641,0.66 l 0.965,0.558 c 0.398,0.227 0.488,0.539 0.262,0.926 -0.063,0.113 -0.083,0.227 -0.051,0.344"
         id="path46"
         style="fill:#ffffff;fill-opacity:1;fill-rule:nonzero;stroke:none" /><path
         d="m 168.09,73.108 c -0.117,-0.035 -0.227,-0.02 -0.336,0.043 -0.109,0.062 -0.18,0.152 -0.215,0.273 -0.031,0.121 -0.016,0.239 0.047,0.348 l 1.121,1.945 c 0.063,0.11 0.152,0.18 0.277,0.215 0.121,0.031 0.235,0.02 0.344,-0.047 0.11,-0.058 0.176,-0.152 0.203,-0.269 0.031,-0.121 0.012,-0.235 -0.051,-0.344 l -0.335,-0.586 5.082,-2.922 0.335,0.586 c 0.063,0.109 0.157,0.18 0.278,0.211 0.121,0.031 0.234,0.019 0.344,-0.043 0.101,-0.059 0.168,-0.148 0.199,-0.27 0.035,-0.121 0.019,-0.238 -0.043,-0.343 l -1.121,-1.95 c -0.063,-0.109 -0.157,-0.179 -0.278,-0.21 -0.121,-0.036 -0.23,-0.024 -0.332,0.035 -0.109,0.062 -0.179,0.152 -0.211,0.273 -0.035,0.125 -0.019,0.238 0.043,0.348 l 0.336,0.586 -5.082,2.926 -0.332,-0.586 c -0.066,-0.114 -0.156,-0.184 -0.273,-0.219"
         id="path48"
         style="fill:#ffffff;fill-opacity:1;fill-rule:nonzero;stroke:none" /><path
         d="m 171.547,65.311 c -0.106,-0.184 -0.258,-0.359 -0.453,-0.535 -0.399,-0.356 -0.852,-0.547 -1.364,-0.578 -0.574,-0.043 -1.171,0.113 -1.796,0.472 -0.801,0.457 -1.637,1.235 -2.504,2.328 -0.371,0.176 -0.657,0.086 -0.864,-0.265 -0.062,-0.11 -0.152,-0.184 -0.269,-0.219 -0.113,-0.035 -0.231,-0.019 -0.336,0.043 -0.109,0.063 -0.18,0.152 -0.215,0.273 -0.031,0.125 -0.016,0.239 0.047,0.348 0.262,0.453 0.621,0.715 1.078,0.777 0.383,0.055 0.738,-0.007 1.067,-0.199 0.054,-0.031 0.097,-0.066 0.132,-0.113 0.828,-1.043 1.594,-1.77 2.305,-2.176 0.469,-0.269 0.895,-0.394 1.273,-0.371 0.438,0.027 0.79,0.223 1.059,0.586 l 0.133,2.117 -4.633,2.664 c -0.105,0.067 -0.18,0.157 -0.215,0.274 -0.035,0.117 -0.023,0.226 0.039,0.34 0.067,0.105 0.157,0.175 0.278,0.211 0.125,0.031 0.238,0.015 0.347,-0.043 l 4.875,-2.809 c 0.164,-0.094 0.242,-0.234 0.231,-0.422 l -0.153,-2.504 c -0.007,-0.07 -0.027,-0.137 -0.062,-0.199"
         id="path50"
         style="fill:#ffffff;fill-opacity:1;fill-rule:nonzero;stroke:none" /><path
         d="m 168.328,60.69 c 0.082,-0.508 -0.004,-0.981 -0.254,-1.414 -0.07,-0.125 -0.183,-0.203 -0.328,-0.227 l -1.402,-0.172 c -0.098,-0.015 -0.192,0 -0.282,0.051 -0.109,0.067 -0.179,0.156 -0.214,0.277 -0.032,0.122 -0.016,0.239 0.047,0.344 0.074,0.129 0.187,0.203 0.343,0.223 l 1.133,0.144 c 0.238,0.661 -0.008,1.204 -0.734,1.622 -0.235,0.132 -0.473,0.14 -0.707,0.027 -0.192,-0.098 -0.477,-0.332 -0.86,-0.703 -0.465,-0.449 -0.836,-0.742 -1.121,-0.879 -0.511,-0.238 -1.011,-0.219 -1.504,0.066 -0.722,0.418 -1.144,0.961 -1.254,1.629 -0.086,0.508 0,0.981 0.25,1.414 0.047,0.082 0.114,0.141 0.196,0.18 l 1.804,0.898 c 0.149,0.075 0.293,0.071 0.426,-0.007 0.11,-0.067 0.184,-0.157 0.215,-0.278 0.031,-0.121 0.02,-0.238 -0.047,-0.344 -0.039,-0.074 -0.105,-0.132 -0.191,-0.179 l -1.676,-0.832 c -0.289,-0.696 -0.047,-1.262 0.723,-1.703 0.23,-0.133 0.461,-0.137 0.699,-0.024 0.183,0.09 0.469,0.324 0.855,0.703 0.465,0.449 0.84,0.742 1.137,0.871 0.504,0.246 1.004,0.223 1.504,-0.066 0.715,-0.41 1.129,-0.953 1.242,-1.621"
         id="path52"
         style="fill:#ffffff;fill-opacity:1;fill-rule:nonzero;stroke:none" /><path
         d="m 164.262,52.913 c -0.121,-0.028 -0.231,-0.012 -0.328,0.046 -0.11,0.059 -0.184,0.149 -0.219,0.266 -0.035,0.121 -0.02,0.234 0.039,0.34 l 0.621,1.078 -5.461,3.141 c -0.109,0.062 -0.18,0.156 -0.215,0.277 -0.031,0.121 -0.015,0.238 0.047,0.344 0.063,0.109 0.156,0.183 0.277,0.215 0.122,0.031 0.235,0.019 0.344,-0.047 l 5.461,-3.141 0.613,1.063 c 0.063,0.109 0.157,0.179 0.278,0.214 0.121,0.032 0.234,0.016 0.347,-0.046 0.098,-0.059 0.164,-0.145 0.196,-0.27 0.035,-0.121 0.019,-0.238 -0.043,-0.344 l -1.688,-2.929 c -0.062,-0.11 -0.152,-0.18 -0.269,-0.207"
         id="path54"
         style="fill:#ffffff;fill-opacity:1;fill-rule:nonzero;stroke:none" /><path
         d="m 155.734,51.627 c -0.117,-0.035 -0.23,-0.019 -0.339,0.043 -0.106,0.063 -0.18,0.153 -0.211,0.274 -0.036,0.121 -0.02,0.238 0.043,0.347 l 1.121,1.946 c 0.062,0.113 0.156,0.183 0.277,0.215 0.121,0.031 0.234,0.019 0.344,-0.047 0.109,-0.059 0.179,-0.153 0.207,-0.27 0.027,-0.117 0.012,-0.234 -0.051,-0.344 l -0.336,-0.582 5.078,-2.925 0.34,0.586 c 0.059,0.109 0.152,0.179 0.273,0.21 0.122,0.036 0.239,0.02 0.348,-0.042 0.098,-0.059 0.164,-0.145 0.199,-0.27 0.032,-0.121 0.02,-0.238 -0.047,-0.344 l -1.121,-1.949 c -0.062,-0.109 -0.152,-0.18 -0.273,-0.211 -0.121,-0.035 -0.234,-0.023 -0.332,0.035 -0.113,0.063 -0.184,0.153 -0.215,0.278 -0.031,0.121 -0.019,0.238 0.047,0.343 l 0.336,0.586 -5.082,2.926 -0.336,-0.586 c -0.063,-0.109 -0.152,-0.183 -0.27,-0.219"
         id="path56"
         style="fill:#ffffff;fill-opacity:1;fill-rule:nonzero;stroke:none" /><path
         d="m 158.352,42.643 c -0.118,-0.027 -0.227,-0.016 -0.329,0.047 -0.109,0.058 -0.179,0.148 -0.214,0.265 -0.036,0.122 -0.024,0.235 0.039,0.34 l 0.617,1.078 -5.461,3.141 c -0.109,0.063 -0.176,0.156 -0.211,0.277 -0.031,0.122 -0.02,0.239 0.043,0.344 0.062,0.11 0.156,0.184 0.277,0.215 0.125,0.031 0.239,0.016 0.348,-0.047 l 5.461,-3.14 0.613,1.062 c 0.059,0.109 0.153,0.18 0.274,0.211 0.121,0.035 0.238,0.019 0.347,-0.043 0.098,-0.059 0.164,-0.145 0.199,-0.27 0.032,-0.121 0.02,-0.238 -0.046,-0.343 l -1.684,-2.93 c -0.063,-0.109 -0.152,-0.18 -0.273,-0.207"
         id="path58"
         style="fill:#ffffff;fill-opacity:1;fill-rule:nonzero;stroke:none" /><path
         d="m 154.855,36.569 c 0.036,-0.117 0.024,-0.231 -0.039,-0.34 -0.062,-0.109 -0.152,-0.18 -0.277,-0.215 -0.121,-0.027 -0.23,-0.016 -0.332,0.039 l -4.891,2.817 c -0.152,0.085 -0.226,0.222 -0.214,0.41 l 0.14,2.515 c 0.004,0.071 0.024,0.133 0.063,0.2 0.101,0.179 0.254,0.359 0.453,0.535 0.406,0.347 0.859,0.539 1.363,0.574 0.57,0.047 1.172,-0.109 1.809,-0.477 0.789,-0.453 1.621,-1.23 2.492,-2.324 0.371,-0.172 0.656,-0.086 0.859,0.27 0.063,0.109 0.157,0.179 0.278,0.211 0.121,0.035 0.234,0.019 0.343,-0.043 0.102,-0.059 0.168,-0.149 0.2,-0.27 0.035,-0.121 0.019,-0.238 -0.043,-0.344 -0.262,-0.457 -0.621,-0.714 -1.082,-0.777 -0.375,-0.062 -0.727,0.004 -1.063,0.199 -0.059,0.031 -0.102,0.067 -0.137,0.114 -0.824,1.042 -1.593,1.765 -2.3,2.175 -0.465,0.266 -0.891,0.387 -1.274,0.367 -0.437,-0.027 -0.793,-0.218 -1.062,-0.585 l -0.133,-2.118 4.644,-2.672 c 0.102,-0.058 0.168,-0.144 0.203,-0.261"
         id="path60"
         style="fill:#ffffff;fill-opacity:1;fill-rule:nonzero;stroke:none" /><path
         d="m 151.223,30.248 c -0.121,-0.027 -0.231,-0.015 -0.328,0.043 -0.11,0.063 -0.184,0.153 -0.219,0.27 -0.035,0.121 -0.02,0.23 0.039,0.34 l 0.621,1.078 -5.461,3.141 c -0.109,0.062 -0.18,0.152 -0.215,0.277 -0.031,0.121 -0.015,0.234 0.047,0.344 0.063,0.109 0.156,0.179 0.277,0.214 0.121,0.032 0.235,0.016 0.344,-0.046 l 5.461,-3.141 0.613,1.062 c 0.063,0.11 0.157,0.18 0.278,0.211 0.121,0.032 0.234,0.02 0.347,-0.043 0.098,-0.058 0.164,-0.148 0.196,-0.269 0.035,-0.121 0.019,-0.238 -0.043,-0.344 l -1.688,-2.93 c -0.062,-0.109 -0.152,-0.179 -0.269,-0.207"
         id="path62"
         style="fill:#ffffff;fill-opacity:1;fill-rule:nonzero;stroke:none" /><path
         d="m 145.188,28.065 -2.153,1.238 -0.617,-1.078 c -0.066,-0.105 -0.152,-0.18 -0.27,-0.211 -0.113,-0.027 -0.226,-0.012 -0.332,0.051 -0.109,0.062 -0.183,0.152 -0.218,0.269 -0.036,0.118 -0.02,0.231 0.043,0.336 l 1.683,2.93 c 0.063,0.109 0.156,0.18 0.278,0.215 0.121,0.031 0.234,0.015 0.347,-0.047 0.106,-0.063 0.176,-0.152 0.203,-0.27 0.028,-0.121 0.012,-0.234 -0.05,-0.343 l -0.61,-1.063 2.149,-1.238 0.613,1.062 c 0.062,0.11 0.156,0.18 0.273,0.211 0.121,0.036 0.239,0.02 0.348,-0.043 0.109,-0.062 0.176,-0.156 0.207,-0.273 0.027,-0.117 0.012,-0.231 -0.051,-0.344 l -0.613,-1.058 2.152,-1.243 0.61,1.067 c 0.066,0.105 0.156,0.18 0.277,0.211 0.125,0.031 0.238,0.019 0.348,-0.043 0.097,-0.059 0.164,-0.149 0.199,-0.27 0.031,-0.125 0.016,-0.238 -0.043,-0.347 l -1.688,-2.926 c -0.062,-0.11 -0.152,-0.18 -0.273,-0.207 -0.117,-0.028 -0.227,-0.016 -0.328,0.043 -0.11,0.062 -0.18,0.152 -0.215,0.269 -0.035,0.117 -0.023,0.231 0.039,0.34 l 0.621,1.074 -2.152,1.243 -0.621,-1.079 c -0.059,-0.109 -0.149,-0.179 -0.266,-0.211 -0.113,-0.031 -0.226,-0.011 -0.332,0.047 -0.109,0.067 -0.184,0.157 -0.219,0.274 -0.035,0.113 -0.023,0.226 0.039,0.336 l 0.622,1.078 z"
         id="path64"
         style="fill:#ffffff;fill-opacity:1;fill-rule:nonzero;stroke:none" /><path
         d="m 142.203,145.768 -2.148,-1.238 0.617,-1.078 c 0.062,-0.11 0.078,-0.219 0.051,-0.336 -0.032,-0.114 -0.102,-0.203 -0.211,-0.266 -0.11,-0.062 -0.223,-0.078 -0.344,-0.051 -0.117,0.028 -0.207,0.098 -0.27,0.203 l -1.691,2.93 c -0.062,0.109 -0.074,0.223 -0.043,0.344 0.031,0.121 0.102,0.215 0.211,0.277 0.109,0.063 0.223,0.078 0.34,0.043 0.117,-0.035 0.207,-0.109 0.269,-0.219 l 0.614,-1.058 2.148,1.238 -0.609,1.063 c -0.063,0.109 -0.078,0.222 -0.047,0.343 0.031,0.125 0.101,0.215 0.211,0.278 0.109,0.062 0.222,0.078 0.34,0.043 0.117,-0.036 0.207,-0.11 0.269,-0.215 l 0.613,-1.063 2.153,1.239 -0.614,1.062 c -0.062,0.109 -0.078,0.227 -0.046,0.348 0.035,0.121 0.101,0.215 0.211,0.277 0.101,0.055 0.211,0.066 0.335,0.035 0.122,-0.031 0.211,-0.101 0.278,-0.211 l 1.687,-2.926 c 0.063,-0.109 0.075,-0.222 0.039,-0.339 -0.035,-0.118 -0.101,-0.203 -0.203,-0.262 -0.105,-0.063 -0.222,-0.082 -0.34,-0.055 -0.121,0.031 -0.211,0.098 -0.273,0.207 l -0.621,1.074 -2.149,-1.238 0.622,-1.078 c 0.058,-0.105 0.078,-0.219 0.046,-0.332 -0.031,-0.117 -0.101,-0.203 -0.21,-0.266 -0.11,-0.062 -0.223,-0.082 -0.34,-0.054 -0.121,0.031 -0.211,0.097 -0.274,0.207 l -0.621,1.074 z"
         id="path66"
         style="fill:#ffffff;fill-opacity:1;fill-rule:nonzero;stroke:none" /><path
         d="m 145.637,134.596 c -0.032,-0.113 -0.102,-0.203 -0.207,-0.266 -0.11,-0.062 -0.227,-0.078 -0.348,-0.046 -0.121,0.035 -0.211,0.101 -0.266,0.199 -0.066,0.109 -0.082,0.226 -0.058,0.351 l 1.129,4.172 -4.184,1.121 c -0.117,0.032 -0.203,0.102 -0.265,0.211 -0.063,0.11 -0.079,0.223 -0.047,0.344 0.031,0.121 0.105,0.215 0.214,0.277 0.106,0.063 0.219,0.079 0.333,0.047 l 4.187,-1.121 1.109,4.176 c 0.039,0.121 0.114,0.215 0.223,0.277 0.098,0.055 0.207,0.071 0.332,0.035 0.121,-0.031 0.215,-0.101 0.277,-0.21 0.063,-0.11 0.079,-0.219 0.047,-0.336 l -1.121,-4.184 4.176,-1.109 c 0.121,-0.039 0.211,-0.118 0.277,-0.223 0.055,-0.102 0.067,-0.211 0.035,-0.332 -0.031,-0.125 -0.101,-0.215 -0.199,-0.27 -0.109,-0.062 -0.226,-0.082 -0.347,-0.058 l -4.176,1.133 -1.121,-4.188 z"
         id="path68"
         style="fill:#ffffff;fill-opacity:1;fill-rule:nonzero;stroke:none" /><path
         d="m 152.395,134.866 -2.981,-1.719 c -0.043,-0.133 0.024,-0.356 0.203,-0.664 0.598,-1.043 1.418,-1.266 2.453,-0.668 1.043,0.601 1.262,1.422 0.66,2.465 l -0.335,0.586 z m 1.113,-0.137 c 0.371,-0.645 0.504,-1.274 0.402,-1.891 -0.133,-0.742 -0.594,-1.34 -1.394,-1.8 -0.797,-0.461 -1.543,-0.559 -2.243,-0.297 -0.593,0.214 -1.074,0.644 -1.445,1.285 -0.121,0.211 -0.211,0.418 -0.273,0.625 l -1.617,-0.934 c -0.11,-0.062 -0.223,-0.078 -0.344,-0.051 -0.117,0.028 -0.211,0.094 -0.27,0.204 -0.066,0.109 -0.078,0.226 -0.047,0.347 0.032,0.121 0.102,0.215 0.211,0.278 l 5.852,3.375 c 0.101,0.058 0.211,0.07 0.332,0.039 0.121,-0.032 0.215,-0.106 0.281,-0.211 l 0.555,-0.969 z"
         id="path70"
         style="fill:#ffffff;fill-opacity:1;fill-rule:nonzero;stroke:none" /><path
         d="m 153.504,126.182 -2.149,-1.238 0.622,-1.078 c 0.058,-0.11 0.074,-0.219 0.046,-0.336 -0.031,-0.114 -0.101,-0.203 -0.207,-0.266 -0.113,-0.062 -0.226,-0.078 -0.343,-0.051 -0.118,0.028 -0.211,0.098 -0.274,0.203 l -1.691,2.93 c -0.063,0.109 -0.074,0.223 -0.043,0.344 0.031,0.121 0.101,0.215 0.211,0.277 0.109,0.063 0.222,0.078 0.34,0.039 0.117,-0.031 0.207,-0.105 0.269,-0.215 l 0.613,-1.058 2.153,1.238 -0.613,1.063 c -0.063,0.109 -0.079,0.222 -0.047,0.343 0.031,0.125 0.105,0.215 0.214,0.278 0.106,0.062 0.219,0.078 0.336,0.043 0.118,-0.035 0.207,-0.11 0.27,-0.215 l 0.613,-1.063 2.153,1.239 -0.614,1.062 c -0.062,0.109 -0.078,0.227 -0.047,0.348 0.036,0.121 0.106,0.215 0.215,0.277 0.098,0.055 0.207,0.067 0.332,0.035 0.121,-0.031 0.211,-0.101 0.278,-0.211 l 1.687,-2.925 c 0.063,-0.11 0.074,-0.223 0.039,-0.34 -0.035,-0.117 -0.101,-0.203 -0.203,-0.262 -0.105,-0.063 -0.223,-0.082 -0.34,-0.055 -0.121,0.032 -0.211,0.098 -0.273,0.207 l -0.621,1.075 -2.149,-1.239 0.621,-1.078 c 0.063,-0.105 0.078,-0.219 0.047,-0.332 -0.031,-0.117 -0.101,-0.203 -0.211,-0.269 -0.109,-0.063 -0.222,-0.079 -0.34,-0.051 -0.121,0.031 -0.21,0.097 -0.273,0.207 l -0.621,1.074 z"
         id="path72"
         style="fill:#ffffff;fill-opacity:1;fill-rule:nonzero;stroke:none" /><path
         d="m 155.812,116.963 c -0.027,-0.117 -0.097,-0.211 -0.207,-0.273 -0.105,-0.063 -0.222,-0.078 -0.343,-0.043 -0.121,0.031 -0.215,0.101 -0.278,0.211 -0.261,0.453 -0.304,0.894 -0.129,1.324 0.145,0.359 0.379,0.633 0.704,0.824 l 0.98,0.563 c 0.391,0.226 0.473,0.535 0.25,0.926 -0.223,0.378 -0.531,0.46 -0.922,0.246 -0.113,-0.063 -0.226,-0.078 -0.347,-0.047 -0.122,0.035 -0.215,0.105 -0.278,0.215 -0.133,0.226 -0.082,0.421 0.141,0.586 0.226,0.168 0.351,0.332 0.379,0.492 l -2.41,-1.391 c -0.106,-0.062 -0.223,-0.078 -0.34,-0.051 -0.121,0.028 -0.211,0.098 -0.274,0.207 -0.062,0.106 -0.078,0.223 -0.047,0.344 0.036,0.121 0.106,0.215 0.215,0.277 l 5.852,3.375 c 0.097,0.059 0.211,0.071 0.332,0.04 0.121,-0.032 0.215,-0.102 0.277,-0.211 l 1.125,-1.946 c 0.192,-0.336 0.262,-0.691 0.211,-1.058 -0.074,-0.465 -0.336,-0.828 -0.789,-1.09 -0.109,-0.063 -0.223,-0.082 -0.34,-0.051 -0.121,0.027 -0.211,0.094 -0.273,0.203 -0.067,0.11 -0.082,0.227 -0.047,0.348 0.035,0.121 0.101,0.211 0.211,0.277 0.39,0.223 0.473,0.531 0.25,0.922 -0.363,0.625 -0.664,1.148 -0.906,1.563 l -2.188,-1.262 c 0.07,-0.274 0.067,-0.535 -0.019,-0.789 0.41,-0.102 0.73,-0.352 0.96,-0.754 0.262,-0.453 0.309,-0.899 0.137,-1.336 -0.14,-0.348 -0.375,-0.617 -0.711,-0.809 l -0.968,-0.558 c -0.399,-0.231 -0.485,-0.539 -0.262,-0.93 0.066,-0.109 0.082,-0.223 0.054,-0.344"
         id="path74"
         style="fill:#ffffff;fill-opacity:1;fill-rule:nonzero;stroke:none" /><path
         d="m 158.488,112.323 c -0.027,-0.118 -0.093,-0.211 -0.203,-0.274 -0.109,-0.062 -0.226,-0.078 -0.347,-0.043 -0.122,0.032 -0.211,0.102 -0.278,0.211 l -1.121,1.946 c -0.062,0.109 -0.078,0.222 -0.047,0.347 0.035,0.121 0.106,0.211 0.215,0.278 0.109,0.058 0.219,0.074 0.34,0.039 0.113,-0.036 0.207,-0.106 0.265,-0.215 l 0.34,-0.586 5.078,2.929 -0.339,0.586 c -0.063,0.106 -0.079,0.223 -0.043,0.344 0.031,0.121 0.101,0.215 0.211,0.278 0.101,0.058 0.211,0.07 0.332,0.039 0.121,-0.036 0.214,-0.106 0.277,-0.215 l 1.121,-1.946 c 0.066,-0.109 0.078,-0.222 0.047,-0.343 -0.031,-0.125 -0.098,-0.215 -0.199,-0.27 -0.11,-0.062 -0.223,-0.078 -0.344,-0.047 -0.121,0.032 -0.215,0.102 -0.277,0.211 l -0.336,0.586 -5.078,-2.93 0.336,-0.585 c 0.062,-0.11 0.082,-0.223 0.05,-0.34"
         id="path76"
         style="fill:#ffffff;fill-opacity:1;fill-rule:nonzero;stroke:none" /><path
         d="m 168.137,109.108 c -0.032,-0.121 -0.098,-0.211 -0.196,-0.27 l -5.855,-3.375 c -0.109,-0.062 -0.223,-0.078 -0.344,-0.047 -0.125,0.036 -0.215,0.106 -0.277,0.211 -0.063,0.11 -0.078,0.223 -0.043,0.34 0.035,0.117 0.109,0.207 0.215,0.27 l 3.515,2.027 -0.679,1.172 -3.512,-2.027 c -0.109,-0.063 -0.223,-0.079 -0.344,-0.047 -0.121,0.035 -0.215,0.105 -0.277,0.215 -0.063,0.105 -0.078,0.222 -0.047,0.343 0.035,0.121 0.105,0.215 0.215,0.278 l 3.512,2.027 -0.676,1.168 -3.512,-2.023 c -0.109,-0.063 -0.223,-0.082 -0.34,-0.055 -0.121,0.031 -0.211,0.098 -0.277,0.207 -0.059,0.109 -0.074,0.223 -0.043,0.348 0.031,0.121 0.105,0.21 0.211,0.273 l 5.855,3.379 c 0.098,0.058 0.211,0.07 0.332,0.035 0.121,-0.031 0.215,-0.102 0.274,-0.211 0.066,-0.109 0.078,-0.223 0.043,-0.34 -0.035,-0.117 -0.102,-0.203 -0.203,-0.261 l -1.567,-0.903 0.676,-1.172 1.566,0.907 c 0.102,0.054 0.211,0.07 0.336,0.035 0.121,-0.032 0.211,-0.102 0.274,-0.211 0.062,-0.11 0.078,-0.227 0.047,-0.348 -0.036,-0.121 -0.102,-0.211 -0.2,-0.265 l -1.566,-0.907 0.676,-1.168 1.566,0.903 c 0.098,0.054 0.207,0.07 0.328,0.043 0.118,-0.028 0.211,-0.094 0.274,-0.204 0.062,-0.109 0.074,-0.226 0.043,-0.347"
         id="path78"
         style="fill:#ffffff;fill-opacity:1;fill-rule:nonzero;stroke:none" /><path
         d="m 167.129,102.569 -2.149,-1.242 0.622,-1.075 c 0.062,-0.109 0.078,-0.222 0.046,-0.336 -0.031,-0.113 -0.101,-0.203 -0.207,-0.265 -0.113,-0.063 -0.226,-0.082 -0.343,-0.055 -0.118,0.031 -0.211,0.098 -0.274,0.207 l -1.687,2.926 c -0.063,0.109 -0.078,0.226 -0.047,0.348 0.035,0.121 0.105,0.214 0.215,0.277 0.105,0.062 0.218,0.074 0.34,0.039 0.113,-0.035 0.203,-0.105 0.265,-0.215 l 0.613,-1.062 2.153,1.242 -0.614,1.062 c -0.062,0.11 -0.078,0.223 -0.042,0.344 0.031,0.121 0.101,0.215 0.21,0.277 0.106,0.063 0.219,0.079 0.336,0.039 0.122,-0.035 0.211,-0.105 0.27,-0.214 l 0.613,-1.063 2.153,1.242 -0.614,1.063 c -0.062,0.109 -0.078,0.222 -0.043,0.344 0.032,0.125 0.102,0.214 0.211,0.277 0.098,0.059 0.211,0.07 0.332,0.039 0.121,-0.035 0.215,-0.105 0.278,-0.215 l 1.687,-2.926 c 0.063,-0.109 0.074,-0.218 0.043,-0.336 -0.039,-0.121 -0.101,-0.207 -0.203,-0.265 -0.109,-0.063 -0.223,-0.078 -0.344,-0.051 -0.117,0.027 -0.211,0.098 -0.273,0.203 l -0.617,1.078 -2.153,-1.242 0.621,-1.074 c 0.063,-0.11 0.078,-0.223 0.047,-0.336 -0.031,-0.113 -0.097,-0.203 -0.211,-0.266 -0.105,-0.062 -0.218,-0.078 -0.34,-0.05 -0.121,0.027 -0.207,0.097 -0.273,0.203 l -0.621,1.078 z"
         id="path80"
         style="fill:#ffffff;fill-opacity:1;fill-rule:nonzero;stroke:none" /><path
         d="m 174.117,99.014 c 0.102,-0.18 0.184,-0.402 0.235,-0.66 0.109,-0.52 0.043,-1.012 -0.188,-1.469 -0.242,-0.519 -0.68,-0.957 -1.309,-1.316 -0.796,-0.461 -1.886,-0.797 -3.269,-1 -0.336,-0.231 -0.406,-0.524 -0.199,-0.879 0.062,-0.11 0.078,-0.223 0.051,-0.34 -0.028,-0.121 -0.094,-0.211 -0.204,-0.273 -0.109,-0.063 -0.226,-0.079 -0.347,-0.047 -0.121,0.035 -0.215,0.105 -0.278,0.215 -0.261,0.453 -0.304,0.894 -0.129,1.32 0.145,0.363 0.379,0.637 0.704,0.824 0.058,0.031 0.113,0.051 0.168,0.059 1.316,0.191 2.328,0.492 3.035,0.902 0.472,0.27 0.793,0.574 0.961,0.914 0.199,0.395 0.207,0.797 0.023,1.215 l -1.766,1.176 -4.625,-2.672 c -0.109,-0.063 -0.222,-0.082 -0.343,-0.051 -0.117,0.027 -0.211,0.094 -0.274,0.203 -0.062,0.11 -0.078,0.227 -0.043,0.348 0.032,0.121 0.102,0.215 0.211,0.277 l 4.871,2.809 c 0.164,0.094 0.325,0.09 0.481,-0.012 l 2.09,-1.391 c 0.058,-0.039 0.105,-0.089 0.144,-0.152"
         id="path82"
         style="fill:#ffffff;fill-opacity:1;fill-rule:nonzero;stroke:none" /><path
         d="m 178.152,91.748 c -0.035,-0.117 -0.101,-0.203 -0.199,-0.261 -0.109,-0.063 -0.226,-0.082 -0.344,-0.055 -0.121,0.031 -0.211,0.098 -0.273,0.207 l -0.621,1.074 -5.457,-3.148 c -0.11,-0.063 -0.223,-0.078 -0.344,-0.047 -0.121,0.035 -0.215,0.105 -0.277,0.215 -0.063,0.109 -0.078,0.222 -0.047,0.344 0.035,0.121 0.105,0.214 0.215,0.277 l 5.457,3.148 -0.614,1.063 c -0.062,0.109 -0.078,0.226 -0.046,0.348 0.035,0.121 0.105,0.21 0.214,0.273 0.098,0.059 0.207,0.07 0.332,0.039 0.122,-0.031 0.215,-0.102 0.278,-0.211 l 1.687,-2.926 c 0.063,-0.109 0.075,-0.222 0.039,-0.34"
         id="path84"
         style="fill:#ffffff;fill-opacity:1;fill-rule:nonzero;stroke:none" /><path
         d="m 68.156,80.272 58.512,0 -29.254,50.676 -29.258,-50.676 z m 61.977,-2 -65.442,0 32.723,56.676 32.719,-56.676 z"
         id="path86"
         style="fill:#ffffff;fill-opacity:1;fill-rule:nonzero;stroke:none" /><path
         d="m 97.414,151.104 c -10.078,0 -18.277,-8.199 -18.277,-18.277 0,-10.079 8.199,-18.278 18.277,-18.278 10.078,0 18.277,8.199 18.277,18.278 0,10.078 -8.199,18.277 -18.277,18.277 m 0,-40.555 c -12.285,0 -22.277,9.992 -22.277,22.278 0,12.285 9.992,22.277 22.277,22.277 12.281,0 22.277,-9.992 22.277,-22.277 0,-12.286 -9.996,-22.278 -22.277,-22.278"
         id="path88"
         style="fill:#ffffff;fill-opacity:1;fill-rule:nonzero;stroke:none" /><path
         d="m 67.125,62.752 1.035,0 0,-11.594 -1.035,0 0,11.594 z"
         id="path90"
         style="fill:#ffffff;fill-opacity:1;fill-rule:nonzero;stroke:none" /><path
         d="m 88.379,51.159 1.031,0 0,-11.48 -1.031,0 0,11.48 z"
         id="path92"
         style="fill:#ffffff;fill-opacity:1;fill-rule:nonzero;stroke:none" /><path
         d="M 91.168,36.327 64.605,65.42 65.367,66.116 91.934,37.022 91.168,36.327 z"
         id="path94"
         style="fill:#ffffff;fill-opacity:1;fill-rule:nonzero;stroke:none" /><path
         d="m 66.312,65.768 c 0,-0.734 -0.593,-1.328 -1.328,-1.328 -0.734,0 -1.328,0.594 -1.328,1.328 0,0.734 0.594,1.328 1.328,1.328 0.735,0 1.328,-0.594 1.328,-1.328"
         id="path96"
         style="fill:#ffffff;fill-opacity:1;fill-rule:nonzero;stroke:none" /><path
         d="m 64.984,66.58 c -0.445,0 -0.812,-0.363 -0.812,-0.812 0,-0.449 0.367,-0.813 0.812,-0.813 0.45,0 0.813,0.364 0.813,0.813 0,0.449 -0.363,0.812 -0.813,0.812 m 0,-2.656 c -1.015,0 -1.843,0.828 -1.843,1.844 0,1.016 0.828,1.844 1.843,1.844 1.02,0 1.848,-0.828 1.848,-1.844 0,-1.016 -0.828,-1.844 -1.848,-1.844"
         id="path98"
         style="fill:#ffffff;fill-opacity:1;fill-rule:nonzero;stroke:none" /><path
         d="m 108.578,56.135 c 0,-0.734 -0.598,-1.328 -1.328,-1.328 -0.734,0 -1.328,0.594 -1.328,1.328 0,0.735 0.594,1.328 1.328,1.328 0.73,0 1.328,-0.593 1.328,-1.328"
         id="path100"
         style="fill:#ffffff;fill-opacity:1;fill-rule:nonzero;stroke:none" /><path
         d="m 107.25,56.948 c -0.449,0 -0.812,-0.364 -0.812,-0.813 0,-0.449 0.363,-0.812 0.812,-0.812 0.445,0 0.812,0.363 0.812,0.812 0,0.449 -0.367,0.813 -0.812,0.813 m 0,-2.657 c -1.02,0 -1.848,0.829 -1.848,1.844 0,1.016 0.828,1.844 1.848,1.844 1.016,0 1.844,-0.828 1.844,-1.844 0,-1.015 -0.828,-1.844 -1.844,-1.844"
         id="path102"
         style="fill:#ffffff;fill-opacity:1;fill-rule:nonzero;stroke:none" /><path
         d="m 106.73,38.35 c 0,-0.73 -0.593,-1.328 -1.328,-1.328 -0.73,0 -1.328,0.598 -1.328,1.328 0,0.734 0.598,1.328 1.328,1.328 0.735,0 1.328,-0.594 1.328,-1.328"
         id="path104"
         style="fill:#ffffff;fill-opacity:1;fill-rule:nonzero;stroke:none" /><path
         d="m 105.402,39.163 c -0.445,0 -0.808,-0.364 -0.808,-0.813 0,-0.445 0.363,-0.809 0.808,-0.809 0.45,0 0.813,0.364 0.813,0.809 0,0.449 -0.363,0.813 -0.813,0.813 m 0,-2.657 c -1.015,0 -1.843,0.828 -1.843,1.844 0,1.02 0.828,1.848 1.843,1.848 1.02,0 1.848,-0.828 1.848,-1.848 0,-1.016 -0.828,-1.844 -1.848,-1.844"
         id="path106"
         style="fill:#ffffff;fill-opacity:1;fill-rule:nonzero;stroke:none" /><path
         d="m 107.25,45.51 c 0,-0.734 -0.598,-1.328 -1.328,-1.328 -0.734,0 -1.328,0.594 -1.328,1.328 0,0.735 0.594,1.328 1.328,1.328 0.73,0 1.328,-0.593 1.328,-1.328"
         id="path108"
         style="fill:#ffffff;fill-opacity:1;fill-rule:nonzero;stroke:none" /><path
         d="m 105.922,46.323 c -0.449,0 -0.813,-0.364 -0.813,-0.813 0,-0.449 0.364,-0.812 0.813,-0.812 0.445,0 0.812,0.363 0.812,0.812 0,0.449 -0.367,0.813 -0.812,0.813 m 0,-2.657 c -1.02,0 -1.848,0.829 -1.848,1.844 0,1.016 0.828,1.844 1.848,1.844 1.016,0 1.844,-0.828 1.844,-1.844 0,-1.015 -0.828,-1.844 -1.844,-1.844"
         id="path110"
         style="fill:#ffffff;fill-opacity:1;fill-rule:nonzero;stroke:none" /><path
         d="m 92.879,36.545 c 0,-0.73 -0.594,-1.328 -1.328,-1.328 -0.735,0 -1.328,0.598 -1.328,1.328 0,0.735 0.593,1.328 1.328,1.328 0.734,0 1.328,-0.593 1.328,-1.328"
         id="path112"
         style="fill:#ffffff;fill-opacity:1;fill-rule:nonzero;stroke:none" /><path
         d="m 91.551,37.358 c -0.449,0 -0.813,-0.363 -0.813,-0.813 0,-0.445 0.364,-0.808 0.813,-0.808 0.449,0 0.812,0.363 0.812,0.808 0,0.45 -0.363,0.813 -0.812,0.813 m 0,-2.656 c -1.016,0 -1.844,0.828 -1.844,1.843 0,1.02 0.828,1.844 1.844,1.844 1.015,0 1.844,-0.824 1.844,-1.844 0,-1.015 -0.829,-1.843 -1.844,-1.843"
         id="path114"
         style="fill:#ffffff;fill-opacity:1;fill-rule:nonzero;stroke:none" /><path
         d="m 90.223,51.159 c 0,-0.735 -0.594,-1.329 -1.328,-1.329 -0.735,0 -1.329,0.594 -1.329,1.329 0,0.73 0.594,1.328 1.329,1.328 0.734,0 1.328,-0.598 1.328,-1.328"
         id="path116"
         style="fill:#ffffff;fill-opacity:1;fill-rule:nonzero;stroke:none" /><path
         d="m 88.895,51.971 c -0.45,0 -0.813,-0.367 -0.813,-0.812 0,-0.45 0.363,-0.813 0.813,-0.813 0.449,0 0.812,0.363 0.812,0.813 0,0.445 -0.363,0.812 -0.812,0.812 m 0,-2.656 c -1.02,0 -1.844,0.824 -1.844,1.844 0,1.015 0.824,1.843 1.844,1.843 1.015,0 1.843,-0.828 1.843,-1.843 0,-1.02 -0.828,-1.844 -1.843,-1.844"
         id="path118"
         style="fill:#ffffff;fill-opacity:1;fill-rule:nonzero;stroke:none" /><path
         d="m 97.074,63.1 0,-21.25 1.028,0 0,21.25 -1.028,0 z"
         id="path120"
         style="fill:#ffffff;fill-opacity:1;fill-rule:nonzero;stroke:none" /><path
         d="m 68.969,51.159 c 0,-0.735 -0.594,-1.329 -1.328,-1.329 -0.735,0 -1.329,0.594 -1.329,1.329 0,0.73 0.594,1.328 1.329,1.328 0.734,0 1.328,-0.598 1.328,-1.328"
         id="path122"
         style="fill:#ffffff;fill-opacity:1;fill-rule:nonzero;stroke:none" /><path
         d="m 67.641,51.971 c -0.446,0 -0.813,-0.367 -0.813,-0.812 0,-0.45 0.367,-0.813 0.813,-0.813 0.449,0 0.812,0.363 0.812,0.813 0,0.445 -0.363,0.812 -0.812,0.812 m 0,-2.656 c -1.016,0 -1.844,0.824 -1.844,1.844 0,1.015 0.828,1.843 1.844,1.843 1.019,0 1.847,-0.828 1.847,-1.843 0,-1.02 -0.828,-1.844 -1.847,-1.844"
         id="path124"
         style="fill:#ffffff;fill-opacity:1;fill-rule:nonzero;stroke:none" /><path
         d="m 98.914,41.862 c 0,-0.735 -0.594,-1.332 -1.328,-1.332 -0.734,0 -1.328,0.597 -1.328,1.332 0,0.73 0.594,1.324 1.328,1.324 0.734,0 1.328,-0.594 1.328,-1.324"
         id="path126"
         style="fill:#ffffff;fill-opacity:1;fill-rule:nonzero;stroke:none" /><path
         d="m 97.586,42.67 c -0.449,0 -0.813,-0.363 -0.813,-0.812 0,-0.445 0.364,-0.809 0.813,-0.809 0.445,0 0.812,0.364 0.812,0.809 0,0.449 -0.367,0.812 -0.812,0.812 m 0,-2.656 c -1.02,0 -1.844,0.828 -1.844,1.844 0,1.019 0.824,1.847 1.844,1.847 1.016,0 1.844,-0.828 1.844,-1.847 0,-1.016 -0.828,-1.844 -1.844,-1.844"
         id="path128"
         style="fill:#ffffff;fill-opacity:1;fill-rule:nonzero;stroke:none" /><path
         d="m 123.801,63.1 0,-21.25 1.023,0 0,21.25 -1.023,0 z"
         id="path130"
         style="fill:#ffffff;fill-opacity:1;fill-rule:nonzero;stroke:none" /><path
         d="m 125.645,63.112 c 0,-0.735 -0.594,-1.328 -1.329,-1.328 -0.734,0 -1.324,0.593 -1.324,1.328 0,0.734 0.59,1.328 1.324,1.328 0.735,0 1.329,-0.594 1.329,-1.328"
         id="path132"
         style="fill:#ffffff;fill-opacity:1;fill-rule:nonzero;stroke:none" /><path
         d="m 124.316,63.924 c -0.445,0 -0.812,-0.363 -0.812,-0.812 0,-0.449 0.367,-0.813 0.812,-0.813 0.45,0 0.813,0.364 0.813,0.813 0,0.449 -0.363,0.812 -0.813,0.812 m 0,-2.656 c -1.015,0 -1.843,0.828 -1.843,1.844 0,1.019 0.828,1.843 1.843,1.843 1.02,0 1.848,-0.824 1.848,-1.843 0,-1.016 -0.828,-1.844 -1.848,-1.844"
         id="path134"
         style="fill:#ffffff;fill-opacity:1;fill-rule:nonzero;stroke:none" /><path
         d="m 125.645,41.862 c 0,-0.735 -0.594,-1.332 -1.329,-1.332 -0.734,0 -1.324,0.597 -1.324,1.332 0,0.73 0.59,1.324 1.324,1.324 0.735,0 1.329,-0.594 1.329,-1.324"
         id="path136"
         style="fill:#ffffff;fill-opacity:1;fill-rule:nonzero;stroke:none" /><path
         d="m 124.316,42.67 c -0.445,0 -0.812,-0.363 -0.812,-0.812 0,-0.445 0.367,-0.809 0.812,-0.809 0.45,0 0.813,0.364 0.813,0.809 0,0.449 -0.363,0.812 -0.813,0.812 m 0,-2.656 c -1.015,0 -1.843,0.828 -1.843,1.844 0,1.019 0.828,1.847 1.843,1.847 1.02,0 1.848,-0.828 1.848,-1.847 0,-1.016 -0.828,-1.844 -1.848,-1.844"
         id="path138"
         style="fill:#ffffff;fill-opacity:1;fill-rule:nonzero;stroke:none" /><path
         d="m 106.285,45.143 -0.73,0.73 9.746,9.747 -8.051,0 0,1.031 10.543,0 -11.508,-11.508 z"
         id="path140"
         style="fill:#ffffff;fill-opacity:1;fill-rule:nonzero;stroke:none" /><path
         d="m 110.57,35.698 c -2.004,0 -4.008,0.765 -5.531,2.289 l 0.731,0.73 c 2.648,-2.648 6.953,-2.648 9.601,0 2.645,2.649 2.645,6.953 0,9.602 -1.121,1.121 -2.609,1.816 -4.183,1.957 l 0.093,1.031 c 1.817,-0.164 3.528,-0.965 4.821,-2.258 1.476,-1.476 2.289,-3.441 2.289,-5.531 0,-2.09 -0.813,-4.055 -2.289,-5.531 -1.528,-1.524 -3.528,-2.289 -5.532,-2.289"
         id="path142"
         style="fill:#ffffff;fill-opacity:1;fill-rule:nonzero;stroke:none" /><path
         d="m 98.914,63.112 c 0,-0.735 -0.594,-1.328 -1.328,-1.328 -0.734,0 -1.328,0.593 -1.328,1.328 0,0.734 0.594,1.328 1.328,1.328 0.734,0 1.328,-0.594 1.328,-1.328"
         id="path144"
         style="fill:#ffffff;fill-opacity:1;fill-rule:nonzero;stroke:none" /><path
         d="m 97.586,63.924 c -0.449,0 -0.813,-0.363 -0.813,-0.812 0,-0.449 0.364,-0.813 0.813,-0.813 0.445,0 0.812,0.364 0.812,0.813 0,0.449 -0.367,0.812 -0.812,0.812 m 0,-2.656 c -1.02,0 -1.844,0.828 -1.844,1.844 0,1.019 0.824,1.843 1.844,1.843 1.016,0 1.844,-0.824 1.844,-1.843 0,-1.016 -0.828,-1.844 -1.844,-1.844"
         id="path146"
         style="fill:#ffffff;fill-opacity:1;fill-rule:nonzero;stroke:none" /><path
         d="m 64.234,17.452 c -1.07,0 -1.945,-1.122 -1.945,-2.497 0,-1.378 0.875,-2.496 1.945,-2.496 1.075,0 1.946,1.118 1.946,2.496 0,1.375 -0.871,2.497 -1.946,2.497 m 0,-5.676 c -1.445,0 -2.625,1.426 -2.625,3.179 0,1.75 1.18,3.176 2.625,3.176 1.45,0 2.625,-1.426 2.625,-3.176 0,-1.753 -1.175,-3.179 -2.625,-3.179"
         id="path148"
         style="fill:#ffffff;fill-opacity:1;fill-rule:nonzero;stroke:none" /><path
         d="m 68.98,11.815 -0.593,0 0,0.683 0.593,0 c 1.262,0 2.18,0.61 2.18,1.45 0,0.843 -0.918,1.457 -2.18,1.457 l -0.558,0.008 0.008,0.679 0.554,-0.008 c 1.653,0 2.856,-0.898 2.856,-2.136 0,-1.235 -1.203,-2.133 -2.86,-2.133"
         id="path150"
         style="fill:#ffffff;fill-opacity:1;fill-rule:nonzero;stroke:none" /><path
         d="m 77.66,11.877 -3.91,0 0,6.098 0.68,0 0,-5.418 2.55,0 0,5.418 0.68,0 0,-6.098 z"
         id="path152"
         style="fill:#ffffff;fill-opacity:1;fill-rule:nonzero;stroke:none" /><path
         d="m 80.891,11.877 -3.571,0 0,0.68 2.891,0 0,5.418 0.68,0 0,-6.098 z"
         id="path154"
         style="fill:#ffffff;fill-opacity:1;fill-rule:nonzero;stroke:none" /><path
         d="m 80.832,12.526 0.684,0 0,-2.27 -0.684,0 0,2.27 z"
         id="path156"
         style="fill:#ffffff;fill-opacity:1;fill-rule:nonzero;stroke:none" /><path
         d="m 116.766,12.713 0.68,0 0,-0.848 -0.68,0 0,0.848 z"
         id="path158"
         style="fill:#ffffff;fill-opacity:1;fill-rule:nonzero;stroke:none" /><path
         d="m 84.059,11.663 -0.621,0.191 0,6.121 0.679,0 0,-5.023 3.574,5.214 0.621,-0.191 0,-6.121 -0.679,0 0,5.023 -3.574,-5.214 z"
         id="path160"
         style="fill:#ffffff;fill-opacity:1;fill-rule:nonzero;stroke:none" /><path
         d="m 90.805,11.663 -0.621,0.191 0,6.121 0.683,0 0,-5.023 3.571,5.214 0.621,-0.191 0,-6.121 -0.68,0 0,5.023 -3.574,-5.214 z"
         id="path162"
         style="fill:#ffffff;fill-opacity:1;fill-rule:nonzero;stroke:none" /><path
         d="m 104.078,11.663 -3.57,5.214 0,-5.023 -0.684,0 0,6.121 0.621,0.191 3.575,-5.214 0,5.023 0.679,0 0,-6.121 -0.621,-0.191 z"
         id="path164"
         style="fill:#ffffff;fill-opacity:1;fill-rule:nonzero;stroke:none" /><path
         d="m 68.707,11.834 -0.68,0 0,6.141 3.618,0 0,-0.68 -2.938,0 0,-5.461 z"
         id="path166"
         style="fill:#ffffff;fill-opacity:1;fill-rule:nonzero;stroke:none" /><path
         d="m 126.129,14.1 -0.535,0 0,0.684 0.535,0 c 1.121,0 1.937,0.527 1.937,1.257 0,0.731 -0.816,1.262 -1.937,1.262 l -0.508,0.008 0.012,0.68 0.5,-0.008 c 1.512,0 2.613,-0.817 2.613,-1.942 0,-1.125 -1.101,-1.941 -2.617,-1.941"
         id="path168"
         style="fill:#ffffff;fill-opacity:1;fill-rule:nonzero;stroke:none" /><path
         d="m 125.203,17.975 0.68,0 0,-6.184 -0.68,0 0,6.184 z"
         id="path170"
         style="fill:#ffffff;fill-opacity:1;fill-rule:nonzero;stroke:none" /><path
         d="m 110.707,11.885 -3.797,0 0,6.09 3.797,0 0,-0.68 -3.117,0 0,-4.73 3.117,0 0,-0.68 z"
         id="path172"
         style="fill:#ffffff;fill-opacity:1;fill-rule:nonzero;stroke:none" /><path
         d="m 113.789,17.53 0.68,0 0,-5.723 -0.68,0 0,5.723 z"
         id="path174"
         style="fill:#ffffff;fill-opacity:1;fill-rule:nonzero;stroke:none" /><path
         d="m 107.25,15.17 3.457,0 0,-0.68 -3.457,0 0,0.68 z"
         id="path176"
         style="fill:#ffffff;fill-opacity:1;fill-rule:nonzero;stroke:none" /><path
         d="m 92.273,19.471 c 0.036,-0.277 0.125,-0.558 0.547,-0.558 0.414,0 0.516,0.261 0.551,0.558 l 0.602,0 c -0.047,-0.601 -0.407,-0.973 -1.168,-0.973 -0.739,0 -1.09,0.379 -1.133,0.973 l 0.601,0 z"
         id="path178"
         style="fill:#ffffff;fill-opacity:1;fill-rule:nonzero;stroke:none" /><path
         d="m 112.082,17.995 4.098,0 0,-0.68 -4.098,0 0,0.68 z"
         id="path180"
         style="fill:#ffffff;fill-opacity:1;fill-rule:nonzero;stroke:none" /><path
         d="m 131.133,17.518 0.68,0 0,-5.711 -0.68,0 0,5.711 z"
         id="path182"
         style="fill:#ffffff;fill-opacity:1;fill-rule:nonzero;stroke:none" /><path
         d="m 129.426,17.983 4.094,0 0,-0.684 -4.094,0 0,0.684 z"
         id="path184"
         style="fill:#ffffff;fill-opacity:1;fill-rule:nonzero;stroke:none" /><path
         d="m 123.035,11.725 -1.859,5.133 -1.86,-5.133 -0.64,0.227 2.179,6.023 0.641,0 2.18,-6.023 -0.641,-0.227 z"
         id="path186"
         style="fill:#ffffff;fill-opacity:1;fill-rule:nonzero;stroke:none" /><path
         d="m 119.742,14.393 2.867,0 0,-0.68 -2.867,0 0,0.68 z"
         id="path188"
         style="fill:#ffffff;fill-opacity:1;fill-rule:nonzero;stroke:none" /><path
         d="m 128.461,11.721 -1.699,2.656 0.57,0.368 1.699,-2.657 -0.57,-0.367 z"
         id="path190"
         style="fill:#ffffff;fill-opacity:1;fill-rule:nonzero;stroke:none" /></g></g></svg>