<?xml version="1.0" encoding="UTF-8" standalone="no"?>
<!-- Created with Inkscape (http://www.inkscape.org/) -->

<svg
   xmlns:dc="http://purl.org/dc/elements/1.1/"
   xmlns:cc="http://creativecommons.org/ns#"
   xmlns:rdf="http://www.w3.org/1999/02/22-rdf-syntax-ns#"
   xmlns:svg="http://www.w3.org/2000/svg"
   xmlns="http://www.w3.org/2000/svg"
   xmlns:sodipodi="http://sodipodi.sourceforge.net/DTD/sodipodi-0.dtd"
   xmlns:inkscape="http://www.inkscape.org/namespaces/inkscape"
   width="243.53125"
   height="210.90625"
   id="svg3604"
   version="1.1"
   inkscape:version="0.48.4 r9939"
   sodipodi:docname="niei.svg">
  <defs
     id="defs3606" />
  <sodipodi:namedview
     id="base"
     pagecolor="#ffffff"
     bordercolor="#666666"
     borderopacity="1.0"
     inkscape:pageopacity="0.0"
     inkscape:pageshadow="2"
     inkscape:zoom="2.8"
     inkscape:cx="129.94226"
     inkscape:cy="104.88105"
     inkscape:document-units="px"
     inkscape:current-layer="layer1"
     showgrid="false"
     inkscape:window-width="1440"
     inkscape:window-height="873"
     inkscape:window-x="0"
     inkscape:window-y="0"
     inkscape:window-maximized="1"
     fit-margin-top="0"
     fit-margin-left="0"
     fit-margin-right="0"
     fit-margin-bottom="0"
     inkscape:snap-page="true" />
  <metadata
     id="metadata3609">
    <rdf:RDF>
      <cc:Work
         rdf:about="">
        <dc:format>image/svg+xml</dc:format>
        <dc:type
           rdf:resource="http://purl.org/dc/dcmitype/StillImage" />
        <dc:title />
      </cc:Work>
    </rdf:RDF>
  </metadata>
  <g
     inkscape:label="Calque 1"
     inkscape:groupmode="layer"
     id="layer1"
     transform="translate(-250.28125,-420.71875)">
    <rect
       style="fill:#ffffff;stroke:none;stroke-width:6.68300009000000017;stroke-linecap:round;stroke-linejoin:round;stroke-miterlimit:4;stroke-opacity:1;stroke-dasharray:none;stroke-dashoffset:0"
       id="rect3149"
       width="243.53125"
       height="210.90625"
       x="0"
       y="0"
       transform="translate(250.28125,420.71875)" />
    <rect
       style="fill:none;fill-opacity:1;fill-rule:nonzero;stroke:none"
       id="rect3150"
       width="243.53125"
       height="210.90625"
       x="0"
       y="0"
       transform="translate(250.28125,420.71875)" />
    <g
       id="g3955"
       transform="matrix(0.90476741,0,0,0.90476741,30.820649,78.121912)">
      <g
         transform="matrix(1.25,0,0,-1.25,321.31348,591.9187)"
         id="g3083"
         style="fill:#000000">
        <path
           style="fill:#000000;fill-opacity:1;fill-rule:nonzero;stroke:none"
           d="m 311.15625,420.71875 -60.875,105.46875 60.875,105.4375 121.78125,0 60.875,-105.4375 -60.875,-105.46875 -121.78125,0 z m 2,3.4375 117.78125,0 58.90625,102.03125 -0.28125,0.46875 -58.625,101.53125 -117.78125,0 -58.90625,-102 0.28125,-0.46875 58.625,-101.5625 z m 1.0625,1.875 -57.8125,100.15625 57.8125,100.125 115.65625,0 57.8125,-100.125 -57.8125,-100.15625 -115.65625,0 z m 2,3.4375 111.65625,0 55.84375,96.71875 -55.84375,96.6875 -111.65625,0 -55.84375,-96.6875 55.84375,-96.71875 z"
           transform="matrix(0.8,0,0,-0.8,-252.97429,498.30437)"
           id="path3085"
           inkscape:connector-curvature="0" />
      </g>
      <g
         transform="matrix(1.25,0,0,-1.25,319.32923,595.3562)"
         id="g3087"
         style="fill:#000000" />
      <g
         transform="matrix(1.25,0,0,-1.25,421.37273,571.8272)"
         id="g3091"
         style="fill:#000000">
        <path
           id="path3093"
           style="fill:#000000;fill-opacity:1;fill-rule:nonzero;stroke:none"
           d="m 0,0 -70.768,0 -35.383,61.286 35.383,61.286 17.448,0 c 0.829,0 1.5,-0.672 1.5,-1.5 0,-0.828 -0.671,-1.5 -1.5,-1.5 l -15.715,0 L -102.687,61.286 -69.035,3 -1.732,3 31.92,61.286 l -33.652,58.286 -16.545,0 c -0.829,0 -1.5,0.672 -1.5,1.5 0,0.828 0.671,1.5 1.5,1.5 L 0,122.572 35.383,61.286 0,0 z"
           inkscape:connector-curvature="0" />
      </g>
      <g
         transform="matrix(1.25,0,0,-1.25,290.77823,477.84283)"
         id="g3095"
         style="fill:#000000">
        <path
           id="path3097"
           style="fill:#000000;fill-opacity:1;fill-rule:nonzero;stroke:none"
           d="M 0,0 C 0.117,0.035 0.23,0.022 0.338,-0.04 0.447,-0.103 0.519,-0.195 0.552,-0.316 0.584,-0.438 0.569,-0.553 0.507,-0.662 L -0.614,-2.61 c -0.063,-0.109 -0.156,-0.18 -0.277,-0.212 -0.121,-0.033 -0.236,-0.019 -0.345,0.044 -0.109,0.062 -0.177,0.153 -0.205,0.272 -0.029,0.119 -0.012,0.233 0.05,0.342 l 0.337,0.586 -5.08,2.923 -0.337,-0.586 C -6.533,0.65 -6.626,0.579 -6.747,0.547 -6.869,0.514 -6.984,0.528 -7.093,0.592 c -0.1,0.056 -0.166,0.146 -0.2,0.268 -0.032,0.121 -0.018,0.238 0.045,0.346 l 1.121,1.948 c 0.063,0.11 0.155,0.18 0.276,0.212 0.122,0.032 0.233,0.021 0.333,-0.036 0.109,-0.063 0.18,-0.156 0.212,-0.277 0.034,-0.121 0.019,-0.237 -0.044,-0.346 l -0.338,-0.586 5.082,-2.923 0.336,0.586 C -0.207,-0.107 -0.117,-0.035 0,0"
           inkscape:connector-curvature="0" />
      </g>
      <g
         transform="matrix(1.25,0,0,-1.25,286.30436,470.61133)"
         id="g3099"
         style="fill:#000000">
        <path
           id="path3101"
           style="fill:#000000;fill-opacity:1;fill-rule:nonzero;stroke:none"
           d="m 0,0 4.726,-2.719 c 0.247,-0.118 0.477,0.009 0.691,0.381 0.287,0.5 0.287,1.014 -10e-4,1.543 C 5.128,-0.267 4.58,0.229 3.771,0.694 2.972,1.154 2.271,1.377 1.67,1.359 1.068,1.343 0.624,1.085 0.337,0.586 L 0,0 z M -0.44,1.033 C -0.138,1.56 0.295,1.921 0.855,2.118 1.78,2.444 2.901,2.229 4.218,1.471 5.544,0.708 6.298,-0.154 6.481,-1.118 6.593,-1.702 6.497,-2.257 6.193,-2.783 5.911,-3.273 5.55,-3.556 5.11,-3.629 4.801,-3.681 4.529,-3.64 4.293,-3.504 l -5.135,2.955 c -0.1,0.057 -0.166,0.147 -0.2,0.269 -0.031,0.122 -0.018,0.237 0.045,0.345 l 0.557,0.968 z"
           inkscape:connector-curvature="0" />
      </g>
      <g
         transform="matrix(1.25,0,0,-1.25,295.12635,463.74495)"
         id="g3103"
         style="fill:#000000">
        <path
           id="path3105"
           style="fill:#000000;fill-opacity:1;fill-rule:nonzero;stroke:none"
           d="m 0,0 2.152,-1.238 0.619,1.076 C 2.834,-0.054 2.923,0.017 3.037,0.048 3.152,0.079 3.264,0.063 3.371,0 3.48,-0.063 3.553,-0.152 3.588,-0.27 3.623,-0.386 3.61,-0.499 3.548,-0.608 L 1.863,-3.537 C 1.8,-3.646 1.707,-3.716 1.586,-3.749 1.465,-3.782 1.35,-3.768 1.24,-3.705 1.132,-3.643 1.063,-3.552 1.035,-3.433 1.007,-3.313 1.023,-3.2 1.086,-3.091 l 0.611,1.063 -2.152,1.238 -0.611,-1.063 c -0.063,-0.109 -0.155,-0.179 -0.276,-0.212 -0.121,-0.034 -0.237,-0.018 -0.346,0.044 -0.109,0.063 -0.177,0.155 -0.206,0.274 -0.028,0.119 -0.011,0.232 0.052,0.342 l 0.612,1.062 -2.153,1.239 -0.611,-1.064 c -0.063,-0.108 -0.154,-0.179 -0.277,-0.212 -0.122,-0.033 -0.237,-0.018 -0.345,0.045 -0.101,0.057 -0.166,0.147 -0.2,0.269 -0.032,0.122 -0.018,0.237 0.045,0.345 l 1.685,2.929 c 0.063,0.109 0.153,0.178 0.272,0.205 0.121,0.028 0.229,0.014 0.33,-0.043 0.108,-0.063 0.18,-0.152 0.215,-0.269 0.036,-0.118 0.022,-0.231 -0.041,-0.34 l -0.619,-1.076 2.153,-1.239 0.619,1.076 c 0.062,0.11 0.151,0.18 0.265,0.21 C 0.223,1.764 0.334,1.747 0.443,1.685 0.553,1.622 0.625,1.532 0.66,1.415 0.695,1.298 0.682,1.185 0.619,1.076 L 0,0 z"
           inkscape:connector-curvature="0" />
      </g>
      <g
         transform="matrix(1.25,0,0,-1.25,294.58923,453.96345)"
         id="g3107"
         style="fill:#000000">
        <path
           id="path3109"
           style="fill:#000000;fill-opacity:1;fill-rule:nonzero;stroke:none"
           d="M 0,0 C 0.104,0.182 0.256,0.361 0.454,0.537 0.851,0.889 1.305,1.08 1.817,1.111 2.389,1.158 2.988,1 3.613,0.641 c 0.8,-0.46 1.634,-1.237 2.504,-2.329 0.37,-0.177 0.657,-0.087 0.862,0.266 0.062,0.109 0.152,0.182 0.269,0.217 0.117,0.035 0.231,0.021 0.338,-0.041 C 7.695,-1.309 7.767,-1.4 7.799,-1.522 7.831,-1.644 7.816,-1.76 7.754,-1.868 7.493,-2.322 7.133,-2.58 6.674,-2.643 6.291,-2.701 5.936,-2.635 5.608,-2.447 5.554,-2.416 5.51,-2.378 5.475,-2.334 4.648,-1.29 3.881,-0.564 3.173,-0.157 2.701,0.114 2.275,0.238 1.899,0.213 1.461,0.187 1.107,-0.009 0.838,-0.373 L 0.706,-2.49 5.337,-5.155 C 5.446,-5.218 5.519,-5.309 5.554,-5.426 5.589,-5.542 5.576,-5.654 5.513,-5.764 5.45,-5.873 5.357,-5.943 5.236,-5.977 5.115,-6.01 5,-5.994 4.891,-5.932 l -4.876,2.805 c -0.163,0.094 -0.24,0.235 -0.23,0.422 l 0.154,2.504 C -0.057,-0.131 -0.037,-0.063 0,0"
           inkscape:connector-curvature="0" />
      </g>
      <g
         transform="matrix(1.25,0,0,-1.25,299.91523,445.04008)"
         id="g3111"
         style="fill:#000000">
        <path
           id="path3113"
           style="fill:#000000;fill-opacity:1;fill-rule:nonzero;stroke:none"
           d="M 0,0 C 0.12,0.027 0.229,0.014 0.329,-0.044 0.438,-0.107 0.51,-0.196 0.545,-0.313 0.581,-0.432 0.567,-0.544 0.505,-0.652 L -0.114,-1.729 5.347,-4.871 C 5.456,-4.934 5.527,-5.025 5.56,-5.147 5.592,-5.269 5.578,-5.384 5.515,-5.493 5.452,-5.602 5.359,-5.673 5.238,-5.706 5.117,-5.738 5.002,-5.724 4.893,-5.661 l -5.462,3.141 -0.612,-1.062 c -0.062,-0.108 -0.154,-0.18 -0.276,-0.211 -0.121,-0.033 -0.237,-0.02 -0.346,0.044 -0.1,0.058 -0.166,0.146 -0.199,0.269 -0.032,0.121 -0.019,0.237 0.045,0.345 l 1.685,2.93 C -0.21,-0.097 -0.118,-0.029 0,0"
           inkscape:connector-curvature="0" />
      </g>
      <g
         transform="matrix(1.25,0,0,-1.25,310.57435,443.4337)"
         id="g3115"
         style="fill:#000000">
        <path
           id="path3117"
           style="fill:#000000;fill-opacity:1;fill-rule:nonzero;stroke:none"
           d="M 0,0 C 0.116,0.035 0.229,0.022 0.338,-0.04 0.447,-0.103 0.519,-0.195 0.551,-0.316 0.583,-0.438 0.569,-0.553 0.507,-0.662 L -0.614,-2.61 c -0.063,-0.109 -0.156,-0.179 -0.277,-0.212 -0.122,-0.033 -0.237,-0.018 -0.346,0.045 -0.108,0.062 -0.177,0.152 -0.205,0.271 -0.029,0.119 -0.011,0.234 0.051,0.342 l 0.337,0.586 -5.081,2.923 -0.337,-0.586 C -6.534,0.65 -6.626,0.58 -6.747,0.547 -6.869,0.514 -6.985,0.529 -7.094,0.592 -7.194,0.649 -7.26,0.738 -7.293,0.86 -7.325,0.982 -7.311,1.098 -7.248,1.206 l 1.12,1.948 c 0.063,0.11 0.155,0.18 0.276,0.212 0.123,0.032 0.234,0.021 0.333,-0.036 0.11,-0.063 0.18,-0.156 0.213,-0.277 0.033,-0.121 0.018,-0.237 -0.045,-0.346 l -0.337,-0.586 5.081,-2.922 0.336,0.585 C -0.208,-0.107 -0.117,-0.035 0,0"
           inkscape:connector-curvature="0" />
      </g>
      <g
         transform="matrix(1.25,0,0,-1.25,307.30048,432.2032)"
         id="g3119"
         style="fill:#000000">
        <path
           id="path3121"
           style="fill:#000000;fill-opacity:1;fill-rule:nonzero;stroke:none"
           d="M 0,0 C 0.12,0.028 0.229,0.015 0.329,-0.043 0.438,-0.105 0.511,-0.195 0.546,-0.313 0.581,-0.43 0.567,-0.543 0.505,-0.652 L -0.114,-1.729 5.347,-4.87 C 5.456,-4.933 5.527,-5.025 5.561,-5.146 5.593,-5.268 5.578,-5.383 5.515,-5.492 5.452,-5.602 5.36,-5.672 5.239,-5.705 5.117,-5.738 5.002,-5.723 4.893,-5.66 l -5.462,3.142 -0.612,-1.062 c -0.062,-0.109 -0.154,-0.18 -0.275,-0.213 -0.122,-0.033 -0.237,-0.018 -0.347,0.045 -0.099,0.058 -0.165,0.146 -0.199,0.269 -0.032,0.122 -0.018,0.237 0.045,0.346 l 1.685,2.928 C -0.21,-0.096 -0.118,-0.027 0,0"
           inkscape:connector-curvature="0" />
      </g>
      <g
         transform="matrix(1.25,0,0,-1.25,312.06973,423.93295)"
         id="g3123"
         style="fill:#000000">
        <path
           id="path3125"
           style="fill:#000000;fill-opacity:1;fill-rule:nonzero;stroke:none"
           d="M 0,0 C 0.114,0.03 0.227,0.016 0.336,-0.048 L 7.16,-3.974 c 0.162,-0.093 0.241,-0.23 0.236,-0.408 L 7.234,-6.899 C 7.23,-6.97 7.213,-7.032 7.182,-7.086 7.119,-7.195 7.026,-7.267 6.905,-7.299 6.783,-7.332 6.668,-7.317 6.559,-7.254 6.404,-7.165 6.334,-7.027 6.344,-6.841 l 0.121,2.234 -1.08,0.621 -0.099,-1.792 C 5.282,-5.85 5.265,-5.911 5.233,-5.966 5.129,-6.147 4.976,-6.331 4.771,-6.517 4.372,-6.854 3.92,-7.041 3.416,-7.077 c -0.571,-0.047 -1.17,0.11 -1.796,0.471 -0.79,0.455 -1.625,1.23 -2.504,2.329 -0.36,0.171 -0.642,0.079 -0.846,-0.275 -0.063,-0.109 -0.156,-0.179 -0.276,-0.213 -0.122,-0.033 -0.238,-0.017 -0.347,0.045 -0.109,0.063 -0.177,0.154 -0.206,0.272 -0.028,0.119 -0.011,0.232 0.051,0.34 0.259,0.45 0.617,0.706 1.074,0.765 0.374,0.063 0.73,-0.004 1.066,-0.197 0.045,-0.027 0.085,-0.063 0.12,-0.106 0.826,-1.043 1.594,-1.769 2.302,-2.176 0.471,-0.272 0.898,-0.39 1.28,-0.357 0.439,0.027 0.793,0.221 1.063,0.586 l 0.123,2.105 -4.631,2.664 c -0.11,0.063 -0.178,0.153 -0.206,0.272 -0.029,0.119 -0.011,0.233 0.051,0.342 C -0.203,-0.101 -0.114,-0.031 0,0"
           inkscape:connector-curvature="0" />
      </g>
      <g
         transform="matrix(1.25,0,0,-1.25,312.73623,567.70858)"
         id="g3127"
         style="fill:#000000">
        <path
           id="path3129"
           style="fill:#000000;fill-opacity:1;fill-rule:nonzero;stroke:none"
           d="M 0,0 C -0.104,0.182 -0.184,0.402 -0.236,0.662 -0.342,1.182 -0.28,1.671 -0.05,2.13 0.197,2.646 0.633,3.086 1.259,3.447 2.058,3.908 3.148,4.24 4.529,4.445 4.868,4.677 4.935,4.97 4.73,5.324 4.668,5.432 4.65,5.547 4.679,5.666 4.707,5.785 4.775,5.875 4.883,5.938 4.993,6.001 5.107,6.016 5.229,5.983 5.351,5.951 5.443,5.88 5.506,5.771 5.768,5.317 5.811,4.877 5.635,4.448 5.492,4.088 5.257,3.813 4.931,3.625 4.875,3.593 4.821,3.574 4.765,3.566 3.448,3.374 2.436,3.074 1.728,2.666 1.256,2.393 0.937,2.088 0.769,1.75 0.572,1.357 0.563,0.953 0.743,0.537 L 2.51,-0.639 7.137,2.031 C 7.247,2.095 7.36,2.111 7.479,2.084 7.598,2.055 7.689,1.987 7.752,1.879 7.815,1.77 7.83,1.654 7.797,1.533 7.765,1.41 7.694,1.318 7.585,1.256 L 2.713,-1.555 C 2.55,-1.649 2.389,-1.645 2.232,-1.542 L 0.144,-0.153 C 0.085,-0.115 0.037,-0.064 0,0"
           inkscape:connector-curvature="0" />
      </g>
      <g
         transform="matrix(1.25,0,0,-1.25,312.73135,557.00783)"
         id="g3131"
         style="fill:#000000">
        <path
           id="path3133"
           style="fill:#000000;fill-opacity:1;fill-rule:nonzero;stroke:none"
           d="M 0,0 2.151,1.24 1.53,2.316 C 1.468,2.425 1.452,2.536 1.482,2.65 1.513,2.766 1.583,2.854 1.691,2.917 1.8,2.98 1.914,2.997 2.033,2.969 2.152,2.94 2.243,2.873 2.306,2.764 L 3.995,-0.163 C 4.057,-0.271 4.072,-0.387 4.04,-0.508 4.007,-0.631 3.937,-0.723 3.827,-0.785 3.719,-0.848 3.606,-0.861 3.489,-0.826 3.372,-0.791 3.282,-0.719 3.219,-0.611 L 2.606,0.451 0.455,-0.79 1.068,-1.852 C 1.13,-1.961 1.146,-2.076 1.114,-2.197 1.081,-2.318 1.01,-2.411 0.901,-2.474 0.792,-2.537 0.68,-2.551 0.562,-2.515 0.445,-2.48 0.355,-2.408 0.292,-2.299 l -0.612,1.062 -2.151,-1.242 0.613,-1.061 c 0.063,-0.108 0.078,-0.224 0.045,-0.345 -0.033,-0.123 -0.103,-0.215 -0.212,-0.277 -0.1,-0.059 -0.21,-0.07 -0.333,-0.037 -0.121,0.031 -0.214,0.102 -0.276,0.211 l -1.689,2.926 c -0.063,0.109 -0.076,0.222 -0.041,0.339 0.036,0.118 0.103,0.205 0.202,0.263 0.11,0.064 0.224,0.08 0.343,0.052 0.119,-0.029 0.21,-0.096 0.272,-0.205 l 0.621,-1.075 2.151,1.241 -0.621,1.074 c -0.063,0.109 -0.079,0.221 -0.048,0.336 0.03,0.114 0.1,0.203 0.209,0.266 0.109,0.062 0.223,0.08 0.342,0.051 0.119,-0.028 0.209,-0.096 0.272,-0.206 L 0,0 z"
           inkscape:connector-curvature="0" />
      </g>
      <g
         transform="matrix(1.25,0,0,-1.25,303.2416,550.91895)"
         id="g3135"
         style="fill:#000000">
        <path
           id="path3137"
           style="fill:#000000;fill-opacity:1;fill-rule:nonzero;stroke:none"
           d="M 0,0 C 0.036,0.118 0.103,0.205 0.202,0.263 0.312,0.326 0.426,0.344 0.545,0.314 0.664,0.287 0.755,0.219 0.817,0.109 l 0.621,-1.075 5.458,3.15 C 7.005,2.246 7.12,2.262 7.241,2.229 7.362,2.195 7.455,2.126 7.518,2.017 7.581,1.908 7.596,1.792 7.563,1.67 7.531,1.549 7.46,1.457 7.351,1.395 L 1.894,-1.755 2.506,-2.816 C 2.568,-2.926 2.584,-3.041 2.551,-3.162 2.519,-3.284 2.448,-3.377 2.339,-3.439 2.239,-3.497 2.129,-3.51 2.006,-3.477 1.885,-3.444 1.792,-3.374 1.729,-3.266 L 0.041,-0.338 C -0.021,-0.23 -0.035,-0.117 0,0"
           inkscape:connector-curvature="0" />
      </g>
      <g
         transform="matrix(1.25,0,0,-1.25,297.37548,540.75295)"
         id="g3139"
         style="fill:#000000">
        <path
           id="path3141"
           style="fill:#000000;fill-opacity:1;fill-rule:nonzero;stroke:none"
           d="m 0,0 c -0.121,0.033 -0.214,0.104 -0.277,0.213 -0.057,0.1 -0.069,0.21 -0.037,0.332 0.033,0.121 0.099,0.211 0.199,0.268 l 4.886,2.82 C 5.098,3.821 5.451,3.893 5.829,3.844 6.292,3.773 6.656,3.512 6.917,3.058 7.179,2.604 7.225,2.158 7.054,1.721 6.906,1.369 6.668,1.1 6.342,0.912 L 3.416,-0.777 C 3.025,-1.002 2.943,-1.311 3.167,-1.701 3.393,-2.092 3.701,-2.174 4.091,-1.948 L 7.018,-0.26 C 7.344,-0.071 7.7,-0.006 8.083,-0.063 8.546,-0.133 8.91,-0.395 9.172,-0.85 9.434,-1.303 9.476,-1.744 9.3,-2.172 9.158,-2.532 8.922,-2.807 8.596,-2.995 L 3.709,-5.814 C 3.61,-5.873 3.5,-5.885 3.377,-5.853 3.256,-5.82 3.163,-5.75 3.101,-5.641 c -0.063,0.11 -0.077,0.223 -0.042,0.34 0.036,0.117 0.103,0.204 0.203,0.262 l 4.873,2.812 c 0.399,0.23 0.487,0.54 0.261,0.93 -0.225,0.391 -0.533,0.473 -0.923,0.248 L 4.546,-2.738 C 4.21,-2.932 3.851,-3 3.467,-2.942 3.004,-2.872 2.64,-2.609 2.378,-2.156 2.117,-1.703 2.075,-1.261 2.25,-0.833 c 0.143,0.36 0.382,0.638 0.718,0.831 L 5.881,1.68 C 6.28,1.909 6.368,2.219 6.142,2.609 5.917,3 5.609,3.082 5.219,2.857 L 0.333,0.038 C 0.233,-0.02 0.123,-0.032 0,0"
           inkscape:connector-curvature="0" />
      </g>
      <g
         transform="matrix(1.25,0,0,-1.25,300.52435,531.80283)"
         id="g3143"
         style="fill:#000000">
        <path
           id="path3145"
           style="fill:#000000;fill-opacity:1;fill-rule:nonzero;stroke:none"
           d="M 0,0 C 0.211,0.785 0.115,1.529 -0.288,2.229 -0.691,2.927 -1.285,3.379 -2.069,3.586 -2.854,3.793 -3.595,3.694 -4.294,3.291 -4.993,2.889 -5.447,2.296 -5.656,1.517 -5.865,0.736 -5.768,-0.002 -5.365,-0.701 -4.962,-1.4 -4.369,-1.857 -3.587,-2.07 -2.804,-2.285 -2.063,-2.189 -1.365,-1.785 -0.666,-1.383 -0.211,-0.788 0,0 m -3.813,-2.936 c -1.023,0.275 -1.799,0.87 -2.329,1.787 -0.523,0.907 -0.647,1.872 -0.373,2.895 0.275,1.024 0.866,1.797 1.773,2.32 0.916,0.53 1.887,0.657 2.909,0.381 1.024,-0.273 1.797,-0.864 2.32,-1.771 0.53,-0.917 0.658,-1.887 0.382,-2.91 -0.274,-1.023 -0.87,-1.799 -1.786,-2.328 -0.908,-0.524 -1.873,-0.649 -2.896,-0.374"
           inkscape:connector-curvature="0" />
      </g>
      <g
         transform="matrix(1.25,0,0,-1.25,293.20748,516.64658)"
         id="g3147"
         style="fill:#000000">
        <path
           id="path3149"
           style="fill:#000000;fill-opacity:1;fill-rule:nonzero;stroke:none"
           d="M 0,0 C 0.028,0.119 0.097,0.209 0.205,0.271 0.314,0.335 0.43,0.35 0.551,0.318 0.672,0.285 0.765,0.214 0.828,0.105 1.09,-0.348 1.132,-0.789 0.957,-1.217 0.814,-1.578 0.579,-1.854 0.253,-2.041 l -0.981,-0.566 c -0.39,-0.225 -0.473,-0.534 -0.248,-0.922 0.22,-0.382 0.528,-0.465 0.923,-0.248 0.109,0.062 0.225,0.078 0.346,0.045 C 0.415,-3.765 0.507,-3.835 0.57,-3.944 0.701,-4.171 0.654,-4.367 0.43,-4.533 0.204,-4.699 0.079,-4.863 0.05,-5.024 l 2.409,1.389 c 0.109,0.064 0.223,0.081 0.342,0.053 C 2.92,-3.61 3.011,-3.679 3.074,-3.787 3.137,-3.896 3.151,-4.012 3.119,-4.133 3.087,-4.255 3.017,-4.348 2.907,-4.41 l -5.852,-3.377 c -0.1,-0.058 -0.21,-0.07 -0.333,-0.037 -0.121,0.032 -0.214,0.102 -0.277,0.211 l -1.123,1.947 c -0.194,0.336 -0.263,0.688 -0.211,1.058 0.072,0.463 0.333,0.827 0.787,1.088 0.109,0.063 0.223,0.081 0.342,0.052 0.119,-0.028 0.21,-0.096 0.273,-0.205 0.062,-0.109 0.078,-0.223 0.045,-0.347 -0.033,-0.121 -0.103,-0.212 -0.211,-0.275 -0.391,-0.226 -0.474,-0.533 -0.248,-0.923 0.361,-0.626 0.662,-1.148 0.902,-1.565 l 2.191,1.263 c -0.071,0.274 -0.066,0.537 0.017,0.791 -0.409,0.102 -0.73,0.352 -0.96,0.752 -0.262,0.454 -0.308,0.899 -0.137,1.336 0.139,0.346 0.377,0.617 0.712,0.81 l 0.967,0.558 c 0.399,0.23 0.487,0.541 0.262,0.931 C -0.01,-0.234 -0.028,-0.119 0,0"
           inkscape:connector-curvature="0" />
      </g>
      <g
         transform="matrix(1.25,0,0,-1.25,288.35823,508.24195)"
         id="g3151"
         style="fill:#000000">
        <path
           id="path3153"
           style="fill:#000000;fill-opacity:1;fill-rule:nonzero;stroke:none"
           d="M 0,0 C 0.029,0.118 0.097,0.21 0.205,0.272 0.314,0.335 0.429,0.351 0.551,0.317 0.672,0.284 0.765,0.214 0.828,0.105 1.089,-0.349 1.132,-0.79 0.957,-1.218 0.814,-1.578 0.579,-1.853 0.252,-2.041 l -0.98,-0.565 c -0.39,-0.226 -0.473,-0.534 -0.248,-0.924 0.22,-0.381 0.528,-0.463 0.923,-0.247 0.109,0.063 0.224,0.078 0.346,0.046 C 0.415,-3.765 0.507,-3.835 0.57,-3.944 0.701,-4.171 0.654,-4.367 0.43,-4.533 0.204,-4.7 0.079,-4.862 0.049,-5.024 l 2.409,1.39 c 0.11,0.063 0.224,0.08 0.343,0.052 C 2.919,-3.61 3.011,-3.679 3.074,-3.788 3.137,-3.896 3.151,-4.012 3.119,-4.134 3.086,-4.255 3.016,-4.347 2.907,-4.41 l -5.853,-3.377 c -0.099,-0.058 -0.21,-0.069 -0.332,-0.038 -0.121,0.033 -0.214,0.103 -0.277,0.213 -0.063,0.109 -0.076,0.221 -0.041,0.339 0.036,0.118 0.102,0.204 0.202,0.262 l 2.586,1.492 c -0.071,0.273 -0.067,0.536 0.017,0.79 -0.267,0.064 -0.497,0.191 -0.692,0.38 l -1.605,-0.925 c -0.336,-0.195 -0.692,-0.26 -1.066,-0.198 -0.465,0.07 -0.828,0.332 -1.09,0.785 -0.261,0.454 -0.304,0.896 -0.128,1.325 0.134,0.354 0.369,0.629 0.705,0.823 0.108,0.062 0.222,0.077 0.338,0.041 0.118,-0.036 0.21,-0.101 0.276,-0.194 0.062,-0.11 0.078,-0.225 0.045,-0.347 -0.033,-0.121 -0.103,-0.213 -0.211,-0.275 -0.386,-0.236 -0.468,-0.542 -0.248,-0.923 0.225,-0.391 0.532,-0.474 0.923,-0.248 l 1.606,0.925 c -0.102,0.366 -0.06,0.723 0.125,1.071 0.153,0.281 0.365,0.501 0.637,0.658 l 0.967,0.559 c 0.399,0.229 0.487,0.54 0.261,0.929 C -0.01,-0.233 -0.028,-0.12 0,0"
           inkscape:connector-curvature="0" />
      </g>
      <g
         transform="matrix(1.25,0,0,-1.25,465.49135,509.27833)"
         id="g3155"
         style="fill:#000000">
        <path
           id="path3157"
           style="fill:#000000;fill-opacity:1;fill-rule:nonzero;stroke:none"
           d="m 0,0 c -0.117,-0.035 -0.23,-0.021 -0.339,0.041 -0.108,0.063 -0.18,0.154 -0.213,0.276 -0.032,0.121 -0.017,0.237 0.045,0.345 L 0.614,2.611 C 0.677,2.72 0.769,2.79 0.891,2.823 1.012,2.856 1.127,2.842 1.236,2.779 1.345,2.717 1.413,2.625 1.441,2.506 1.47,2.387 1.452,2.273 1.39,2.164 L 1.053,1.578 6.134,-1.344 6.471,-0.758 c 0.062,0.109 0.155,0.179 0.276,0.211 0.122,0.033 0.236,0.02 0.346,-0.044 0.1,-0.057 0.166,-0.146 0.199,-0.268 0.033,-0.122 0.019,-0.238 -0.044,-0.346 L 6.127,-3.154 C 6.064,-3.263 5.972,-3.333 5.851,-3.365 5.729,-3.398 5.618,-3.387 5.518,-3.329 5.408,-3.266 5.338,-3.174 5.306,-3.053 5.272,-2.931 5.287,-2.815 5.35,-2.707 L 5.687,-2.121 0.605,0.803 0.27,0.217 C 0.207,0.107 0.117,0.035 0,0"
           inkscape:connector-curvature="0" />
      </g>
      <g
         transform="matrix(1.25,0,0,-1.25,469.81023,519.02695)"
         id="g3159"
         style="fill:#000000">
        <path
           id="path3161"
           style="fill:#000000;fill-opacity:1;fill-rule:nonzero;stroke:none"
           d="M 0,0 C -0.104,-0.182 -0.256,-0.359 -0.454,-0.535 -0.851,-0.889 -1.305,-1.079 -1.818,-1.111 -2.389,-1.156 -2.988,-1 -3.614,-0.639 -4.413,-0.18 -5.248,0.597 -6.117,1.689 -6.488,1.865 -6.774,1.777 -6.979,1.423 -7.041,1.314 -7.131,1.242 -7.248,1.206 -7.365,1.171 -7.479,1.185 -7.587,1.247 c -0.108,0.063 -0.18,0.155 -0.212,0.276 -0.033,0.122 -0.017,0.237 0.045,0.346 0.261,0.454 0.621,0.713 1.079,0.776 0.384,0.056 0.739,-0.008 1.066,-0.197 0.055,-0.032 0.099,-0.069 0.134,-0.114 0.827,-1.043 1.593,-1.768 2.302,-2.176 0.472,-0.271 0.897,-0.394 1.274,-0.37 0.437,0.026 0.791,0.222 1.061,0.586 l 0.132,2.118 -4.632,2.664 c -0.108,0.063 -0.182,0.153 -0.217,0.27 -0.035,0.117 -0.021,0.23 0.041,0.34 0.064,0.108 0.156,0.178 0.277,0.212 C -5.115,6.011 -5,5.996 -4.891,5.934 L -0.015,3.128 C 0.148,3.033 0.225,2.893 0.214,2.705 L 0.061,0.201 C 0.056,0.131 0.037,0.064 0,0"
           inkscape:connector-curvature="0" />
      </g>
      <g
         transform="matrix(1.25,0,0,-1.25,465.7856,524.80083)"
         id="g3163"
         style="fill:#000000">
        <path
           id="path3165"
           style="fill:#000000;fill-opacity:1;fill-rule:nonzero;stroke:none"
           d="m 0,0 c 0.082,-0.506 -0.001,-0.979 -0.251,-1.414 -0.074,-0.127 -0.185,-0.202 -0.33,-0.227 l -1.404,-0.172 c -0.096,-0.017 -0.19,0 -0.28,0.053 -0.108,0.063 -0.179,0.155 -0.213,0.276 -0.032,0.122 -0.017,0.237 0.045,0.345 0.075,0.127 0.188,0.201 0.344,0.219 l 1.135,0.146 c 0.235,0.662 -0.009,1.202 -0.735,1.62 C -1.926,0.98 -2.163,0.99 -2.399,0.873 -2.588,0.776 -2.874,0.541 -3.257,0.17 -3.72,-0.277 -4.093,-0.569 -4.378,-0.709 c -0.512,-0.236 -1.013,-0.215 -1.503,0.068 -0.725,0.418 -1.145,0.961 -1.256,1.629 -0.084,0.508 10e-4,0.979 0.251,1.414 0.047,0.082 0.112,0.141 0.194,0.179 l 1.805,0.901 c 0.15,0.072 0.293,0.068 0.429,-0.01 0.109,-0.064 0.18,-0.156 0.213,-0.278 C -4.212,3.074 -4.227,2.958 -4.29,2.85 -4.331,2.776 -4.396,2.717 -4.483,2.671 L -6.159,1.839 c -0.288,-0.693 -0.047,-1.26 0.724,-1.704 0.228,-0.13 0.459,-0.137 0.696,-0.02 0.184,0.089 0.469,0.323 0.859,0.703 0.462,0.448 0.84,0.739 1.135,0.87 0.502,0.244 1.003,0.221 1.502,-0.066 C -0.525,1.209 -0.111,0.669 0,0"
           inkscape:connector-curvature="0" />
      </g>
      <g
         transform="matrix(1.25,0,0,-1.25,460.7026,534.52133)"
         id="g3167"
         style="fill:#000000">
        <path
           id="path3169"
           style="fill:#000000;fill-opacity:1;fill-rule:nonzero;stroke:none"
           d="m 0,0 c -0.119,-0.028 -0.229,-0.014 -0.328,0.044 -0.11,0.062 -0.182,0.152 -0.217,0.269 -0.035,0.118 -0.022,0.231 0.04,0.34 l 0.619,1.076 -5.461,3.142 c -0.109,0.063 -0.179,0.155 -0.213,0.276 -0.032,0.122 -0.017,0.237 0.045,0.346 0.063,0.109 0.156,0.18 0.277,0.213 0.122,0.032 0.237,0.018 0.345,-0.045 L 0.569,2.519 1.181,3.581 C 1.243,3.69 1.336,3.761 1.457,3.794 1.579,3.827 1.694,3.812 1.804,3.749 1.903,3.691 1.969,3.603 2.002,3.479 2.035,3.358 2.021,3.243 1.958,3.134 L 0.272,0.206 C 0.21,0.097 0.119,0.028 0,0"
           inkscape:connector-curvature="0" />
      </g>
      <g
         transform="matrix(1.25,0,0,-1.25,450.04461,536.12895)"
         id="g3171"
         style="fill:#000000">
        <path
           id="path3173"
           style="fill:#000000;fill-opacity:1;fill-rule:nonzero;stroke:none"
           d="m 0,0 c -0.117,-0.035 -0.23,-0.021 -0.339,0.041 -0.108,0.063 -0.18,0.155 -0.212,0.277 -0.033,0.121 -0.018,0.237 0.044,0.345 L 0.614,2.611 C 0.677,2.721 0.769,2.791 0.891,2.824 1.012,2.857 1.127,2.842 1.236,2.779 1.345,2.717 1.413,2.626 1.441,2.506 1.47,2.389 1.453,2.273 1.391,2.165 L 1.053,1.58 6.134,-1.344 6.471,-0.758 c 0.062,0.11 0.155,0.18 0.276,0.212 0.122,0.033 0.237,0.019 0.347,-0.044 C 7.193,-0.648 7.259,-0.736 7.292,-0.859 7.325,-0.98 7.311,-1.096 7.248,-1.205 L 6.127,-3.153 C 6.064,-3.262 5.972,-3.332 5.851,-3.365 5.729,-3.397 5.618,-3.386 5.518,-3.328 5.408,-3.266 5.338,-3.174 5.306,-3.052 5.272,-2.93 5.287,-2.814 5.35,-2.706 L 5.687,-2.12 0.606,0.803 0.27,0.217 C 0.207,0.108 0.117,0.036 0,0"
           inkscape:connector-curvature="0" />
      </g>
      <g
         transform="matrix(1.25,0,0,-1.25,453.31735,547.35945)"
         id="g3175"
         style="fill:#000000">
        <path
           id="path3177"
           style="fill:#000000;fill-opacity:1;fill-rule:nonzero;stroke:none"
           d="m 0,0 c -0.119,-0.027 -0.229,-0.014 -0.328,0.045 -0.11,0.062 -0.182,0.152 -0.217,0.269 -0.035,0.118 -0.022,0.231 0.04,0.339 l 0.619,1.076 -5.461,3.142 c -0.109,0.063 -0.179,0.155 -0.213,0.277 -0.032,0.122 -0.017,0.237 0.045,0.346 0.063,0.109 0.156,0.18 0.277,0.213 0.122,0.032 0.237,0.017 0.345,-0.046 L 0.569,2.52 1.181,3.582 C 1.243,3.691 1.336,3.762 1.457,3.794 1.579,3.827 1.694,3.813 1.804,3.75 1.903,3.691 1.969,3.604 2.002,3.48 2.035,3.359 2.021,3.244 1.958,3.135 L 0.272,0.206 C 0.21,0.098 0.119,0.029 0,0"
           inkscape:connector-curvature="0" />
      </g>
      <g
         transform="matrix(1.25,0,0,-1.25,448.94836,554.9522)"
         id="g3179"
         style="fill:#000000">
        <path
           id="path3181"
           style="fill:#000000;fill-opacity:1;fill-rule:nonzero;stroke:none"
           d="m 0,0 c 0.035,-0.117 0.022,-0.23 -0.041,-0.34 -0.063,-0.109 -0.154,-0.18 -0.276,-0.213 -0.122,-0.031 -0.232,-0.019 -0.332,0.037 l -4.89,2.815 c -0.154,0.088 -0.227,0.226 -0.215,0.413 l 0.139,2.513 c 0.004,0.07 0.025,0.136 0.061,0.199 0.105,0.182 0.256,0.361 0.454,0.537 0.405,0.348 0.86,0.539 1.364,0.575 0.571,0.046 1.173,-0.112 1.809,-0.478 0.79,-0.454 1.62,-1.228 2.49,-2.322 C 0.934,3.561 1.22,3.649 1.424,4.004 1.486,4.112 1.579,4.184 1.7,4.215 1.822,4.248 1.937,4.234 2.046,4.171 2.146,4.113 2.212,4.024 2.245,3.902 2.278,3.781 2.264,3.665 2.201,3.557 1.939,3.102 1.579,2.844 1.119,2.781 0.746,2.719 0.391,2.785 0.055,2.979 0,3.01 -0.045,3.047 -0.08,3.092 -0.906,4.135 -1.673,4.859 -2.382,5.268 -2.845,5.534 -3.27,5.657 -3.654,5.637 -4.093,5.611 -4.446,5.416 -4.717,5.052 L -4.848,2.934 -0.203,0.262 C -0.103,0.203 -0.035,0.117 0,0"
           inkscape:connector-curvature="0" />
      </g>
      <g
         transform="matrix(1.25,0,0,-1.25,444.40373,562.85258)"
         id="g3183"
         style="fill:#000000">
        <path
           id="path3185"
           style="fill:#000000;fill-opacity:1;fill-rule:nonzero;stroke:none"
           d="m 0,0 c -0.119,-0.027 -0.229,-0.014 -0.328,0.044 -0.11,0.063 -0.182,0.152 -0.217,0.269 -0.035,0.119 -0.022,0.231 0.04,0.339 l 0.619,1.077 -5.461,3.142 c -0.109,0.063 -0.179,0.154 -0.213,0.276 -0.032,0.122 -0.017,0.237 0.045,0.346 0.063,0.109 0.156,0.18 0.277,0.213 0.122,0.032 0.237,0.017 0.345,-0.046 L 0.569,2.519 1.181,3.582 C 1.243,3.69 1.336,3.761 1.457,3.793 1.579,3.826 1.694,3.813 1.804,3.749 1.903,3.691 1.969,3.603 2.002,3.48 2.035,3.358 2.021,3.243 1.958,3.135 L 0.272,0.205 C 0.21,0.097 0.119,0.029 0,0"
           inkscape:connector-curvature="0" />
      </g>
      <g
         transform="matrix(1.25,0,0,-1.25,436.86223,565.58333)"
         id="g3187"
         style="fill:#000000">
        <path
           id="path3189"
           style="fill:#000000;fill-opacity:1;fill-rule:nonzero;stroke:none"
           d="M 0,0 -2.153,1.238 -2.772,0.162 C -2.835,0.054 -2.923,-0.017 -3.038,-0.048 -3.152,-0.079 -3.265,-0.063 -3.372,0 -3.481,0.063 -3.554,0.152 -3.589,0.27 -3.624,0.386 -3.61,0.499 -3.548,0.608 l 1.685,2.929 c 0.062,0.109 0.155,0.179 0.276,0.212 0.121,0.033 0.236,0.019 0.346,-0.044 C -1.133,3.643 -1.063,3.552 -1.036,3.433 -1.007,3.313 -1.024,3.2 -1.087,3.091 L -1.698,2.028 0.454,0.79 1.065,1.853 C 1.128,1.962 1.22,2.032 1.341,2.065 1.462,2.099 1.579,2.083 1.687,2.021 1.796,1.958 1.864,1.866 1.893,1.747 1.921,1.628 1.904,1.515 1.842,1.405 L 1.23,0.343 3.382,-0.896 3.993,0.168 C 4.056,0.276 4.148,0.347 4.27,0.38 4.392,0.413 4.507,0.398 4.616,0.335 4.716,0.278 4.782,0.188 4.814,0.066 4.848,-0.056 4.833,-0.171 4.771,-0.279 L 3.085,-3.208 C 3.022,-3.317 2.932,-3.386 2.813,-3.413 2.693,-3.441 2.585,-3.427 2.484,-3.37 c -0.109,0.063 -0.18,0.152 -0.216,0.269 -0.036,0.118 -0.023,0.231 0.04,0.34 l 0.62,1.076 -2.152,1.239 -0.619,-1.076 c -0.062,-0.11 -0.151,-0.18 -0.266,-0.21 -0.115,-0.032 -0.226,-0.015 -0.335,0.047 -0.109,0.063 -0.182,0.153 -0.217,0.27 -0.035,0.117 -0.022,0.23 0.041,0.339 L 0,0 z"
           inkscape:connector-curvature="0" />
      </g>
      <g
         transform="matrix(1.25,0,0,-1.25,433.13173,418.45195)"
         id="g3191"
         style="fill:#000000">
        <path
           id="path3193"
           style="fill:#000000;fill-opacity:1;fill-rule:nonzero;stroke:none"
           d="m 0,0 -2.151,-1.241 0.62,-1.075 c 0.063,-0.11 0.079,-0.221 0.048,-0.336 -0.031,-0.115 -0.1,-0.203 -0.208,-0.266 -0.11,-0.062 -0.224,-0.08 -0.343,-0.052 -0.118,0.029 -0.209,0.097 -0.273,0.205 l -1.688,2.927 c -0.063,0.109 -0.077,0.225 -0.045,0.346 0.032,0.121 0.102,0.214 0.212,0.277 0.108,0.063 0.222,0.076 0.339,0.041 0.117,-0.035 0.207,-0.107 0.269,-0.217 l 0.614,-1.061 2.15,1.241 -0.612,1.063 c -0.063,0.108 -0.078,0.222 -0.046,0.344 0.032,0.122 0.103,0.214 0.212,0.277 0.109,0.062 0.221,0.076 0.339,0.041 0.118,-0.035 0.208,-0.107 0.27,-0.215 L 0.319,1.236 2.47,2.477 1.857,3.539 C 1.795,3.648 1.779,3.764 1.813,3.885 1.845,4.006 1.915,4.099 2.024,4.162 2.124,4.219 2.234,4.231 2.357,4.199 2.479,4.166 2.571,4.096 2.634,3.987 L 4.322,1.061 C 4.386,0.952 4.398,0.839 4.364,0.722 4.327,0.604 4.261,0.518 4.161,0.459 4.052,0.396 3.938,0.379 3.819,0.407 3.7,0.436 3.608,0.504 3.546,0.612 L 2.926,1.688 0.775,0.447 1.396,-0.629 C 1.458,-0.736 1.475,-0.849 1.444,-0.963 1.413,-1.078 1.343,-1.166 1.234,-1.229 1.126,-1.292 1.011,-1.31 0.892,-1.281 0.773,-1.253 0.683,-1.184 0.62,-1.076 L 0,0 z"
           inkscape:connector-curvature="0" />
      </g>
      <g
         transform="matrix(1.25,0,0,-1.25,437.42373,432.41683)"
         id="g3195"
         style="fill:#000000">
        <path
           id="path3197"
           style="fill:#000000;fill-opacity:1;fill-rule:nonzero;stroke:none"
           d="m 0,0 c -0.031,-0.115 -0.101,-0.203 -0.209,-0.266 -0.109,-0.063 -0.224,-0.078 -0.346,-0.046 -0.121,0.033 -0.212,0.099 -0.268,0.199 -0.064,0.109 -0.082,0.225 -0.057,0.349 l 1.131,4.172 -4.186,1.123 c -0.115,0.031 -0.203,0.1 -0.266,0.209 -0.063,0.109 -0.077,0.225 -0.045,0.346 0.032,0.121 0.103,0.214 0.213,0.277 0.108,0.063 0.22,0.078 0.334,0.047 L 0.486,5.287 1.596,9.465 C 1.636,9.586 1.71,9.677 1.819,9.74 1.919,9.797 2.028,9.81 2.151,9.777 2.272,9.744 2.365,9.674 2.428,9.565 2.491,9.456 2.507,9.345 2.477,9.23 L 1.354,5.044 5.531,3.936 C 5.651,3.896 5.742,3.82 5.806,3.713 5.862,3.612 5.875,3.502 5.843,3.38 5.81,3.258 5.743,3.168 5.644,3.111 5.534,3.048 5.419,3.029 5.295,3.055 L 1.122,4.186 0,0 z"
           inkscape:connector-curvature="0" />
      </g>
      <g
         transform="matrix(1.25,0,0,-1.25,445.86973,432.07995)"
         id="g3199"
         style="fill:#000000">
        <path
           id="path3201"
           style="fill:#000000;fill-opacity:1;fill-rule:nonzero;stroke:none"
           d="m 0,0 -2.98,-1.72 c -0.044,-0.134 0.022,-0.355 0.201,-0.663 0.601,-1.044 1.42,-1.267 2.455,-0.67 1.043,0.602 1.263,1.424 0.662,2.468 L 0,0 z M 1.113,-0.137 C 1.485,-0.781 1.619,-1.412 1.516,-2.028 1.385,-2.769 0.922,-3.369 0.123,-3.829 c -0.798,-0.461 -1.546,-0.56 -2.242,-0.296 -0.595,0.213 -1.078,0.642 -1.449,1.286 -0.121,0.208 -0.21,0.417 -0.27,0.624 l -1.619,-0.933 c -0.109,-0.064 -0.224,-0.081 -0.343,-0.053 -0.118,0.028 -0.21,0.096 -0.272,0.205 -0.064,0.109 -0.078,0.225 -0.046,0.346 0.033,0.122 0.103,0.214 0.213,0.277 l 5.852,3.377 c 0.1,0.058 0.21,0.07 0.332,0.037 C 0.4,1.009 0.493,0.938 0.557,0.83 l 0.556,-0.967 z"
           inkscape:connector-curvature="0" />
      </g>
      <g
         transform="matrix(1.25,0,0,-1.25,447.25773,442.93433)"
         id="g3203"
         style="fill:#000000">
        <path
           id="path3205"
           style="fill:#000000;fill-opacity:1;fill-rule:nonzero;stroke:none"
           d="m 0,0 -2.151,-1.241 0.621,-1.075 c 0.062,-0.11 0.078,-0.221 0.048,-0.336 -0.031,-0.115 -0.101,-0.203 -0.208,-0.266 -0.11,-0.062 -0.224,-0.08 -0.343,-0.052 -0.118,0.029 -0.21,0.097 -0.273,0.205 l -1.689,2.927 c -0.063,0.109 -0.077,0.225 -0.045,0.346 0.033,0.121 0.103,0.214 0.213,0.277 0.108,0.063 0.221,0.076 0.338,0.04 0.117,-0.034 0.207,-0.106 0.269,-0.216 l 0.614,-1.061 2.151,1.241 -0.612,1.063 c -0.064,0.107 -0.079,0.222 -0.047,0.343 0.033,0.123 0.104,0.215 0.213,0.278 0.109,0.062 0.221,0.076 0.339,0.041 0.117,-0.035 0.207,-0.108 0.27,-0.215 L 0.32,1.236 2.471,2.477 1.858,3.539 C 1.795,3.647 1.78,3.764 1.813,3.885 1.846,4.006 1.916,4.099 2.025,4.162 2.125,4.219 2.235,4.231 2.358,4.199 2.479,4.166 2.571,4.096 2.634,3.987 L 4.323,1.061 C 4.386,0.951 4.399,0.839 4.364,0.722 4.328,0.604 4.261,0.517 4.161,0.459 4.052,0.396 3.938,0.379 3.819,0.407 3.7,0.436 3.609,0.504 3.547,0.612 L 2.926,1.688 0.775,0.447 1.396,-0.629 C 1.459,-0.737 1.476,-0.849 1.444,-0.963 1.413,-1.078 1.344,-1.167 1.235,-1.23 1.126,-1.293 1.012,-1.31 0.893,-1.281 0.774,-1.253 0.684,-1.185 0.621,-1.076 L 0,0 z"
           inkscape:connector-curvature="0" />
      </g>
      <g
         transform="matrix(1.25,0,0,-1.25,450.14223,454.45908)"
         id="g3207"
         style="fill:#000000">
        <path
           id="path3209"
           style="fill:#000000;fill-opacity:1;fill-rule:nonzero;stroke:none"
           d="m 0,0 c -0.029,-0.118 -0.097,-0.21 -0.205,-0.272 -0.109,-0.063 -0.225,-0.079 -0.346,-0.045 -0.122,0.033 -0.215,0.103 -0.277,0.212 -0.262,0.454 -0.305,0.895 -0.129,1.323 0.143,0.36 0.378,0.635 0.704,0.823 L 0.728,2.606 C 1.118,2.832 1.201,3.14 0.976,3.53 0.756,3.911 0.447,3.993 0.053,3.777 -0.057,3.714 -0.172,3.7 -0.294,3.731 -0.415,3.765 -0.508,3.835 -0.57,3.944 -0.701,4.171 -0.654,4.367 -0.43,4.533 -0.204,4.7 -0.079,4.862 -0.05,5.024 L -2.459,3.634 C -2.568,3.571 -2.683,3.554 -2.802,3.582 -2.92,3.61 -3.012,3.679 -3.074,3.788 c -0.063,0.108 -0.077,0.224 -0.045,0.346 0.032,0.121 0.102,0.213 0.212,0.276 l 5.852,3.377 c 0.1,0.058 0.21,0.069 0.333,0.038 C 3.399,7.792 3.492,7.722 3.555,7.612 L 4.678,5.666 C 4.871,5.331 4.941,4.978 4.889,4.608 4.817,4.145 4.556,3.781 4.102,3.519 3.993,3.456 3.879,3.438 3.76,3.468 3.641,3.495 3.55,3.564 3.487,3.673 3.424,3.782 3.408,3.897 3.442,4.019 3.475,4.14 3.545,4.232 3.653,4.295 4.044,4.521 4.127,4.828 3.901,5.218 3.54,5.845 3.239,6.366 2.998,6.783 L 0.808,5.519 C 0.879,5.246 0.874,4.983 0.79,4.729 1.2,4.627 1.521,4.377 1.751,3.978 2.013,3.524 2.059,3.078 1.888,2.641 1.748,2.294 1.511,2.024 1.176,1.831 L 0.209,1.272 C -0.19,1.043 -0.277,0.733 -0.053,0.343 0.01,0.233 0.027,0.12 0,0"
           inkscape:connector-curvature="0" />
      </g>
      <g
         transform="matrix(1.25,0,0,-1.25,453.48935,460.26108)"
         id="g3211"
         style="fill:#000000">
        <path
           id="path3213"
           style="fill:#000000;fill-opacity:1;fill-rule:nonzero;stroke:none"
           d="m 0,0 c -0.028,-0.118 -0.097,-0.209 -0.205,-0.271 -0.109,-0.064 -0.225,-0.079 -0.346,-0.046 -0.121,0.032 -0.214,0.102 -0.277,0.212 l -1.123,1.947 c -0.063,0.108 -0.077,0.223 -0.045,0.346 0.033,0.121 0.103,0.212 0.213,0.276 0.108,0.062 0.22,0.076 0.338,0.041 0.117,-0.035 0.207,-0.107 0.269,-0.216 L -0.838,1.703 4.239,4.633 3.901,5.219 C 3.839,5.327 3.824,5.442 3.856,5.564 3.889,5.686 3.96,5.777 4.069,5.841 4.169,5.898 4.279,5.91 4.401,5.879 4.522,5.846 4.615,5.775 4.678,5.666 L 5.801,3.72 C 5.864,3.611 5.879,3.496 5.847,3.374 5.813,3.252 5.747,3.162 5.647,3.105 5.538,3.042 5.423,3.027 5.302,3.06 5.18,3.092 5.088,3.162 5.025,3.271 L 4.688,3.857 -0.39,0.928 -0.053,0.342 C 0.011,0.233 0.028,0.119 0,0"
           inkscape:connector-curvature="0" />
      </g>
      <g
         transform="matrix(1.25,0,0,-1.25,465.54873,464.27833)"
         id="g3215"
         style="fill:#000000">
        <path
           id="path3217"
           style="fill:#000000;fill-opacity:1;fill-rule:nonzero;stroke:none"
           d="m 0,0 c -0.033,-0.122 -0.099,-0.211 -0.198,-0.269 l -5.854,-3.377 c -0.109,-0.062 -0.223,-0.078 -0.345,-0.045 -0.122,0.033 -0.214,0.103 -0.277,0.212 -0.063,0.109 -0.076,0.222 -0.042,0.339 0.035,0.118 0.108,0.207 0.217,0.27 l 3.512,2.025 -0.676,1.172 -3.512,-2.026 c -0.109,-0.064 -0.224,-0.078 -0.346,-0.046 -0.121,0.033 -0.213,0.103 -0.276,0.213 -0.063,0.108 -0.077,0.224 -0.046,0.345 0.033,0.122 0.104,0.214 0.213,0.278 l 3.512,2.025 -0.676,1.17 -3.512,-2.025 c -0.109,-0.063 -0.222,-0.08 -0.341,-0.053 -0.12,0.029 -0.21,0.097 -0.274,0.206 -0.062,0.108 -0.076,0.224 -0.045,0.346 0.033,0.122 0.104,0.214 0.213,0.276 L -2.9,4.413 c 0.099,0.059 0.21,0.07 0.333,0.038 C -2.446,4.419 -2.354,4.348 -2.292,4.239 -2.229,4.13 -2.216,4.017 -2.25,3.899 -2.286,3.782 -2.353,3.695 -2.452,3.638 l -1.567,-0.904 0.676,-1.171 1.566,0.905 c 0.099,0.056 0.21,0.069 0.333,0.037 C -1.323,2.472 -1.231,2.401 -1.168,2.292 -1.105,2.184 -1.091,2.068 -1.123,1.946 -1.157,1.825 -1.222,1.735 -1.321,1.678 l -1.567,-0.904 0.676,-1.17 1.566,0.903 c 0.099,0.057 0.208,0.072 0.329,0.045 C -0.199,0.523 -0.108,0.455 -0.045,0.347 0.018,0.237 0.032,0.122 0,0"
           inkscape:connector-curvature="0" />
      </g>
      <g
         transform="matrix(1.25,0,0,-1.25,464.29023,472.45345)"
         id="g3219"
         style="fill:#000000">
        <path
           id="path3221"
           style="fill:#000000;fill-opacity:1;fill-rule:nonzero;stroke:none"
           d="m 0,0 -2.151,-1.241 0.621,-1.075 c 0.062,-0.11 0.079,-0.221 0.048,-0.336 -0.032,-0.114 -0.1,-0.203 -0.209,-0.266 -0.11,-0.062 -0.223,-0.08 -0.342,-0.052 -0.119,0.029 -0.21,0.097 -0.273,0.205 l -1.688,2.927 c -0.064,0.109 -0.078,0.225 -0.045,0.346 0.032,0.122 0.102,0.214 0.212,0.277 0.108,0.063 0.221,0.076 0.339,0.041 0.116,-0.035 0.206,-0.107 0.269,-0.217 l 0.613,-1.061 2.151,1.241 -0.613,1.063 c -0.063,0.108 -0.078,0.222 -0.045,0.344 0.032,0.122 0.103,0.214 0.212,0.277 0.108,0.062 0.221,0.077 0.338,0.041 0.118,-0.035 0.208,-0.107 0.27,-0.215 L 0.32,1.236 2.471,2.477 1.857,3.539 C 1.795,3.648 1.78,3.764 1.813,3.885 1.846,4.007 1.916,4.099 2.025,4.162 2.125,4.219 2.235,4.232 2.357,4.199 2.479,4.166 2.571,4.096 2.635,3.987 L 4.323,1.061 C 4.386,0.952 4.398,0.839 4.364,0.722 4.328,0.604 4.262,0.518 4.162,0.459 4.053,0.396 3.938,0.379 3.819,0.407 3.7,0.436 3.609,0.504 3.547,0.612 L 2.926,1.688 0.775,0.447 1.396,-0.629 c 0.063,-0.107 0.079,-0.22 0.048,-0.334 -0.03,-0.115 -0.1,-0.203 -0.21,-0.266 -0.107,-0.063 -0.222,-0.08 -0.341,-0.052 -0.12,0.028 -0.209,0.097 -0.272,0.205 L 0,0 z"
           inkscape:connector-curvature="0" />
      </g>
      <g
         transform="matrix(1.25,0,0,-1.25,473.02185,476.89433)"
         id="g3223"
         style="fill:#000000">
        <path
           id="path3225"
           style="fill:#000000;fill-opacity:1;fill-rule:nonzero;stroke:none"
           d="m 0,0 c 0.104,-0.182 0.184,-0.402 0.237,-0.662 0.106,-0.52 0.043,-1.01 -0.187,-1.469 -0.246,-0.517 -0.683,-0.956 -1.309,-1.317 -0.799,-0.461 -1.888,-0.794 -3.27,-0.998 -0.338,-0.232 -0.406,-0.525 -0.201,-0.878 0.062,-0.11 0.08,-0.223 0.051,-0.342 -0.027,-0.119 -0.095,-0.21 -0.204,-0.272 -0.109,-0.064 -0.224,-0.08 -0.346,-0.046 -0.122,0.033 -0.214,0.103 -0.277,0.213 -0.262,0.453 -0.304,0.894 -0.129,1.322 0.144,0.361 0.378,0.636 0.704,0.824 0.056,0.031 0.11,0.051 0.166,0.059 1.317,0.191 2.329,0.491 3.037,0.9 0.472,0.271 0.791,0.577 0.959,0.916 0.198,0.392 0.206,0.795 0.026,1.212 L -2.51,0.638 -7.137,-2.033 c -0.109,-0.063 -0.223,-0.08 -0.342,-0.051 -0.119,0.027 -0.21,0.096 -0.273,0.205 -0.063,0.108 -0.077,0.225 -0.045,0.346 0.032,0.121 0.103,0.214 0.212,0.277 l 4.872,2.811 c 0.163,0.093 0.324,0.09 0.481,-0.014 L -0.144,0.152 C -0.085,0.113 -0.037,0.063 0,0"
           inkscape:connector-curvature="0" />
      </g>
      <g
         transform="matrix(1.25,0,0,-1.25,478.06948,485.97883)"
         id="g3227"
         style="fill:#000000">
        <path
           id="path3229"
           style="fill:#000000;fill-opacity:1;fill-rule:nonzero;stroke:none"
           d="m 0,0 c -0.035,-0.117 -0.103,-0.204 -0.202,-0.262 -0.11,-0.062 -0.224,-0.08 -0.343,-0.052 -0.119,0.029 -0.209,0.096 -0.272,0.205 l -0.621,1.076 -5.458,-3.149 c -0.109,-0.063 -0.223,-0.078 -0.345,-0.047 -0.121,0.034 -0.214,0.104 -0.277,0.213 -0.062,0.109 -0.078,0.225 -0.045,0.346 0.033,0.121 0.103,0.214 0.212,0.277 l 5.458,3.149 -0.613,1.062 c -0.062,0.108 -0.078,0.224 -0.045,0.346 0.032,0.121 0.103,0.213 0.212,0.276 0.1,0.058 0.21,0.07 0.333,0.039 0.121,-0.034 0.214,-0.104 0.277,-0.213 L -0.041,0.34 C 0.021,0.23 0.035,0.117 0,0"
           inkscape:connector-curvature="0" />
      </g>
      <g
         transform="matrix(1.25,0,0,-1.25,340.57136,500.32458)"
         id="g3231"
         style="fill:#000000">
        <path
           id="path3233"
           style="fill:#000000;fill-opacity:1;fill-rule:nonzero;stroke:none"
           d="M 0,0 58.514,0 29.257,50.675 0,0 z M 61.979,-2 -3.464,-2 29.257,54.675 61.979,-2 z"
           inkscape:connector-curvature="0" />
      </g>
      <g
         transform="matrix(1.25,0,0,-1.25,377.14298,411.78208)"
         id="g3235"
         style="fill:#000000">
        <path
           id="path3237"
           style="fill:#000000;fill-opacity:1;fill-rule:nonzero;stroke:none"
           d="m 0,0 c -10.078,0 -18.277,-8.199 -18.277,-18.278 0,-10.078 8.199,-18.278 18.277,-18.278 10.078,0 18.277,8.2 18.277,18.278 C 18.277,-8.199 10.078,0 0,0 m 0,-40.556 c -12.284,0 -22.277,9.993 -22.277,22.278 C -22.277,-5.994 -12.284,4 0,4 12.283,4 22.277,-5.994 22.277,-18.278 22.277,-30.563 12.283,-40.556 0,-40.556"
           inkscape:connector-curvature="0" />
      </g>
      <path
         id="path3239"
         style="fill:#000000;fill-opacity:1;fill-rule:nonzero;stroke:none"
         d="m 340.57548,536.71558 -1.29125,0 0,-14.4925 1.29125,0 0,14.4925 z"
         inkscape:connector-curvature="0" />
      <path
         id="path3241"
         style="fill:#000000;fill-opacity:1;fill-rule:nonzero;stroke:none"
         d="m 367.14048,551.06558 -1.29125,0 0,-14.34875 1.29125,0 0,14.34875 z"
         inkscape:connector-curvature="0" />
      <g
         transform="matrix(1.25,0,0,-1.25,369.33836,555.25733)"
         id="g3243"
         style="fill:#000000">
        <path
           id="path3245"
           style="fill:#000000;fill-opacity:1;fill-rule:nonzero;stroke:none"
           d="m 0,0 -26.565,29.095 0.762,0.697 L 0.763,0.696 0,0 z"
           inkscape:connector-curvature="0" />
      </g>
      <g
         transform="matrix(1.25,0,0,-1.25,338.2691,518.4532)"
         id="g3247"
         style="fill:#000000">
        <path
           id="path3249"
           style="fill:#000000;fill-opacity:1;fill-rule:nonzero;stroke:none"
           d="m 0,0 c 0,-0.733 -0.595,-1.328 -1.329,-1.328 -0.733,0 -1.328,0.595 -1.328,1.328 0,0.733 0.595,1.328 1.328,1.328 C -0.595,1.328 0,0.733 0,0"
           inkscape:connector-curvature="0" />
      </g>
      <path
         inkscape:connector-curvature="0"
         d="m 336.60835,517.43883 c -0.56,0 -1.015,0.45375 -1.015,1.015 0,0.55875 0.455,1.01375 1.015,1.01375 0.56,0 1.015,-0.455 1.015,-1.01375 0,-0.56125 -0.455,-1.015 -1.015,-1.015 m 0,3.32 c -1.27125,0 -2.30625,-1.035 -2.30625,-2.305 0,-1.2725 1.035,-2.30625 2.30625,-2.30625 1.27125,0 2.30625,1.03375 2.30625,2.30625 0,1.27 -1.035,2.305 -2.30625,2.305"
         style="fill:#000000;fill-opacity:1;fill-rule:nonzero;stroke:none"
         id="path3253" />
      <g
         transform="matrix(1.25,0,0,-1.25,391.0981,530.49296)"
         id="g3255"
         style="fill:#000000">
        <path
           id="path3257"
           style="fill:#000000;fill-opacity:1;fill-rule:nonzero;stroke:none"
           d="m 0,0 c 0,-0.734 -0.595,-1.329 -1.328,-1.329 -0.735,0 -1.328,0.595 -1.328,1.329 0,0.733 0.593,1.328 1.328,1.328 C -0.595,1.328 0,0.733 0,0"
           inkscape:connector-curvature="0" />
      </g>
      <g
         transform="matrix(1.25,0,0,-1.25,389.43785,529.47858)"
         id="g3259"
         style="fill:#000000">
        <path
           id="path3261"
           style="fill:#000000;fill-opacity:1;fill-rule:nonzero;stroke:none"
           d="m 0,0 c -0.447,0 -0.813,-0.364 -0.813,-0.812 0,-0.448 0.366,-0.812 0.813,-0.812 0.447,0 0.812,0.364 0.812,0.812 C 0.812,-0.364 0.447,0 0,0 m 0,-2.657 c -1.018,0 -1.845,0.828 -1.845,1.845 0,1.017 0.827,1.845 1.845,1.845 1.018,0 1.845,-0.828 1.845,-1.845 0,-1.017 -0.827,-1.845 -1.845,-1.845"
           inkscape:connector-curvature="0" />
      </g>
      <g
         transform="matrix(1.25,0,0,-1.25,388.79098,552.72445)"
         id="g3263"
         style="fill:#000000">
        <path
           id="path3265"
           style="fill:#000000;fill-opacity:1;fill-rule:nonzero;stroke:none"
           d="m 0,0 c 0,-0.733 -0.594,-1.328 -1.328,-1.328 -0.733,0 -1.328,0.595 -1.328,1.328 0,0.734 0.595,1.329 1.328,1.329 C -0.594,1.329 0,0.734 0,0"
           inkscape:connector-curvature="0" />
      </g>
      <g
         transform="matrix(1.25,0,0,-1.25,387.13073,551.70883)"
         id="g3267"
         style="fill:#000000">
        <path
           id="path3269"
           style="fill:#000000;fill-opacity:1;fill-rule:nonzero;stroke:none"
           d="m 0,0 c -0.447,0 -0.811,-0.364 -0.811,-0.813 0,-0.447 0.364,-0.811 0.811,-0.811 0.448,0 0.813,0.364 0.813,0.811 C 0.813,-0.364 0.448,0 0,0 m 0,-2.657 c -1.017,0 -1.844,0.828 -1.844,1.844 0,1.018 0.827,1.846 1.844,1.846 1.018,0 1.846,-0.828 1.846,-1.846 0,-1.016 -0.828,-1.844 -1.846,-1.844"
           inkscape:connector-curvature="0" />
      </g>
      <g
         transform="matrix(1.25,0,0,-1.25,389.43785,543.7767)"
         id="g3271"
         style="fill:#000000">
        <path
           id="path3273"
           style="fill:#000000;fill-opacity:1;fill-rule:nonzero;stroke:none"
           d="m 0,0 c 0,-0.733 -0.595,-1.328 -1.328,-1.328 -0.735,0 -1.328,0.595 -1.328,1.328 0,0.734 0.593,1.328 1.328,1.328 C -0.595,1.328 0,0.734 0,0"
           inkscape:connector-curvature="0" />
      </g>
      <g
         transform="matrix(1.25,0,0,-1.25,387.77773,542.76108)"
         id="g3275"
         style="fill:#000000">
        <path
           id="path3277"
           style="fill:#000000;fill-opacity:1;fill-rule:nonzero;stroke:none"
           d="m 0,0 c -0.447,0 -0.813,-0.364 -0.813,-0.813 0,-0.447 0.366,-0.811 0.813,-0.811 0.447,0 0.812,0.364 0.812,0.811 C 0.812,-0.364 0.447,0 0,0 m 0,-2.657 c -1.018,0 -1.846,0.828 -1.846,1.844 0,1.018 0.828,1.846 1.846,1.846 1.018,0 1.845,-0.828 1.845,-1.846 0,-1.016 -0.827,-1.844 -1.845,-1.844"
           inkscape:connector-curvature="0" />
      </g>
      <g
         transform="matrix(1.25,0,0,-1.25,371.47523,554.98033)"
         id="g3279"
         style="fill:#000000">
        <path
           id="path3281"
           style="fill:#000000;fill-opacity:1;fill-rule:nonzero;stroke:none"
           d="m 0,0 c 0,-0.733 -0.595,-1.328 -1.328,-1.328 -0.734,0 -1.328,0.595 -1.328,1.328 0,0.733 0.594,1.328 1.328,1.328 C -0.595,1.328 0,0.733 0,0"
           inkscape:connector-curvature="0" />
      </g>
      <g
         transform="matrix(1.25,0,0,-1.25,369.8151,553.96583)"
         id="g3283"
         style="fill:#000000">
        <path
           id="path3285"
           style="fill:#000000;fill-opacity:1;fill-rule:nonzero;stroke:none"
           d="m 0,0 c -0.448,0 -0.812,-0.364 -0.812,-0.812 0,-0.447 0.364,-0.811 0.812,-0.811 0.448,0 0.812,0.364 0.812,0.811 C 0.812,-0.364 0.448,0 0,0 m 0,-2.656 c -1.017,0 -1.845,0.827 -1.845,1.844 0,1.018 0.828,1.845 1.845,1.845 1.017,0 1.845,-0.827 1.845,-1.845 0,-1.017 -0.828,-1.844 -1.845,-1.844"
           inkscape:connector-curvature="0" />
      </g>
      <g
         transform="matrix(1.25,0,0,-1.25,368.15498,536.71608)"
         id="g3287"
         style="fill:#000000">
        <path
           id="path3289"
           style="fill:#000000;fill-opacity:1;fill-rule:nonzero;stroke:none"
           d="m 0,0 c 0,-0.734 -0.595,-1.328 -1.329,-1.328 -0.733,0 -1.328,0.594 -1.328,1.328 0,0.733 0.595,1.328 1.328,1.328 C -0.595,1.328 0,0.733 0,0"
           inkscape:connector-curvature="0" />
      </g>
      <g
         transform="matrix(1.25,0,0,-1.25,366.49423,535.70171)"
         id="g3291"
         style="fill:#000000">
        <path
           id="path3293"
           style="fill:#000000;fill-opacity:1;fill-rule:nonzero;stroke:none"
           d="m 0,0 c -0.447,0 -0.812,-0.364 -0.812,-0.812 0,-0.448 0.365,-0.812 0.812,-0.812 0.448,0 0.812,0.364 0.812,0.812 C 0.812,-0.364 0.448,0 0,0 m 0,-2.656 c -1.017,0 -1.845,0.827 -1.845,1.844 0,1.017 0.828,1.845 1.845,1.845 1.018,0 1.845,-0.828 1.845,-1.845 0,-1.017 -0.827,-1.844 -1.845,-1.844"
           inkscape:connector-curvature="0" />
      </g>
      <path
         style="fill:#000000;fill-opacity:1;fill-rule:nonzero;stroke:none"
         d="m 371.625,552.75 0,9.28125 0,4 0,13.28125 1.28125,0 0,-13.28125 0,-4 0,-9.28125 -1.28125,0 z"
         transform="translate(5.0956138,-30.961766)"
         id="path3295"
         inkscape:connector-curvature="0" />
      <g
         transform="matrix(1.25,0,0,-1.25,341.58935,536.71608)"
         id="g3297"
         style="fill:#000000">
        <path
           id="path3299"
           style="fill:#000000;fill-opacity:1;fill-rule:nonzero;stroke:none"
           d="m 0,0 c 0,-0.734 -0.595,-1.328 -1.328,-1.328 -0.734,0 -1.328,0.594 -1.328,1.328 0,0.733 0.594,1.328 1.328,1.328 C -0.595,1.328 0,0.733 0,0"
           inkscape:connector-curvature="0" />
      </g>
      <g
         transform="matrix(1.25,0,0,-1.25,339.92923,535.70171)"
         id="g3301"
         style="fill:#000000">
        <path
           id="path3303"
           style="fill:#000000;fill-opacity:1;fill-rule:nonzero;stroke:none"
           d="m 0,0 c -0.448,0 -0.812,-0.364 -0.812,-0.812 0,-0.448 0.364,-0.812 0.812,-0.812 0.447,0 0.812,0.364 0.812,0.812 C 0.812,-0.364 0.447,0 0,0 m 0,-2.656 c -1.018,0 -1.845,0.827 -1.845,1.844 0,1.017 0.827,1.845 1.845,1.845 1.017,0 1.845,-0.828 1.845,-1.845 0,-1.017 -0.828,-1.844 -1.845,-1.844"
           inkscape:connector-curvature="0" />
      </g>
      <g
         transform="matrix(1.25,0,0,-1.25,379.01798,548.33845)"
         id="g3307"
         style="fill:#000000">
        <path
           id="path3309"
           style="fill:#000000;fill-opacity:1;fill-rule:nonzero;stroke:none"
           d="m 0,0 c 0,-0.733 -0.594,-1.329 -1.328,-1.329 -0.733,0 -1.328,0.596 -1.328,1.329 0,0.733 0.595,1.328 1.328,1.328 C -0.594,1.328 0,0.733 0,0"
           inkscape:connector-curvature="0" />
      </g>
      <g
         transform="matrix(1.25,0,0,-1.25,377.35785,547.32408)"
         id="g3311"
         style="fill:#000000">
        <path
           id="path3313"
           style="fill:#000000;fill-opacity:1;fill-rule:nonzero;stroke:none"
           d="m 0,0 c -0.447,0 -0.811,-0.364 -0.811,-0.812 0,-0.448 0.364,-0.811 0.811,-0.811 0.448,0 0.813,0.363 0.813,0.811 C 0.813,-0.364 0.448,0 0,0 m 0,-2.656 c -1.017,0 -1.844,0.827 -1.844,1.844 0,1.017 0.827,1.845 1.844,1.845 1.018,0 1.846,-0.828 1.846,-1.845 0,-1.017 -0.828,-1.844 -1.846,-1.844"
           inkscape:connector-curvature="0" />
      </g>
      <path
         style="fill:#000000;fill-opacity:1;fill-rule:nonzero;stroke:none"
         d="m 405.03125,552.75 0,13.28125 0,2 0,11.28125 1.28125,0 0,-11.28125 0,-2 0,-13.28125 -1.28125,0 z"
         transform="translate(5.0956138,-30.961766)"
         id="path3315"
         inkscape:connector-curvature="0" />
      <g
         transform="matrix(1.25,0,0,-1.25,412.43473,521.77345)"
         id="g3317"
         style="fill:#000000">
        <path
           id="path3319"
           style="fill:#000000;fill-opacity:1;fill-rule:nonzero;stroke:none"
           d="m 0,0 c 0,-0.733 -0.596,-1.328 -1.328,-1.328 -0.735,0 -1.328,0.595 -1.328,1.328 0,0.733 0.593,1.328 1.328,1.328 C -0.596,1.328 0,0.733 0,0"
           inkscape:connector-curvature="0" />
      </g>
      <g
         transform="matrix(1.25,0,0,-1.25,410.7746,520.75908)"
         id="g3321"
         style="fill:#000000">
        <path
           id="path3323"
           style="fill:#000000;fill-opacity:1;fill-rule:nonzero;stroke:none"
           d="m 0,0 c -0.448,0 -0.813,-0.364 -0.813,-0.812 0,-0.447 0.365,-0.811 0.813,-0.811 0.447,0 0.811,0.364 0.811,0.811 C 0.811,-0.364 0.447,0 0,0 m 0,-2.656 c -1.018,0 -1.846,0.827 -1.846,1.844 0,1.018 0.828,1.845 1.846,1.845 1.017,0 1.844,-0.827 1.844,-1.845 0,-1.017 -0.827,-1.844 -1.844,-1.844"
           inkscape:connector-curvature="0" />
      </g>
      <g
         transform="matrix(1.25,0,0,-1.25,412.43473,548.33845)"
         id="g3327"
         style="fill:#000000">
        <path
           id="path3329"
           style="fill:#000000;fill-opacity:1;fill-rule:nonzero;stroke:none"
           d="m 0,0 c 0,-0.733 -0.596,-1.329 -1.328,-1.329 -0.735,0 -1.328,0.596 -1.328,1.329 0,0.733 0.593,1.328 1.328,1.328 C -0.596,1.328 0,0.733 0,0"
           inkscape:connector-curvature="0" />
      </g>
      <g
         transform="matrix(1.25,0,0,-1.25,410.7746,547.32408)"
         id="g3331"
         style="fill:#000000">
        <path
           id="path3333"
           style="fill:#000000;fill-opacity:1;fill-rule:nonzero;stroke:none"
           d="m 0,0 c -0.448,0 -0.813,-0.364 -0.813,-0.812 0,-0.448 0.365,-0.811 0.813,-0.811 0.447,0 0.811,0.363 0.811,0.811 C 0.811,-0.364 0.447,0 0,0 m 0,-2.656 c -1.018,0 -1.846,0.827 -1.846,1.844 0,1.017 0.828,1.845 1.846,1.845 1.017,0 1.844,-0.828 1.844,-1.845 0,-1.017 -0.827,-1.844 -1.844,-1.844"
           inkscape:connector-curvature="0" />
      </g>
      <g
         transform="matrix(1.25,0,0,-1.25,388.23423,544.2332)"
         id="g3335"
         style="fill:#000000">
        <path
           id="path3337"
           style="fill:#000000;fill-opacity:1;fill-rule:nonzero;stroke:none"
           d="m 0,0 -0.73,0.73 9.744,9.746 -8.051,0 0,1.032 10.545,0 L 0,0 z"
           inkscape:connector-curvature="0" />
      </g>
      <g
         transform="matrix(1.25,0,0,-1.25,393.58836,556.03983)"
         id="g3339"
         style="fill:#000000">
        <path
           id="path3341"
           style="fill:#000000;fill-opacity:1;fill-rule:nonzero;stroke:none"
           d="m 0,0 c -2.003,0 -4.006,0.763 -5.531,2.287 l 0.73,0.731 c 2.648,-2.647 6.955,-2.647 9.602,0 2.647,2.647 2.647,6.954 0,9.601 -1.121,1.121 -2.608,1.818 -4.184,1.96 l 0.094,1.029 C 2.527,15.443 4.24,14.642 5.531,13.35 7.009,11.872 7.822,9.908 7.822,7.818 7.822,5.729 7.009,3.765 5.531,2.287 4.006,0.763 2.004,0 0,0"
           inkscape:connector-curvature="0" />
      </g>
      <g
         transform="matrix(1.25,0,0,-1.25,379.01798,521.77345)"
         id="g3343"
         style="fill:#000000">
        <path
           id="path3345"
           style="fill:#000000;fill-opacity:1;fill-rule:nonzero;stroke:none"
           d="m 0,0 c 0,-0.733 -0.594,-1.328 -1.328,-1.328 -0.733,0 -1.328,0.595 -1.328,1.328 0,0.733 0.595,1.328 1.328,1.328 C -0.594,1.328 0,0.733 0,0"
           inkscape:connector-curvature="0" />
      </g>
      <g
         transform="matrix(1.25,0,0,-1.25,377.35785,520.75908)"
         id="g3347"
         style="fill:#000000">
        <path
           id="path3349"
           style="fill:#000000;fill-opacity:1;fill-rule:nonzero;stroke:none"
           d="m 0,0 c -0.447,0 -0.811,-0.364 -0.811,-0.812 0,-0.447 0.364,-0.811 0.811,-0.811 0.448,0 0.813,0.364 0.813,0.811 C 0.813,-0.364 0.448,0 0,0 m 0,-2.656 c -1.017,0 -1.844,0.827 -1.844,1.844 0,1.018 0.827,1.845 1.844,1.845 1.018,0 1.846,-0.827 1.846,-1.845 0,-1.017 -0.828,-1.844 -1.846,-1.844"
           inkscape:connector-curvature="0" />
      </g>
      <g
         transform="matrix(1.25,0,0,-1.25,335.67023,578.84995)"
         id="g3351"
         style="fill:#000000">
        <path
           id="path3353"
           style="fill:#000000;fill-opacity:1;fill-rule:nonzero;stroke:none"
           d="m 0,0 c -1.072,0 -1.944,-1.12 -1.944,-2.496 0,-1.377 0.872,-2.496 1.944,-2.496 1.072,0 1.944,1.119 1.944,2.496 C 1.944,-1.12 1.072,0 0,0 m 0,-5.673 c -1.447,0 -2.625,1.425 -2.625,3.177 0,1.752 1.178,3.176 2.625,3.176 1.447,0 2.625,-1.424 2.625,-3.176 0,-1.752 -1.178,-3.177 -2.625,-3.177"
           inkscape:connector-curvature="0" />
      </g>
      <g
         transform="matrix(1.25,0,0,-1.25,341.60223,585.89333)"
         id="g3355"
         style="fill:#000000">
        <path
           id="path3357"
           style="fill:#000000;fill-opacity:1;fill-rule:nonzero;stroke:none"
           d="m 0,0 -0.592,0 0,0.681 0.592,0 c 1.262,0 2.178,0.611 2.178,1.452 0,0.843 -0.916,1.454 -2.178,1.454 l -0.559,0.009 0.01,0.679 0.554,-0.008 C 1.656,4.267 2.858,3.37 2.858,2.133 2.858,0.897 1.656,0 0,0"
           inkscape:connector-curvature="0" />
      </g>
      <g
         transform="matrix(1.25,0,0,-1.25,352.45248,585.81895)"
         id="g3359"
         style="fill:#000000">
        <path
           id="path3361"
           style="fill:#000000;fill-opacity:1;fill-rule:nonzero;stroke:none"
           d="m 0,0 -3.909,0 0,6.1 0.68,0 0,-5.42 2.549,0 0,5.42 L 0,6.1 0,0 z"
           inkscape:connector-curvature="0" />
      </g>
      <g
         transform="matrix(1.25,0,0,-1.25,356.48873,585.81895)"
         id="g3363"
         style="fill:#000000">
        <path
           id="path3365"
           style="fill:#000000;fill-opacity:1;fill-rule:nonzero;stroke:none"
           d="m 0,0 -3.569,0 0,0.68 2.889,0 0,5.42 L 0,6.1 0,0 z"
           inkscape:connector-curvature="0" />
      </g>
      <path
         id="path3367"
         style="fill:#000000;fill-opacity:1;fill-rule:nonzero;stroke:none"
         d="m 357.26923,587.84183 -0.85,0 0,-2.83375 0.85,0 0,2.83375 z"
         inkscape:connector-curvature="0" />
      <path
         id="path3369"
         style="fill:#000000;fill-opacity:1;fill-rule:nonzero;stroke:none"
         d="m 402.18548,585.83183 -0.85,0 0,-1.06125 0.85,0 0,1.06125 z"
         inkscape:connector-curvature="0" />
      <g
         transform="matrix(1.25,0,0,-1.25,360.45048,586.08508)"
         id="g3371"
         style="fill:#000000">
        <path
           id="path3373"
           style="fill:#000000;fill-opacity:1;fill-rule:nonzero;stroke:none"
           d="m 0,0 -0.621,0.191 0,6.122 0.68,0 0,-5.024 3.573,5.215 0.62,-0.191 0,-6.122 -0.679,0 0,5.024 L 0,0 z"
           inkscape:connector-curvature="0" />
      </g>
      <g
         transform="matrix(1.25,0,0,-1.25,368.88498,586.08508)"
         id="g3375"
         style="fill:#000000">
        <path
           id="path3377"
           style="fill:#000000;fill-opacity:1;fill-rule:nonzero;stroke:none"
           d="m 0,0 -0.621,0.191 0,6.122 0.681,0 0,-5.024 3.572,5.215 0.621,-0.191 0,-6.122 -0.68,0 0,5.024 L 0,0 z"
           inkscape:connector-curvature="0" />
      </g>
      <g
         transform="matrix(1.25,0,0,-1.25,385.47548,586.08508)"
         id="g3379"
         style="fill:#000000">
        <path
           id="path3381"
           style="fill:#000000;fill-opacity:1;fill-rule:nonzero;stroke:none"
           d="m 0,0 -3.572,5.215 0,-5.024 -0.681,0 0,6.122 0.62,0.191 3.573,-5.215 0,5.024 0.68,0 0,-6.122 L 0,0 z"
           inkscape:connector-curvature="0" />
      </g>
      <g
         transform="matrix(1.25,0,0,-1.25,341.26223,585.87145)"
         id="g3383"
         style="fill:#000000">
        <path
           id="path3385"
           style="fill:#000000;fill-opacity:1;fill-rule:nonzero;stroke:none"
           d="m 0,0 -0.68,0 0,6.142 3.617,0 0,-0.68 L 0,5.462 0,0 z"
           inkscape:connector-curvature="0" />
      </g>
      <g
         transform="matrix(1.25,0,0,-1.25,413.03773,583.03695)"
         id="g3387"
         style="fill:#000000">
        <path
           id="path3389"
           style="fill:#000000;fill-opacity:1;fill-rule:nonzero;stroke:none"
           d="m 0,0 -0.535,0 0,0.682 0.535,0 c 1.123,0 1.938,0.529 1.938,1.259 0,0.731 -0.815,1.261 -1.938,1.261 l -0.506,0.007 0.01,0.68 0.5,-0.007 C 1.517,3.882 2.617,3.065 2.617,1.941 2.617,0.816 1.517,0 0,0"
           inkscape:connector-curvature="0" />
      </g>
      <path
         id="path3391"
         style="fill:#000000;fill-opacity:1;fill-rule:nonzero;stroke:none"
         d="m 412.73048,585.92183 -0.85,0 0,-7.7275 0.85,0 0,7.7275 z"
         inkscape:connector-curvature="0" />
      <g
         transform="matrix(1.25,0,0,-1.25,393.76036,585.80795)"
         id="g3393"
         style="fill:#000000">
        <path
           id="path3395"
           style="fill:#000000;fill-opacity:1;fill-rule:nonzero;stroke:none"
           d="m 0,0 -3.797,0 0,6.091 3.797,0 0,-0.68 -3.117,0 0,-4.731 L 0,0.68 0,0 z"
           inkscape:connector-curvature="0" />
      </g>
      <path
         id="path3397"
         style="fill:#000000;fill-opacity:1;fill-rule:nonzero;stroke:none"
         d="m 398.46423,585.90308 -0.85,0 0,-7.15125 0.85,0 0,7.15125 z"
         inkscape:connector-curvature="0" />
      <path
         id="path3399"
         style="fill:#000000;fill-opacity:1;fill-rule:nonzero;stroke:none"
         d="m 393.76048,582.54808 -4.32125,0 0,-0.85 4.32125,0 0,0.85 z"
         inkscape:connector-curvature="0" />
      <g
         transform="matrix(1.25,0,0,-1.25,370.71848,576.32433)"
         id="g3401"
         style="fill:#000000">
        <path
           id="path3403"
           style="fill:#000000;fill-opacity:1;fill-rule:nonzero;stroke:none"
           d="m 0,0 c 0.036,-0.278 0.126,-0.558 0.548,-0.558 0.414,0 0.514,0.261 0.549,0.558 L 1.699,0 C 1.653,-0.603 1.295,-0.971 0.53,-0.971 -0.206,-0.971 -0.558,-0.593 -0.603,0 L 0,0 z"
           inkscape:connector-curvature="0" />
      </g>
      <path
         id="path3405"
         style="fill:#000000;fill-opacity:1;fill-rule:nonzero;stroke:none"
         d="m 400.59923,579.02183 -5.12125,0 0,-0.85 5.12125,0 0,0.85 z"
         inkscape:connector-curvature="0" />
      <path
         id="path3407"
         style="fill:#000000;fill-opacity:1;fill-rule:nonzero;stroke:none"
         d="m 420.14298,585.90308 -0.85125,0 0,-7.1375 0.85125,0 0,7.1375 z"
         inkscape:connector-curvature="0" />
      <path
         id="path3409"
         style="fill:#000000;fill-opacity:1;fill-rule:nonzero;stroke:none"
         d="m 422.27798,579.03683 -5.12125,0 0,-0.85125 5.12125,0 0,0.85125 z"
         inkscape:connector-curvature="0" />
      <g
         transform="matrix(1.25,0,0,-1.25,409.17173,586.00933)"
         id="g3411"
         style="fill:#000000">
        <path
           id="path3413"
           style="fill:#000000;fill-opacity:1;fill-rule:nonzero;stroke:none"
           d="M 0,0 -1.86,5.136 -3.721,0 -4.36,0.23 l 2.179,6.02 0.64,0 L 0.64,0.23 0,0 z"
           inkscape:connector-curvature="0" />
      </g>
      <path
         id="path3415"
         style="fill:#000000;fill-opacity:1;fill-rule:nonzero;stroke:none"
         d="m 408.63923,583.52183 -3.58625,0 0,-0.85 3.58625,0 0,0.85 z"
         inkscape:connector-curvature="0" />
      <g
         transform="matrix(1.25,0,0,-1.25,415.9516,586.01183)"
         id="g3417"
         style="fill:#000000">
        <path
           id="path3419"
           style="fill:#000000;fill-opacity:1;fill-rule:nonzero;stroke:none"
           d="M 0,0 -1.7,2.656 -1.128,3.023 0.572,0.366 0,0 z"
           inkscape:connector-curvature="0" />
      </g>
    </g>
  </g>
</svg>
