<?xml version="1.0" encoding="UTF-8" standalone="no"?>
<!-- Created with Inkscape (http://www.inkscape.org/) -->

<svg
   xmlns:dc="http://purl.org/dc/elements/1.1/"
   xmlns:cc="http://creativecommons.org/ns#"
   xmlns:rdf="http://www.w3.org/1999/02/22-rdf-syntax-ns#"
   xmlns:svg="http://www.w3.org/2000/svg"
   xmlns="http://www.w3.org/2000/svg"
   version="1.1"
   width="200"
   height="89.941658"
   id="svg2">
  <defs
     id="defs4">
    <filter
       x="-0.1"
       y="-0.2"
       width="1.2"
       height="1.4"
       color-interpolation-filters="sRGB"
       id="filter4169">
      <feMorphology
         operator="dilate"
         radius="2.4"
         result="result1"
         id="feMorphology4171" />
      <feTurbulence
         numOctaves="1"
         baseFrequency="0.09 0.028"
         id="feTurbulence4173" />
      <feColorMatrix
         values="2 0 0 0 0 0 2 0 0 0 0 0 0 0 0 0 0 0 1 0"
         result="result2"
         id="feColorMatrix4175" />
      <feDisplacementMap
         in2="result2"
         scale="10.31941"
         xChannelSelector="R"
         yChannelSelector="G"
         in="result1"
         result="result4"
         id="feDisplacementMap4177" />
      <feFlood
         flood-color="rgb(255,159,54)"
         flood-opacity="1"
         result="result3"
         id="feFlood4179" />
      <feMorphology
         in="result4"
         result="result7"
         radius="3.8"
         id="feMorphology4181" />
      <feGaussianBlur
         stdDeviation="2.4"
         in="result7"
         result="result7"
         id="feGaussianBlur4183" />
      <feComposite
         in2="result4"
         operator="in"
         in="result3"
         result="result5"
         id="feComposite4185" />
      <feComposite
         in2="result7"
         operator="out"
         id="feComposite4187" />
      <feOffset
         dx="-4.5"
         dy="-7"
         result="result6"
         id="feOffset4189" />
      <feGaussianBlur
         stdDeviation="4.8"
         result="result7"
         id="feGaussianBlur4191" />
      <feComposite
         in2="result6"
         in="SourceGraphic"
         result="result8"
         id="feComposite4193" />
      <feComposite
         in2="result7"
         id="feComposite4195" />
    </filter>
  </defs>
  <metadata
     id="metadata7">
    <rdf:RDF>
      <cc:Work
         rdf:about="">
        <dc:format>image/svg+xml</dc:format>
        <dc:type
           rdf:resource="http://purl.org/dc/dcmitype/StillImage" />
        <dc:title></dc:title>
      </cc:Work>
    </rdf:RDF>
  </metadata>
  <g
     transform="translate(-418.82987,-439.67949)"
     id="layer1">
    <g
       transform="translate(0,-29.075143)"
       id="g3046">
      <rect
         width="200"
         height="89.941658"
         x="0"
         y="0"
         transform="translate(418.82987,468.75463)"
         id="rect3004"
         style="fill:#000000;stroke:none" />
      <path
         d="m 485.49228,505.42966 c -5.10525,0 -9.28984,4.18467 -9.28984,9.28992 0,5.10514 4.18459,9.28984 9.28984,9.28984 5.10525,0 9.28984,-4.1847 9.28984,-9.28984 0,-5.10525 -4.18459,-9.28992 -9.28984,-9.28992 z m 0,4.14892 c 2.8647,0 5.14092,2.27632 5.14092,5.141 0,2.8647 -2.27622,5.14091 -5.14092,5.14091 -2.86468,0 -5.14099,-2.27621 -5.14099,-5.14091 0,-2.86468 2.27631,-5.141 5.14099,-5.141 z"
         id="path4324"
         style="font-size:medium;font-style:normal;font-variant:normal;font-weight:normal;font-stretch:normal;text-indent:0;text-align:start;text-decoration:none;line-height:normal;letter-spacing:normal;word-spacing:normal;text-transform:none;direction:ltr;block-progression:tb;writing-mode:lr-tb;text-anchor:start;baseline-shift:baseline;color:#000000;fill:#ffffff;fill-opacity:1;stroke:none;stroke-width:7.18206215;marker:none;visibility:visible;display:inline;overflow:visible;enable-background:accumulate;font-family:Sans;-inkscape-font-specification:Sans" />
      <g
         transform="matrix(0.20722969,0,0,0.20722969,861.1956,-727.56321)"
         id="g4326"
         style="font-size:200.05438232px;font-style:normal;font-variant:normal;font-weight:bold;font-stretch:normal;line-height:125%;letter-spacing:0px;word-spacing:0px;fill:#ffffff;fill-opacity:1;stroke:none;font-family:Avara;-inkscape-font-specification:Avara Bold">
        <path
           d="m -1714.1326,5963.4451 -9.7683,43.7619 c -5.6656,25.2672 -13.2197,44.12 -22.6624,56.5583 -9.3775,12.4382 -22.1414,18.6574 -38.2916,18.6574 -7.6844,0 -13.2849,-1.4653 -16.8015,-4.3957 -3.5816,-2.9305 -5.3725,-6.4797 -5.3725,-10.6474 0,-3.7771 1.4001,-6.9681 4.2003,-9.5729 2.7352,-2.5398 5.9262,-3.8097 9.573,-3.8097 7.5541,0 11.9173,4.0376 13.0894,12.1127 0.5862,4.1026 2.377,6.154 5.3726,6.154 3.0607,0 5.8284,-2.7351 8.303,-8.2053 2.5398,-5.4703 5.6005,-16.5085 9.1822,-33.1145 5.0209,-22.5345 9.9204,-44.8619 14.8478,-67.4988 l -12.6988,0 3.3213,-10.8428 11.6242,0 c 6.1214,-22.2716 13.2523,-37.0217 21.3926,-44.2503 8.2052,-7.2936 17.9735,-10.9404 29.3048,-10.9405 7.554,1e-4 13.7081,1.4654 18.462,4.3957 4.819,2.9306 7.2285,6.8379 7.2286,11.722 -10e-5,3.2562 -1.1723,6.1215 -3.5166,8.596 -2.2794,2.4097 -5.2099,3.6144 -8.7915,3.6143 -5.1447,1e-4 -9.573,-3.6141 -13.2848,-10.8428 -2.7352,-5.405 -5.5029,-8.1075 -8.3031,-8.1077 -3.2561,2e-4 -5.7633,4.3308 -7.5215,12.9919 l -6.4471,32.8214 14.5547,0 -3.3212,10.8428 -13.6756,0"
           id="path4328"
           style="font-style:italic;fill:#ffffff;font-family:Baskerville;-inkscape-font-specification:Baskerville Bold Italic" />
      </g>
      <path
         d="m 518.59484,505.42966 c -5.10524,0 -9.28994,4.18467 -9.28994,9.28992 0,5.10514 4.1847,9.28984 9.28994,9.28984 5.10525,0 9.28984,-4.1847 9.28984,-9.28984 0,-5.10525 -4.18459,-9.28992 -9.28984,-9.28992 z m 0,4.14892 c 2.8647,0 5.14091,2.27632 5.14091,5.141 0,2.8647 -2.27621,5.14091 -5.14091,5.14091 -2.86468,0 -5.14099,-2.27621 -5.14099,-5.14091 0,-2.86468 2.27631,-5.141 5.14099,-5.141 z"
         id="path4330"
         style="font-size:medium;font-style:normal;font-variant:normal;font-weight:normal;font-stretch:normal;text-indent:0;text-align:start;text-decoration:none;line-height:normal;letter-spacing:normal;word-spacing:normal;text-transform:none;direction:ltr;block-progression:tb;writing-mode:lr-tb;text-anchor:start;baseline-shift:baseline;color:#000000;fill:#ffffff;fill-opacity:1;stroke:none;stroke-width:7.18206215;marker:none;visibility:visible;display:inline;overflow:visible;enable-background:accumulate;font-family:Sans;-inkscape-font-specification:Sans" />
      <path
         d="m 531.12186,506.03296 0,17.1982 4.14573,0 0,-10.72079 8.2075,10.72079 4.24284,0 0,-17.20561 -4.14574,0 0,10.77327 -8.30825,-10.76586 z"
         id="path4332"
         style="font-size:medium;font-style:normal;font-variant:normal;font-weight:normal;font-stretch:normal;text-indent:0;text-align:start;text-decoration:none;line-height:normal;letter-spacing:normal;word-spacing:normal;text-transform:none;direction:ltr;block-progression:tb;writing-mode:lr-tb;text-anchor:start;baseline-shift:baseline;color:#000000;fill:#ffffff;fill-opacity:1;stroke:none;stroke-width:4;marker:none;visibility:visible;display:inline;overflow:visible;enable-background:accumulate;font-family:Sans;-inkscape-font-specification:Sans" />
      <path
         d="m 552.24851,501.18348 0,22.1153 4.14459,0 0,-13.14615 5.0642,0 0,-4.1446 -5.0642,0 0,-4.82455 -4.14459,0 z"
         id="path4334"
         style="font-size:medium;font-style:normal;font-variant:normal;font-weight:normal;font-stretch:normal;text-indent:0;text-align:start;text-decoration:none;line-height:normal;letter-spacing:normal;word-spacing:normal;text-transform:none;direction:ltr;block-progression:tb;writing-mode:lr-tb;text-anchor:start;baseline-shift:baseline;color:#000000;fill:#ffffff;fill-opacity:1;stroke:none;stroke-width:4;marker:none;visibility:visible;display:inline;overflow:visible;enable-background:accumulate;font-family:Sans;-inkscape-font-specification:Sans" />
    </g>
  </g>
</svg>
