<?xml version="1.0" encoding="UTF-8" standalone="no"?>
<!-- Created with Inkscape (http://www.inkscape.org/) -->

<svg
   xmlns:dc="http://purl.org/dc/elements/1.1/"
   xmlns:cc="http://creativecommons.org/ns#"
   xmlns:rdf="http://www.w3.org/1999/02/22-rdf-syntax-ns#"
   xmlns:svg="http://www.w3.org/2000/svg"
   xmlns="http://www.w3.org/2000/svg"
   xmlns:xlink="http://www.w3.org/1999/xlink"
   xmlns:inkscape="http://www.inkscape.org/namespaces/inkscape"
   version="1.2"
   width="986"
   height="790"
   id="svg2">
  <defs
     id="defs4">
    <linearGradient
       id="linearGradient4399">
      <stop
         id="stop4401"
         style="stop-color:#ffcc00;stop-opacity:1"
         offset="0" />
      <stop
         id="stop4403"
         style="stop-color:#ffdd55;stop-opacity:1"
         offset="1" />
    </linearGradient>
    <inkscape:path-effect
       effect="skeletal"
       id="path-effect3826" />
    <inkscape:path-effect
       effect="skeletal"
       id="path-effect3824" />
    <inkscape:path-effect
       effect="skeletal"
       id="path-effect3818" />
    <inkscape:path-effect
       effect="skeletal"
       id="path-effect3814" />
    <linearGradient
       x1="325.2691"
       y1="1518.4132"
       x2="856.60931"
       y2="1518.4132"
       id="linearGradient4405"
       xlink:href="#linearGradient4399"
       gradientUnits="userSpaceOnUse" />
    <linearGradient
       x1="325.2691"
       y1="1518.4132"
       x2="856.60931"
       y2="1518.4132"
       id="linearGradient4409"
       xlink:href="#linearGradient4399"
       gradientUnits="userSpaceOnUse" />
  </defs>
  <metadata
     id="metadata7">
    <rdf:RDF>
      <cc:Work
         rdf:about="">
        <dc:format>image/svg+xml</dc:format>
        <dc:type
           rdf:resource="http://purl.org/dc/dcmitype/StillImage" />
        <dc:title></dc:title>
      </cc:Work>
    </rdf:RDF>
  </metadata>
  <rect
     width="543"
     height="534"
     x="0"
     y="1"
     id="rect3210"
     style="fill:#514949;fill-opacity:1;fill-rule:nonzero;stroke:none" />
  <rect
     width="443"
     height="535"
     x="-986"
     y="2.8421709e-14"
     transform="scale(-1,1)"
     id="rect3907"
     style="fill:#f83131;fill-opacity:1;fill-rule:nonzero;stroke:none" />
  <flowRoot
     transform="translate(5023.6463,-364.20435)"
     id="flowRoot3858"
     xml:space="preserve"
     style="font-size:18px;font-style:normal;font-weight:normal;line-height:125%;letter-spacing:0px;word-spacing:0px;fill:#ffffff;fill-opacity:1;stroke:none;font-family:Sans"><flowRegion
       id="flowRegion3860"><rect
         width="20"
         height="131.42857"
         x="-674.28571"
         y="1409.505"
         id="rect3862"
         style="fill:#ffffff" /></flowRegion><flowPara
       id="flowPara3864" /></flowRoot>  <flowRoot
     transform="translate(5023.6463,-364.20435)"
     id="flowRoot4415"
     xml:space="preserve"
     style="font-size:18px;font-style:normal;font-weight:normal;line-height:125%;letter-spacing:0px;word-spacing:0px;fill:#ffffff;fill-opacity:1;stroke:none;font-family:Sans"><flowRegion
       id="flowRegion4417"><rect
         width="854.28571"
         height="274.28571"
         x="-1948.5714"
         y="249.60307"
         id="rect4419"
         style="fill:#ffffff" /></flowRegion><flowPara
       id="flowPara4421" /></flowRoot>  <flowRoot
     transform="matrix(1.0519707,0,0,1.0519707,708.5164,838.71815)"
     id="flowRoot4454"
     xml:space="preserve"
     style="font-size:40px;font-style:normal;font-weight:normal;line-height:125%;letter-spacing:0px;word-spacing:0px;fill:#ffffff;fill-opacity:1;stroke:none;font-family:Sans"><flowRegion
       id="flowRegion4456"><rect
         width="854.79785"
         height="127.5084"
         x="-581.84784"
         y="-171.9427"
         id="rect4458"
         style="font-size:40px;fill:#ffffff" /></flowRegion><flowPara
       id="flowPara4460"
       style="font-size:72px;font-style:normal;font-variant:normal;font-weight:normal;font-stretch:normal;line-height:117.99999475%;fill:#ffffff;font-family:Steps-Mono;-inkscape-font-specification:Steps-Mono" /></flowRoot>  <flowRoot
     transform="translate(5023.6463,-364.20435)"
     id="flowRoot4478"
     xml:space="preserve"
     style="font-size:18px;font-style:normal;font-weight:normal;line-height:125%;letter-spacing:0px;word-spacing:0px;fill:#ffffff;fill-opacity:1;stroke:none;font-family:Sans"><flowRegion
       id="flowRegion4480"><rect
         width="1070"
         height="107.14286"
         x="-1992.8572"
         y="919.60309"
         id="rect4482"
         style="fill:#ffffff" /></flowRegion><flowPara
       id="flowPara4484" /></flowRoot>  <flowRoot
     transform="translate(5023.6463,-364.20435)"
     id="flowRoot4510"
     xml:space="preserve"
     style="font-size:18px;font-style:normal;font-weight:normal;line-height:125%;letter-spacing:0px;word-spacing:0px;fill:#ffffff;fill-opacity:1;stroke:none;font-family:Sans"><flowRegion
       id="flowRegion4512"><rect
         width="832.85712"
         height="132.85715"
         x="-2022.8572"
         y="902.46021"
         id="rect4514"
         style="fill:#ffffff" /></flowRegion><flowPara
       id="flowPara4516" /></flowRoot>  <g
     id="text3287"
     style="font-size:185.77426147px;font-style:normal;font-weight:normal;line-height:125%;letter-spacing:0px;word-spacing:0px;fill:#ffffff;fill-opacity:1;stroke:none;font-family:Sans">
    <path
       d="m 94.60709,317.99658 0,16.71968 20.62094,0 0,-12.44688 -17.648552,-19.13475 -36.225981,0 -17.834329,19.13475 0,25.07953 54.803407,62.97747 0,24.70798 -4.272808,3.71549 -30.095431,0 -4.272808,-3.71549 0,-16.53391 -20.620943,0 0,12.2611 17.83433,19.13475 44.214275,0 17.83433,-19.13475 0,-28.79501 -54.803409,-62.23438 0,-21.73558 4.272808,-3.71549 21.921363,0 4.272808,3.71549"
       id="path4965"
       style="font-variant:normal;font-stretch:normal;fill:#ffffff;font-family:Steps-Mono;-inkscape-font-specification:Steps-Mono" />
    <path
       d="m 168.1737,348.64933 33.99669,0 0,-8.91717 -33.99669,0 0,-28.79501 -18.7632,0 0,28.79501 -20.06362,0 0,8.91717 20.06362,0 0,85.08461 16.53391,16.16236 36.22598,0 0,-8.91716 -30.09543,0 -3.90126,-3.34394 0,-88.98587"
       id="path4967"
       style="font-variant:normal;font-stretch:normal;fill:#ffffff;font-family:Steps-Mono;-inkscape-font-specification:Steps-Mono" />
    <path
       d="m 278.70938,386.54728 -25.07952,0 0,-34.55401 2.78661,-3.34394 19.5063,0 2.78661,3.34394 0,34.55401 m 18.57743,-33.43937 -16.16236,-13.37575 -29.90966,0 -16.16236,13.37575 0,83.41264 15.79081,13.37575 43.65695,0 0,-8.91716 -38.08372,0 -2.78661,-3.34394 0,-42.35653 43.65695,0 0,-42.17076"
       id="path4969"
       style="font-variant:normal;font-stretch:normal;fill:#ffffff;font-family:Steps-Mono;-inkscape-font-specification:Steps-Mono" />
    <path
       d="m 371.22495,351.80749 0,85.82771 -3.90126,3.34394 -20.43517,0 -3.90126,-3.34394 0,-89.17165 24.33643,0 3.90126,3.34394 m 18.57743,4.08703 -16.34814,-16.34813 -49.0444,0 0,147.31899 18.57742,0 0,-36.96908 30.46698,0 16.34814,-16.34813 0,-77.65365"
       id="path4971"
       style="font-variant:normal;font-stretch:normal;fill:#ffffff;font-family:Steps-Mono;-inkscape-font-specification:Steps-Mono" />
    <path
       d="m 465.04097,351.99327 0,15.23348 18.7632,0 0,-11.33223 -16.16236,-16.16236 -29.35234,0 -16.16236,16.16236 0,19.32053 44.0285,41.61343 0,20.80672 -3.90126,3.34394 -20.99249,0 -3.90126,-3.34394 0,-15.04772 -18.7632,0 0,11.14646 16.16236,16.16236 33.99669,0 16.16236,-16.16236 0,-22.85023 -2.97239,-3.34394 -41.05611,-40.31302 0,-15.23348 3.90126,-3.34394 16.34814,0 3.90126,3.34394"
       id="path4973"
       style="font-variant:normal;font-stretch:normal;fill:#ffffff;font-family:Steps-Mono;-inkscape-font-specification:Steps-Mono" />
    <path
       d="m 679.42443,449.8963 0,-146.76167 -17.277,0 -25.2653,65.021 -2.60084,0 -25.2653,-65.021 -17.27701,0 0,146.76167 20.06362,0 0,-80.44025 -0.92887,-16.34814 2.04352,0 17.277,43.47118 10.77491,0 17.27701,-43.2854 2.04352,0 -0.92888,16.16236 0,80.44025 20.06362,0"
       id="path4975"
       style="font-variant:normal;font-stretch:normal;fill:#ffffff;font-family:Steps-Mono;-inkscape-font-specification:Steps-Mono" />
    <path
       d="m 738.68644,348.64933 3.71548,3.34394 0,85.64193 -3.71548,3.34394 -20.06362,0 -3.71549,-3.34394 0,-85.64193 3.71549,-3.34394 20.06362,0 m 22.47868,85.08461 0,-77.83942 -15.97658,-16.16236 -33.06782,0 -15.97659,16.16236 0,77.83942 15.97659,16.16236 33.06782,0 15.97658,-16.16236"
       id="path4977"
       style="font-variant:normal;font-stretch:normal;fill:#ffffff;font-family:Steps-Mono;-inkscape-font-specification:Steps-Mono" />
    <path
       d="m 789.5886,339.73216 0,110.16414 18.7632,0 0,-101.24697 22.47869,0 3.90126,3.34394 0,97.90303 18.7632,0 0,-94.00178 -17.46278,-16.16236 -46.44357,0"
       id="path4979"
       style="font-variant:normal;font-stretch:normal;fill:#ffffff;font-family:Steps-Mono;-inkscape-font-specification:Steps-Mono" />
    <path
       d="m 924.46073,348.64933 3.71549,3.34394 0,85.64193 -3.71549,3.34394 -20.06362,0 -3.71548,-3.34394 0,-85.64193 3.71548,-3.34394 20.06362,0 m 22.47869,85.08461 0,-77.83942 -15.97659,-16.16236 -33.06782,0 -15.97659,16.16236 0,77.83942 15.97659,16.16236 33.06782,0 15.97659,-16.16236"
       id="path4981"
       style="font-variant:normal;font-stretch:normal;fill:#ffffff;font-family:Steps-Mono;-inkscape-font-specification:Steps-Mono" />
  </g>
  <rect
     width="827"
     height="255.03259"
     x="-4.0412118e-14"
     y="-790"
     transform="scale(1,-1)"
     id="rect3909"
     style="fill:#121251;fill-opacity:1;fill-rule:nonzero;stroke:none" />
  <rect
     width="159"
     height="255"
     x="-986"
     y="-790"
     transform="scale(-1,-1)"
     id="rect3911"
     style="fill:#f2f2f2;fill-opacity:1;fill-rule:nonzero;stroke:none" />
  <g
     id="text3913"
     style="font-size:86.22782135px;font-style:normal;font-weight:normal;line-height:100%;letter-spacing:0px;word-spacing:0px;fill:#ffffff;fill-opacity:1;stroke:none;font-family:Sans">
    <path
       d="m 193.21777,647.17828 0,-4.13894 -14.65873,0 0,-15.52101 1.81079,-1.5521 11.38207,0 0,-4.13893 -14.48627,0 -7.32937,7.58805 0,13.62399 -10.51979,0 0,4.13894 10.51979,0 0,47.08039 8.62278,0 0,-47.08039 14.65873,0"
       id="path4944"
       style="font-variant:normal;font-stretch:normal;fill:#ffffff;font-family:Steps-Mono;-inkscape-font-specification:Steps-Mono" />
    <path
       d="m 232.9688,648.38547 0,9.57128 8.70901,0 0,-8.96769 -11.29585,-7.15691 -9.39883,7.15691 0,-5.94972 -15.43478,0 0,4.13894 6.812,0 0,42.94145 -7.67428,0 0,4.13894 30.00729,0 0,-4.13894 -13.624,0 0,-36.99173 8.88147,-6.63955 3.01797,1.89702"
       id="path4946"
       style="font-variant:normal;font-stretch:normal;fill:#ffffff;font-family:Steps-Mono;-inkscape-font-specification:Steps-Mono" />
    <path
       d="m 271.85755,664.85498 -11.64076,0 0,-16.03837 1.29342,-1.55211 9.05392,0 1.29342,1.55211 0,16.03837 m 8.62278,-15.52101 -7.50182,-6.2084 -13.88268,0 -7.50182,6.2084 0,38.71629 7.32936,6.20841 20.26354,0 0,-4.13894 -17.6767,0 -1.29342,-1.5521 0,-19.65994 20.26354,0 0,-19.57372"
       id="path4948"
       style="font-variant:normal;font-stretch:normal;fill:#ffffff;font-family:Steps-Mono;-inkscape-font-specification:Steps-Mono" />
    <path
       d="m 314.97146,664.85498 -11.64075,0 0,-16.03837 1.29341,-1.55211 9.05392,0 1.29342,1.55211 0,16.03837 m 8.62278,-15.52101 -7.50182,-6.2084 -13.88268,0 -7.50182,6.2084 0,38.71629 7.32937,6.20841 20.26354,0 0,-4.13894 -17.67671,0 -1.29341,-1.5521 0,-19.65994 20.26353,0 0,-19.57372"
       id="path4950"
       style="font-variant:normal;font-stretch:normal;fill:#ffffff;font-family:Steps-Mono;-inkscape-font-specification:Steps-Mono" />
    <path
       d="m 377.31417,703.14013 37.25042,-76.05294 -3.01798,-1.72455 -37.25042,76.05294 3.01798,1.72455"
       id="path4952"
       style="font-variant:normal;font-stretch:normal;fill:#ffffff;font-family:Steps-Mono;-inkscape-font-specification:Steps-Mono" />
    <path
       d="m 498.37802,690.11973 -11.55453,0 -1.37964,-1.5521 0,-66.74033 -20.00486,0 0,4.13893 10.00243,0 1.37965,1.5521 0,61.0493 -1.37965,1.5521 -11.55453,0 0,4.13894 34.49113,0 0,-4.13894"
       id="path4954"
       style="font-variant:normal;font-stretch:normal;fill:#ffffff;font-family:Steps-Mono;-inkscape-font-specification:Steps-Mono" />
    <path
       d="m 541.06081,694.25867 0,-4.13894 -11.55453,0 -1.37965,-1.5521 0,-45.52829 -20.00485,0 0,4.13894 10.00242,0 1.37965,1.5521 0,39.83725 -1.37965,1.5521 -11.55452,0 0,4.13894 34.49113,0 m -11.81322,-71.65532 -11.03716,0 0,11.89944 11.03716,0 0,-11.89944"
       id="path4956"
       style="font-variant:normal;font-stretch:normal;fill:#ffffff;font-family:Steps-Mono;-inkscape-font-specification:Steps-Mono" />
    <path
       d="m 574.08607,648.73038 0,39.83725 -1.81078,1.5521 -11.29585,0 0,-39.75102 11.29585,-3.19043 1.81078,1.5521 m 8.62278,1.89701 -7.58804,-8.3641 -14.14137,4.6563 0,-25.09229 -8.62278,0 0,72.43137 22.76415,0 7.58804,-7.58805 0,-36.04323"
       id="path4958"
       style="font-variant:normal;font-stretch:normal;fill:#ffffff;font-family:Steps-Mono;-inkscape-font-specification:Steps-Mono" />
    <path
       d="m 620.99399,648.38547 0,9.57128 8.70901,0 0,-8.96769 -11.29585,-7.15691 -9.39883,7.15691 0,-5.94972 -15.43478,0 0,4.13894 6.812,0 0,42.94145 -7.67428,0 0,4.13894 30.00728,0 0,-4.13894 -13.62399,0 0,-36.99173 8.88146,-6.63955 3.01798,1.89702"
       id="path4960"
       style="font-variant:normal;font-stretch:normal;fill:#ffffff;font-family:Steps-Mono;-inkscape-font-specification:Steps-Mono" />
    <path
       d="m 659.88275,664.85498 -11.64076,0 0,-16.03837 1.29342,-1.55211 9.05392,0 1.29342,1.55211 0,16.03837 m 8.62278,-15.52101 -7.50182,-6.2084 -13.88268,0 -7.50182,6.2084 0,38.71629 7.32936,6.20841 20.26354,0 0,-4.13894 -17.6767,0 -1.29342,-1.5521 0,-19.65994 20.26354,0 0,-19.57372"
       id="path4962"
       style="font-variant:normal;font-stretch:normal;fill:#ffffff;font-family:Steps-Mono;-inkscape-font-specification:Steps-Mono" />
  </g>
  <g
     id="text3940"
     style="font-size:54.51562119px;font-style:normal;font-weight:normal;line-height:100%;letter-spacing:0px;word-spacing:0px;fill:#f83131;fill-opacity:1;stroke:none;font-family:Sans">
    <path
       d="m 890.30645,553.45244 0,-3.27094 -22.95108,0 0,3.27094 8.77702,0 0,39.7964 5.45156,0 0,-39.7964 8.7225,0"
       id="path4927"
       style="font-variant:normal;font-stretch:normal;fill:#f83131;fill-opacity:1;font-family:Steps-Mono;-inkscape-font-specification:Steps-Mono" />
    <path
       d="m 936.48118,575.96739 10.08539,-23.16914 0,-2.61675 -4.9064,0 0,2.61675 -7.08704,17.00887 -1.25385,0 -7.08704,-17.00887 0,-2.61675 -5.66962,0 0,2.61675 10.03087,22.62398 0,17.82661 5.88769,0 0,-17.28145"
       id="path4929"
       style="font-variant:normal;font-stretch:normal;fill:#f83131;fill-opacity:1;font-family:Steps-Mono;-inkscape-font-specification:Steps-Mono" />
    <path
       d="m 884.9094,614.94606 0,17.77209 -1.09031,0.98128 -10.24894,0 0,-19.73465 10.24894,0 1.09031,0.98128 m 5.88769,0.49064 -5.06995,-4.74286 -18.04467,0 0,43.06734 5.88768,0 0,-16.95436 12.15699,0 5.06995,-4.74286 0,-16.62726"
       id="path4931"
       style="font-variant:normal;font-stretch:normal;fill:#f83131;fill-opacity:1;font-family:Steps-Mono;-inkscape-font-specification:Steps-Mono" />
    <path
       d="m 943.84079,653.76118 0,-3.27094 -13.84697,0 -1.09031,-1.19934 0,-16.02759 13.02923,0 0,-3.27094 -13.02923,0 0,-16.02759 14.39212,0 0,-3.27094 -20.27981,0 0,43.06734 20.82497,0"
       id="path4933"
       style="font-variant:normal;font-stretch:normal;fill:#f83131;fill-opacity:1;font-family:Steps-Mono;-inkscape-font-specification:Steps-Mono" />
    <path
       d="m 874.38789,674.47712 14.39212,0 0,-3.27094 -20.27981,0 0,43.06734 5.88769,0 0,-20.49787 13.02923,0 0,-3.27094 -13.02923,0 0,-16.02759"
       id="path4935"
       style="font-variant:normal;font-stretch:normal;fill:#f83131;fill-opacity:1;font-family:Steps-Mono;-inkscape-font-specification:Steps-Mono" />
    <path
       d="m 946.51206,711.65677 -7.95929,-40.45059 -10.35796,0 -7.90477,40.45059 0,2.61675 5.12447,0 0,-2.61675 2.50772,-12.70214 10.41248,0 2.50772,12.70214 0,2.61675 5.66963,0 0,-2.61675 m -8.83154,-15.97308 -9.1041,0 4.1977,-21.3156 0.7087,0 4.1977,21.3156"
       id="path4937"
       style="font-variant:normal;font-stretch:normal;fill:#f83131;fill-opacity:1;font-family:Steps-Mono;-inkscape-font-specification:Steps-Mono" />
    <path
       d="m 875.20562,734.98946 11.33925,0 0,-3.27094 -13.24729,0 -5.06996,4.74286 0,33.58162 5.06996,4.74286 13.24729,0 0,-3.27094 -11.33925,0 -1.09031,-0.98128 0,-34.5629 1.09031,-0.98128"
       id="path4939"
       style="font-variant:normal;font-stretch:normal;fill:#f83131;fill-opacity:1;font-family:Steps-Mono;-inkscape-font-specification:Steps-Mono" />
    <path
       d="m 943.84079,774.78586 0,-3.27094 -13.84697,0 -1.09031,-1.19934 0,-16.02759 13.02923,0 0,-3.27094 -13.02923,0 0,-16.02759 14.39212,0 0,-3.27094 -20.27981,0 0,43.06734 20.82497,0"
       id="path4941"
       style="font-variant:normal;font-stretch:normal;fill:#f83131;fill-opacity:1;font-family:Steps-Mono;-inkscape-font-specification:Steps-Mono" />
  </g>
</svg>
