<?xml version="1.0" encoding="UTF-8" standalone="no"?>
<!-- Created with Inkscape (http://www.inkscape.org/) -->

<svg
   xmlns:dc="http://purl.org/dc/elements/1.1/"
   xmlns:cc="http://creativecommons.org/ns#"
   xmlns:rdf="http://www.w3.org/1999/02/22-rdf-syntax-ns#"
   xmlns:svg="http://www.w3.org/2000/svg"
   xmlns="http://www.w3.org/2000/svg"
   xmlns:sodipodi="http://sodipodi.sourceforge.net/DTD/sodipodi-0.dtd"
   xmlns:inkscape="http://www.inkscape.org/namespaces/inkscape"
   version="1.1"
   width="436.46484"
   height="416.18286"
   id="svg2"
   inkscape:version="0.91 r13725"
   sodipodi:docname="terminal-grotesque.svg">
  <sodipodi:namedview
     pagecolor="#ffffff"
     bordercolor="#666666"
     borderopacity="1"
     objecttolerance="10"
     gridtolerance="10"
     guidetolerance="10"
     inkscape:pageopacity="0"
     inkscape:pageshadow="2"
     inkscape:window-width="1600"
     inkscape:window-height="871"
     id="namedview43"
     showgrid="false"
     inkscape:zoom="1.1341169"
     inkscape:cx="191.62618"
     inkscape:cy="240.95971"
     inkscape:window-x="0"
     inkscape:window-y="0"
     inkscape:window-maximized="1"
     inkscape:current-layer="layer1"
     inkscape:snap-bbox="true"
     inkscape:bbox-nodes="true"
     inkscape:snap-bbox-edge-midpoints="true"
     inkscape:bbox-paths="true"
     inkscape:snap-page="true"
     fit-margin-top="0"
     fit-margin-left="0"
     fit-margin-right="0"
     fit-margin-bottom="0" />
  <defs
     id="defs4" />
  <metadata
     id="metadata7">
    <rdf:RDF>
      <cc:Work
         rdf:about="">
        <dc:format>image/svg+xml</dc:format>
        <dc:type
           rdf:resource="http://purl.org/dc/dcmitype/StillImage" />
        <dc:title></dc:title>
      </cc:Work>
    </rdf:RDF>
  </metadata>
  <g
     transform="translate(-86.751709,6.7083511)"
     id="layer1">
    <g
       style="font-style:normal;font-variant:normal;font-weight:normal;font-stretch:normal;font-size:180px;line-height:125%;font-family:'Terminal Grotesque';-inkscape-font-specification:'Terminal Grotesque';text-align:center;writing-mode:lr-tb;text-anchor:middle;opacity:1;fill:#ffffff;fill-opacity:1;stroke:none;stroke-width:8;stroke-linecap:butt;stroke-linejoin:miter;stroke-miterlimit:4;stroke-dasharray:none;stroke-dashoffset:0;stroke-opacity:1"
       id="text4231">
      <path
         d="m 143.00171,341.97452 0,-5.625 5.625,0 0,-16.875 -5.625,0 0,-5.625 -39.375,0 0,28.125 39.375,0 z m -56.250001,67.5 0,-112.5 61.875001,0 0,5.625 5.625,0 0,5.625 5.625,0 0,5.625 5.625,0 0,28.125 -5.625,0 0,5.625 -5.625,0 0,5.625 -5.625,0 0,5.625 -45,0 0,50.625 -16.875001,0 z"
         style="fill:#000000"
         id="path4314"
         inkscape:connector-curvature="0" />
      <path
         d="m 181.32202,409.47452 0,-112.5 16.875,0 0,112.5 -16.875,0 z"
         style="fill:#000000"
         id="path4316"
         inkscape:connector-curvature="0" />
      <path
         d="m 216.12671,409.47452 0,-16.875 5.625,0 0,-5.625 5.625,0 0,-5.625 5.625,0 0,-11.25 5.625,0 0,-5.625 5.625,0 0,-5.625 5.625,0 0,-11.25 5.625,0 0,-5.625 5.625,0 0,-5.625 5.625,0 0,-11.25 5.625,0 0,-5.625 5.625,0 0,-5.625 -61.875,0 0,-16.875 84.375,0 0,22.5 -5.625,0 0,5.625 -5.625,0 0,11.25 -5.625,0 0,5.625 -5.625,0 0,5.625 -5.625,0 0,11.25 -5.625,0 0,5.625 -5.625,0 0,5.625 -5.625,0 0,5.625 -5.625,0 0,11.25 -5.625,0 0,5.625 56.25,0 0,16.875 -84.375,0 z"
         style="fill:#000000"
         id="path4318"
         inkscape:connector-curvature="0" />
      <path
         d="m 318.4314,409.47452 0,-16.875 5.625,0 0,-5.625 5.625,0 0,-5.625 5.625,0 0,-11.25 5.625,0 0,-5.625 5.625,0 0,-5.625 5.625,0 0,-11.25 5.625,0 0,-5.625 5.625,0 0,-5.625 5.625,0 0,-11.25 5.625,0 0,-5.625 5.625,0 0,-5.625 -61.875,0 0,-16.875 84.375,0 0,22.5 -5.625,0 0,5.625 -5.625,0 0,11.25 -5.625,0 0,5.625 -5.625,0 0,5.625 -5.625,0 0,11.25 -5.625,0 0,5.625 -5.625,0 0,5.625 -5.625,0 0,5.625 -5.625,0 0,11.25 -5.625,0 0,5.625 56.25,0 0,16.875 -84.375,0 z"
         style="fill:#000000"
         id="path4320"
         inkscape:connector-curvature="0" />
      <path
         d="m 489.46655,358.84952 0,-5.625 -5.625,0 0,-11.25 -5.625,0 0,-11.25 -5.625,0 0,-11.25 -5.625,0 0,11.25 -5.625,0 0,11.25 -5.625,0 0,11.25 -5.625,0 0,5.625 39.375,0 z m -73.125,50.625 0,-16.875 5.625,0 0,-11.25 5.625,0 0,-16.875 5.625,0 0,-11.25 5.625,0 0,-11.25 5.625,0 0,-11.25 5.625,0 0,-11.25 5.625,0 0,-11.25 5.625,0 0,-11.25 16.875,0 0,11.25 5.625,0 0,11.25 5.625,0 0,11.25 5.625,0 0,11.25 5.625,0 0,11.25 5.625,0 0,11.25 5.625,0 0,16.875 5.625,0 0,11.25 5.625,0 0,16.875 -16.875,0 0,-11.25 -5.625,0 0,-11.25 -5.625,0 0,-11.25 -50.625,0 0,11.25 -5.625,0 0,11.25 -5.625,0 0,11.25 -16.875,0 z"
         style="fill:#000000"
         id="path4322"
         inkscape:connector-curvature="0" />
    </g>
    <g
       style="font-style:normal;font-variant:normal;font-weight:normal;font-stretch:normal;font-size:180px;line-height:125%;font-family:'Terminal Grotesque';-inkscape-font-specification:'Terminal Grotesque';text-align:center;writing-mode:lr-tb;text-anchor:middle;opacity:1;fill:#ffffff;fill-opacity:1;stroke:none;stroke-width:8;stroke-linecap:butt;stroke-linejoin:miter;stroke-miterlimit:4;stroke-dasharray:none;stroke-dashoffset:0;stroke-opacity:1"
       id="text4239">
      <path
         d="m 103.62671,105.79165 0,-84.375001 -16.875001,0 0,-11.25 5.625,0 0,-5.6250001 5.625,0 0,-5.625 5.625001,0 0,-5.625 16.875,0 0,112.5000011 -16.875,0 z"
         style="fill:#000000"
         id="path4303"
         inkscape:connector-curvature="0" />
      <path
         d="m 139.83765,105.79165 0,-16.875001 5.625,0 0,-5.625 5.625,0 0,-5.625 5.625,0 0,-5.625 5.625,0 0,-5.625 5.625,0 0,-5.625 5.625,0 0,-5.625 5.625,0 0,-5.625 5.625,0 0,-5.625 5.625,0 0,-5.625 5.625,0 0,-22.5 -5.625,0 0,-5.625 -22.5,0 0,5.625 -5.625,0 0,5.625 -5.625,0 0,11.25 -16.875,0 0,-11.25 5.625,0 0,-11.25 5.625,0 0,-5.6250001 5.625,0 0,-5.625 5.625,0 0,-5.625 33.75,0 0,5.625 5.625,0 0,5.625 5.625,0 0,5.6250001 5.625,0 0,33.75 -5.625,0 0,5.625 -5.625,0 0,5.625 -5.625,0 0,5.625 -5.625,0 0,5.625 -5.625,0 0,5.625 -5.625,0 0,5.625 -5.625,0 0,5.625 -5.625,0 0,5.625 50.625,0 0,16.875001 -78.75,0 z"
         style="fill:#000000"
         id="path4305"
         inkscape:connector-curvature="0" />
      <path
         d="m 252.33765,105.79165 0,-5.625 -5.625,0 0,-5.625001 -5.625,0 0,-5.625 -5.625,0 0,-11.25 16.875,0 0,5.625 5.625,0 0,5.625 28.125,0 0,-5.625 5.625,0 0,-22.5 -5.625,0 0,-5.625 -22.5,0 0,-16.875 22.5,0 0,-5.625 5.625,0 0,-16.875 -5.625,0 0,-5.625 -28.125,0 0,5.625 -5.625,0 0,5.625 -16.875,0 0,-11.25 5.625,0 0,-5.6250001 5.625,0 0,-5.625 5.625,0 0,-5.625 33.75,0 0,5.625 11.25,0 0,5.625 5.625,0 0,5.6250001 5.625,0 0,28.125 -5.625,0 0,5.625 -5.625,0 0,5.625 5.625,0 0,5.625 5.625,0 0,33.75 -5.625,0 0,5.625 -5.625,0 0,5.625001 -11.25,0 0,5.625 -33.75,0 z"
         style="fill:#000000"
         id="path4307"
         inkscape:connector-curvature="0" />
      <path
         d="m 373.97827,60.791649 0,-39.375 -5.625,0 0,5.625 -5.625,0 0,5.625 -5.625,0 0,5.625 -5.625,0 0,5.625 -5.625,0 0,5.625 -5.625,0 0,11.25 33.75,0 z m 0,45.000001 0,-28.125001 -50.625,0 0,-33.75 5.625,0 0,-5.625 5.625,0 0,-5.625 5.625,0 0,-5.625 5.625,0 0,-5.625 5.625,0 0,-5.625 5.625,0 0,-5.625 5.625,0 0,-5.6250001 5.625,0 0,-5.625 5.625,0 0,-5.625 16.875,0 0,67.5000001 16.875,0 0,16.875 -16.875,0 0,28.125001 -16.875,0 z"
         style="fill:#000000"
         id="path4309"
         inkscape:connector-curvature="0" />
      <path
         d="m 443.23608,105.79165 0,-5.625 -11.25,0 0,-5.625001 -5.625,0 0,-5.625 -5.625,0 0,-16.875 16.875,0 0,11.25 5.625,0 0,5.625 22.5,0 0,-5.625 11.25,0 0,-11.25 5.625,0 0,-11.25 -5.625,0 0,-5.625 -5.625,0 0,-5.625 -5.625,0 0,-5.625 -39.375,0 0,-22.5 5.625,0 0,-16.8750001 5.625,0 0,-11.25 50.625,0 0,16.8750001 -39.375,0 0,11.25 -5.625,0 0,5.625 28.125,0 0,5.625 11.25,0 0,5.625 5.625,0 0,5.625 5.625,0 0,11.25 5.625,0 0,22.5 -5.625,0 0,11.25 -5.625,0 0,5.625 -5.625,0 0,5.625001 -11.25,0 0,5.625 -28.125,0 z"
         style="fill:#000000"
         id="path4311"
         inkscape:connector-curvature="0" />
    </g>
    <g
       style="font-style:normal;font-variant:normal;font-weight:normal;font-stretch:normal;font-size:107.04229736px;line-height:74.00000095%;font-family:'Terminal Grotesque';-inkscape-font-specification:'Terminal Grotesque';text-align:center;writing-mode:lr-tb;text-anchor:middle;opacity:1;fill:#ffffff;fill-opacity:1;stroke:none;stroke-width:8;stroke-linecap:butt;stroke-linejoin:miter;stroke-miterlimit:4;stroke-dasharray:none;stroke-dashoffset:0;stroke-opacity:1"
       id="text4255">
      <path
         d="m 93.441857,188.50616 0,-40.14086 -6.690144,0 0,-10.03521 6.690144,0 0,-13.38029 10.035213,0 0,13.38029 13.38029,0 0,10.03521 -13.38029,0 0,40.14086 -10.035213,0 z"
         style="line-height:74.00000095%;text-align:start;text-anchor:start;fill:#000000"
         id="path4266"
         inkscape:connector-curvature="0" />
      <path
         d="m 150.72621,158.40052 0,-6.69015 -3.34507,0 0,-3.34507 -13.38029,0 0,3.34507 -3.34507,0 0,6.69015 20.07043,0 z m -16.72536,30.10564 0,-3.34507 -6.69014,0 0,-3.34507 -3.34507,0 0,-6.69014 -3.34507,0 0,-23.41551 3.34507,0 0,-6.69014 3.34507,0 0,-3.34507 6.69014,0 0,-3.34507 13.38029,0 0,3.34507 6.69014,0 0,3.34507 3.34508,0 0,6.69014 3.34507,0 0,13.38029 -30.10565,0 0,10.03522 3.34507,0 0,3.34507 13.38029,0 0,-3.34507 3.34507,0 0,-3.34507 10.03522,0 0,6.69014 -3.34507,0 0,3.34507 -3.34508,0 0,3.34507 -6.69014,0 0,3.34507 -13.38029,0 z"
         style="line-height:74.00000095%;text-align:start;text-anchor:start;fill:#000000"
         id="path4268"
         inkscape:connector-curvature="0" />
      <path
         d="m 170.69212,188.50616 0,-50.17607 10.03521,0 0,6.69014 3.34507,0 0,-3.34507 3.34507,0 0,-3.34507 13.38029,0 0,3.34507 3.34507,0 0,3.34507 3.34508,0 0,6.69014 -3.34508,0 0,3.34508 -3.34507,0 0,-3.34508 -3.34507,0 0,-3.34507 -10.03522,0 0,3.34507 -3.34507,0 0,3.34508 -3.34507,0 0,33.45071 -10.03521,0 z"
         style="line-height:74.00000095%;text-align:start;text-anchor:start;fill:#000000"
         id="path4270"
         inkscape:connector-curvature="0" />
      <path
         d="m 214.59618,188.50616 0,-50.17607 10.03522,0 0,6.69014 3.34507,0 0,-3.34507 3.34507,0 0,-3.34507 10.03522,0 0,3.34507 3.34507,0 0,3.34507 6.69014,0 0,-3.34507 3.34507,0 0,-3.34507 13.38029,0 0,3.34507 3.34507,0 0,3.34507 3.34508,0 0,6.69014 3.34507,0 0,36.79579 -10.03522,0 0,-36.79579 -3.34507,0 0,-3.34507 -10.03522,0 0,3.34507 -3.34507,0 0,36.79579 -10.03521,0 0,-36.79579 -3.34507,0 0,-3.34507 -6.69015,0 0,3.34507 -3.34507,0 0,3.34508 -3.34507,0 0,33.45071 -10.03522,0 z"
         style="line-height:74.00000095%;text-align:start;text-anchor:start;fill:#000000"
         id="path4272"
         inkscape:connector-curvature="0" />
      <path
         d="m 289.02402,188.50616 0,-50.17607 10.03522,0 0,50.17607 -10.03522,0 z m 0,-56.86622 0,-10.03521 10.03522,0 0,10.03521 -10.03522,0 z"
         style="line-height:74.00000095%;text-align:start;text-anchor:start;fill:#000000"
         id="path4274"
         inkscape:connector-curvature="0" />
      <path
         d="m 310.76699,188.50616 0,-50.17607 10.03522,0 0,6.69014 3.34507,0 0,-3.34507 3.34507,0 0,-3.34507 10.03521,0 0,3.34507 6.69015,0 0,3.34507 3.34507,0 0,6.69014 3.34507,0 0,36.79579 -10.03521,0 0,-36.79579 -3.34508,0 0,-3.34507 -10.03521,0 0,3.34507 -3.34507,0 0,3.34508 -3.34507,0 0,33.45071 -10.03522,0 z"
         style="line-height:74.00000095%;text-align:start;text-anchor:start;fill:#000000"
         id="path4276"
         inkscape:connector-curvature="0" />
      <path
         d="m 386.9719,178.47095 0,-3.34507 3.34508,0 0,-3.34507 3.34507,0 0,-16.72536 -3.34507,0 0,-3.34508 -3.34508,0 0,-3.34507 -13.38028,0 0,3.34507 -3.34508,0 0,23.41551 3.34508,0 0,3.34507 13.38028,0 z m -13.38028,10.03521 0,-3.34507 -6.69015,0 0,-3.34507 -3.34507,0 0,-6.69014 -3.34507,0 0,-23.41551 3.34507,0 0,-6.69014 3.34507,0 0,-3.34507 6.69015,0 0,-3.34507 13.38028,0 0,3.34507 3.34508,0 0,3.34507 3.34507,0 0,-6.69014 10.03521,0 0,50.17607 -10.03521,0 0,-6.69014 -3.34507,0 0,3.34507 -3.34508,0 0,3.34507 -13.38028,0 z"
         style="line-height:74.00000095%;text-align:start;text-anchor:start;fill:#000000"
         id="path4278"
         inkscape:connector-curvature="0" />
      <path
         d="m 415.0914,188.50616 0,-66.90143 10.03522,0 0,66.90143 -10.03522,0 z"
         style="line-height:74.00000095%;text-align:start;text-anchor:start;fill:#000000"
         id="path4280"
         inkscape:connector-curvature="0" />
      <path
         d="m 466.31282,171.78081 0,-3.34508 3.34507,0 0,-20.07043 -10.03522,0 0,3.34507 -3.34507,0 0,16.72536 3.34507,0 0,3.34508 6.69015,0 z m -13.38029,20.07043 0,-3.34508 -6.69014,0 0,-3.34507 -3.34507,0 0,-3.34507 -3.34508,0 0,-6.69014 -3.34507,0 0,-30.10565 3.34507,0 0,-6.69014 3.34508,0 0,-3.34507 3.34507,0 0,-3.34508 3.34507,0 0,-3.34507 6.69014,0 0,-3.34507 16.72536,0 0,3.34507 6.69015,0 0,3.34507 3.34507,0 0,3.34508 3.34507,0 0,3.34507 3.34507,0 0,33.45072 -3.34507,0 0,3.34507 -3.34507,0 0,3.34507 -6.69015,0 0,-3.34507 -3.34507,0 0,-3.34507 -3.34507,0 0,3.34507 -3.34507,0 0,3.34507 -10.03522,0 0,-3.34507 -3.34507,0 0,-3.34507 -3.34507,0 0,-23.41551 3.34507,0 0,-3.34507 3.34507,0 0,-3.34507 16.72536,0 0,3.34507 3.34507,0 0,26.76058 3.34508,0 0,-3.34508 3.34507,0 0,-26.76057 -3.34507,0 0,-3.34507 -3.34508,0 0,-3.34507 -6.69014,0 0,-3.34508 -10.03522,0 0,3.34508 -6.69014,0 0,3.34507 -3.34507,0 0,3.34507 -3.34507,0 0,3.34507 -3.34507,0 0,30.10565 3.34507,0 0,3.34507 3.34507,0 0,3.34507 6.69014,0 0,3.34507 10.03522,0 0,6.69015 -13.38029,0 z"
         style="line-height:74.00000095%;text-align:start;text-anchor:start;fill:#000000"
         id="path4282"
         inkscape:connector-curvature="0" />
      <path
         d="m 114.03496,257.68225 0,-3.34507 3.34507,0 0,-3.34507 3.34507,0 0,-16.72536 -3.34507,0 0,-3.34507 -3.34507,0 0,-3.34508 -13.38029,0 0,3.34508 -3.345074,0 0,23.4155 3.345074,0 0,3.34507 13.38029,0 z m -13.38029,30.10565 0,-3.34508 -6.690146,0 0,-3.34507 -3.345071,0 0,-3.34507 -3.345072,0 0,-3.34507 3.345072,0 0,-3.34507 6.690143,0 0,3.34507 3.345074,0 0,3.34507 16.72536,0 0,-3.34507 3.34507,0 0,-13.38029 -3.34507,0 0,3.34507 -3.34507,0 0,3.34508 -13.38029,0 0,-3.34508 -6.690146,0 0,-3.34507 -3.345071,0 0,-6.69014 -3.345072,0 0,-23.4155 3.345072,0 0,-6.69015 3.345071,0 0,-3.34507 6.690146,0 0,-3.34507 13.38029,0 0,3.34507 3.34507,0 0,3.34507 3.34507,0 0,-6.69014 10.03521,0 0,60.21129 -3.34507,0 0,3.34507 -3.34507,0 0,3.34507 -6.69014,0 0,3.34508 -16.72536,0 z"
         style="line-height:74.00000095%;text-align:start;text-anchor:start;fill:#000000"
         id="path4284"
         inkscape:connector-curvature="0" />
      <path
         d="m 142.259,267.71747 0,-50.17608 10.03521,0 0,6.69014 3.34508,0 0,-3.34507 3.34507,0 0,-3.34507 13.38028,0 0,3.34507 3.34508,0 0,3.34507 3.34507,0 0,6.69015 -3.34507,0 0,3.34507 -3.34508,0 0,-3.34507 -3.34507,0 0,-3.34508 -10.03521,0 0,3.34508 -3.34507,0 0,3.34507 -3.34508,0 0,33.45072 -10.03521,0 z"
         style="line-height:74.00000095%;text-align:start;text-anchor:start;fill:#000000"
         id="path4286"
         inkscape:connector-curvature="0" />
      <path
         d="m 210.51937,257.68225 0,-3.34507 3.34508,0 0,-23.4155 -3.34508,0 0,-3.34508 -13.38028,0 0,3.34508 -3.34507,0 0,23.4155 3.34507,0 0,3.34507 13.38028,0 z m -13.38028,10.03522 0,-3.34508 -6.69015,0 0,-3.34507 -3.34507,0 0,-6.69014 -3.34507,0 0,-23.4155 3.34507,0 0,-6.69015 3.34507,0 0,-3.34507 6.69015,0 0,-3.34507 13.38028,0 0,3.34507 6.69015,0 0,3.34507 3.34507,0 0,6.69015 3.34507,0 0,23.4155 -3.34507,0 0,6.69014 -3.34507,0 0,3.34507 -6.69015,0 0,3.34508 -13.38028,0 z"
         style="line-height:74.00000095%;text-align:start;text-anchor:start;fill:#000000"
         id="path4288"
         inkscape:connector-curvature="0" />
      <path
         d="m 239.16155,267.71747 0,-40.14087 -6.69014,0 0,-10.03521 6.69014,0 0,-13.38029 10.03522,0 0,13.38029 13.38029,0 0,10.03521 -13.38029,0 0,40.14087 -10.03522,0 z"
         style="line-height:74.00000095%;text-align:start;text-anchor:start;fill:#000000"
         id="path4290"
         inkscape:connector-curvature="0" />
      <path
         d="m 296.44591,237.61182 0,-6.69014 -3.34507,0 0,-3.34508 -13.38029,0 0,3.34508 -3.34507,0 0,6.69014 20.07043,0 z m -16.72536,30.10565 0,-3.34508 -6.69014,0 0,-3.34507 -3.34507,0 0,-6.69014 -3.34507,0 0,-23.4155 3.34507,0 0,-6.69015 3.34507,0 0,-3.34507 6.69014,0 0,-3.34507 13.38029,0 0,3.34507 6.69014,0 0,3.34507 3.34508,0 0,6.69015 3.34507,0 0,13.38028 -30.10565,0 0,10.03522 3.34507,0 0,3.34507 13.38029,0 0,-3.34507 3.34507,0 0,-3.34507 10.03522,0 0,6.69014 -3.34507,0 0,3.34507 -3.34508,0 0,3.34507 -6.69014,0 0,3.34508 -13.38029,0 z"
         style="line-height:74.00000095%;text-align:start;text-anchor:start;fill:#000000"
         id="path4292"
         inkscape:connector-curvature="0" />
      <path
         d="m 322.57927,267.71747 0,-3.34508 -3.34507,0 0,-3.34507 -3.34507,0 0,-6.69014 3.34507,0 0,-3.34507 3.34507,0 0,3.34507 3.34507,0 0,3.34507 3.34508,0 0,3.34507 6.69014,0 0,-3.34507 3.34507,0 0,-6.69014 -3.34507,0 0,-3.34508 -3.34507,0 0,-3.34507 -6.69015,0 0,-3.34507 -3.34507,0 0,-3.34507 -3.34507,0 0,-3.34507 -3.34507,0 0,-10.03522 3.34507,0 0,-3.34507 3.34507,0 0,-3.34507 20.07043,0 0,3.34507 3.34507,0 0,10.03522 -6.69014,0 0,-3.34508 -3.34507,0 0,-3.34507 -6.69014,0 0,3.34507 -3.34508,0 0,3.34508 3.34508,0 0,3.34507 3.34507,0 0,3.34507 6.69014,0 0,3.34507 3.34507,0 0,3.34507 3.34507,0 0,3.34507 3.34508,0 0,13.38029 -3.34508,0 0,3.34507 -3.34507,0 0,3.34508 -20.07043,0 z"
         style="line-height:74.00000095%;text-align:start;text-anchor:start;fill:#000000"
         id="path4294"
         inkscape:connector-curvature="0" />
      <path
         d="m 385.09031,257.68225 0,-3.34507 3.34507,0 0,-3.34507 3.34508,0 0,-16.72536 -3.34508,0 0,-3.34507 -3.34507,0 0,-3.34508 -13.38029,0 0,3.34508 -3.34507,0 0,23.4155 3.34507,0 0,3.34507 13.38029,0 z m 6.69015,30.10565 0,-26.76058 -3.34508,0 0,3.34507 -3.34507,0 0,3.34508 -13.38029,0 0,-3.34508 -6.69014,0 0,-3.34507 -3.34507,0 0,-6.69014 -3.34507,0 0,-23.4155 3.34507,0 0,-6.69015 3.34507,0 0,-3.34507 6.69014,0 0,-3.34507 13.38029,0 0,3.34507 3.34507,0 0,3.34507 3.34508,0 0,-6.69014 10.03521,0 0,70.24651 -10.03521,0 z"
         style="line-height:74.00000095%;text-align:start;text-anchor:start;fill:#000000"
         id="path4296"
         inkscape:connector-curvature="0" />
      <path
         d="m 420.00449,267.71747 0,-3.34508 -3.34508,0 0,-3.34507 -3.34507,0 0,-43.48593 10.03522,0 0,36.79579 3.34507,0 0,3.34507 10.03522,0 0,-3.34507 3.34507,0 0,-3.34507 3.34507,0 0,-33.45072 10.03521,0 0,50.17608 -10.03521,0 0,-6.69015 -3.34507,0 0,3.34507 -3.34507,0 0,3.34508 -16.72536,0 z"
         style="line-height:74.00000095%;text-align:start;text-anchor:start;fill:#000000"
         id="path4298"
         inkscape:connector-curvature="0" />
      <path
         d="m 493.38701,237.61182 0,-6.69014 -3.34507,0 0,-3.34508 -13.38029,0 0,3.34508 -3.34507,0 0,6.69014 20.07043,0 z m -16.72536,30.10565 0,-3.34508 -6.69014,0 0,-3.34507 -3.34507,0 0,-6.69014 -3.34507,0 0,-23.4155 3.34507,0 0,-6.69015 3.34507,0 0,-3.34507 6.69014,0 0,-3.34507 13.38029,0 0,3.34507 6.69015,0 0,3.34507 3.34507,0 0,6.69015 3.34507,0 0,13.38028 -30.10565,0 0,10.03522 3.34507,0 0,3.34507 13.38029,0 0,-3.34507 3.34507,0 0,-3.34507 10.03522,0 0,6.69014 -3.34507,0 0,3.34507 -3.34507,0 0,3.34507 -6.69015,0 0,3.34508 -13.38029,0 z"
         style="line-height:74.00000095%;text-align:start;text-anchor:start;fill:#000000"
         id="path4300"
         inkscape:connector-curvature="0" />
    </g>
  </g>
</svg>
