<?xml version="1.0" encoding="UTF-8" standalone="no"?>
<!-- Created with Inkscape (http://www.inkscape.org/) -->

<svg
   xmlns:dc="http://purl.org/dc/elements/1.1/"
   xmlns:cc="http://creativecommons.org/ns#"
   xmlns:rdf="http://www.w3.org/1999/02/22-rdf-syntax-ns#"
   xmlns:svg="http://www.w3.org/2000/svg"
   xmlns="http://www.w3.org/2000/svg"
   xmlns:sodipodi="http://sodipodi.sourceforge.net/DTD/sodipodi-0.dtd"
   xmlns:inkscape="http://www.inkscape.org/namespaces/inkscape"
   width="549.52301"
   height="416.18286"
   id="svg2"
   version="1.1"
   inkscape:version="0.48.5 r10040"
   sodipodi:docname="whois-mono.svg">
  <defs
     id="defs4" />
  <sodipodi:namedview
     id="base"
     pagecolor="#ffffff"
     bordercolor="#666666"
     borderopacity="1.0"
     inkscape:pageopacity="0.0"
     inkscape:pageshadow="2"
     inkscape:zoom="0.98994949"
     inkscape:cx="280.82338"
     inkscape:cy="179.282"
     inkscape:document-units="px"
     inkscape:current-layer="layer1"
     showgrid="false"
     inkscape:window-width="1600"
     inkscape:window-height="879"
     inkscape:window-x="0"
     inkscape:window-y="0"
     inkscape:window-maximized="1"
     fit-margin-top="0"
     fit-margin-left="0"
     fit-margin-right="0"
     fit-margin-bottom="0" />
  <metadata
     id="metadata7">
    <rdf:RDF>
      <cc:Work
         rdf:about="">
        <dc:format>image/svg+xml</dc:format>
        <dc:type
           rdf:resource="http://purl.org/dc/dcmitype/StillImage" />
        <dc:title />
      </cc:Work>
    </rdf:RDF>
  </metadata>
  <g
     inkscape:label="Calque 1"
     inkscape:groupmode="layer"
     id="layer1"
     transform="translate(-86.751717,6.7083516)">
    <rect
       style="fill:#2d1650;fill-opacity:1;fill-rule:nonzero;stroke:none"
       id="rect2996"
       width="549.52301"
       height="416.18286"
       x="86.751717"
       y="-6.7083516" />
    <text
       sodipodi:linespacing="125%"
       id="text2993"
       y="203.00648"
       x="48.412449"
       style="font-size:43.92279053px;font-style:normal;font-variant:normal;font-weight:bold;font-stretch:normal;line-height:125%;letter-spacing:0px;word-spacing:0px;fill:#000000;fill-opacity:1;stroke:none;font-family:Avara;-inkscape-font-specification:Avara Bold"
       xml:space="preserve"><tspan
         style="font-family:Whois;-inkscape-font-specification:Whois"
         id="tspan2995"
         y="203.00648"
         x="48.412449"
         sodipodi:role="line" /></text>
    <g
       id="g3766"
       transform="translate(-0.870673,0.91378925)"
       style="fill:#ffffff">
      <path
         d="m 119.10971,21.758517 0,5.93685 15.89251,0 0,48.86491 -15.89251,0 0,5.98253 37.63055,0 0,-5.98253 -15.89252,0 0,-48.86491 15.89252,0 0,-5.93685 -37.63055,0"
         style="font-size:93.52835083px;font-style:normal;font-variant:normal;font-weight:500;font-stretch:normal;text-align:start;line-height:151.99999809%;letter-spacing:0px;word-spacing:0px;writing-mode:lr-tb;text-anchor:start;fill:#ffffff;fill-opacity:1;fill-rule:nonzero;stroke:none;font-family:Whois;-inkscape-font-specification:Whois Medium"
         id="path3093"
         inkscape:connector-curvature="0" />
      <path
         d="m 196.06052,21.758517 0,20.55066 c -2.92275,-3.2881 -7.26124,-5.34317 -12.65007,-5.34317 -6.53054,0 -11.69105,3.51645 -14.4768,7.94625 -2.78575,4.42981 -3.97313,9.90999 -3.97313,14.84215 0,4.93215 1.18738,10.41234 3.97313,14.84214 2.78575,4.42981 7.80926,7.94626 14.4768,7.94626 5.38883,0 9.72732,-2.23774 12.65007,-5.38884 l 1.05037,5.38884 4.79516,0 0,-60.78429 -5.84553,0 m -12.65007,21.14435 c 4.79515,0 7.48958,2.0094 9.49897,5.1605 2.0094,3.15109 3.1511,7.58091 3.1511,11.69104 0,4.11013 -1.1417,8.53994 -3.1511,11.69104 -2.00939,3.1511 -4.70382,5.11483 -9.49897,5.11483 -4.79515,0 -7.58091,-1.96373 -9.59031,-5.11483 -2.0094,-3.1511 -2.92276,-7.58091 -2.92276,-11.69104 0,-4.11013 1.05037,-8.53995 3.05976,-11.69104 2.0094,-3.1511 4.65816,-5.1605 9.45331,-5.1605"
         style="font-size:93.52835083px;font-style:normal;font-variant:normal;font-weight:500;font-stretch:normal;text-align:start;line-height:151.99999809%;letter-spacing:0px;word-spacing:0px;writing-mode:lr-tb;text-anchor:start;fill:#ffffff;fill-opacity:1;fill-rule:nonzero;stroke:none;font-family:Whois;-inkscape-font-specification:Whois Medium"
         id="path3095"
         inkscape:connector-curvature="0" />
      <path
         d="m 217.57022,62.220487 28.63392,0 0,-2.83143 c 0.137,-8.08325 -1.64406,-13.92878 -5.0235,-17.53656 -3.37943,-3.60778 -7.94626,-4.65815 -12.37606,-4.79516 l -0.13701,0 c -6.53053,0.13701 -11.37136,3.42512 -13.92878,7.85492 -2.55741,4.42981 -3.24244,10.13834 -3.24244,15.52717 0,5.48017 1.05037,10.64068 3.83613,14.84215 2.78575,4.20146 7.48958,7.03289 13.33509,7.26123 l 0.13701,0 c 4.93215,0 8.76828,-1.50705 11.4627,-3.83612 2.69442,-2.32908 4.29281,-5.29751 5.11483,-7.85492 l -5.70851,-1.73539 c -0.59369,1.87239 -1.50705,3.60778 -3.15111,5.02349 -1.64405,1.41571 -3.97313,2.42041 -7.71791,2.42041 -4.11013,-0.22834 -6.66755,-1.73539 -8.53994,-4.52114 -1.64405,-2.32907 -2.46608,-5.98253 -2.69442,-9.81865 m 9.22496,-18.95228 c 4.20147,-0.68502 8.3116,0.36535 10.184,2.69442 1.87239,2.32907 2.92276,5.0235 3.1511,10.41234 l -22.33172,0 c 0.45668,-8.3116 4.79516,-12.42174 8.99662,-13.10676"
         style="font-size:93.52835083px;font-style:normal;font-variant:normal;font-weight:500;font-stretch:normal;text-align:start;line-height:151.99999809%;letter-spacing:0px;word-spacing:0px;writing-mode:lr-tb;text-anchor:start;fill:#ffffff;fill-opacity:1;fill-rule:nonzero;stroke:none;font-family:Whois;-inkscape-font-specification:Whois Medium"
         id="path3097"
         inkscape:connector-curvature="0" />
      <path
         d="m 275.79709,36.966007 c -5.48018,0 -8.90529,1.73539 -11.69105,4.06446 l -0.82202,-4.06446 -5.1605,0 0,45.5768 5.98252,0 0,-28.77093 c 0,-10.18398 6.8959,-11.69104 12.14773,-10.86901 3.83612,0.59368 5.52584,2.10073 6.80455,4.4298 1.27871,2.32908 1.59839,5.98254 1.59839,10.41234 l 0,24.7978 5.98252,0 0,-24.7978 c 0,-4.79515 -0.13701,-9.68165 -2.92276,-14.02012 -2.78575,-4.33847 -6.43921,-6.75888 -11.91938,-6.75888"
         style="font-size:93.52835083px;font-style:normal;font-variant:normal;font-weight:500;font-stretch:normal;text-align:start;line-height:151.99999809%;letter-spacing:0px;word-spacing:0px;writing-mode:lr-tb;text-anchor:start;fill:#ffffff;fill-opacity:1;fill-rule:nonzero;stroke:none;font-family:Whois;-inkscape-font-specification:Whois Medium"
         id="path3099"
         inkscape:connector-curvature="0" />
      <path
         d="m 314.61501,26.416667 0,10.54934 -11.91938,0 0,6.07386 11.91938,0 0,39.50294 21.87504,0 0,-5.98253 -15.89251,0 0,-33.52041 15.98385,0 0,-6.07386 -15.98385,0 0,-12.1934 -5.98253,1.64406"
         style="font-size:93.52835083px;font-style:normal;font-variant:normal;font-weight:500;font-stretch:normal;text-align:start;line-height:151.99999809%;letter-spacing:0px;word-spacing:0px;writing-mode:lr-tb;text-anchor:start;fill:#ffffff;fill-opacity:1;fill-rule:nonzero;stroke:none;font-family:Whois;-inkscape-font-specification:Whois Medium"
         id="path3101"
         inkscape:connector-curvature="0" />
      <path
         d="m 348.77479,36.966007 0,6.07386 13.65477,0 0,33.42908 -16.02952,0 0,6.07386 37.90456,0 0,-6.07386 -16.02952,0 0,-39.50294 -19.50029,0 m 22.14904,-15.11616 c 0,-3.1511 -2.46608,-5.617178 -5.61718,-5.617178 -3.1511,0 -5.61718,2.466078 -5.61718,5.617178 0,3.1511 2.46608,5.75419 5.61718,5.75419 3.1511,0 5.61718,-2.60309 5.61718,-5.75419"
         style="font-size:93.52835083px;font-style:normal;font-variant:normal;font-weight:500;font-stretch:normal;text-align:start;line-height:151.99999809%;letter-spacing:0px;word-spacing:0px;writing-mode:lr-tb;text-anchor:start;fill:#ffffff;fill-opacity:1;fill-rule:nonzero;stroke:none;font-family:Whois;-inkscape-font-specification:Whois Medium"
         id="path3103"
         inkscape:connector-curvature="0" />
      <path
         d="m 405.58593,26.416667 0,10.54934 -11.91939,0 0,6.07386 11.91939,0 0,39.50294 21.87504,0 0,-5.98253 -15.89252,0 0,-33.52041 15.98385,0 0,-6.07386 -15.98385,0 0,-12.1934 -5.98252,1.64406"
         style="font-size:93.52835083px;font-style:normal;font-variant:normal;font-weight:500;font-stretch:normal;text-align:start;line-height:151.99999809%;letter-spacing:0px;word-spacing:0px;writing-mode:lr-tb;text-anchor:start;fill:#ffffff;fill-opacity:1;fill-rule:nonzero;stroke:none;font-family:Whois;-inkscape-font-specification:Whois Medium"
         id="path3105"
         inkscape:connector-curvature="0" />
      <path
         d="m 437.50796,36.966007 15.89252,41.96902 c 0,0 -2.42042,6.53054 -4.42981,9.22496 -2.46608,3.37944 -7.21557,4.11013 -8.40294,4.33848 l 0,5.93685 c 1.05037,-0.137 8.49428,-0.68502 13.06109,-6.75888 2.00939,-2.69442 4.93216,-9.36197 4.93216,-9.36197 l 16.57753,-45.34846 -6.3022,0 -12.14773,32.83539 -0.22834,1.27871 -0.22834,-1.27871 -12.42173,-32.83539 -6.30221,0"
         style="font-size:93.52835083px;font-style:normal;font-variant:normal;font-weight:500;font-stretch:normal;text-align:start;line-height:151.99999809%;letter-spacing:0px;word-spacing:0px;writing-mode:lr-tb;text-anchor:start;fill:#ffffff;fill-opacity:1;fill-rule:nonzero;stroke:none;font-family:Whois;-inkscape-font-specification:Whois Medium"
         id="path3107"
         inkscape:connector-curvature="0" />
      <path
         d="m 365.71767,339.1291 c -6.53054,0 -11.46271,3.51645 -14.02012,7.94625 -2.55742,4.42981 -3.28811,9.91 -3.28811,14.84215 0,4.93215 1.18738,10.41234 3.97313,14.84215 2.78575,4.4298 7.80926,7.94625 14.4768,7.94625 4.4298,0 8.22027,-1.64405 10.77768,-4.11013 2.55741,-2.46608 4.06447,-5.84553 4.65815,-9.22496 l -5.84552,-0.91337 c -0.36535,2.46608 -1.27871,4.52115 -2.78576,5.93686 -1.50704,1.41571 -3.51645,2.32908 -6.80455,2.32908 -4.79515,0 -7.53525,-1.96374 -9.54464,-5.11484 -2.0094,-3.15109 -3.05977,-7.58091 -3.05977,-11.69104 0,-4.20146 0.68503,-8.67695 2.55742,-11.82805 1.87239,-3.1511 4.11014,-5.02349 8.90529,-5.02349 3.37944,0 5.61718,1.05037 7.26123,2.55741 1.64405,1.50705 2.78576,3.8818 3.0141,6.66755 l 5.84552,-0.45668 c -0.36535,-3.97312 -1.8724,-7.71792 -4.65815,-10.41234 -2.78575,-2.69441 -6.80456,-4.2928 -11.4627,-4.2928"
         style="font-size:93.52835083px;font-style:normal;font-variant:normal;font-weight:500;font-stretch:normal;text-align:start;line-height:151.99999809%;letter-spacing:0px;word-spacing:0px;writing-mode:lr-tb;text-anchor:start;fill:#ffffff;fill-opacity:1;fill-rule:nonzero;stroke:none;font-family:Whois;-inkscape-font-specification:Whois Medium"
         id="path3109"
         inkscape:connector-curvature="0" />
      <path
         d="m 396.36096,339.1291 0,45.5768 6.30221,0 0,-26.30485 c 0,-12.05637 6.25653,-13.10675 8.85962,-13.42643 2.74008,-0.31968 6.39354,0.36535 8.49427,2.37474 2.37474,2.28341 2.69442,3.65346 3.97313,5.70852 l 4.93216,-2.78576 c -1.73539,-3.88178 -3.10544,-5.70852 -5.75419,-8.12892 -3.05976,-2.78576 -7.12423,-3.28811 -10.54934,-3.15111 -4.24713,0.18268 -7.62658,1.50706 -10.321,4.20147 l -0.91336,-4.06446 -5.0235,0"
         style="font-size:93.52835083px;font-style:normal;font-variant:normal;font-weight:500;font-stretch:normal;text-align:start;line-height:151.99999809%;letter-spacing:0px;word-spacing:0px;writing-mode:lr-tb;text-anchor:start;fill:#ffffff;fill-opacity:1;fill-rule:nonzero;stroke:none;font-family:Whois;-inkscape-font-specification:Whois Medium"
         id="path3111"
         inkscape:connector-curvature="0" />
      <path
         d="m 439.7457,339.1291 0,6.07386 13.65478,0 0,33.42908 -16.02952,0 0,6.07386 37.90456,0 0,-6.07386 -16.02952,0 0,-39.50294 -19.5003,0 m 22.14905,-15.11616 c 0,-3.15109 -2.46608,-5.61718 -5.61718,-5.61718 -3.1511,0 -5.61718,2.46609 -5.61718,5.61718 0,3.1511 2.46608,5.75419 5.61718,5.75419 3.1511,0 5.61718,-2.60309 5.61718,-5.75419"
         style="font-size:93.52835083px;font-style:normal;font-variant:normal;font-weight:500;font-stretch:normal;text-align:start;line-height:151.99999809%;letter-spacing:0px;word-spacing:0px;writing-mode:lr-tb;text-anchor:start;fill:#ffffff;fill-opacity:1;fill-rule:nonzero;stroke:none;font-family:Whois;-inkscape-font-specification:Whois Medium"
         id="path3113"
         inkscape:connector-curvature="0" />
      <path
         d="m 490.34601,342.73688 c -5.02349,4.20147 -5.79985,8.85962 -4.29281,12.96975 1.27871,3.74479 5.0235,5.93686 9.45331,7.12423 4.4298,1.18737 8.26594,2.10074 13.42643,3.74479 2.32907,0.82203 3.51645,1.64406 3.97313,3.51645 0.59368,2.23773 0.137,4.06446 -1.37004,5.70852 -1.50705,1.64405 -4.65816,3.05976 -10.047,3.05976 -5.48017,0 -8.08326,-1.27871 -9.49897,-2.55742 -1.41571,-1.2787 -1.73539,-2.83142 -1.96373,-4.56681 l -5.52584,0.45668 c 0,2.46608 0.73069,5.84553 3.51644,8.40294 2.78576,2.55741 7.0329,4.11013 13.4721,4.11013 6.43921,0 11.1887,-1.59839 14.24846,-4.65815 2.92276,-3.05976 4.11014,-7.39824 2.92277,-11.23436 -1.18738,-3.83612 -3.42512,-6.57621 -7.85493,-7.85492 -4.4298,-1.27871 -10.18399,-2.55742 -14.6138,-3.74479 -4.42981,-1.18737 -6.02819,-5.70852 -3.24244,-8.99662 1.50705,-1.73539 4.15581,-2.92276 7.21557,-3.1511 3.51644,-0.22834 6.21087,0.137 8.08326,1.05036 1.87239,0.91337 3.1511,2.60309 4.20147,5.38884 l 4.79515,-2.00939 c -0.82202,-3.83612 -2.92276,-6.53055 -7.48957,-8.85962 -4.56681,-2.32908 -14.38547,-2.10073 -19.40896,2.10073"
         style="font-size:93.52835083px;font-style:normal;font-variant:normal;font-weight:500;font-stretch:normal;text-align:start;line-height:151.99999809%;letter-spacing:0px;word-spacing:0px;writing-mode:lr-tb;text-anchor:start;fill:#ffffff;fill-opacity:1;fill-rule:nonzero;stroke:none;font-family:Whois;-inkscape-font-specification:Whois Medium"
         id="path3115"
         inkscape:connector-curvature="0" />
      <path
         d="m 530.71665,339.1291 0,6.07386 13.65477,0 0,33.42908 -16.02951,0 0,6.07386 37.90455,0 0,-6.07386 -16.02951,0 0,-39.50294 -19.5003,0 m 22.14905,-15.11616 c 0,-3.15109 -2.46608,-5.61718 -5.61718,-5.61718 -3.1511,0 -5.61718,2.46609 -5.61718,5.61718 0,3.1511 2.46608,5.75419 5.61718,5.75419 3.1511,0 5.61718,-2.60309 5.61718,-5.75419"
         style="font-size:93.52835083px;font-style:normal;font-variant:normal;font-weight:500;font-stretch:normal;text-align:start;line-height:151.99999809%;letter-spacing:0px;word-spacing:0px;writing-mode:lr-tb;text-anchor:start;fill:#ffffff;fill-opacity:1;fill-rule:nonzero;stroke:none;font-family:Whois;-inkscape-font-specification:Whois Medium"
         id="path3117"
         inkscape:connector-curvature="0" />
      <path
         d="m 581.31696,342.73688 c -5.02349,4.20147 -5.79986,8.85962 -4.29281,12.96975 1.27871,3.74479 5.0235,5.93686 9.45331,7.12423 4.4298,1.18737 8.26593,2.10074 13.42643,3.74479 2.32907,0.82203 3.51645,1.64406 3.97313,3.51645 0.59368,2.23773 0.137,4.06446 -1.37005,5.70852 -1.50704,1.64405 -4.65815,3.05976 -10.04699,3.05976 -5.48017,0 -8.08326,-1.27871 -9.49897,-2.55742 -1.41571,-1.2787 -1.73539,-2.83142 -1.96373,-4.56681 l -5.52585,0.45668 c 0,2.46608 0.7307,5.84553 3.51645,8.40294 2.78575,2.55741 7.0329,4.11013 13.4721,4.11013 6.4392,0 11.1887,-1.59839 14.24846,-4.65815 2.92276,-3.05976 4.11013,-7.39824 2.92276,-11.23436 -1.18737,-3.83612 -3.42511,-6.57621 -7.85492,-7.85492 -4.4298,-1.27871 -10.184,-2.55742 -14.6138,-3.74479 -4.42981,-1.18737 -6.02819,-5.70852 -3.24244,-8.99662 1.50705,-1.73539 4.1558,-2.92276 7.21557,-3.1511 3.51644,-0.22834 6.21086,0.137 8.08326,1.05036 1.87239,0.91337 3.1511,2.60309 4.20147,5.38884 l 4.79515,-2.00939 c -0.82203,-3.83612 -2.92277,-6.53055 -7.48958,-8.85962 -4.5668,-2.32908 -14.38546,-2.10073 -19.40895,2.10073"
         style="font-size:93.52835083px;font-style:normal;font-variant:normal;font-weight:500;font-stretch:normal;text-align:start;line-height:151.99999809%;letter-spacing:0px;word-spacing:0px;writing-mode:lr-tb;text-anchor:start;fill:#ffffff;fill-opacity:1;fill-rule:nonzero;stroke:none;font-family:Whois;-inkscape-font-specification:Whois Medium"
         id="path3119"
         inkscape:connector-curvature="0" />
      <g
         transform="translate(14.142136,244.47722)"
         id="g3082"
         style="font-size:43.92279053px;font-style:normal;font-variant:normal;font-weight:bold;font-stretch:normal;line-height:125%;letter-spacing:0px;word-spacing:0px;fill:#ffffff;fill-opacity:1;stroke:none;font-family:Avara;-inkscape-font-specification:Avara Bold" />
    </g>
  </g>
</svg>
