<?xml version="1.0" encoding="UTF-8" standalone="no"?>
<!-- Created with Inkscape (http://www.inkscape.org/) -->

<svg
   xmlns:dc="http://purl.org/dc/elements/1.1/"
   xmlns:cc="http://creativecommons.org/ns#"
   xmlns:rdf="http://www.w3.org/1999/02/22-rdf-syntax-ns#"
   xmlns:svg="http://www.w3.org/2000/svg"
   xmlns="http://www.w3.org/2000/svg"
   version="1.1"
   width="549.52301"
   height="416.18286"
   id="svg2">
  <defs
     id="defs4" />
  <metadata
     id="metadata7">
    <rdf:RDF>
      <cc:Work
         rdf:about="">
        <dc:format>image/svg+xml</dc:format>
        <dc:type
           rdf:resource="http://purl.org/dc/dcmitype/StillImage" />
        <dc:title></dc:title>
      </cc:Work>
    </rdf:RDF>
  </metadata>
  <g
     transform="translate(-86.751717,6.7083516)"
     id="layer1">
    <rect
       width="549.52301"
       height="416.18286"
       x="86.751717"
       y="-6.7083516"
       id="rect2996"
       style="fill:#f2f2f2;fill-opacity:1;fill-rule:nonzero;stroke:none" />
    <g
       transform="matrix(3.3694113,0,0,3.3694113,33.36551,-78.29516)"
       id="flowRoot3014"
       style="font-size:40px;font-style:normal;font-weight:normal;line-height:125%;letter-spacing:0px;word-spacing:0px;fill:#1a1a1a;fill-opacity:1;stroke:none;font-family:Sans">
      <path
         d="m 24.441029,26.976398 1.937759,0 0.998692,15.531886 2.250782,-7.259144 1.028503,-3.54759 1.028503,3.517778 2.250782,7.288956 0.998691,-15.531886 1.937759,0 -1.25209,19.839674 -2.325311,0 -2.563805,-8.466517 -0.07453,-0.581328 -0.07453,0.581328 -2.548898,8.466517 -2.340217,0 -1.252091,-19.839674"
         id="path3872"
         style="font-size:30.52716255px;font-variant:normal;font-weight:500;font-stretch:normal;fill:#1a1a1a;font-family:Whois;-inkscape-font-specification:Whois Medium" />
      <path
         d="m 39.823857,26.976398 1.907948,0 c -4e-6,2e-5 -4e-6,2.519104 0,7.557261 l 0.07453,0 c 0.268301,-0.695593 0.804911,-1.291826 1.609831,-1.788701 0.804909,-0.506784 1.614793,-0.760183 2.429652,-0.760197 0.97384,1.4e-5 1.763848,0.163978 2.370029,0.491892 0.60616,0.327943 1.167613,0.834741 1.68436,1.520396 0.357728,0.467062 0.660813,1.11795 0.909256,1.952665 0.258355,0.834737 0.387539,1.644621 0.387552,2.429652 l 0,8.436706 -1.982477,0 0,-8.436706 c -1.1e-5,-0.626036 -0.05963,-1.14774 -0.17887,-1.565113 -0.10932,-0.42729 -0.293159,-0.884402 -0.551516,-1.371337 -0.516746,-0.983773 -1.396189,-1.475666 -2.638334,-1.475679 -1.430967,1.3e-5 -2.509155,0.566435 -3.234567,1.699266 -0.586301,0.924173 -0.879449,2.186199 -0.879445,3.786084 l 0,7.363485 -1.907948,0 0,-7.363485 0,-12.476189"
         id="path3874"
         style="font-size:30.52716255px;font-variant:normal;font-weight:500;font-stretch:normal;fill:#1a1a1a;font-family:Whois;-inkscape-font-specification:Whois Medium" />
      <path
         d="m 57.531997,32.640618 c 0.834722,-0.467036 1.773789,-0.70056 2.817204,-0.700575 1.0434,1.5e-5 1.97253,0.233539 2.787392,0.700575 0.824779,0.467063 1.475667,1.08317 1.952665,1.848324 0.884401,1.411097 1.326607,3.025895 1.32662,4.844398 -1.3e-5,1.868205 -0.442219,3.507845 -1.32662,4.918928 -0.476998,0.765168 -1.132855,1.386244 -1.967571,1.86323 -0.824799,0.46705 -1.758897,0.700574 -2.802298,0.700574 -1.043415,0 -1.982482,-0.233524 -2.817204,-0.700574 -0.824793,-0.476986 -1.475681,-1.098062 -1.952665,-1.86323 -0.844666,-1.341522 -1.266998,-2.981163 -1.266996,-4.918928 -2e-6,-1.858252 0.432267,-3.47305 1.296808,-4.844398 0.476984,-0.765154 1.127871,-1.381261 1.952665,-1.848324 m 2.817204,1.237184 c -0.745299,1.3e-5 -1.361406,0.144103 -1.848324,0.43227 -0.476992,0.278254 -0.889387,0.695617 -1.237185,1.25209 -0.685673,1.073231 -1.028507,2.330289 -1.028503,3.771178 -4e-6,0.695613 0.07949,1.396187 0.238493,2.101724 0.168929,0.705548 0.407423,1.301781 0.715481,1.788701 0.357735,0.556487 0.775098,0.978819 1.25209,1.266996 0.486918,0.278245 1.112963,0.417366 1.878136,0.417364 0.765159,2e-6 1.386235,-0.139119 1.86323,-0.417364 0.486915,-0.288177 0.909247,-0.710509 1.266997,-1.266996 0.31798,-0.496858 0.566411,-1.103028 0.745292,-1.818513 0.188796,-0.715474 0.283199,-1.406111 0.283211,-2.071912 -1.2e-5,-1.470701 -0.332908,-2.727759 -0.998691,-3.771178 -0.715491,-1.122894 -1.758899,-1.684347 -3.130227,-1.68436"
         id="path3876"
         style="font-size:30.52716255px;font-variant:normal;font-weight:500;font-stretch:normal;fill:#1a1a1a;font-family:Whois;-inkscape-font-specification:Whois Medium" />
      <path
         d="m 69.784599,31.940043 6.364794,0 0,12.893553 5.23195,0 0,1.982476 -12.371848,0 0,-1.982476 5.23195,0 0,-10.911076 -4.456846,0 0,-1.982477 m 6.692722,-6.230642 c 0.357731,0.347824 0.536601,0.780093 0.536611,1.296809 -1e-5,0.516755 -0.17888,0.958961 -0.536611,1.326619 -0.357748,0.367696 -0.790017,0.551535 -1.296808,0.551517 -0.506805,1.8e-5 -0.939074,-0.183821 -1.296808,-0.551517 -0.357746,-0.367658 -0.536616,-0.809864 -0.53661,-1.326619 -6e-6,-0.516716 0.173895,-0.948985 0.521704,-1.296809 0.357734,-0.357718 0.794971,-0.536588 1.311714,-0.53661 0.516728,2.2e-5 0.948997,0.178892 1.296808,0.53661"
         id="path3878"
         style="font-size:30.52716255px;font-variant:normal;font-weight:500;font-stretch:normal;fill:#1a1a1a;font-family:Whois;-inkscape-font-specification:Whois Medium" />
      <path
         d="m 86.300271,33.117604 c 0.516732,-0.437223 1.187494,-0.755214 2.012289,-0.953973 0.824783,-0.19873 1.624729,-0.268291 2.39984,-0.208682 0.775095,0.05964 1.416045,0.218633 1.922853,0.476987 0.735345,0.377628 1.291829,0.794992 1.669455,1.25209 0.377602,0.457126 0.63597,1.003673 0.775103,1.639643 l -1.565113,0.655857 C 93.176822,35.085187 92.71971,34.498891 92.143361,34.220637 91.527244,33.922533 90.6478,33.808255 89.505027,33.877802 c -1.043415,0.07951 -1.828455,0.422345 -2.355123,1.028503 -0.298121,0.347815 -0.452148,0.730398 -0.462081,1.14775 -4e-6,0.407437 0.134148,0.775114 0.402458,1.103032 0.278237,0.327938 0.650883,0.556494 1.117938,0.685669 0.367671,0.09938 1.117931,0.288188 2.250782,0.566422 1.142772,0.278251 1.982467,0.496869 2.519087,0.655857 0.695595,0.198752 1.24711,0.511775 1.654548,0.939068 0.407414,0.427307 0.710499,0.968886 0.909257,1.624737 0.188794,0.62605 0.193762,1.267 0.0149,1.922853 -0.168945,0.65586 -0.491905,1.237187 -0.968879,1.743984 -1.013608,1.013597 -2.563814,1.520395 -4.650623,1.520395 -1.957639,0 -3.423378,-0.447174 -4.397223,-1.341525 -0.765169,-0.705541 -1.147751,-1.619765 -1.14775,-2.742675 l 1.803607,-0.149058 c 0.08943,0.685672 0.303082,1.182533 0.640951,1.490584 0.616104,0.556487 1.649574,0.834729 3.100415,0.834727 1.58001,2e-6 2.673104,-0.332895 3.279285,-0.998692 0.486913,-0.526669 0.635972,-1.147745 0.447176,-1.86323 -0.06957,-0.298111 -0.203724,-0.526667 -0.402458,-0.685668 -0.198755,-0.168928 -0.496872,-0.322955 -0.894351,-0.462081 -0.626054,-0.198739 -2.086825,-0.606165 -4.382317,-1.222279 -1.679395,-0.447168 -2.707897,-1.222271 -3.085509,-2.325312 -0.576361,-1.560133 -0.109312,-2.971218 1.401149,-4.233259"
         id="path3880"
         style="font-size:30.52716255px;font-variant:normal;font-weight:500;font-stretch:normal;fill:#1a1a1a;font-family:Whois;-inkscape-font-specification:Whois Medium" />
      <path
         d="m 113.36928,31.940043 1.56511,0 0.37265,1.103032 c 0.37761,-0.3776 0.73535,-0.660811 1.07322,-0.849633 0.33786,-0.188792 0.75522,-0.273259 1.25209,-0.253399 0.88441,0.03976 1.62473,0.546562 2.22097,1.520396 0.76516,-1.013583 1.71913,-1.520381 2.86192,-1.520396 0.65585,1.5e-5 1.24711,0.213665 1.7738,0.640951 0.52666,0.417378 0.91421,0.889395 1.16265,1.416055 0.30804,0.645932 0.46207,1.356443 0.46208,2.131535 l 0,10.687488 -1.98247,0 0,-10.687488 c -2e-5,-0.645908 -0.0547,-1.088114 -0.16397,-1.32662 -0.25838,-0.566409 -0.6658,-0.874463 -1.22228,-0.924162 -0.53662,-0.06955 -1.04342,0.134166 -1.52039,0.61114 -0.11926,0.119259 -0.2236,0.29316 -0.31303,0.521704 -0.0795,0.218631 -0.12919,0.407438 -0.14905,0.566422 l -0.0298,0.2534 0,10.985604 -1.98247,0 0,-10.687488 c -1e-5,-0.645908 -0.0547,-1.088114 -0.16397,-1.32662 -0.25837,-0.566409 -0.6658,-0.874463 -1.22228,-0.924162 -0.27824,-0.03974 -0.57139,1.3e-5 -0.87944,0.119247 -0.29812,0.11926 -0.55152,0.283224 -0.7602,0.491893 -0.27824,0.308066 -0.41736,0.675743 -0.41736,1.103032 l 0,11.224098 -1.93776,0 0,-14.876029"
         id="path3882"
         style="font-size:30.52716255px;font-variant:normal;font-weight:500;font-stretch:normal;fill:#1a1a1a;font-family:Whois;-inkscape-font-specification:Whois Medium" />
      <path
         d="m 131.76308,32.640618 c 0.83473,-0.467036 1.77379,-0.70056 2.81721,-0.700575 1.0434,1.5e-5 1.97253,0.233539 2.78739,0.700575 0.82478,0.467063 1.47567,1.08317 1.95267,1.848324 0.8844,1.411097 1.3266,3.025895 1.32661,4.844398 -1e-5,1.868205 -0.44221,3.507845 -1.32661,4.918928 -0.477,0.765168 -1.13286,1.386244 -1.96758,1.86323 -0.8248,0.46705 -1.75889,0.700574 -2.80229,0.700574 -1.04342,0 -1.98249,-0.233524 -2.81721,-0.700574 -0.82479,-0.476986 -1.47568,-1.098062 -1.95266,-1.86323 -0.84467,-1.341522 -1.267,-2.981163 -1.267,-4.918928 0,-1.858252 0.43227,-3.47305 1.29681,-4.844398 0.47698,-0.765154 1.12787,-1.381261 1.95266,-1.848324 m 2.81721,1.237184 c -0.7453,1.3e-5 -1.36141,0.144103 -1.84833,0.43227 -0.47699,0.278254 -0.88938,0.695617 -1.23718,1.25209 -0.68567,1.073231 -1.02851,2.330289 -1.0285,3.771178 -1e-5,0.695613 0.0795,1.396187 0.23849,2.101724 0.16893,0.705548 0.40742,1.301781 0.71548,1.788701 0.35773,0.556487 0.7751,0.978819 1.25209,1.266996 0.48692,0.278245 1.11296,0.417366 1.87814,0.417364 0.76515,2e-6 1.38623,-0.139119 1.86323,-0.417364 0.48691,-0.288177 0.90924,-0.710509 1.26699,-1.266996 0.31798,-0.496858 0.56641,-1.103028 0.74529,-1.818513 0.1888,-0.715474 0.2832,-1.406111 0.28322,-2.071912 -2e-5,-1.470701 -0.33291,-2.727759 -0.9987,-3.771178 -0.71549,-1.122894 -1.75889,-1.684347 -3.13022,-1.68436"
         id="path3884"
         style="font-size:30.52716255px;font-variant:normal;font-weight:500;font-stretch:normal;fill:#1a1a1a;font-family:Whois;-inkscape-font-specification:Whois Medium" />
      <path
         d="m 149.88859,31.940043 c 1.64957,1.5e-5 2.94638,0.735369 3.89043,2.206064 0.40741,0.635995 0.66578,1.306757 0.7751,2.012289 0.11923,0.705553 0.17886,1.560154 0.17887,2.563805 l 0,8.093871 -1.95267,0 0,-8.093871 c -1e-5,-1.629696 -0.17391,-2.762539 -0.5217,-3.398532 -0.22857,-0.407414 -0.50681,-0.725405 -0.83473,-0.953974 -0.32794,-0.238481 -0.79002,-0.402445 -1.38624,-0.491893 -0.34781,-0.0298 -0.70555,-0.0447 -1.07322,-0.04472 -0.35775,-0.0099 -0.71052,0.06461 -1.05832,0.223587 -0.3478,0.149071 -0.66083,0.352784 -0.93906,0.61114 -0.26831,0.248443 -0.48693,0.611151 -0.65586,1.088126 -0.159,0.476998 -0.2385,1.033482 -0.23849,1.669455 l 0,9.390679 -1.95267,0 0,-14.876029 1.68436,0 0.26831,1.32662 c 1.05334,-0.884399 2.3253,-1.326605 3.81589,-1.32662"
         id="path3886"
         style="font-size:30.52716255px;font-variant:normal;font-weight:500;font-stretch:normal;fill:#1a1a1a;font-family:Whois;-inkscape-font-specification:Whois Medium" />
      <path
         d="m 161.45553,32.640618 c 0.83472,-0.467036 1.77379,-0.70056 2.8172,-0.700575 1.0434,1.5e-5 1.97253,0.233539 2.78739,0.700575 0.82478,0.467063 1.47567,1.08317 1.95267,1.848324 0.8844,1.411097 1.32661,3.025895 1.32662,4.844398 -10e-6,1.868205 -0.44222,3.507845 -1.32662,4.918928 -0.477,0.765168 -1.13286,1.386244 -1.96757,1.86323 -0.8248,0.46705 -1.7589,0.700574 -2.8023,0.700574 -1.04342,0 -1.98248,-0.233524 -2.8172,-0.700574 -0.8248,-0.476986 -1.47569,-1.098062 -1.95267,-1.86323 -0.84467,-1.341522 -1.267,-2.981163 -1.267,-4.918928 0,-1.858252 0.43227,-3.47305 1.29681,-4.844398 0.47699,-0.765154 1.12787,-1.381261 1.95267,-1.848324 m 2.8172,1.237184 c -0.7453,1.3e-5 -1.3614,0.144103 -1.84832,0.43227 -0.47699,0.278254 -0.88939,0.695617 -1.23719,1.25209 -0.68567,1.073231 -1.0285,2.330289 -1.0285,3.771178 0,0.695613 0.0795,1.396187 0.23849,2.101724 0.16893,0.705548 0.40743,1.301781 0.71548,1.788701 0.35774,0.556487 0.7751,0.978819 1.25209,1.266996 0.48692,0.278245 1.11297,0.417366 1.87814,0.417364 0.76516,2e-6 1.38623,-0.139119 1.86323,-0.417364 0.48691,-0.288177 0.90925,-0.710509 1.267,-1.266996 0.31798,-0.496858 0.56641,-1.103028 0.74529,-1.818513 0.18879,-0.715474 0.2832,-1.406111 0.28321,-2.071912 -1e-5,-1.470701 -0.33291,-2.727759 -0.99869,-3.771178 -0.71549,-1.122894 -1.7589,-1.684347 -3.13023,-1.68436"
         id="path3888"
         style="font-size:30.52716255px;font-variant:normal;font-weight:500;font-stretch:normal;fill:#1a1a1a;font-family:Whois;-inkscape-font-specification:Whois Medium" />
      <path
         d="m 26.274447,63.146319 c 0.88441,-1.063269 2.255746,-1.59491 4.114013,-1.594925 1.967561,1.5e-5 3.343866,0.670777 4.128918,2.012289 0.06955,0.129196 0.134141,0.273286 0.193775,0.432269 0.05961,0.159008 0.109298,0.313035 0.149059,0.462081 0.03974,0.139133 0.06955,0.322972 0.08944,0.551516 0.0298,0.21863 0.04967,0.3975 0.05962,0.53661 0.01986,0.129195 0.0298,0.332908 0.02981,0.61114 0.0099,0.268315 0.01489,0.457122 0.01491,0.566422 -1.2e-5,0.09938 -1.2e-5,0.303095 0,0.611139 -1.2e-5,0.298126 -1.2e-5,0.481965 0,0.551516 l 0,4.456847 c -0.02982,0.715484 0.01986,1.212345 0.149058,1.490584 0.07949,0.178873 0.154015,0.317994 0.223588,0.417364 0.06955,0.08944 0.203701,0.188809 0.402458,0.298116 0.198731,0.109312 0.447162,0.188809 0.745292,0.238494 l 0,1.68436 c -0.596247,-0.03975 -1.122919,-0.168933 -1.58002,-0.387552 -0.447186,-0.228556 -0.745303,-0.442206 -0.89435,-0.640951 l -0.238493,-0.313023 -0.07453,0 c -0.03976,0.03975 -0.09938,0.08944 -0.17887,0.149059 -0.06957,0.04969 -0.238503,0.149059 -0.506798,0.298116 -0.268315,0.14906 -0.556494,0.283212 -0.864539,0.402458 -0.308063,0.10931 -0.715489,0.213651 -1.222279,0.313023 -0.506806,0.08943 -1.033479,0.134152 -1.580019,0.134152 -1.003665,0 -1.868203,-0.228556 -2.593617,-0.685668 -0.72542,-0.457112 -1.257061,-1.028502 -1.594925,-1.714172 -0.526674,-1.093092 -0.606172,-2.186185 -0.238493,-3.279285 0.288177,-0.814846 0.740321,-1.455797 1.356431,-1.922854 0.626042,-0.476978 1.331584,-0.790001 2.11663,-0.939068 0.506793,-0.07949 1.281896,-0.119238 2.325311,-0.119246 0.238486,8e-6 0.6161,0.005 1.132844,0.01491 0.516727,0.0099 0.904278,0.01491 1.162656,0.0149 -10e-6,-0.07949 -10e-6,-0.198735 0,-0.35774 -10e-6,-0.566412 -0.005,-0.988744 -0.01491,-1.266996 -10e-6,-0.288169 -0.01988,-0.596223 -0.05962,-0.924162 -0.03976,-0.337855 -0.10435,-0.581316 -0.193775,-0.730387 -0.208692,-0.357728 -0.486934,-0.616095 -0.834728,-0.775103 -0.337874,-0.16892 -0.874484,-0.253387 -1.60983,-0.2534 -1.192474,1.3e-5 -2.066949,0.308067 -2.623428,0.924163 -0.33787,0.377626 -0.556489,0.924173 -0.655857,1.639642 l -1.788701,-0.313023 c -3e-6,-0.963899 0.317988,-1.828437 0.953973,-2.593616 m 6.260454,10.612959 c 0.268295,-0.218616 0.457102,-0.511764 0.566422,-0.879445 l 0,-3.130226 c -0.28819,6e-6 -0.740333,-0.0099 -1.356432,-0.02981 -0.606179,-0.01987 -1.142788,-0.02484 -1.609831,-0.01491 -0.467056,7e-6 -0.914231,0.02982 -1.341525,0.08944 -0.606176,0.109316 -1.05832,0.268312 -1.356432,0.476987 -0.288183,0.198751 -0.496865,0.571396 -0.626045,1.117938 -0.05963,0.119252 -0.07453,0.387557 -0.04472,0.804916 0.02981,0.40743 0.119243,0.76517 0.268305,1.07322 0.377611,0.794981 1.192463,1.212344 2.444558,1.252091 1.430953,0.03975 2.449518,-0.213648 3.055698,-0.760198"
         id="path3890"
         style="font-size:30.52716255px;font-variant:normal;font-weight:500;font-stretch:normal;fill:#1a1a1a;font-family:Whois;-inkscape-font-specification:Whois Medium" />
      <path
         d="m 39.436305,56.587749 1.907948,0 0,6.707628 c 1.083154,-1.162641 2.459458,-1.743968 4.128918,-1.743983 1.023526,1.5e-5 1.947687,0.243477 2.772487,0.730386 0.824778,0.477001 1.475666,1.098077 1.952665,1.86323 0.914212,1.450846 1.371324,3.065644 1.371337,4.844399 -1.3e-5,1.778769 -0.457125,3.393567 -1.371337,4.844398 -0.486936,0.775106 -1.137824,1.40115 -1.952665,1.878136 -0.814862,0.476987 -1.739024,0.71548 -2.772487,0.71548 -1.66946,0 -3.045764,-0.586295 -4.128918,-1.758889 l -0.372646,1.758889 -1.535302,0 0,-7.438014 0,-12.40166 m 6.036866,6.901404 c -0.735361,1.3e-5 -1.341532,0.144103 -1.818512,0.43227 -0.467055,0.278254 -0.87945,0.695617 -1.237185,1.25209 -0.715484,1.122917 -1.073224,2.394881 -1.073221,3.815896 -3e-6,1.421029 0.357737,2.692993 1.073221,3.815895 0.357735,0.556488 0.77013,0.973851 1.237185,1.252091 0.467043,0.278244 1.073213,0.417365 1.818512,0.417363 1.381266,2e-6 2.424674,-0.556482 3.130227,-1.669454 0.655846,-1.033467 0.983774,-2.305431 0.983785,-3.815895 -1.1e-5,-1.520387 -0.327939,-2.792351 -0.983785,-3.815896 -0.71549,-1.122894 -1.758898,-1.684347 -3.130227,-1.68436"
         id="path3892"
         style="font-size:30.52716255px;font-variant:normal;font-weight:500;font-stretch:normal;fill:#1a1a1a;font-family:Whois;-inkscape-font-specification:Whois Medium" />
      <path
         d="m 60.468448,61.551394 c 1.530324,1.5e-5 2.777444,0.467064 3.741366,1.401149 0.884401,0.854614 1.391199,1.987457 1.520396,3.398532 l -1.907948,0.149058 c -0.07951,-0.914214 -0.407437,-1.639631 -0.983786,-2.176253 -0.60618,-0.556472 -1.396189,-0.834714 -2.370028,-0.834727 -0.735362,1.3e-5 -1.321658,0.134166 -1.75889,0.402458 -0.437243,0.268317 -0.819826,0.680712 -1.147749,1.237185 -0.556489,0.93411 -0.834731,2.220979 -0.834727,3.860613 -4e-6,1.500527 0.332893,2.772491 0.998691,3.815895 0.705538,1.112972 1.743977,1.669456 3.115321,1.669454 0.944027,2e-6 1.68435,-0.253397 2.22097,-0.760198 0.476976,-0.457109 0.780061,-1.103028 0.909256,-1.937759 l 1.907948,0.298117 c -0.218632,1.242156 -0.72543,2.245815 -1.520396,3.01098 -0.924172,0.894351 -2.096764,1.341525 -3.517778,1.341525 -1.033479,0 -1.95764,-0.238493 -2.772487,-0.71548 -0.814857,-0.476986 -1.465744,-1.10303 -1.952665,-1.878136 -0.864541,-1.371333 -1.29681,-2.986131 -1.296808,-4.844398 -2e-6,-1.987436 0.357738,-3.602234 1.07322,-4.844399 0.447172,-0.765153 1.068248,-1.386229 1.863231,-1.86323 0.794972,-0.486909 1.699259,-0.730371 2.712863,-0.730386"
         id="path3894"
         style="font-size:30.52716255px;font-variant:normal;font-weight:500;font-stretch:normal;fill:#1a1a1a;font-family:Whois;-inkscape-font-specification:Whois Medium" />
      <path
         d="m 79.324337,56.587749 1.907948,0 0,19.839674 -1.565114,0 -0.342834,-1.758889 c -1.083168,1.172594 -2.459473,1.758889 -4.128918,1.758889 -1.033478,0 -1.957639,-0.238493 -2.772486,-0.71548 -0.814857,-0.476986 -1.465745,-1.10303 -1.952666,-1.878136 -0.86454,-1.371333 -1.296809,-2.986131 -1.296808,-4.844398 -10e-7,-1.858252 0.432268,-3.47305 1.296808,-4.844399 0.476984,-0.765153 1.127872,-1.386229 1.952666,-1.86323 0.824784,-0.486909 1.748945,-0.730371 2.772486,-0.730386 1.719131,1.5e-5 3.095436,0.581342 4.128918,1.743983 l 0,-6.707628 m -2.280594,7.333674 c -0.486933,-0.288167 -1.10304,-0.432257 -1.848324,-0.43227 -0.745299,1.3e-5 -1.361406,0.144103 -1.848324,0.43227 -0.476992,0.278254 -0.889387,0.695617 -1.237185,1.25209 -0.665798,1.043419 -0.998695,2.315383 -0.998691,3.815896 -4e-6,1.550213 0.317987,2.822177 0.953973,3.815895 0.705539,1.112972 1.748946,1.669456 3.130227,1.669454 1.361391,2e-6 2.394862,-0.556482 3.100415,-1.669454 0.685657,-1.073216 1.028491,-2.34518 1.028503,-3.815895 -1.2e-5,-1.470701 -0.342846,-2.742665 -1.028503,-3.815896 -0.347813,-0.546535 -0.765176,-0.963898 -1.252091,-1.25209"
         id="path3896"
         style="font-size:30.52716255px;font-variant:normal;font-weight:500;font-stretch:normal;fill:#1a1a1a;font-family:Whois;-inkscape-font-specification:Whois Medium" />
      <path
         d="m 86.344989,69.794324 c 0.08943,1.430966 0.382579,2.499217 0.879444,3.204756 0.616103,0.914227 1.545233,1.40612 2.787392,1.475678 1.063275,2e-6 1.90297,-0.263334 2.519088,-0.790009 0.467039,-0.397486 0.809873,-0.944033 1.028503,-1.639643 l 1.86323,0.566422 c -0.327941,1.033475 -0.884425,1.888075 -1.669454,2.563805 -0.963922,0.834727 -2.211042,1.25209 -3.741367,1.25209 l -0.04472,0 c -0.934106,-0.03975 -1.778769,-0.268304 -2.533993,-0.685668 -0.745296,-0.417363 -1.351466,-0.978815 -1.818513,-1.68436 -0.834729,-1.262025 -1.252092,-2.876822 -1.25209,-4.844399 -2e-6,-2.156369 0.352769,-3.845696 1.058314,-5.067986 0.437235,-0.755216 1.048374,-1.366355 1.833419,-1.833418 0.785035,-0.467035 1.689322,-0.710497 2.712863,-0.730386 l 0.04472,0 c 1.768818,0.0497 3.115311,0.571405 4.039483,1.565113 1.132832,1.212354 1.679379,3.1203 1.639643,5.723843 l 0,0.924162 -9.345962,0 M 89.355968,63.6084 c -0.755235,0.11926 -1.41606,0.54656 -1.982476,1.281902 -0.566427,0.725429 -0.884418,1.724119 -0.953974,2.996074 l 7.288956,0 c -0.03976,-0.844654 -0.144101,-1.520385 -0.313023,-2.027194 -0.159006,-0.516725 -0.397499,-0.973837 -0.71548,-1.371337 -0.308064,-0.377603 -0.770144,-0.645907 -1.386243,-0.804916 -0.606179,-0.158982 -1.252098,-0.183825 -1.93776,-0.07453"
         id="path3898"
         style="font-size:30.52716255px;font-variant:normal;font-weight:500;font-stretch:normal;fill:#1a1a1a;font-family:Whois;-inkscape-font-specification:Whois Medium" />
      <path
         d="m 106.37844,56.617561 c 1.07321,0.01989 2.02222,0.352791 2.84702,0.998691 0.82478,0.636001 1.40113,1.575068 1.72908,2.817204 l -1.40115,0.581328 c -0.31801,-0.944021 -0.83474,-1.614783 -1.55021,-2.012289 -0.70555,-0.407408 -1.43594,-0.551498 -2.19116,-0.432269 -1.48065,0.248448 -2.11663,1.212358 -1.90795,2.891733 0.0397,0.318006 0.0994,0.715495 0.17887,1.192467 0.0894,0.467063 0.14409,0.794991 0.16397,0.983786 l 4.6059,0 0,1.952665 -4.42703,0 0,10.836546 -1.93776,0 0,-10.836546 -3.666838,0 0,-1.952665 3.443248,0 c -0.13912,-1.053332 -0.21862,-1.689314 -0.23849,-1.907948 -0.0497,-0.437223 -0.0547,-0.869492 -0.0149,-1.296808 0.0497,-0.437222 0.16893,-0.884396 0.35774,-1.341526 0.1888,-0.457094 0.4422,-0.859552 0.7602,-1.207373 0.31799,-0.347784 0.75522,-0.635963 1.31171,-0.864539 0.55648,-0.238473 1.2024,-0.372626 1.93776,-0.402457"
         id="path3900"
         style="font-size:30.52716255px;font-variant:normal;font-weight:500;font-stretch:normal;fill:#1a1a1a;font-family:Whois;-inkscape-font-specification:Whois Medium" />
      <path
         d="m 125.92,60.552703 c -2e-5,0.26832 -0.0398,0.561468 -0.11925,0.879444 -0.32794,0.884428 -0.94902,1.455818 -1.86323,1.714172 0.4571,0.387565 0.77509,0.909269 0.95397,1.565113 0.17886,0.645931 0.2683,1.25707 0.26831,1.833419 -1e-5,0.417373 -0.0745,0.844673 -0.22359,1.281902 -0.14907,0.437246 -0.37763,0.864547 -0.68567,1.281902 -0.30806,0.407434 -0.67574,0.775111 -1.10303,1.103033 -0.41737,0.327934 -0.92417,0.59127 -1.52039,0.790009 -0.59625,0.19875 -1.22726,0.303091 -1.89305,0.313023 -0.19875,5e-6 -0.47699,-0.0149 -0.83472,-0.04472 -0.35775,-0.03974 -0.61115,-0.04968 -0.7602,-0.02981 -0.90429,0.109314 -1.40116,0.452148 -1.49059,1.028503 -0.0298,0.188811 -0.0199,0.37265 0.0298,0.551516 0.0596,0.168936 0.18383,0.337869 0.37264,0.506798 0.1888,0.158999 0.49189,0.288183 0.90926,0.387552 0.42729,0.09937 0.95397,0.149061 1.58002,0.149059 1.0434,2e-6 1.95762,0.08944 2.74267,0.268305 0.79497,0.168935 1.41605,0.382585 1.86323,0.640951 0.44717,0.258369 0.80987,0.566423 1.08813,0.924162 0.27823,0.357741 0.46207,0.690638 0.55151,0.998692 0.0894,0.308053 0.13414,0.626044 0.13416,0.953973 -2e-5,0.516734 -0.0795,0.978815 -0.2385,1.386244 -0.159,0.407423 -0.35278,0.74032 -0.58132,0.998691 -0.22857,0.258364 -0.53663,0.476983 -0.92417,0.655857 -0.38756,0.188803 -0.74033,0.327924 -1.05831,0.417364 -0.30807,0.09937 -0.70555,0.173896 -1.19247,0.223587 -0.47699,0.04968 -0.85461,0.07452 -1.13284,0.07453 -0.26832,0.0099 -0.62109,0.0149 -1.05832,0.01491 -0.38756,-5e-6 -0.70555,-0.005 -0.95397,-0.01491 -0.2385,-5e-6 -0.60121,-0.02485 -1.08813,-0.07453 -0.47699,-0.04969 -0.87945,-0.119251 -1.20737,-0.208682 -0.318,-0.0795 -0.6807,-0.213654 -1.08813,-0.402457 -0.40743,-0.178875 -0.73535,-0.397493 -0.98378,-0.655857 -0.24843,-0.248434 -0.46208,-0.576363 -0.64095,-0.983786 -0.16894,-0.397491 -0.2534,-0.849635 -0.2534,-1.356431 -0.0199,-0.785042 0.24843,-1.475678 0.80491,-2.071912 0.56642,-0.60617 1.26203,-0.983784 2.08682,-1.132844 l 0,-0.04472 c -0.37762,-0.09937 -0.69064,-0.228554 -0.93907,-0.387552 -0.23849,-0.16893 -0.40246,-0.352768 -0.49189,-0.551516 -0.0795,-0.208678 -0.12919,-0.387548 -0.14906,-0.53661 -0.0199,-0.158992 -0.0248,-0.337862 -0.0149,-0.53661 0.01,-0.30805 0.0695,-0.591261 0.17887,-0.849633 0.11924,-0.258363 0.25339,-0.462076 0.40245,-0.61114 0.159,-0.15899 0.31302,-0.293142 0.46208,-0.402457 0.159,-0.109304 0.29315,-0.183833 0.40246,-0.223588 l 0.14906,-0.05962 0,-0.02981 c -0.0596,-0.03974 -0.13912,-0.0944 -0.23849,-0.163964 -0.0994,-0.07949 -0.27825,-0.243456 -0.53661,-0.491893 -0.24844,-0.248424 -0.47202,-0.506791 -0.67077,-0.775104 -0.18881,-0.268297 -0.36271,-0.611131 -0.5217,-1.028503 -0.159,-0.427292 -0.2385,-0.854592 -0.23849,-1.281902 -1e-5,-0.765156 0.13415,-1.450824 0.40245,-2.057006 0.26831,-0.606159 0.60617,-1.083145 1.0136,-1.430961 0.40742,-0.357726 0.8695,-0.655843 1.38624,-0.89435 0.51674,-0.238479 0.99372,-0.397475 1.43097,-0.476987 0.44716,-0.08942 0.8695,-0.134138 1.26699,-0.134153 1.09309,1.5e-5 2.057,0.188822 2.89173,0.566422 0.35773,-0.03974 0.67076,-0.19873 0.93907,-0.476987 0.2683,-0.278227 0.41239,-0.640936 0.43227,-1.088126 l 1.95267,0 m -6.21574,2.861921 c -1.02354,1.3e-5 -1.87814,0.268318 -2.5638,0.804916 -0.68568,0.536622 -1.02851,1.311724 -1.02851,2.325311 0,0.258377 0.0547,0.536619 0.16397,0.834727 0.11924,0.288188 0.30308,0.596242 0.55151,0.924162 0.24843,0.317999 0.62604,0.581335 1.13285,0.79001 0.50679,0.208689 1.09806,0.313029 1.77379,0.313022 0.65585,7e-6 1.22724,-0.104333 1.71418,-0.313022 0.48691,-0.218612 0.84962,-0.486917 1.08812,-0.804916 0.24842,-0.32792 0.42729,-0.635974 0.53661,-0.924162 0.11924,-0.298107 0.17886,-0.571381 0.17887,-0.819821 -1e-5,-2.086806 -1.18254,-3.130214 -3.54759,-3.130227 m 0,12.178072 c -0.32793,10e-7 -0.62605,0.0099 -0.89435,0.02981 -0.25837,0.0099 -0.56643,0.03478 -0.92416,0.07453 -0.35775,0.03975 -0.67077,0.10931 -0.93907,0.208682 -0.25837,0.09937 -0.5068,0.223588 -0.74529,0.372646 -0.2385,0.139121 -0.42234,0.327928 -0.55152,0.566422 -0.12918,0.24843 -0.19378,0.526672 -0.19377,0.834727 -1e-5,1.430958 1.42598,2.146438 4.27797,2.146441 2.82217,-3e-6 4.23325,-0.700577 4.23326,-2.101723 -1e-5,-1.421024 -1.42103,-2.131535 -4.26307,-2.131536"
         id="path3902"
         style="font-size:30.52716255px;font-variant:normal;font-weight:500;font-stretch:normal;fill:#1a1a1a;font-family:Whois;-inkscape-font-specification:Whois Medium" />
      <path
         d="m 128.90116,56.587749 1.90795,0 c 0,2e-5 0,2.519104 0,7.557261 l 0.0745,0 c 0.2683,-0.695593 0.80491,-1.291826 1.60983,-1.788701 0.80491,-0.506784 1.61479,-0.760183 2.42965,-0.760197 0.97384,1.4e-5 1.76385,0.163978 2.37003,0.491892 0.60616,0.327943 1.16761,0.834741 1.68436,1.520396 0.35773,0.467062 0.66081,1.11795 0.90926,1.952665 0.25835,0.834737 0.38754,1.644621 0.38755,2.429652 l 0,8.436706 -1.98248,0 0,-8.436706 c -1e-5,-0.626036 -0.0596,-1.14774 -0.17887,-1.565113 -0.10932,-0.42729 -0.29316,-0.884402 -0.55151,-1.371337 -0.51675,-0.983773 -1.39619,-1.475666 -2.63834,-1.475679 -1.43097,1.3e-5 -2.50915,0.566435 -3.23457,1.699266 -0.5863,0.924173 -0.87944,2.186199 -0.87944,3.786084 l 0,7.363485 -1.90795,0 0,-7.363485 0,-12.476189"
         id="path3904"
         style="font-size:30.52716255px;font-variant:normal;font-weight:500;font-stretch:normal;fill:#1a1a1a;font-family:Whois;-inkscape-font-specification:Whois Medium" />
      <path
         d="m 144.01569,61.551394 6.36479,0 0,12.893553 5.23195,0 0,1.982476 -12.37184,0 0,-1.982476 5.23195,0 0,-10.911076 -4.45685,0 0,-1.982477 m 6.69272,-6.230642 c 0.35773,0.347824 0.5366,0.780093 0.53661,1.296809 -1e-5,0.516755 -0.17888,0.958961 -0.53661,1.326619 -0.35775,0.367696 -0.79002,0.551535 -1.29681,0.551517 -0.5068,1.8e-5 -0.93907,-0.183821 -1.2968,-0.551517 -0.35775,-0.367658 -0.53662,-0.809864 -0.53661,-1.326619 -1e-5,-0.516716 0.17389,-0.948985 0.5217,-1.296809 0.35773,-0.357718 0.79497,-0.536588 1.31171,-0.53661 0.51673,2.2e-5 0.949,0.178892 1.29681,0.53661"
         id="path3906"
         style="font-size:30.52716255px;font-variant:normal;font-weight:500;font-stretch:normal;fill:#1a1a1a;font-family:Whois;-inkscape-font-specification:Whois Medium" />
      <path
         d="m 160.8742,61.551394 8.40689,0 0,12.356942 c 0.01,0.208684 0.01,0.486926 0,0.834727 -1e-5,0.337867 -0.0497,0.89932 -0.14905,1.68436 -0.0894,0.794978 -0.23354,1.43096 -0.43227,1.907948 -0.35776,0.884411 -0.96393,1.614796 -1.81852,2.191159 -0.84467,0.576354 -1.90298,0.864534 -3.17494,0.864539 -1.2521,-5e-6 -2.26072,-0.273279 -3.02589,-0.819822 -0.75523,-0.546551 -1.28687,-1.22725 -1.59492,-2.0421 -0.159,-0.417365 -0.25837,-0.854603 -0.29812,-1.311714 -0.0298,-0.447176 -0.0199,-0.79001 0.0298,-1.028503 l 0.0745,-0.372646 1.71417,0.313023 c -0.0696,0.60617 -0.005,1.17756 0.19378,1.714171 0.0994,0.258367 0.19874,0.472017 0.29812,0.640952 0.0994,0.16893 0.24842,0.357737 0.44717,0.566421 0.20868,0.208679 0.49189,0.362706 0.84964,0.462082 0.36767,0.109306 0.8049,0.163961 1.31171,0.163964 0.9639,-3e-6 1.66945,-0.178873 2.11663,-0.53661 0.44716,-0.357743 0.79497,-0.86951 1.04341,-1.535302 0.11923,-0.327929 0.20867,-0.799947 0.2683,-1.416055 0.0695,-0.616107 0.10433,-1.152717 0.10434,-1.609831 l 0.0149,-0.670763 0,-10.419183 -6.3797,0 0,-1.937759 m 8.36218,-6.290265 c 0.35772,0.367698 0.53659,0.809904 0.53661,1.32662 -2e-5,0.516755 -0.17889,0.958961 -0.53661,1.32662 -0.34782,0.357758 -0.78009,0.536628 -1.29681,0.53661 -0.51675,1.8e-5 -0.95399,-0.178852 -1.31172,-0.53661 -0.34781,-0.367659 -0.52171,-0.809865 -0.5217,-1.32662 -1e-5,-0.516716 0.17886,-0.958922 0.53661,-1.32662 0.35773,-0.367656 0.79,-0.551494 1.29681,-0.551516 0.50679,2.2e-5 0.93905,0.18386 1.29681,0.551516"
         id="path3908"
         style="font-size:30.52716255px;font-variant:normal;font-weight:500;font-stretch:normal;fill:#1a1a1a;font-family:Whois;-inkscape-font-specification:Whois Medium" />
      <path
         d="m 24.590087,86.1991 1.952666,0 0,13.459974 7.900095,-8.466517 1.401149,1.296808 -5.291573,5.723843 6.171018,7.631792 0,0.19377 -2.39984,0 -5.157421,-6.379696 -2.623428,2.832106 0,3.54759 -1.952666,0 0,-19.83967"
         id="path3910"
         style="font-size:30.52716255px;font-variant:normal;font-weight:500;font-stretch:normal;fill:#1a1a1a;font-family:Whois;-inkscape-font-specification:Whois Medium" />
      <path
         d="m 39.168,86.1991 7.288957,0 0,17.88701 5.381008,0 0,1.95266 -12.669965,0 0,-1.95266 5.381009,0 0,-15.979062 -5.381009,0 0,-1.907948"
         id="path3912"
         style="font-size:30.52716255px;font-variant:normal;font-weight:500;font-stretch:normal;fill:#1a1a1a;font-family:Whois;-inkscape-font-specification:Whois Medium" />
      <path
         d="m 53.984407,91.162745 1.565113,0 0.372646,1.103032 c 0.377611,-0.3776 0.735351,-0.660811 1.073221,-0.849633 0.337861,-0.188792 0.755224,-0.273259 1.25209,-0.253399 0.884407,0.03976 1.62473,0.546562 2.220971,1.520396 0.765158,-1.013583 1.719131,-1.520381 2.861921,-1.520396 0.655846,1.5e-5 1.247111,0.213665 1.773795,0.640951 0.526661,0.417378 0.914212,0.889395 1.162656,1.416055 0.30804,0.645932 0.462067,1.356443 0.462081,2.131535 l 0,10.687484 -1.982477,0 0,-10.687484 c -1.2e-5,-0.645908 -0.05467,-1.088114 -0.163964,-1.326619 -0.25838,-0.56641 -0.665805,-0.874464 -1.222279,-0.924163 -0.53662,-0.06955 -1.043418,0.134166 -1.520396,0.61114 -0.119256,0.119259 -0.223596,0.29316 -0.313023,0.521704 -0.07951,0.218631 -0.129192,0.407438 -0.149058,0.566422 l -0.02981,0.2534 0,10.9856 -1.982477,0 0,-10.687484 c -6e-6,-0.645908 -0.05466,-1.088114 -0.163964,-1.326619 -0.258374,-0.56641 -0.6658,-0.874464 -1.222279,-0.924163 -0.278247,-0.03974 -0.571395,1.3e-5 -0.879444,0.119247 -0.298121,0.11926 -0.55152,0.283224 -0.760198,0.491893 -0.278246,0.308066 -0.417367,0.675743 -0.417364,1.103032 l 0,11.224094 -1.937759,0 0,-14.876025"
         id="path3914"
         style="font-size:30.52716255px;font-variant:normal;font-weight:500;font-stretch:normal;fill:#1a1a1a;font-family:Whois;-inkscape-font-specification:Whois Medium" />
      <path
         d="m 75.6575,91.162745 c 1.64957,1.5e-5 2.946377,0.735369 3.890425,2.206065 0.407414,0.635994 0.665781,1.306756 0.775103,2.012288 0.119234,0.705553 0.178858,1.560154 0.17887,2.563805 l 0,8.093867 -1.952665,0 0,-8.093867 c -1.1e-5,-1.629696 -0.173912,-2.762539 -0.521704,-3.398532 -0.228566,-0.407414 -0.506809,-0.725405 -0.834727,-0.953974 -0.327938,-0.238481 -0.790018,-0.402445 -1.386243,-0.491893 -0.347811,-0.0298 -0.705551,-0.0447 -1.073221,-0.04472 -0.357747,-0.0099 -0.710518,0.06461 -1.058315,0.223587 -0.347808,0.149071 -0.660831,0.352784 -0.939068,0.61114 -0.26831,0.248443 -0.486928,0.611151 -0.655857,1.088126 -0.159,0.476998 -0.238497,1.033482 -0.238493,1.669455 l 0,9.390678 -1.952665,0 0,-14.876028 1.68436,0 0.268305,1.32662 c 1.053341,-0.884399 2.325305,-1.326605 3.815895,-1.32662"
         id="path3916"
         style="font-size:30.52716255px;font-variant:normal;font-weight:500;font-stretch:normal;fill:#1a1a1a;font-family:Whois;-inkscape-font-specification:Whois Medium" />
      <path
         d="m 87.224433,91.86332 c 0.834722,-0.467035 1.773789,-0.70056 2.817204,-0.700575 1.043401,1.5e-5 1.97253,0.23354 2.787392,0.700575 0.824779,0.467063 1.475667,1.08317 1.952666,1.848324 0.8844,1.411097 1.326606,3.025895 1.326619,4.844398 -1.3e-5,1.868208 -0.442219,3.507848 -1.326619,4.918928 -0.476999,0.76517 -1.132855,1.38624 -1.967571,1.86323 -0.8248,0.46705 -1.758898,0.70057 -2.802299,0.70057 -1.043415,0 -1.982482,-0.23352 -2.817204,-0.70057 -0.824793,-0.47699 -1.475681,-1.09806 -1.952665,-1.86323 -0.844666,-1.34152 -1.266998,-2.98116 -1.266996,-4.918928 -2e-6,-1.858252 0.432267,-3.47305 1.296808,-4.844398 0.476984,-0.765154 1.127872,-1.381261 1.952665,-1.848324 m 2.817204,1.237184 c -0.745299,1.3e-5 -1.361406,0.144103 -1.848324,0.43227 -0.476992,0.278254 -0.889387,0.695617 -1.237185,1.25209 -0.685672,1.073231 -1.028506,2.330289 -1.028503,3.771178 -3e-6,0.695613 0.07949,1.396187 0.238493,2.101728 0.16893,0.70554 0.407423,1.30178 0.715481,1.7887 0.357735,0.55648 0.775099,0.97882 1.25209,1.26699 0.486919,0.27825 1.112963,0.41737 1.878136,0.41737 0.765159,0 1.386235,-0.13912 1.863231,-0.41737 0.486914,-0.28817 0.909246,-0.71051 1.266996,-1.26699 0.317981,-0.49686 0.566411,-1.10303 0.745292,-1.81852 0.188796,-0.71547 0.2832,-1.406107 0.283211,-2.071908 -1.1e-5,-1.4707 -0.332908,-2.727758 -0.998691,-3.771178 -0.71549,-1.122894 -1.758898,-1.684347 -3.130227,-1.68436"
         id="path3918"
         style="font-size:30.52716255px;font-variant:normal;font-weight:500;font-stretch:normal;fill:#1a1a1a;font-family:Whois;-inkscape-font-specification:Whois Medium" />
      <path
         d="m 98.865899,91.162745 1.565111,0 0.37265,1.86323 c 1.08315,-1.222265 2.44455,-1.833403 4.0842,-1.833418 1.02353,1.5e-5 1.94769,0.238508 2.77249,0.71548 0.83471,0.467063 1.49057,1.083171 1.96757,1.848324 0.86452,1.371349 1.29679,2.996084 1.2968,4.87421 -10e-6,1.888079 -0.43228,3.517779 -1.2968,4.889119 -0.477,0.76517 -1.12789,1.38624 -1.95267,1.86323 -0.81486,0.46705 -1.74399,0.70057 -2.78739,0.70057 -1.64959,0 -3.01099,-0.6012 -4.0842,-1.8036 l 0,6.72253 -1.937761,0 0,-19.839675 m 6.021961,1.982477 c -1.48065,1.3e-5 -2.57375,0.556497 -3.27929,1.669454 -0.53661,0.844675 -0.80491,2.116639 -0.80491,3.815895 0,1.748959 0.25339,3.020919 0.7602,3.815899 0.71547,1.12291 1.82347,1.68436 3.324,1.68436 1.37133,0 2.41474,-0.56145 3.13023,-1.68436 0.63597,-0.99372 0.95396,-2.26569 0.95397,-3.815899 -1e-5,-1.550198 -0.318,-2.822162 -0.95397,-3.815895 -0.70556,-1.112957 -1.74897,-1.669441 -3.13023,-1.669454"
         id="path3920"
         style="font-size:30.52716255px;font-variant:normal;font-weight:500;font-stretch:normal;fill:#1a1a1a;font-family:Whois;-inkscape-font-specification:Whois Medium" />
      <path
         d="m 125.77094,91.162745 0,19.839675 -1.95267,0 0,-6.75235 c -1.06329,1.19247 -2.42469,1.7887 -4.0842,1.7887 -1.04341,0 -1.98248,-0.23352 -2.8172,-0.70057 -0.82479,-0.47699 -1.47568,-1.09806 -1.95267,-1.86323 -0.83472,-1.33158 -1.25209,-2.95632 -1.25209,-4.87421 0,-1.888064 0.43227,-3.517768 1.29681,-4.889116 0.47699,-0.755216 1.12787,-1.366355 1.95267,-1.833419 0.82478,-0.476972 1.74894,-0.715465 2.77248,-0.71548 1.64957,1.5e-5 3.01097,0.606185 4.0842,1.818513 l 0.41737,-1.818513 1.5353,0 m -6.03687,1.937759 c -0.7453,1.3e-5 -1.3614,0.144103 -1.84832,0.43227 -0.47699,0.278254 -0.88939,0.695617 -1.23719,1.25209 -0.66579,1.04342 -0.99869,2.315383 -0.99869,3.815896 0,1.50053 0.3329,2.77249 0.99869,3.8159 0.3478,0.54655 0.7602,0.96391 1.23719,1.25209 0.48692,0.27824 1.10302,0.41736 1.84832,0.41736 1.51045,0 2.61845,-0.55648 3.32401,-1.66945 0.48691,-0.76517 0.73037,-2.03713 0.73038,-3.8159 -1e-5,-1.778755 -0.24347,-3.050719 -0.73038,-3.815896 -0.71549,-1.122894 -1.82349,-1.684347 -3.32401,-1.68436"
         id="path3922"
         style="font-size:30.52716255px;font-variant:normal;font-weight:500;font-stretch:normal;fill:#1a1a1a;font-family:Whois;-inkscape-font-specification:Whois Medium" />
      <path
         d="m 129.85514,91.162745 1.63964,0 0.29812,1.32662 c 0.85459,-0.854587 1.9775,-1.311699 3.36872,-1.371337 1.48063,-0.05961 2.62838,0.283225 3.44324,1.028503 0.43723,0.407439 0.79,0.799959 1.05832,1.177561 0.26829,0.36769 0.54157,0.859582 0.81982,1.475678 l -1.60983,0.909257 c -0.0696,-0.109299 -0.17888,-0.298107 -0.32793,-0.566422 -0.13913,-0.268294 -0.27825,-0.491882 -0.41736,-0.670763 -0.1292,-0.188796 -0.31304,-0.397477 -0.55152,-0.626046 -0.32794,-0.308041 -0.75524,-0.52666 -1.2819,-0.655857 -0.51675,-0.139108 -1.01361,-0.178857 -1.49058,-0.119246 -0.16895,0.01989 -0.318,0.04473 -0.44718,0.07453 -0.11925,0.01989 -0.28819,0.07454 -0.5068,0.163964 -0.20869,0.07951 -0.39253,0.178883 -0.55151,0.298117 -0.15901,0.109322 -0.33291,0.278254 -0.52171,0.506799 -0.17887,0.21863 -0.32793,0.476998 -0.44717,0.775103 -0.11926,0.288191 -0.21863,0.655868 -0.29812,1.103033 -0.0795,0.437247 -0.11925,0.924171 -0.11925,1.460772 l 0,8.585759 -2.057,0 0,-14.876024"
         id="path3924"
         style="font-size:30.52716255px;font-variant:normal;font-weight:500;font-stretch:normal;fill:#1a1a1a;font-family:Whois;-inkscape-font-specification:Whois Medium" />
      <path
         d="m 145.68514,92.340306 c 0.51674,-0.437223 1.1875,-0.755214 2.01229,-0.953973 0.82479,-0.19873 1.62473,-0.268291 2.39984,-0.208682 0.7751,0.05964 1.41605,0.218634 1.92286,0.476987 0.73534,0.377628 1.29182,0.794992 1.66945,1.25209 0.3776,0.457126 0.63597,1.003673 0.7751,1.639643 l -1.56511,0.655857 c -0.33788,-0.894339 -0.79499,-1.480635 -1.37134,-1.758889 -0.61611,-0.298104 -1.49556,-0.412382 -2.63833,-0.342835 -1.04342,0.07951 -1.82846,0.422345 -2.35512,1.028503 -0.29812,0.347815 -0.45215,0.730398 -0.46208,1.14775 -1e-5,0.407437 0.13414,0.775114 0.40245,1.103032 0.27824,0.327938 0.65089,0.556494 1.11794,0.685669 0.36767,0.09938 1.11793,0.288188 2.25078,0.566422 1.14278,0.278251 1.98247,0.496869 2.51909,0.655857 0.6956,0.198752 1.24711,0.511775 1.65455,0.939068 0.40741,0.427307 0.7105,0.968885 0.90925,1.624735 0.1888,0.62605 0.19377,1.267 0.0149,1.92286 -0.16894,0.65585 -0.4919,1.23718 -0.96888,1.74398 -1.01361,1.0136 -2.56381,1.52039 -4.65062,1.52039 -1.95764,0 -3.42338,-0.44717 -4.39722,-1.34152 -0.76517,-0.70554 -1.14776,-1.61977 -1.14775,-2.74268 l 1.8036,-0.14905 c 0.0894,0.68567 0.30308,1.18253 0.64095,1.49058 0.61611,0.55649 1.64958,0.83473 3.10042,0.83473 1.58001,0 2.6731,-0.3329 3.27928,-0.99869 0.48692,-0.52667 0.63598,-1.14775 0.44718,-1.86323 -0.0696,-0.29812 -0.20373,-0.52667 -0.40246,-0.68567 -0.19875,-0.16893 -0.49687,-0.32296 -0.89435,-0.46208 -0.62605,-0.198743 -2.08682,-0.606169 -4.38232,-1.222283 -1.67939,-0.447168 -2.70789,-1.222271 -3.08551,-2.325312 -0.57636,-1.560133 -0.10931,-2.971218 1.40115,-4.233259"
         id="path3926"
         style="font-size:30.52716255px;font-variant:normal;font-weight:500;font-stretch:normal;fill:#1a1a1a;font-family:Whois;-inkscape-font-specification:Whois Medium" />
      <path
         d="m 162.55856,87.719496 1.95266,-0.536611 0,3.97986 5.21705,0 0,1.982477 -5.21705,0 0,10.940888 5.18724,0 0,1.95266 -7.1399,0 0,-12.893548 -3.89042,0 0,-1.982477 3.89042,0 0,-3.443249"
         id="path3928"
         style="font-size:30.52716255px;font-variant:normal;font-weight:500;font-stretch:normal;fill:#1a1a1a;font-family:Whois;-inkscape-font-specification:Whois Medium" />
      <path
         d="m 30.239401,135.69484 c -1.689334,0 -3.010984,-0.74032 -3.964954,-2.22097 -0.218621,-0.33786 -0.397491,-0.69063 -0.53661,-1.05831 -0.129186,-0.36768 -0.218621,-0.77013 -0.268305,-1.20738 -0.04969,-0.43723 -0.08447,-0.80491 -0.104341,-1.10303 -0.0099,-0.29811 -0.01491,-0.70057 -0.01491,-1.20737 l 0,-8.12368 1.952665,0 0,8.12368 c -4e-6,1.60984 0.178866,2.74268 0.536611,3.39853 0.228551,0.40743 0.501825,0.73039 0.819821,0.96888 0.327923,0.22856 0.790003,0.38755 1.386243,0.47699 0.347796,0.0298 0.700567,0.0497 1.058315,0.0596 0.367669,0 0.725409,-0.0745 1.07322,-0.22359 0.347794,-0.14905 0.655848,-0.3478 0.924163,-0.59623 0.278232,-0.24843 0.496851,-0.61114 0.655857,-1.08813 0.168922,-0.47698 0.253388,-1.03346 0.253399,-1.66945 l 0,-9.4503 1.952665,0 0,14.87603 -1.639642,0 -0.313023,-1.22228 c -1.013607,0.84466 -2.270665,1.26699 -3.771178,1.26699"
         id="path3930"
         style="font-size:30.52716255px;font-variant:normal;font-weight:500;font-stretch:normal;fill:#1a1a1a;font-family:Whois;-inkscape-font-specification:Whois Medium" />
      <path
         d="m 39.361776,120.7741 2.057006,0 4.054389,11.93957 0.08944,0.4919 0.08943,-0.4919 3.935142,-11.93957 2.057006,0 -4.948739,14.87603 -2.250782,0 -5.082892,-14.87603"
         id="path3932"
         style="font-size:30.52716255px;font-variant:normal;font-weight:500;font-stretch:normal;fill:#1a1a1a;font-family:Whois;-inkscape-font-specification:Whois Medium" />
      <path
         d="m 54.058936,120.7741 1.982477,0 0.909256,11.17938 2.489276,-6.49895 1.833418,0 2.47437,6.45423 0.953974,-11.13466 1.952665,0 -1.266997,14.87603 -2.057006,0 -2.936451,-7.6318 -0.04472,-0.14905 -0.02981,0.14905 -2.906639,7.6318 -2.057006,0 -1.296808,-14.87603"
         id="path3934"
         style="font-size:30.52716255px;font-variant:normal;font-weight:500;font-stretch:normal;fill:#1a1a1a;font-family:Whois;-inkscape-font-specification:Whois Medium" />
      <path
         d="m 69.054213,120.7741 2.370028,0 3.741366,5.6344 0,0.0447 0.02981,0 0,-0.0447 3.815895,-5.6344 2.325312,0 -4.94874,7.31876 5.112704,7.55727 -2.370029,0 -3.890424,-5.79838 0,-0.0745 -0.04472,0 -0.02981,0.0745 -3.890424,5.79838 -2.370029,0 5.112704,-7.55727 -4.963645,-7.31876"
         id="path3936"
         style="font-size:30.52716255px;font-variant:normal;font-weight:500;font-stretch:normal;fill:#1a1a1a;font-family:Whois;-inkscape-font-specification:Whois Medium" />
      <path
         d="m 83.900431,120.7741 2.057006,0 4.054388,10.7173 0.07453,0.41736 0.07453,-0.41736 3.964954,-10.7173 2.057006,0 -5.410821,14.8015 c -0.63599,1.45083 -1.172599,2.46939 -1.60983,3.05569 -0.914231,1.22228 -2.335253,1.95763 -4.263071,2.20607 l 0,-1.93776 c 1.321648,-0.25837 2.235872,-0.73039 2.742675,-1.41606 0.198739,-0.25837 0.417358,-0.64095 0.655857,-1.14775 0.238487,-0.49686 0.427294,-0.93409 0.566422,-1.31171 l 0.223587,-0.55152 -5.187232,-13.69846"
         id="path3938"
         style="font-size:30.52716255px;font-variant:normal;font-weight:500;font-stretch:normal;fill:#1a1a1a;font-family:Whois;-inkscape-font-specification:Whois Medium" />
      <path
         d="m 99.208734,120.7741 11.209196,0 0,1.90794 -8.9286,11.01542 9.39068,0 0,1.95267 -11.984299,0 0,-1.90795 9.003129,-11.03032 -8.690106,0 0,-1.93776"
         id="path3940"
         style="font-size:30.52716255px;font-variant:normal;font-weight:500;font-stretch:normal;fill:#1a1a1a;font-family:Whois;-inkscape-font-specification:Whois Medium" />
    </g>
  </g>
</svg>
