<?xml version="1.0" encoding="UTF-8" standalone="no"?>
<!-- Created with Inkscape (http://www.inkscape.org/) -->

<svg
   xmlns:dc="http://purl.org/dc/elements/1.1/"
   xmlns:cc="http://creativecommons.org/ns#"
   xmlns:rdf="http://www.w3.org/1999/02/22-rdf-syntax-ns#"
   xmlns:svg="http://www.w3.org/2000/svg"
   xmlns="http://www.w3.org/2000/svg"
   xmlns:sodipodi="http://sodipodi.sourceforge.net/DTD/sodipodi-0.dtd"
   xmlns:inkscape="http://www.inkscape.org/namespaces/inkscape"
   width="549.52301"
   height="260.61935"
   id="svg2"
   version="1.1"
   inkscape:version="0.48.4 r9939"
   sodipodi:docname="specimen1.svg">
  <defs
     id="defs4" />
  <sodipodi:namedview
     id="base"
     pagecolor="#ffffff"
     bordercolor="#666666"
     borderopacity="1.0"
     inkscape:pageopacity="0.0"
     inkscape:pageshadow="2"
     inkscape:zoom="0.98994949"
     inkscape:cx="260.09829"
     inkscape:cy="61.09414"
     inkscape:document-units="px"
     inkscape:current-layer="layer1"
     showgrid="false"
     inkscape:window-width="1206"
     inkscape:window-height="754"
     inkscape:window-x="0"
     inkscape:window-y="0"
     inkscape:window-maximized="0"
     fit-margin-top="0"
     fit-margin-left="0"
     fit-margin-right="0"
     fit-margin-bottom="0" />
  <metadata
     id="metadata7">
    <rdf:RDF>
      <cc:Work
         rdf:about="">
        <dc:format>image/svg+xml</dc:format>
        <dc:type
           rdf:resource="http://purl.org/dc/dcmitype/StillImage" />
        <dc:title></dc:title>
      </cc:Work>
    </rdf:RDF>
  </metadata>
  <g
     inkscape:label="Calque 1"
     inkscape:groupmode="layer"
     id="layer1"
     transform="translate(-86.751717,-71.073395)">
    <rect
       style="fill:#ffff00;fill-opacity:1;fill-rule:nonzero;stroke:none"
       id="rect2996"
       width="549.52301"
       height="260.61935"
       x="86.751717"
       y="71.073395" />
    <text
       sodipodi:linespacing="125%"
       id="text2993"
       y="203.00648"
       x="48.412449"
       style="font-size:43.92279053px;font-style:normal;font-variant:normal;font-weight:bold;font-stretch:normal;line-height:125%;letter-spacing:0px;word-spacing:0px;fill:#000000;fill-opacity:1;stroke:none;font-family:Avara;-inkscape-font-specification:Avara Bold"
       xml:space="preserve"><tspan
         style="font-family:Whois;-inkscape-font-specification:Whois"
         id="tspan2995"
         y="203.00648"
         x="48.412449"
         sodipodi:role="line" /></text>
    <g
       id="g3766"
       transform="translate(-0.870673,0.91378925)"
       style="fill:#333333">
      <g
         style="font-size:43.92279053000000033px;font-style:normal;font-variant:normal;font-weight:bold;font-stretch:normal;line-height:125%;letter-spacing:0px;word-spacing:0px;fill:#333333;fill-opacity:1;stroke:none;font-family:Avara;-inkscape-font-specification:Avara Bold"
         id="text2985">
        <path
           d="m 111.0052,160.29144 c -0.99609,1.19141 -1.25,2.59766 -1.25,3.39844 l 2.34375,0.41016 c 0.0977,-0.70313 0.3125,-1.54297 0.85938,-2.14844 0.54687,-0.60547 1.38672,-1.21094 3.4375,-1.21094 2.05078,0 2.69531,0.48828 3.20312,1.34766 0.39063,0.70312 0.35157,2.40234 0.35157,4.29687 -0.9961,0 -2.05079,-0.0391 -3.00782,-0.0391 -1.05468,0 -2.05078,0 -3.04687,0.15625 -1.89453,0.35156 -3.75,1.50391 -4.55078,3.75 -0.39063,1.15234 -0.48828,2.65625 0.3125,4.29688 0.80078,1.64062 2.69531,3.14453 5.48828,3.14453 3.84765,0 5.70312,-1.69922 5.70312,-1.69922 l 0.0977,0 c 0,0 0.89844,1.60156 3.55469,1.75781 l 0,-2.20703 c -1.26953,-0.19531 -1.54297,-0.70313 -1.79688,-1.25 -0.2539,-0.54688 -0.19531,-1.95313 -0.19531,-1.95313 l 0,-5.83984 c 0,-1.95312 0.0976,-4.31641 -0.70313,-5.66406 -0.95703,-1.64063 -2.8125,-2.63672 -5.41015,-2.63672 -2.59766,0 -4.39453,0.89844 -5.39063,2.08984 m 8.20313,13.90625 c -0.60547,0.54688 -1.79688,1.05469 -4.00391,0.9961 -2.10937,-0.0586 -2.89062,-0.97657 -3.20312,-1.64063 -0.42969,-0.89843 -0.39063,-2.05078 -0.29297,-2.46094 0.37109,-1.52343 1.15234,-1.83593 2.59765,-2.08984 1.89453,-0.25391 3.75001,-0.0586 5.64454,-0.0586 0,0 0.0586,3.90625 0,4.10156 -0.0586,0.19531 -0.19532,0.70312 -0.74219,1.15234"
           style="font-size:40px;fill:#333333;font-family:Whois;-inkscape-font-specification:Whois"
           id="path3881"
           inkscape:connector-curvature="0" />
        <path
           d="m 128.2513,151.69769 0,16.25 0,9.7461 2.01172,0 0.48828,-2.30469 c 1.25,1.34765 3.10547,2.30469 5.41015,2.30469 2.85156,0 5,-1.50391 6.19141,-3.39844 1.1914,-1.89453 1.79687,-4.23828 1.79687,-6.34766 0,-2.10937 -0.60547,-4.45312 -1.79687,-6.34765 -1.19141,-1.89453 -3.39844,-3.39844 -6.19141,-3.39844 -2.30468,0 -4.16015,0.9375 -5.41015,2.28516 l 0,-8.78907 -2.5,0 m 7.91015,9.04297 c 2.05078,0 3.24219,0.85938 4.10157,2.20703 0.85937,1.34766 1.28906,3.24219 1.28906,5 0,1.75781 -0.42969,3.65235 -1.28906,5 -0.85938,1.34766 -2.05079,2.1875 -4.10157,2.1875 -2.05078,0 -3.14453,-0.83984 -4.0039,-2.1875 -0.85938,-1.34765 -1.40625,-3.24219 -1.40625,-5 0,-1.75781 0.54687,-3.65234 1.40625,-5 0.85937,-1.34765 1.95312,-2.20703 4.0039,-2.20703"
           style="font-size:40px;fill:#333333;font-family:Whois;-inkscape-font-specification:Whois"
           id="path3883"
           inkscape:connector-curvature="0" />
        <path
           d="m 155.80989,158.2016 c -2.79297,0 -4.90234,1.50391 -5.99609,3.39844 -1.09375,1.89453 -1.40625,4.23828 -1.40625,6.34765 0,2.10938 0.50781,4.45313 1.69922,6.34766 1.1914,1.89453 3.33984,3.39844 6.1914,3.39844 1.89453,0 3.51563,-0.70313 4.60938,-1.75782 1.09375,-1.05468 1.73828,-2.5 1.99218,-3.94531 l -2.5,-0.39062 c -0.15625,1.05468 -0.54687,1.93359 -1.1914,2.53906 -0.64453,0.60547 -1.50391,0.99609 -2.91016,0.99609 -2.05078,0 -3.22266,-0.83984 -4.08203,-2.1875 -0.85937,-1.34765 -1.30859,-3.24219 -1.30859,-5 0,-1.79687 0.29297,-3.71094 1.09375,-5.05859 0.80078,-1.34766 1.75781,-2.14844 3.80859,-2.14844 1.44531,0 2.40235,0.44922 3.10547,1.09375 0.70312,0.64453 1.19141,1.66016 1.28906,2.85156 l 2.5,-0.19531 c -0.15625,-1.69922 -0.80078,-3.30078 -1.99219,-4.45312 -1.1914,-1.15235 -2.91015,-1.83594 -4.90234,-1.83594"
           style="font-size:40px;fill:#333333;font-family:Whois;-inkscape-font-specification:Whois"
           id="path3885"
           inkscape:connector-curvature="0" />
        <path
           d="m 180.51692,151.69769 0,8.78907 c -1.25,-1.40625 -3.10547,-2.28516 -5.41015,-2.28516 -2.79297,0 -5.00001,1.50391 -6.19141,3.39844 -1.19141,1.89453 -1.69922,4.23828 -1.69922,6.34765 0,2.10938 0.50781,4.45313 1.69922,6.34766 1.1914,1.89453 3.33985,3.39844 6.19141,3.39844 2.30468,0 4.16015,-0.95704 5.41015,-2.30469 l 0.44922,2.30469 2.05078,0 0,-25.9961 -2.5,0 m -5.41015,9.04297 c 2.05077,0 3.20312,0.85938 4.0625,2.20703 0.85937,1.34766 1.34765,3.24219 1.34765,5 0,1.75781 -0.48828,3.65235 -1.34765,5 -0.85938,1.34766 -2.01173,2.1875 -4.0625,2.1875 -2.05078,0 -3.24219,-0.83984 -4.10157,-2.1875 -0.85937,-1.34765 -1.25,-3.24219 -1.25,-5 0,-1.75781 0.44922,-3.65234 1.3086,-5 0.85937,-1.34765 1.99219,-2.20703 4.04297,-2.20703"
           style="font-size:40px;fill:#333333;font-family:Whois;-inkscape-font-specification:Whois"
           id="path3887"
           inkscape:connector-curvature="0" />
        <path
           d="m 189.71614,169.00238 12.24609,0 0,-1.21094 c 0.0586,-3.45702 -0.70312,-5.95703 -2.14843,-7.5 -1.44531,-1.54296 -3.39844,-1.99218 -5.29297,-2.05078 l -0.0586,0 c -2.79296,0.0586 -4.86328,1.46485 -5.95703,3.35938 -1.09375,1.89453 -1.38672,4.33594 -1.38672,6.64062 0,2.34375 0.44922,4.55078 1.64063,6.34766 1.1914,1.79687 3.20313,3.00781 5.70312,3.10547 l 0.0586,0 c 2.10937,0 3.75,-0.64454 4.90234,-1.64063 1.15234,-0.99609 1.83594,-2.26562 2.1875,-3.35937 l -2.4414,-0.74219 c -0.25391,0.80078 -0.64454,1.54297 -1.34766,2.14844 -0.70312,0.60546 -1.69922,1.03515 -3.30078,1.03515 -1.75781,-0.0976 -2.85157,-0.74219 -3.65235,-1.93359 -0.70312,-0.99609 -1.05468,-2.5586 -1.15234,-4.19922 m 3.94531,-8.10547 c 1.79688,-0.29297 3.55469,0.15625 4.35547,1.15235 0.80078,0.99609 1.25,2.14844 1.34766,4.45312 l -9.55078,0 c 0.19531,-3.55468 2.05078,-5.3125 3.84765,-5.60547"
           style="font-size:40px;fill:#333333;font-family:Whois;-inkscape-font-specification:Whois"
           id="path3889"
           inkscape:connector-curvature="0" />
        <path
           d="m 215.96614,151.73676 c -4.99999,0.19531 -5.99609,4.0039 -5.70312,6.69921 0.0976,1.05469 0.21484,1.75782 0.3125,2.5 l -4.51172,0 0,2.5586 4.80468,0 0,14.19922 2.53907,0 0,-14.19922 5.80078,0 0,-2.5586 -6.03516,0 c -0.0976,-0.80078 -0.29297,-1.66015 -0.44922,-2.85156 -0.29297,-2.30468 0.74219,-3.49609 2.5,-3.78906 1.79688,-0.29297 4.00391,0.54688 4.90235,3.20312 l 1.83593,-0.76171 c -0.89843,-3.39844 -3.33984,-4.94141 -5.99609,-5"
           style="font-size:40px;fill:#333333;font-family:Whois;-inkscape-font-specification:Whois"
           id="path3891"
           inkscape:connector-curvature="0" />
        <path
           d="m 241.57161,156.89301 -2.55859,0 c -0.0586,1.24999 -0.93751,1.95312 -1.79688,2.05078 -0.99609,-0.44922 -1.89453,-0.74219 -3.78906,-0.74219 -2.34375,0 -7.20703,1.28907 -7.20703,6.54297 0,3.00781 2.89062,4.90234 2.89062,4.90234 l 0,0.0391 c 0,0 -1.99219,0.66407 -2.08984,2.8125 -0.0586,0.80078 -0.0195,2.08985 2.08984,2.63672 l 0,0.0586 c -2.10937,0.39062 -3.84765,2.08984 -3.78906,4.19922 0,4.84374 5.70313,4.84375 8.14453,4.84375 2.94922,0 8.10547,-0.0391 8.10547,-4.94141 0,-1.89453 -1.21095,-4.96094 -8.35938,-4.96094 -3.45702,0 -3.94531,-1.19141 -3.78906,-2.08984 0.0977,-0.64453 0.60547,-1.19141 1.95313,-1.34766 0.54687,-0.0586 1.23047,0.0977 2.08984,0.0977 4.55078,-0.0586 7.10938,-3.55469 7.10938,-6.25 0,-1.05469 -0.25391,-3.30078 -1.60157,-4.45313 1.40625,-0.39062 2.08985,-1.28906 2.44141,-2.24609 0.0977,-0.39063 0.15625,-0.76172 0.15625,-1.15234 m -8.14453,3.75 c 2.5,0 4.64844,0.89844 4.64844,4.10156 0,1.09375 -0.95704,3.75 -4.60938,3.75 -3.80859,0 -4.74609,-2.59766 -4.74609,-3.75 0,-2.79297 2.20703,-4.10156 4.70703,-4.10156 m 0,15.95703 c 2.14843,0 5.58594,0.23437 5.58594,2.79297 0,2.55859 -3.59376,2.7539 -5.54688,2.7539 -1.95312,0 -5.60547,-0.25391 -5.60547,-2.8125 0,-2.55859 3.41797,-2.73437 5.56641,-2.73437"
           style="font-size:40px;fill:#333333;font-family:Whois;-inkscape-font-specification:Whois"
           id="path3893"
           inkscape:connector-curvature="0" />
        <path
           d="m 245.47786,151.69769 0,16.34766 0,9.64844 2.5,0 0,-9.64844 c 0,-1.75781 0.29297,-3.61328 1.15234,-4.96094 0.85938,-1.34765 2.18751,-2.22656 4.23828,-2.22656 2.14844,0 3.06641,1.19141 3.45704,1.93359 0.60546,1.15235 0.95703,2.08985 0.95703,3.84766 l 0,11.05469 2.59765,0 0,-11.05469 c 0,-2.10937 -0.80078,-4.55078 -1.69922,-5.74219 -1.24999,-1.64062 -2.61719,-2.63672 -5.3125,-2.63672 -2.1289,0 -4.58984,1.50391 -5.29296,3.33985 l -0.0977,0 0,-9.90235 -2.5,0"
           style="font-size:40px;fill:#333333;font-family:Whois;-inkscape-font-specification:Whois"
           id="path3895"
           inkscape:connector-curvature="0" />
        <path
           d="m 265.28255,158.2016 0,2.59766 5.83984,0 0,14.29687 -6.85547,0 0,2.59766 16.21094,0 0,-2.59766 -6.85547,0 0,-16.89453 -8.33984,0 m 9.47265,-6.46484 c 0,-1.34766 -1.05469,-2.40235 -2.40234,-2.40235 -1.34766,0 -2.40234,1.05469 -2.40234,2.40235 0,1.34765 1.05468,2.46093 2.40234,2.46093 1.34765,0 2.40234,-1.11328 2.40234,-2.46093"
           style="font-size:40px;fill:#333333;font-family:Whois;-inkscape-font-specification:Whois"
           id="path3897"
           inkscape:connector-curvature="0" />
        <path
           d="m 287.37239,158.2016 0,2.53906 8.35938,0 0,13.65235 c 0,0 0.0391,3.39843 -0.50782,4.84375 -0.54687,1.44531 -1.34766,2.71484 -4.14062,2.71484 -2.79297,0 -3.41797,-1.34766 -3.8086,-2.40234 -0.39062,-1.05469 -0.2539,-2.2461 -0.2539,-2.2461 l -2.2461,-0.41015 c 0,0 -0.44921,1.69922 0.25391,3.55468 0.70313,1.85547 2.5,3.75 6.05469,3.75 3.55468,0 5.68359,-1.89453 6.54297,-4.0039 0.85937,-2.10938 0.76172,-5.80078 0.76172,-5.80078 l 0,-16.19141 -11.01563,0 m 11.66016,-6.50391 c 0,-1.34765 -1.05469,-2.46093 -2.40235,-2.46093 -1.34765,0 -2.40234,1.11328 -2.40234,2.46093 0,1.34766 1.05469,2.44141 2.40234,2.44141 1.34766,0 2.40235,-1.09375 2.40235,-2.44141"
           style="font-size:40px;fill:#333333;font-family:Whois;-inkscape-font-specification:Whois"
           id="path3899"
           inkscape:connector-curvature="0" />
        <path
           d="m 303.32942,151.69769 0,25.9961 2.5586,0 0,-4.64844 3.4375,-3.71094 6.75781,8.35938 3.14453,0 0,-0.25391 -8.08594,-10 6.9336,-7.5 -1.83594,-1.69922 -10.35156,11.09375 0,-17.63672 -2.5586,0"
           style="font-size:40px;fill:#333333;font-family:Whois;-inkscape-font-specification:Whois"
           id="path3901"
           inkscape:connector-curvature="0" />
        <path
           d="m 322.43098,151.69769 0,2.5 7.05079,0 0,20.9375 -7.05079,0 0,2.5586 16.60157,0 0,-2.5586 -7.05078,0 0,-23.4375 -9.55079,0"
           style="font-size:40px;fill:#333333;font-family:Whois;-inkscape-font-specification:Whois"
           id="path3903"
           inkscape:connector-curvature="0" />
        <path
           d="m 341.84505,158.2016 0,19.49219 2.53906,0 0,-14.70703 c 0,-0.54688 0.19531,-1.05469 0.54687,-1.44532 0.54688,-0.54687 1.40626,-0.89843 2.14844,-0.80078 0.99609,0.0977 1.34766,0.66406 1.60156,1.21094 0.25391,0.54687 0.21485,1.28906 0.21485,1.73828 l 0,14.00391 2.59765,0 0,-14.39453 c 0,0 0.0977,-1.21094 0.64454,-1.75782 0.54687,-0.54687 1.1914,-0.89843 1.99218,-0.80078 0.9961,0.0977 1.34766,0.66406 1.60157,1.21094 0.2539,0.54687 0.21484,1.28906 0.21484,1.73828 l 0,14.00391 2.59766,0 0,-14.00391 c 0,-0.60547 -0.0586,-1.64063 -0.60547,-2.79297 -0.54688,-1.15234 -1.95313,-2.69531 -3.84766,-2.69531 -1.89453,0 -2.94922,0.9375 -3.75,1.99219 -0.54687,-0.89844 -1.46484,-1.9336 -2.91016,-1.99219 -1.44531,-0.0586 -2.24609,0.64453 -3.04687,1.44531 l -0.48828,-1.44531 -2.05078,0"
           style="font-size:40px;fill:#333333;font-family:Whois;-inkscape-font-specification:Whois"
           id="path3905"
           inkscape:connector-curvature="0" />
        <path
           d="m 370.24348,158.2016 c -2.34374,0 -3.80859,0.74219 -5,1.73828 l -0.35156,-1.73828 -2.20703,0 0,19.49219 2.55859,0 0,-12.30469 c 0,-4.35547 2.94923,-5 5.19532,-4.64844 1.64062,0.25391 2.36328,0.89844 2.91015,1.89453 0.54688,0.9961 0.6836,2.5586 0.6836,4.45313 l 0,10.60547 2.55859,0 0,-10.60547 c 0,-2.05078 -0.0586,-4.14063 -1.25,-5.9961 -1.1914,-1.85546 -2.75391,-2.89062 -5.09766,-2.89062"
           style="font-size:40px;fill:#333333;font-family:Whois;-inkscape-font-specification:Whois"
           id="path3907"
           inkscape:connector-curvature="0" />
        <path
           d="m 389.09114,158.2016 c -2.85156,0 -5.05859,1.44531 -6.25,3.33984 -1.1914,1.89453 -1.69922,4.23829 -1.69922,6.34766 0,2.10937 0.46875,4.55078 1.66016,6.44531 1.1914,1.89453 3.39844,3.35938 6.25,3.35938 2.85156,0 5.05859,-1.46485 6.25,-3.35938 1.1914,-1.89453 1.73828,-4.33594 1.73828,-6.44531 0,-2.10937 -0.54688,-4.45313 -1.73828,-6.34766 -1.19141,-1.89453 -3.35938,-3.33984 -6.21094,-3.33984 m 0,2.53906 c 2.05078,0 3.24219,0.85938 4.10156,2.20703 0.85938,1.34766 1.3086,3.24219 1.3086,4.94141 0,1.69922 -0.48829,3.75 -1.34766,5.09766 -0.85937,1.34765 -1.99219,2.20703 -4.10156,2.20703 -2.10937,0 -3.24219,-0.85938 -4.10156,-2.20703 -0.85938,-1.34766 -1.25,-3.39844 -1.25,-5.09766 0,-1.69922 0.48828,-3.59375 1.34765,-4.94141 0.85938,-1.34765 1.99219,-2.20703 4.04297,-2.20703"
           style="font-size:40px;fill:#333333;font-family:Whois;-inkscape-font-specification:Whois"
           id="path3909"
           inkscape:connector-curvature="0" />
        <path
           d="m 400.65364,158.2016 0,25.99609 2.53906,0 0,-8.80859 c 1.25,1.40625 3.04688,2.36328 5.35157,2.36328 2.85156,0 5.01953,-1.46485 6.21093,-3.35937 1.19141,-1.89453 1.69922,-4.29688 1.69922,-6.40625 0,-2.10938 -0.50781,-4.49219 -1.69922,-6.38672 -1.1914,-1.89453 -3.41797,-3.35938 -6.21093,-3.35938 -2.30469,0 -4.10157,0.9961 -5.35157,2.40235 l -0.48828,-2.44141 -2.05078,0 m 7.89063,2.59766 c 2.05077,0 3.24218,0.83984 4.10156,2.1875 0.85937,1.34765 1.25,3.24218 1.25,5 0,1.75781 -0.39063,3.65234 -1.25,5 -0.85938,1.34765 -2.05079,2.20703 -4.10156,2.20703 -2.05078,0 -3.4961,-0.85938 -4.35547,-2.20703 -0.85938,-1.34766 -0.9961,-3.24219 -0.9961,-5 0,-1.75782 0.19532,-3.65235 1.05469,-5 0.85937,-1.34766 2.2461,-2.1875 4.29688,-2.1875"
           style="font-size:40px;fill:#333333;font-family:Whois;-inkscape-font-specification:Whois"
           id="path3911"
           inkscape:connector-curvature="0" />
        <path
           d="m 435.90755,158.2016 -2.01172,0 -0.54688,2.38281 c -1.25,-1.40625 -3.04687,-2.38281 -5.35156,-2.38281 -2.79297,0 -5,1.44531 -6.19141,3.33984 -1.1914,1.89453 -1.69921,4.29688 -1.69921,6.40625 0,2.10938 0.44922,4.49219 1.64062,6.38672 1.19141,1.89453 3.39844,3.35938 6.25,3.35938 2.30469,0 4.10156,-0.9375 5.35156,-2.34375 l 0,8.84765 2.5586,0 0,-25.99609 m -7.91016,2.53906 c 2.05078,0 3.4961,0.85938 4.35547,2.20703 0.85937,1.34766 0.95703,3.24219 0.95703,5 0,1.75781 -0.0977,3.65235 -0.95703,5 -0.85937,1.34766 -2.30469,2.1875 -4.35547,2.1875 -2.05078,0 -3.18359,-0.83984 -4.04297,-2.1875 -0.85937,-1.34765 -1.30859,-3.24219 -1.30859,-5 0,-1.75781 0.44922,-3.65234 1.30859,-5 0.85938,-1.34765 1.99219,-2.20703 4.04297,-2.20703"
           style="font-size:40px;fill:#333333;font-family:Whois;-inkscape-font-specification:Whois"
           id="path3913"
           inkscape:connector-curvature="0" />
        <path
           d="m 441.25911,158.2016 0,19.49219 2.69531,0 0,-11.25 c 0,-5.15625 2.67578,-5.60547 3.78906,-5.74219 1.17188,-0.13672 2.73438,0.15625 3.63282,1.01562 1.01562,0.97657 1.15234,1.5625 1.69922,2.44141 l 2.10937,-1.19141 c -0.74219,-1.66015 -1.32813,-2.4414 -2.46094,-3.47656 -1.30859,-1.1914 -3.04687,-1.40625 -4.51172,-1.34765 -1.8164,0.0781 -3.26172,0.64453 -4.41406,1.79687 l -0.39062,-1.73828 -2.14844,0"
           style="font-size:40px;fill:#333333;font-family:Whois;-inkscape-font-specification:Whois"
           id="path3915"
           inkscape:connector-curvature="0" />
        <path
           d="m 462.0013,159.74457 c -2.14844,1.79687 -2.48047,3.78906 -1.83594,5.54687 0.54687,1.60156 2.14844,2.53907 4.04297,3.04688 1.89453,0.50781 3.53516,0.89844 5.74219,1.60156 0.99609,0.35156 1.5039,0.70313 1.69921,1.50391 0.25391,0.95703 0.0586,1.73828 -0.58593,2.4414 -0.64453,0.70313 -1.99219,1.3086 -4.29688,1.3086 -2.34375,0 -3.45703,-0.54688 -4.0625,-1.09375 -0.60547,-0.54688 -0.74219,-1.21094 -0.83984,-1.95313 l -2.36328,0.19531 c 0,1.05469 0.3125,2.50001 1.5039,3.59375 1.19141,1.09375 3.00782,1.75782 5.76172,1.75782 2.75391,0 4.78516,-0.6836 6.09375,-1.99219 1.25,-1.30859 1.75781,-3.16407 1.25,-4.80469 -0.50781,-1.64062 -1.46484,-2.8125 -3.35937,-3.35937 -1.89453,-0.54688 -4.35547,-1.09375 -6.25,-1.60157 -1.89453,-0.50781 -2.57813,-2.4414 -1.38672,-3.84765 0.64453,-0.74219 1.77734,-1.25 3.08594,-1.34766 1.5039,-0.0976 2.65625,0.0586 3.45703,0.44922 0.80078,0.39062 1.34765,1.11328 1.79687,2.30469 l 2.05078,-0.85938 c -0.35156,-1.64062 -1.25,-2.79297 -3.20312,-3.78906 -1.95312,-0.99609 -6.15235,-0.89844 -8.30078,0.89844"
           style="font-size:40px;fill:#333333;font-family:Whois;-inkscape-font-specification:Whois"
           id="path3917"
           inkscape:connector-curvature="0" />
        <path
           d="m 484.11067,153.68988 0,4.51172 -5.09765,0 0,2.59766 5.09765,0 0,16.89453 9.35547,0 0,-2.5586 -6.79687,0 0,-14.33593 6.83593,0 0,-2.59766 -6.83593,0 0,-5.21484 -2.5586,0.70312"
           style="font-size:40px;fill:#333333;font-family:Whois;-inkscape-font-specification:Whois"
           id="path3919"
           inkscape:connector-curvature="0" />
        <path
           d="m 505.26302,177.75238 c 2.34374,0 3.75,-0.66406 4.9414,-1.66016 l 0.41016,1.60157 2.14844,0 0,-19.49219 -2.5586,0 0,12.38281 c 0,4.35547 -2.94922,4.96094 -5.19531,4.60938 -1.64062,-0.25391 -2.34375,-0.89844 -2.89063,-1.89453 -0.54687,-0.9961 -0.70312,-2.5586 -0.70312,-4.45313 l 0,-10.64453 -2.55859,0 0,10.64453 c 0,2.05078 0.0195,4.14063 1.21093,5.99609 1.19141,1.85547 2.85157,2.91016 5.19532,2.91016"
           style="font-size:40px;fill:#333333;font-family:Whois;-inkscape-font-specification:Whois"
           id="path3921"
           inkscape:connector-curvature="0" />
        <path
           d="m 517.21614,158.2016 6.66016,19.49219 2.94922,0 6.48437,-19.49219 -2.69531,0 -5.15625,15.64453 -0.11719,0.64453 -0.11719,-0.64453 -5.3125,-15.64453 -2.69531,0"
           style="font-size:40px;fill:#333333;font-family:Whois;-inkscape-font-specification:Whois"
           id="path3923"
           inkscape:connector-curvature="0" />
        <path
           d="m 536.47395,158.2016 1.69922,19.49219 2.69531,0 3.8086,-10 0.0391,-0.19532 0.0586,0.19532 3.84766,10 2.69531,0 1.66016,-19.49219 -2.55859,0 -1.25,14.58984 -3.24219,-8.45703 -2.40235,0 -3.26171,8.51563 -1.19141,-14.64844 -2.59766,0"
           style="font-size:40px;fill:#333333;font-family:Whois;-inkscape-font-specification:Whois"
           id="path3925"
           inkscape:connector-curvature="0" />
        <path
           d="m 556.12239,158.2016 6.50391,9.58984 -6.69922,9.90235 3.10547,0 5.09765,-7.59766 0.0391,-0.0977 0.0586,0 0,0.0977 5.09766,7.59766 3.10546,0 -6.69921,-9.90235 6.48437,-9.58984 -3.04687,0 -5,7.38281 0,0.0586 -0.0391,0 0,-0.0586 -4.90234,-7.38281 -3.10547,0"
           style="font-size:40px;fill:#333333;font-family:Whois;-inkscape-font-specification:Whois"
           id="path3927"
           inkscape:connector-curvature="0" />
        <path
           d="m 575.57552,158.2016 6.79687,17.94922 c 0,0 -1.03516,2.79297 -1.89453,3.94531 -1.05469,1.44531 -3.08594,1.75781 -3.59375,1.85547 l 0,2.53906 c 0.44922,-0.0586 3.63281,-0.29297 5.58594,-2.89062 0.85937,-1.15235 2.10937,-4.00391 2.10937,-4.00391 l 7.08985,-19.39453 -2.69532,0 -5.19531,14.04297 -0.0977,0.54687 -0.0976,-0.54687 -5.3125,-14.04297 -2.69531,0"
           style="font-size:40px;fill:#333333;font-family:Whois;-inkscape-font-specification:Whois"
           id="path3929"
           inkscape:connector-curvature="0" />
        <path
           d="m 595.63411,158.2016 0,2.53906 11.38672,0 -11.79688,14.45313 0,2.5 15.70313,0 0,-2.5586 -12.30469,0 11.69922,-14.43359 0,-2.5 -14.6875,0"
           style="font-size:40px;fill:#333333;font-family:Whois;-inkscape-font-specification:Whois"
           id="path3931"
           inkscape:connector-curvature="0" />
      </g>
      <g
         style="font-size:43.92279053000000033px;font-style:normal;font-variant:normal;font-weight:bold;font-stretch:normal;line-height:125%;letter-spacing:0px;word-spacing:0px;fill:#333333;fill-opacity:1;stroke:none;font-family:Avara;-inkscape-font-specification:Avara Bold"
         id="text2997">
        <path
           d="m 115.16536,220.54111 -6.54297,25.99609 2.59766,0 1.79687,-7.05078 7.5,0 1.79688,7.05078 2.59765,0 -6.54297,-25.99609 -3.20312,0 m 1.60156,3.84765 0.0586,0.35157 3.04687,12.1875 -6.21094,0 3.06641,-12.2461 0.0391,-0.29297"
           style="font-size:40px;fill:#333333;font-family:Whois;-inkscape-font-specification:Whois"
           id="path3828"
           inkscape:connector-curvature="0" />
        <path
           d="m 127.97786,220.54111 0,25.99609 9.10156,0 c 2.20703,0 4.14063,-0.64453 5.44922,-1.95312 1.30859,-1.3086 1.95313,-3.20313 1.95313,-5.35157 0,-2.20703 -0.80079,-4.04297 -2.20704,-5.35156 -0.35156,-0.29297 -0.70312,-0.54687 -1.09375,-0.80078 -0.19531,-0.0977 -0.41015,-0.0781 -0.50781,-0.13672 0.0977,-0.0586 0.3125,-0.11719 0.50781,-0.3125 1.34766,-1.25 1.9336,-3.10547 1.9336,-5.35156 0,-1.64062 -0.48828,-3.33985 -1.73828,-4.64844 -1.25,-1.30859 -3.10547,-2.08984 -5.50782,-2.08984 -2.65624,-0.0586 -7.89062,0 -7.89062,0 m 2.53906,2.5 5.35156,0 c 1.85547,0 2.94922,0.60547 3.65235,1.34765 0.70312,0.74219 1.09375,1.79688 1.09375,2.89063 0,1.75781 -0.44922,2.8125 -1.19141,3.51562 -0.74218,0.70313 -1.85547,1.03516 -3.55469,1.03516 l -5.35156,0 0,-8.78906 m -0.0391,11.44531 6.19141,0 c 1.75781,0 3.08593,0.50781 3.94531,1.30859 0.85937,0.80078 1.36719,1.83594 1.36719,3.4375 0,1.64063 -0.50782,2.8125 -1.25,3.55469 -0.74219,0.74219 -1.95313,1.25 -3.65235,1.25 l -6.60156,0 0,-9.55078"
           style="font-size:40px;fill:#333333;font-family:Whois;-inkscape-font-specification:Whois"
           id="path3830"
           inkscape:connector-curvature="0" />
        <path
           d="m 156.18098,220.38486 c -3.04687,0 -5.85937,1.95313 -7.5,5.60547 -0.89843,1.95312 -1.15234,4.53125 -1.15234,7.08984 0,2.55859 0.41016,5.15625 1.15234,7.05078 1.44532,3.59375 4.16016,6.21094 7.85157,6.21094 3.84765,0 6.77734,-3.20313 7.28515,-6.60156 l -2.5,-0.35157 c -0.29297,2.14844 -2.38281,4.39453 -4.78515,4.39453 -2.59766,0 -4.31641,-1.54297 -5.50782,-4.58984 -0.54687,-1.40625 -0.95703,-3.8086 -0.95703,-6.15234 0,-2.34375 0.3125,-4.64844 0.91797,-5.9961 1.34766,-3.04687 3.14454,-4.10156 5.19531,-4.10156 1.09375,0 2.03126,0.19531 2.89063,0.80078 0.85937,0.60547 1.85547,1.44532 2.40234,3.33985 l 2.2461,-0.60547 c -0.70313,-2.30469 -1.77735,-3.88672 -3.1836,-4.84375 -1.40625,-0.95703 -2.91015,-1.25 -4.35547,-1.25"
           style="font-size:40px;fill:#333333;font-family:Whois;-inkscape-font-specification:Whois"
           id="path3832"
           inkscape:connector-curvature="0" />
        <path
           d="m 169.42317,220.54111 -2.40234,0 0,25.99609 2.16797,0 c 0.44922,0.0586 3.20312,0.3125 5.64453,-0.29297 2.65625,-0.64453 4.84375,-1.89453 6.28906,-4.10156 1.44531,-2.20703 2.10938,-5.25391 2.10938,-9.0625 0,-3.84765 -0.89844,-6.66016 -2.40235,-8.65234 -1.5039,-1.99219 -3.59375,-3.02735 -5.64453,-3.53516 -1.99218,-0.39062 -3.71094,-0.35156 -5.76172,-0.35156 m 5.15625,2.79297 c 1.64063,0.39062 3.16407,1.15234 4.25781,2.59765 1.09375,1.44531 1.89454,3.65235 1.89454,7.14844 0,3.55468 -0.64454,6.05469 -1.69922,7.65625 -1.05469,1.60156 -2.59766,2.5 -4.80469,3.04687 -1.64062,0.39063 -4.00391,0.3125 -4.70703,0.25391 l 0.0586,-20.95703 c 1.54297,-0.0586 3.39844,-0.13672 5,0.25391"
           style="font-size:40px;fill:#333333;font-family:Whois;-inkscape-font-specification:Whois"
           id="path3834"
           inkscape:connector-curvature="0" />
        <path
           d="m 187.04036,220.54111 0,25.99609 15.3125,0 0,-2.55859 -12.77344,0 0,-9.4336 10.39063,0 0,-2.55859 -10.39063,0 0,-8.94531 12.83203,0 0,-2.5 -15.37109,0"
           style="font-size:40px;fill:#333333;font-family:Whois;-inkscape-font-specification:Whois"
           id="path3836"
           inkscape:connector-curvature="0" />
        <path
           d="m 206.49348,246.5372 2.53907,0 0,-11.99219 10.39062,0 0,-2.55859 -10.39062,0 0,-8.94531 12.83203,0 0,-2.5 -15.3711,0 0,25.99609"
           style="font-size:40px;fill:#333333;font-family:Whois;-inkscape-font-specification:Whois"
           id="path3838"
           inkscape:connector-curvature="0" />
        <path
           d="m 233.99348,220.54111 c -3.04687,0 -5.82031,1.95313 -7.46093,5.60547 -0.89844,1.95312 -1.19141,4.53125 -1.19141,7.08984 0,2.55859 0.41016,5.21485 1.15234,7.10937 1.44532,3.59375 4.16016,6.19141 7.85157,6.19141 2.30468,0 4.14062,-1.40625 4.9414,-2.75391 l 0.3125,2.69532 2.03125,0 0,-13.14453 -8.63281,0 0,2.55859 6.09375,0 0,4.10156 c -0.50781,1.99219 -2.5,3.98438 -4.74609,3.98438 -2.59766,0 -4.31641,-1.54297 -5.50782,-4.58985 -0.54687,-1.40625 -0.95703,-3.86719 -0.95703,-6.21093 0,-2.34375 0.35157,-4.64844 0.95703,-5.9961 1.34766,-3.04687 3.10548,-4.10156 5.15625,-4.10156 2.85156,0 4.58985,1.71875 5.29297,4.16016 l 2.30469,-0.60547 c -1.15234,-4.00391 -3.94532,-6.03516 -7.59766,-6.09375"
           style="font-size:40px;fill:#333333;font-family:Whois;-inkscape-font-specification:Whois"
           id="path3840"
           inkscape:connector-curvature="0" />
        <path
           d="m 244.73567,220.54111 0,25.99609 2.5586,0 0,-11.85547 11.28906,0 0,11.85547 2.55859,0 0,-25.99609 -2.55859,0 0,11.60156 -11.28906,0 0,-11.60156 -2.5586,0"
           style="font-size:40px;fill:#333333;font-family:Whois;-inkscape-font-specification:Whois"
           id="path3842"
           inkscape:connector-curvature="0" />
        <path
           d="m 264.34505,220.54111 0,2.53906 6.79687,0 0,20.89844 -6.79687,0 0,2.55859 16.09375,0 0,-2.55859 -6.79688,0 0,-20.89844 6.79688,0 0,-2.53906 -16.09375,0"
           style="font-size:40px;fill:#333333;font-family:Whois;-inkscape-font-specification:Whois"
           id="path3844"
           inkscape:connector-curvature="0" />
        <path
           d="m 286.64973,220.48251 0,2.5586 10.89844,0 0,13.10547 c 0,3.24218 -0.85937,5.13672 -1.95312,6.28906 -1.09375,1.15234 -2.63672,1.60156 -4.39453,1.60156 -1.60157,0 -2.81251,-0.80078 -3.71094,-1.75781 -0.89844,-0.95703 -1.34766,-2.1875 -1.34766,-2.98828 l -2.5,0 c 0,1.60156 0.64453,3.28125 1.95313,4.6875 1.30859,1.40625 3.26172,2.55859 5.60547,2.55859 2.24609,0 4.49218,-0.64453 6.1914,-2.34375 1.69922,-1.69922 2.65625,-4.39453 2.65625,-8.04687 l 0,-15.60547 0,-0.0586 -13.39844,0"
           style="font-size:40px;fill:#333333;font-family:Whois;-inkscape-font-specification:Whois"
           id="path3846"
           inkscape:connector-curvature="0" />
        <path
           d="m 302.95833,220.54111 0,25.99609 2.53906,0 0,-6.99219 4.45313,-5.95703 6.85546,12.94922 2.85157,0 -8.10547,-15.15625 8.04687,-10.83984 -3.14453,0 -10.95703,14.74609 0,-14.74609 -2.53906,0"
           style="font-size:40px;fill:#333333;font-family:Whois;-inkscape-font-specification:Whois"
           id="path3848"
           inkscape:connector-curvature="0" />
        <path
           d="m 323.93489,220.54111 0,25.99609 15.11719,0 0,-2.55859 -12.5586,0 0,-23.4375 -2.55859,0"
           style="font-size:40px;fill:#333333;font-family:Whois;-inkscape-font-specification:Whois"
           id="path3850"
           inkscape:connector-curvature="0" />
        <path
           d="m 356.16145,220.54111 -5.89843,12.08984 -0.0586,0.3125 -0.0391,-0.3125 -5.89844,-12.08984 -2.40234,0 0,25.99609 2.5,0 0,-20.25391 5.83984,12.46094 5.85938,-12.55859 0,20.44922 2.5,0 0,-26.09375 -2.40235,0"
           style="font-size:40px;fill:#333333;font-family:Whois;-inkscape-font-specification:Whois"
           id="path3852"
           inkscape:connector-curvature="0" />
        <path
           d="m 363.85677,220.54111 -2.40235,0 0,25.99609 2.5586,0 0,-20.85937 11.44531,20.85937 2.40234,0 0,-25.99609 -2.55859,0 0,20.83984 -11.44531,-20.83984"
           style="font-size:40px;fill:#333333;font-family:Whois;-inkscape-font-specification:Whois"
           id="path3854"
           inkscape:connector-curvature="0" />
        <path
           d="m 389.11067,220.54111 c -2.89062,0 -5.13672,1.69922 -6.38672,4.10156 -1.25,2.40234 -1.75781,5.48828 -1.75781,8.84766 0,3.39843 0.48828,6.5039 1.79688,8.90625 1.30859,2.40234 3.55469,4.08203 6.34765,4.08203 2.79297,0 5,-1.67969 6.3086,-4.08203 1.30859,-2.40235 1.83593,-5.50782 1.83593,-8.90625 0,-3.35938 -0.48828,-6.44532 -1.73828,-8.84766 -1.25,-2.40234 -3.51563,-4.10156 -6.40625,-4.10156 m 0,2.5 c 1.99219,0 3.20313,0.9375 4.16016,2.79297 0.95703,1.85546 1.44531,4.55078 1.44531,7.65625 0,3.10546 -0.50781,5.83984 -1.50391,7.69531 -0.99609,1.85547 -2.20703,2.7539 -4.10156,2.7539 -1.89453,0 -3.10547,-0.89843 -4.10156,-2.7539 -0.99609,-1.85547 -1.50391,-4.58985 -1.50391,-7.69531 0,-3.10547 0.50782,-5.80079 1.46485,-7.65625 0.95703,-1.85547 2.14844,-2.79297 4.14062,-2.79297"
           style="font-size:40px;fill:#333333;font-family:Whois;-inkscape-font-specification:Whois"
           id="path3856"
           inkscape:connector-curvature="0" />
        <path
           d="m 400.51692,220.54111 0,25.99609 2.5586,0 0,-11.15234 6.25,0 c 2.10937,0 4.04297,-0.54688 5.35156,-1.89453 1.30859,-1.34766 1.93359,-3.30079 1.93359,-5.70313 0,-1.75781 -0.54687,-3.49609 -1.73828,-4.90234 -1.1914,-1.40625 -3.14453,-2.34375 -5.54687,-2.34375 l -8.8086,0 m 2.5586,2.59765 6.25,0 c 1.79687,0 2.89062,0.54688 3.63281,1.40625 0.74219,0.85938 1.11328,1.99219 1.11328,3.24219 0,1.95312 -0.46875,3.16406 -1.21094,3.90625 -0.74218,0.74219 -1.83594,1.15234 -3.53515,1.15234 l -6.25,0 0,-9.70703"
           style="font-size:40px;fill:#333333;font-family:Whois;-inkscape-font-specification:Whois"
           id="path3858"
           inkscape:connector-curvature="0" />
        <path
           d="m 428.01692,220.54111 c -2.89062,0 -5.13672,1.69922 -6.38672,4.10156 -1.25,2.40234 -1.75781,5.52735 -1.75781,8.88672 0,3.39843 0.50781,6.60156 2.05078,9.25781 1.54297,2.65625 3.94532,3.75 5.9961,3.75 2.05077,0 3.20312,-0.74219 4.25781,-1.69922 l 0.82031,-0.82031 c 0.625,0.87891 0.74219,2.07031 0.74219,2.51953 l 2.20703,0 c 0,-0.97656 -0.15625,-2.83203 -1.48438,-4.41406 1.05469,-2.26562 1.71875,-5.23438 1.71875,-8.53516 0,-3.35937 -0.50781,-6.54297 -1.75781,-8.94531 -1.25,-2.40234 -3.51563,-4.10156 -6.40625,-4.10156 m 4.55078,19.78515 -2.4414,-2.14843 -1.26953,1.54296 2.65625,2.59766 c -0.85938,1.09375 -2.08985,1.71875 -3.53516,1.71875 -1.89453,0 -3.10547,-0.89844 -4.10156,-2.75391 -0.9961,-1.85546 -1.46485,-4.64844 -1.46485,-7.7539 0,-3.10547 0.50782,-5.83985 1.46485,-7.69531 0.95703,-1.85547 2.14844,-2.75391 4.14062,-2.75391 1.99219,0 3.20313,0.89844 4.16016,2.75391 0.95703,1.85546 1.44531,4.58984 1.44531,7.69531 0,2.4414 -0.44922,5.03906 -1.05469,6.79687"
           style="font-size:40px;fill:#333333;font-family:Whois;-inkscape-font-specification:Whois"
           id="path3860"
           inkscape:connector-curvature="0" />
        <path
           d="m 442.6263,220.54111 -3.30078,0 0,25.9375 2.53906,0 0,-11.13282 6.85547,0 4.19922,11.13282 2.69531,0 -4.33594,-11.69922 c 0.85937,-0.29297 1.54297,-0.74219 2.1875,-1.38672 1.30859,-1.34766 2.01172,-3.26172 2.01172,-5.66406 0,-1.75781 -0.56641,-3.53516 -1.75781,-4.94141 -1.19141,-1.40625 -3.14454,-2.24609 -5.54688,-2.24609 l -5.54687,0 m -0.76172,2.5 6.30859,0 c 1.79688,0 2.91016,0.58594 3.65235,1.44531 0.74218,0.85937 1.09375,1.99219 1.09375,3.24219 0,1.95312 -0.50782,3.16406 -1.25,3.90625 -0.74219,0.74218 -1.79688,1.15234 -3.4961,1.15234 l -6.30859,0 0,-9.74609"
           style="font-size:40px;fill:#333333;font-family:Whois;-inkscape-font-specification:Whois"
           id="path3862"
           inkscape:connector-curvature="0" />
        <path
           d="m 467.11848,220.58017 c -2.40234,0 -4.33593,0.70313 -5.74218,2.01172 -1.40625,1.30859 -2.14844,3.08594 -2.08985,5.03906 0.0586,2.10937 1.32813,3.65235 2.73438,4.64844 1.40625,0.99609 3.06641,1.54297 4.25781,2.05078 1.30859,0.54687 2.85156,0.99609 4.04297,1.69922 1.1914,0.70312 1.95312,1.40625 2.10937,2.5 0.19532,1.30859 -0.15625,2.71484 -0.95703,3.71094 -0.80078,0.99609 -2.08984,1.73828 -4.39453,1.73828 -2.34375,0 -3.78906,-0.74219 -4.74609,-1.48438 -0.95703,-0.74218 -1.25,-1.34765 -1.25,-1.34765 l -2.26563,1.13281 c 0,0 0.64454,1.15234 1.95313,2.20703 1.30859,1.05469 3.41797,2.05078 6.30859,2.05078 2.89062,0 5.09766,-1.11328 6.40625,-2.75391 1.30859,-1.64062 1.69922,-3.71093 1.44531,-5.60546 -0.29296,-2.10938 -1.8164,-3.47657 -3.35937,-4.33594 -1.54297,-0.85938 -3.24219,-1.40625 -4.33594,-1.85547 -1.25,-0.50781 -2.69531,-1.05469 -3.75,-1.75781 -1.05468,-0.70313 -1.66015,-1.44532 -1.66015,-2.63672 0,-1.34766 0.39062,-2.36328 1.25,-3.16406 0.85937,-0.80078 2.14844,-1.34766 4.04296,-1.34766 3.65234,0 5.11719,2.65625 5.11719,2.65625 l 2.1875,-1.25 c 0,0 -2.36328,-3.90625 -7.30469,-3.90625"
           style="font-size:40px;fill:#333333;font-family:Whois;-inkscape-font-specification:Whois"
           id="path3864"
           inkscape:connector-curvature="0" />
        <path
           d="m 478.13411,220.54111 0,2.59765 6.99219,0 0,23.39844 2.5,0 0,-23.39844 7.01172,0 0,-2.59765 -16.50391,0"
           style="font-size:40px;fill:#333333;font-family:Whois;-inkscape-font-specification:Whois"
           id="path3866"
           inkscape:connector-curvature="0" />
        <path
           d="m 497.68489,220.54111 0,14.90234 c 0,3.39844 0.54688,6.05469 1.89453,8.04688 1.34766,1.99218 3.59375,3.04687 6.25,3.04687 2.65625,0 4.90235,-1.05469 6.25,-3.04687 1.34766,-1.99219 1.89453,-4.64844 1.89453,-8.04688 l 0,-14.90234 -2.53906,0 0,14.90234 c 0,3.10547 -0.54688,5.29297 -1.44531,6.60156 -0.89844,1.3086 -2.10938,1.9336 -4.16016,1.9336 -2.05078,0 -3.24219,-0.625 -4.14062,-1.9336 -0.89844,-1.30859 -1.46485,-3.49609 -1.46485,-6.60156 l 0,-14.90234 -2.53906,0"
           style="font-size:40px;fill:#333333;font-family:Whois;-inkscape-font-specification:Whois"
           id="path3868"
           inkscape:connector-curvature="0" />
        <path
           d="m 517.17708,220.54111 6.5039,25.99609 3.20313,0 6.50391,-25.99609 -2.59766,0 -5.44922,22.30468 -0.0586,0.39063 -0.0391,-0.39063 -5.44921,-22.30468 -2.61719,0"
           style="font-size:40px;fill:#333333;font-family:Whois;-inkscape-font-specification:Whois"
           id="path3870"
           inkscape:connector-curvature="0" />
        <path
           d="m 536.59114,220.54111 1.64063,25.99609 3.0664,0 3.33985,-11.09375 0.0977,-0.76172 0.0977,0.76172 3.35937,11.09375 3.04688,0 1.64062,-25.99609 -2.53906,0 -1.30859,20.35156 -2.94922,-9.55078 -1.34766,-4.60938 -1.34765,4.64844 -2.94922,9.51172 -1.3086,-20.35156 -2.53906,0"
           style="font-size:40px;fill:#333333;font-family:Whois;-inkscape-font-specification:Whois"
           id="path3872"
           inkscape:connector-curvature="0" />
        <path
           d="m 556.23958,220.54111 6.5625,12.94922 -6.66016,13.04687 2.85156,0 5.19532,-10.70312 5.19531,10.70312 2.85156,0 -6.60156,-13.04687 6.50391,-12.94922 -2.85157,0 -5.09765,10.60547 -5.09766,-10.60547 -2.85156,0"
           style="font-size:40px;fill:#333333;font-family:Whois;-inkscape-font-specification:Whois"
           id="path3874"
           inkscape:connector-curvature="0" />
        <path
           d="m 575.65364,220.48251 6.73828,14.55078 0,11.50391 2.5,0 0,-11.50391 6.75781,-14.55078 -2.8125,0 -5.19531,11.75782 -5.2539,-11.75782 -2.73438,0"
           style="font-size:40px;fill:#333333;font-family:Whois;-inkscape-font-specification:Whois"
           id="path3876"
           inkscape:connector-curvature="0" />
        <path
           d="m 595.20442,220.54111 0,2.59765 12.85156,0 -13.20312,20.89844 0,2.5 16.50391,0 0,-2.55859 -13.45704,0 13.04688,-20.74219 0,-2.69531 -15.74219,0"
           style="font-size:40px;fill:#333333;font-family:Whois;-inkscape-font-specification:Whois"
           id="path3878"
           inkscape:connector-curvature="0" />
      </g>
      <g
         style="font-size:43.92279053000000033px;font-style:normal;font-variant:normal;font-weight:bold;font-stretch:normal;line-height:125%;letter-spacing:0px;word-spacing:0px;fill:#333333;fill-opacity:1;stroke:none;font-family:Avara;-inkscape-font-specification:Avara Bold"
         id="text3001">
        <path
           d="m 116.76692,279.6188 c -2.89062,0 -5.13672,1.69923 -6.38672,4.10157 -1.25,2.40234 -1.75781,5.48828 -1.75781,8.84765 0,3.35938 0.48828,6.54297 1.79688,8.94532 1.30859,2.40234 3.55469,4.10156 6.34765,4.10156 2.79297,0 5,-1.69922 6.3086,-4.10156 1.30859,-2.40235 1.83593,-5.58594 1.83593,-8.94532 0,-3.35937 -0.48828,-6.44531 -1.73828,-8.84765 -1.25,-2.40234 -3.51563,-4.10157 -6.40625,-4.10157 m 0,2.53907 c 1.99219,0 3.20313,0.89844 4.16016,2.7539 0.95703,1.85547 1.44531,4.55079 1.44531,7.65625 0,3.10547 -0.54688,5.89844 -1.54297,7.75391 -0.99609,1.85547 -2.16797,2.73437 -4.0625,2.73437 -1.89453,0 -3.10547,-0.8789 -4.10156,-2.73437 -0.99609,-1.85547 -1.50391,-4.64844 -1.50391,-7.75391 0,-3.10546 0.50782,-5.80078 1.46485,-7.65625 0.95703,-1.85546 2.14844,-2.7539 4.14062,-2.7539 m 0,7.65625 c -1.5039,0 -2.69531,1.25 -2.69531,2.7539 0,1.50391 1.19141,2.69532 2.69531,2.69532 1.50391,0 2.69531,-1.19141 2.69531,-2.69532 0,-1.5039 -1.1914,-2.7539 -2.69531,-2.7539"
           style="font-size:40px;fill:#333333;font-family:Whois;-inkscape-font-specification:Whois"
           id="path3777"
           inkscape:connector-curvature="0" />
        <path
           d="m 134.83333,279.6188 c -1.75781,2.89063 -3.90625,5.39063 -6.50391,6.73829 l 1.15235,2.26562 c 2.20702,-1.15234 3.82812,-3.00781 5.625,-5.15625 l -0.0391,19.58984 -7.08984,0 0,2.5586 16.50391,0 0,-2.5586 -6.85547,0 -0.0195,-23.4375 -2.77344,0"
           style="font-size:40px;fill:#333333;font-family:Whois;-inkscape-font-specification:Whois"
           id="path3779"
           inkscape:connector-curvature="0" />
        <path
           d="m 147.91927,285.51724 2.5,0.48828 c 0.19531,-0.99609 0.70312,-2.03125 2.05078,-2.98828 1.40625,-0.99609 3.39844,-1.15234 5.09765,-0.64453 1.69922,0.50781 3.00782,1.60157 3.20313,2.94922 0.19531,1.34765 0.15625,2.69531 -0.54688,3.94531 -0.70312,1.25 -2.14844,2.69532 -4.35547,5 -2.85156,3.00781 -8.39843,8.84766 -8.39843,8.84766 l -0.0391,2.5 16.50391,0 0,-2.5586 -12.91016,0 c 1.15235,-1.15234 3.65235,-3.84765 6.66016,-7.05078 2.20703,-2.30468 3.73047,-3.84765 4.6875,-5.48828 0.95703,-1.64062 1.25,-3.45703 0.89844,-5.60547 -0.44922,-2.55859 -2.59766,-4.29687 -4.94141,-5 -2.40234,-0.70312 -5.48828,-0.19531 -7.34375,1.05469 -1.85546,1.25 -2.77344,3.04688 -3.0664,4.55078"
           style="font-size:40px;fill:#333333;font-family:Whois;-inkscape-font-specification:Whois"
           id="path3781"
           inkscape:connector-curvature="0" />
        <path
           d="m 177.58723,279.81412 c -3.20312,-0.82031 -8.78906,0.15625 -9.96093,5.46875 l 2.46093,0.50781 c 1.03516,-3.49609 4.45313,-4.16016 6.83594,-3.53516 1.69922,0.44922 2.96875,1.46485 3.26172,3.16407 0.29297,1.89453 -0.39063,3.4375 -1.44531,4.23828 -1.60156,1.09375 -4.80469,1.21093 -4.80469,1.21093 l -0.25391,2.30469 c 3.14453,0 5.89844,0.97657 6.64063,3.53516 0.50781,1.85547 0.11719,3.30078 -0.83984,4.45312 -0.95703,1.15235 -2.44141,1.89453 -4.19922,1.89453 -3.84766,0.0586 -5.25391,-1.99218 -5.70313,-2.89062 l -2.24609,1.09375 c 0.99609,2.10937 3.45703,4.41406 7.94922,4.35547 2.4414,0 4.70703,-1.03516 6.15234,-2.79297 1.44531,-1.75781 2.05078,-4.21875 1.34766,-6.81641 -0.54688,-1.99218 -2.40235,-3.75 -3.71094,-4.04297 0.74219,-0.29296 1.11328,-0.54687 1.46484,-0.83984 1.69922,-1.30859 2.59766,-3.51563 2.14844,-6.11328 -0.44922,-2.79297 -2.69531,-4.55078 -5.09766,-5.19531"
           style="font-size:40px;fill:#333333;font-family:Whois;-inkscape-font-specification:Whois"
           id="path3783"
           inkscape:connector-curvature="0" />
        <path
           d="m 197.17708,279.6188 -10.80078,15.64454 0,3.90625 10.85937,0 0,6.44531 2.5,0 0,-6.44531 3.04688,0 0,-2.61719 -3.04688,0 0,-16.9336 -2.55859,0 m 0.0586,4.25782 0,12.67578 -8.14453,0 0.0391,-0.74219 8.10547,-11.93359"
           style="font-size:40px;fill:#333333;font-family:Whois;-inkscape-font-specification:Whois"
           id="path3785"
           inkscape:connector-curvature="0" />
        <path
           d="m 207.43098,279.6188 -1.28906,13.20313 1.89453,0.74219 c 1.85547,-2.30469 3.78907,-3.04688 6.99219,-2.75391 1.79687,0.29297 2.91016,1.01563 3.61328,2.01172 0.70313,0.99609 1.03516,2.59766 1.03516,4.14062 0,3.00781 -1.50391,5.39063 -4.39453,5.9961 -1.54297,0.35156 -3.33985,0.27344 -4.64844,-0.23438 -1.30859,-0.50781 -2.14844,-1.30859 -2.44141,-2.7539 l -2.36328,0.48828 c 0.44922,2.30468 2.01172,3.86719 3.90625,4.60937 1.89453,0.74219 4.10157,0.74219 6.05469,0.35157 4.10156,-0.85938 6.44531,-4.51173 6.44531,-8.45704 0,-1.95312 -0.44922,-4.10156 -1.54297,-5.64453 -1.09375,-1.54296 -2.91016,-2.65625 -5.2539,-3.00781 -2.55859,-0.39062 -4.80469,0.3711 -6.34766,1.11328 l 0.64453,-7.26562 10.44922,0 0,-2.53907 -12.75391,0"
           style="font-size:40px;fill:#333333;font-family:Whois;-inkscape-font-specification:Whois"
           id="path3787"
           inkscape:connector-curvature="0" />
        <path
           d="m 231.78645,279.6188 c -1.15234,2.89063 -2.98828,7.5586 -4.04297,10.35157 -1.24999,3.20312 -1.71875,3.98437 -2.10937,6.28906 -0.11719,0.625 -0.17578,1.21094 -0.17578,1.75781 0,4.92187 4.33594,7.51953 8.02734,7.59766 4.39453,0 8.00781,-3.39844 8.00781,-7.59766 0,-4.19921 -3.61328,-7.65625 -8.00781,-7.65625 -1.25,0 -2.63672,0.44922 -3.6914,0.9961 0.0586,-0.0977 0.29296,-0.39063 0.35156,-0.48829 1.1914,-3.10546 3.4375,-8.84765 4.39453,-11.25 l -2.75391,0 m 1.69922,13.24219 c 3.00781,0 5.41016,2.30469 5.41016,5.15625 0,2.85156 -2.40235,5.15625 -5.41016,5.15625 -3.00781,0 -5.44922,-2.30469 -5.44922,-5.15625 0,-2.85156 2.44141,-5.15625 5.44922,-5.15625"
           style="font-size:40px;fill:#333333;font-family:Whois;-inkscape-font-specification:Whois"
           id="path3789"
           inkscape:connector-curvature="0" />
        <path
           d="m 244.69661,279.6188 0,2.53907 13.69141,0 -12.89063,23.45703 2.85156,0 12.85157,-23.30078 0,-2.69532 -16.50391,0"
           style="font-size:40px;fill:#333333;font-family:Whois;-inkscape-font-specification:Whois"
           id="path3791"
           inkscape:connector-curvature="0" />
        <path
           d="m 272.39192,279.6188 c -3.59374,0 -6.60156,3.00782 -6.60156,6.60157 0,2.10937 0.99609,3.94531 2.5,5.13672 -2.34375,1.34765 -3.94531,3.86719 -3.94531,6.66015 0,4.19922 3.65235,7.59766 8.04687,7.59766 4.39453,0 8.04688,-3.39844 8.04688,-7.59766 0,-2.79296 -1.60157,-5.3125 -3.94532,-6.66015 1.50391,-1.19141 2.5,-2.98829 2.5,-5.09766 0,-3.59375 -3.00781,-6.64063 -6.60156,-6.64063 m 0,2.53907 c 2.24609,0 4.0625,1.81641 4.0625,4.0625 0,2.24609 -1.81641,4.19922 -4.0625,4.19922 -2.24609,0 -4.04297,-1.95313 -4.04297,-4.19922 0,-2.24609 1.79688,-4.0625 4.04297,-4.0625 m 0,10.44922 c 3.00781,0 5.39063,2.16797 5.44922,5.41015 0.0586,3.24219 -2.44141,5.15625 -5.44922,5.15625 -3.00781,0 -5.44922,-1.91406 -5.44922,-5.15625 0,-3.24218 2.44141,-5.41015 5.44922,-5.41015"
           style="font-size:40px;fill:#333333;font-family:Whois;-inkscape-font-specification:Whois"
           id="path3793"
           inkscape:connector-curvature="0" />
        <path
           d="m 293.70052,305.6149 c 1.15234,-2.89062 2.98828,-7.5586 4.04296,-10.35156 1.25,-3.20313 1.71875,-3.98438 2.10938,-6.28907 0.11719,-0.60546 0.17578,-1.1914 0.17578,-1.73828 0,-4.92187 -4.33594,-7.53906 -8.02734,-7.61719 -4.39453,0 -8.00782,3.39845 -8.00782,7.59766 0,4.19922 3.61329,7.65625 8.00782,7.65625 1.25,0 2.63672,-0.46875 3.6914,-1.01562 -0.0586,0.0976 -0.29297,0.41015 -0.35156,0.50781 -1.1914,3.10546 -3.4375,8.84766 -4.39453,11.25 l 2.75391,0 m -1.69922,-13.24219 c -3.00781,0 -5.41016,-2.30469 -5.41016,-5.15625 0,-2.85156 2.40235,-5.15625 5.41016,-5.15625 3.00781,0 5.44922,2.30469 5.44922,5.15625 0,2.85156 -2.44141,5.15625 -5.44922,5.15625"
           style="font-size:40px;fill:#333333;font-family:Whois;-inkscape-font-specification:Whois"
           id="path3795"
           inkscape:connector-curvature="0" />
        <path
           d="m 323.89583,297.25552 12.20703,8.35938 1.34766,-2.05078 -10.9961,-7.65625 0,-0.29297 10.9961,-7.44141 -1.34766,-2.05078 -12.20703,8.33984 0,2.79297"
           style="font-size:40px;fill:#333333;font-family:Whois;-inkscape-font-specification:Whois"
           id="path3797"
           inkscape:connector-curvature="0" />
        <path
           d="m 348.70052,279.6188 0,11.44532 0.44921,5.80078 2.01172,0 0.44922,-5.80078 0,-11.44532 -2.91015,0 m 3.90625,23.55469 c 0,-1.34765 -1.05469,-2.46094 -2.40235,-2.46094 -1.34765,0 -2.40234,1.11329 -2.40234,2.46094 0,1.34766 1.05469,2.44141 2.40234,2.44141 1.34766,0 2.40235,-1.09375 2.40235,-2.44141"
           style="font-size:40px;fill:#333333;font-family:Whois;-inkscape-font-specification:Whois"
           id="path3799"
           inkscape:connector-curvature="0" />
        <path
           d="m 370.26302,303.17349 c 0,-1.34765 -1.05469,-2.46094 -2.40235,-2.46094 -1.34765,0 -2.40234,1.11329 -2.40234,2.46094 0,1.34766 1.05469,2.44141 2.40234,2.44141 1.34766,0 2.40235,-1.09375 2.40235,-2.44141 m -3.75,-6.40625 2.65625,0.0391 c 0.15625,-0.99609 0.17578,-2.22656 1.03515,-3.18359 2.10937,-2.34375 2.96875,-2.59766 4.0625,-4.19922 1.05469,-1.54296 1.48438,-2.91016 1.09375,-4.86328 -0.54687,-2.55859 -2.40234,-3.94531 -4.74609,-4.64844 -2.40234,-0.70312 -5.29297,-0.15625 -7.14844,1.09375 -1.85547,1.25 -2.7539,4.10157 -2.14844,5.70313 l 2.28516,-0.54688 c 0,-0.85937 0.0195,-2.24609 1.36719,-3.20312 1.40625,-0.99609 3.18359,-1.21094 4.88281,-0.70313 1.69922,0.50782 2.89062,1.50391 2.94922,2.91016 0,1.09375 0,1.81641 -0.74219,3.00781 -0.74219,1.19141 -1.48438,1.32813 -3.69141,3.63281 -2.10937,2.20703 -1.85546,4.96094 -1.85546,4.96094"
           style="font-size:40px;fill:#333333;font-family:Whois;-inkscape-font-specification:Whois"
           id="path3801"
           inkscape:connector-curvature="0" />
        <path
           d="m 391.51302,303.17349 c 0,-1.34765 -1.05469,-2.46094 -2.40235,-2.46094 -1.34765,0 -2.40234,1.11329 -2.40234,2.46094 0,1.34766 1.05469,2.44141 2.40234,2.44141 1.34766,0 2.40235,-1.09375 2.40235,-2.44141"
           style="font-size:40px;fill:#333333;font-family:Whois;-inkscape-font-specification:Whois"
           id="path3803"
           inkscape:connector-curvature="0" />
        <path
           d="m 407.41145,301.14224 -1.54297,7.63672 2.40235,0 3.04687,-7.03125 -3.90625,-0.60547"
           style="font-size:40px;fill:#333333;font-family:Whois;-inkscape-font-specification:Whois"
           id="path3805"
           inkscape:connector-curvature="0" />
        <path
           d="m 429.16927,281.2399 c -6.75781,0.0781 -9.84375,5.50782 -9.84375,12.01172 0,6.60155 2.69531,12.36328 9.29687,12.36328 2.94922,0 3.65235,-0.3125 6.25,-0.70313 l 0,-2.30468 c -3.04687,0.44921 -4.00391,0.70312 -6.15234,0.70312 -4.35547,0 -6.89453,-4.00391 -6.89453,-9.51172 0,-3.24218 0.54688,-10 7.34375,-10 2.05077,0 3.65234,0.9961 4.16015,1.85547 0.39063,0.70313 0.83985,1.15235 0.83985,3.04688 -2.83203,0 -7.05079,-0.95703 -8.69141,3.6914 -0.41016,1.15235 -0.56641,3.02735 0.23437,4.66797 0.80078,1.64062 2.71485,3.16406 5.50782,3.16406 1.38671,0 5.50781,-0.76172 5.50781,-5.85937 l 0,-5.56641 c 0,-1.95312 -0.41016,-3.04687 -1.21094,-4.39453 -0.95703,-1.64062 -3.75,-3.18359 -6.34765,-3.16406 m 5,9.86328 c 0,2.07031 0.76171,6.67969 -2.89063,6.62109 -2.10937,-0.0195 -2.89062,-0.99609 -3.20312,-1.66015 -0.42969,-0.89844 -0.35157,-2.30469 -0.25391,-2.71485 0.37109,-1.52343 1.91406,-2.16797 3.24219,-2.20703 1.44531,-0.0586 1.21094,-0.0391 3.10547,-0.0391"
           style="font-size:40px;fill:#333333;font-family:Whois;-inkscape-font-specification:Whois"
           id="path3807"
           inkscape:connector-curvature="0" />
        <path
           d="m 454.32552,297.25552 0,-2.79297 -12.20704,-8.33984 -1.34765,2.05078 10.99609,7.44141 0,0.29297 -10.99609,7.65625 1.34765,2.05078 12.20704,-8.35938"
           style="font-size:40px;fill:#333333;font-family:Whois;-inkscape-font-specification:Whois"
           id="path3809"
           inkscape:connector-curvature="0" />
        <path
           d="m 461.57161,276.31802 0,32.46094 9.35547,0 0,-2.55859 -6.79688,0 0,-27.30469 6.83594,0 0,-2.59766 -9.39453,0"
           style="font-size:40px;fill:#333333;font-family:Whois;-inkscape-font-specification:Whois"
           id="path3811"
           inkscape:connector-curvature="0" />
        <path
           d="m 477.15755,308.1149 2.92968,0.0195 15.48829,-28.51563 -2.92969,-0.0195 -15.48828,28.51563"
           style="font-size:40px;fill:#333333;font-family:Whois;-inkscape-font-specification:Whois"
           id="path3813"
           inkscape:connector-curvature="0" />
        <path
           d="m 498.77864,297.76334 5.72266,0 0,5.72265 2.65625,0 0,-5.72265 5.72265,0 0,-2.65625 -5.72265,0 0,-5.72266 -2.65625,0 0,5.72266 -5.72266,0 0,2.65625"
           style="font-size:40px;fill:#333333;font-family:Whois;-inkscape-font-specification:Whois"
           id="path3815"
           inkscape:connector-curvature="0" />
        <path
           d="m 518.23177,298.3688 0,2.63672 14.10156,0 0,-2.63672 -14.10156,0 m 0,-7.20703 0,2.65625 14.10156,0 0,-2.65625 -14.10156,0"
           style="font-size:40px;fill:#333333;font-family:Whois;-inkscape-font-specification:Whois"
           id="path3817"
           inkscape:connector-curvature="0" />
        <path
           d="m 544.77473,300.81021 c 0,2.65625 2.01173,4.80469 4.51172,4.80469 2.5,0 4.51172,-2.14844 4.51172,-4.80469 0,-2.65625 -2.01172,-4.80469 -4.51172,-4.80469 -2.49999,0 -4.51172,2.14844 -4.51172,4.80469 m 2.2461,0 c 0,-1.36718 1.01562,-2.46094 2.28515,-2.46094 1.26953,0 2.28516,1.09376 2.28516,2.46094 0,1.36719 -1.01563,2.46094 -2.28516,2.46094 -1.26953,0 -2.28515,-1.09375 -2.28515,-2.46094 m 5.54687,-17.05078 -3.16406,-0.0195 -12.57812,17.8125 3.16406,0.0195 12.57812,-17.8125 m -16.875,0.66406 c 0,2.65625 2.01172,4.80469 4.51172,4.80469 2.5,0 4.51172,-2.14844 4.51172,-4.80469 0,-2.65624 -2.01172,-4.80469 -4.51172,-4.80469 -2.5,0 -4.51172,2.14845 -4.51172,4.80469 m 2.2461,0 c 0,-1.36718 1.01562,-2.46094 2.28515,-2.46094 1.26953,0 2.28516,1.09376 2.28516,2.46094 0,1.36719 -1.01563,2.46094 -2.28516,2.46094 -1.26953,0 -2.28515,-1.09375 -2.28515,-2.46094"
           style="font-size:40px;fill:#333333;font-family:Whois;-inkscape-font-specification:Whois"
           id="path3819"
           inkscape:connector-curvature="0" />
        <path
           d="m 563.2513,277.21646 0,2.53906 c -3.92578,0.60547 -5.87891,4.21876 -5.87891,7.03125 0,0.0391 0,0.0586 0.0195,0.0781 0.0586,3.4375 3.63282,5.44922 5.85938,6.42578 l 0,9.74609 c -2.5,-0.17578 -3.14454,-1.17187 -4.0625,-2.67578 l -2.2461,1.15235 c 0.64453,1.28906 1.91407,3.71093 6.3086,4.0625 l 0,2.79296 2.38281,0 0,-2.85156 c 3.78906,-0.60547 5.91797,-3.90625 5.91797,-7.26562 0,-0.33203 -0.0195,-0.6836 -0.0586,-1.03516 -0.37109,-2.53906 -2.42187,-4.14063 -5.85937,-5.66406 l 0,-9.27735 c 2.57812,0.50782 3.16406,2.48047 3.16406,2.48047 l 2.1875,-1.25 c 0,0 -1.36719,-3.18359 -5.35156,-3.75 l 0,-2.53906 -2.38281,0 m 0,13.28125 c -3.24219,-1.62109 -3.32032,-3.16406 -3.32032,-3.63281 0,-0.0195 0.0195,-0.0391 0.0195,-0.0586 -0.0195,-0.0195 -0.0195,-0.0586 -0.0195,-0.0977 0,-2.38281 1.36719,-3.96485 3.32032,-4.41406 l 0,8.20312 m 2.38281,3.67188 c 2.92968,1.48437 3.24219,2.59765 3.35937,3.39843 0.0195,0.23438 0.0391,0.46875 0.0391,0.72266 0,1.83594 -1.01563,4.02344 -3.39844,4.60937 l 0,-8.73046"
           style="font-size:40px;fill:#333333;font-family:Whois;-inkscape-font-specification:Whois"
           id="path3821"
           inkscape:connector-curvature="0" />
        <path
           d="m 593.38802,308.1149 -15.48829,-28.4961 -2.94921,0 15.48828,28.4961 2.94922,0"
           style="font-size:40px;fill:#333333;font-family:Whois;-inkscape-font-specification:Whois"
           id="path3823"
           inkscape:connector-curvature="0" />
        <path
           d="m 608.44661,276.31802 -9.39453,0 0,2.59766 6.83594,0 0,27.30469 -6.79688,0 0,2.55859 9.35547,0 0,-32.46094"
           style="font-size:40px;fill:#333333;font-family:Whois;-inkscape-font-specification:Whois"
           id="path3825"
           inkscape:connector-curvature="0" />
      </g>
      <g
         style="font-size:43.92279053000000033px;font-style:normal;font-variant:normal;font-weight:bold;font-stretch:normal;line-height:125%;letter-spacing:0px;word-spacing:0px;fill:#333333;fill-opacity:1;stroke:none;font-family:Avara;-inkscape-font-specification:Avara Bold"
         id="text3070">
        <path
           d="m 423.23218,96.350464 1.64062,25.996096 3.06641,0 3.33984,-11.09375 0.0977,-0.76172 0.0977,0.76172 3.35937,11.09375 3.04688,0 1.64062,-25.996096 -2.53906,0 -1.3086,20.351566 -2.94921,-9.55078 -1.34766,-4.60938 -1.34766,4.64844 -2.94922,9.51172 -1.30859,-20.351566 -2.53906,0"
           style="font-size:40px;text-align:end;text-anchor:end;fill:#333333;font-family:Whois;-inkscape-font-specification:Whois"
           id="path3934"
           inkscape:connector-curvature="0" />
        <path
           d="m 443.38843,96.350464 0,16.347656 0,9.64844 2.5,0 0,-9.64844 c 0,-1.75781 0.29297,-3.61328 1.15234,-4.96094 0.85938,-1.34765 2.1875,-2.22656 4.23828,-2.22656 2.14844,0 3.06641,1.19141 3.45703,1.93359 0.60547,1.15235 0.95704,2.08985 0.95704,3.84766 l 0,11.05469 2.59765,0 0,-11.05469 c 0,-2.10937 -0.80078,-4.55078 -1.69922,-5.74219 -1.25,-1.64062 -2.61719,-2.63672 -5.3125,-2.63672 -2.1289,0 -4.58984,1.50391 -5.29297,3.33985 l -0.0976,0 0,-9.902346 -2.5,0"
           style="font-size:40px;text-align:end;text-anchor:end;fill:#333333;font-family:Whois;-inkscape-font-specification:Whois"
           id="path3936"
           inkscape:connector-curvature="0" />
        <path
           d="m 470.28296,102.85437 c -2.85156,0 -5.0586,1.44531 -6.25,3.33984 -1.19141,1.89453 -1.69922,4.23829 -1.69922,6.34766 0,2.10937 0.46875,4.55078 1.66016,6.44531 1.1914,1.89453 3.39844,3.35938 6.25,3.35938 2.85156,0 5.05859,-1.46485 6.25,-3.35938 1.1914,-1.89453 1.73828,-4.33594 1.73828,-6.44531 0,-2.10937 -0.54688,-4.45313 -1.73828,-6.34766 -1.19141,-1.89453 -3.35938,-3.33984 -6.21094,-3.33984 m 0,2.53906 c 2.05078,0 3.24219,0.85938 4.10156,2.20703 0.85938,1.34766 1.3086,3.24219 1.3086,4.94141 0,1.69922 -0.48829,3.75 -1.34766,5.09766 -0.85938,1.34765 -1.99219,2.20703 -4.10156,2.20703 -2.10938,0 -3.24219,-0.85938 -4.10157,-2.20703 -0.85937,-1.34766 -1.25,-3.39844 -1.25,-5.09766 0,-1.69922 0.48829,-3.59375 1.34766,-4.94141 0.85937,-1.34765 1.99219,-2.20703 4.04297,-2.20703"
           style="font-size:40px;text-align:end;text-anchor:end;fill:#333333;font-family:Whois;-inkscape-font-specification:Whois"
           id="path3938"
           inkscape:connector-curvature="0" />
        <path
           d="m 482.64624,102.85437 0,2.59766 5.83984,0 0,14.29687 -6.85546,0 0,2.59766 16.21093,0 0,-2.59766 -6.85547,0 0,-16.89453 -8.33984,0 m 9.47266,-6.464844 c 0,-1.347655 -1.05469,-2.402343 -2.40235,-2.402343 -1.34765,0 -2.40234,1.054688 -2.40234,2.402343 0,1.347655 1.05469,2.460938 2.40234,2.460938 1.34766,0 2.40235,-1.113283 2.40235,-2.460938"
           style="font-size:40px;text-align:end;text-anchor:end;fill:#333333;font-family:Whois;-inkscape-font-specification:Whois"
           id="path3940"
           inkscape:connector-curvature="0" />
        <path
           d="m 504.28687,104.39734 c -2.14844,1.79687 -2.48047,3.78906 -1.83594,5.54687 0.54687,1.60156 2.14844,2.53907 4.04297,3.04688 1.89453,0.50781 3.53515,0.89844 5.74218,1.60156 0.9961,0.35156 1.50391,0.70313 1.69922,1.50391 0.25391,0.95703 0.0586,1.73828 -0.58593,2.4414 -0.64454,0.70313 -1.99219,1.3086 -4.29688,1.3086 -2.34375,0 -3.45703,-0.54688 -4.0625,-1.09375 -0.60547,-0.54688 -0.74219,-1.21094 -0.83984,-1.95313 l -2.36328,0.19532 c 0,1.05468 0.3125,2.5 1.5039,3.59375 1.19141,1.09374 3.00782,1.75781 5.76172,1.75781 2.7539,0 4.78516,-0.6836 6.09375,-1.99219 1.25,-1.30859 1.75781,-3.16406 1.25,-4.80469 -0.50781,-1.64062 -1.46485,-2.8125 -3.35937,-3.35937 -1.89453,-0.54688 -4.35548,-1.09375 -6.25,-1.60156 -1.89453,-0.50782 -2.57813,-2.44141 -1.38672,-3.84766 0.64453,-0.74219 1.77734,-1.25 3.08593,-1.34766 1.50391,-0.0977 2.65625,0.0586 3.45704,0.44922 0.80078,0.39063 1.34765,1.11328 1.79687,2.30469 l 2.05078,-0.85938 c -0.35156,-1.64062 -1.25,-2.79297 -3.20312,-3.78906 -1.95313,-0.99609 -6.15235,-0.89843 -8.30078,0.89844"
           style="font-size:40px;text-align:end;text-anchor:end;fill:#333333;font-family:Whois;-inkscape-font-specification:Whois"
           id="path3942"
           inkscape:connector-curvature="0" />
        <path
           d="m 539.75562,102.85437 0,19.49219 2.53906,0 0,-14.70703 c 0,-0.54688 0.19531,-1.05469 0.54687,-1.44532 0.54688,-0.54687 1.40625,-0.89843 2.14844,-0.80078 0.99609,0.0977 1.34766,0.66407 1.60156,1.21094 0.25391,0.54687 0.21485,1.28906 0.21485,1.73828 l 0,14.00391 2.59765,0 0,-14.39453 c 0,0 0.0977,-1.21094 0.64453,-1.75782 0.54688,-0.54687 1.19141,-0.89843 1.99219,-0.80078 0.99609,0.0977 1.34766,0.66407 1.60156,1.21094 0.25391,0.54687 0.21485,1.28906 0.21485,1.73828 l 0,14.00391 2.59765,0 0,-14.00391 c 0,-0.60547 -0.0586,-1.64062 -0.60546,-2.79297 -0.54688,-1.15234 -1.95313,-2.69531 -3.84766,-2.69531 -1.89453,0 -2.94922,0.9375 -3.75,1.99219 -0.54688,-0.89844 -1.46485,-1.9336 -2.91016,-1.99219 -1.44531,-0.0586 -2.24609,0.64453 -3.04687,1.44531 l -0.48828,-1.44531 -2.05078,0"
           style="font-size:40px;text-align:end;text-anchor:end;fill:#333333;font-family:Whois;-inkscape-font-specification:Whois"
           id="path3944"
           inkscape:connector-curvature="0" />
        <path
           d="m 567.54858,102.85437 c -2.85156,0 -5.05859,1.44531 -6.25,3.33984 -1.1914,1.89453 -1.69921,4.23829 -1.69921,6.34766 0,2.10937 0.46875,4.55078 1.66015,6.44531 1.19141,1.89453 3.39844,3.35938 6.25,3.35938 2.85156,0 5.0586,-1.46485 6.25,-3.35938 1.19141,-1.89453 1.73828,-4.33594 1.73828,-6.44531 0,-2.10937 -0.54687,-4.45313 -1.73828,-6.34766 -1.1914,-1.89453 -3.35938,-3.33984 -6.21094,-3.33984 m 0,2.53906 c 2.05078,0 3.24219,0.85938 4.10157,2.20703 0.85937,1.34766 1.30859,3.24219 1.30859,4.94141 0,1.69922 -0.48828,3.75 -1.34766,5.09766 -0.85937,1.34765 -1.99219,2.20703 -4.10156,2.20703 -2.10937,0 -3.24219,-0.85938 -4.10156,-2.20703 -0.85938,-1.34766 -1.25,-3.39844 -1.25,-5.09766 0,-1.69922 0.48828,-3.59375 1.34766,-4.94141 0.85937,-1.34765 1.99218,-2.20703 4.04296,-2.20703"
           style="font-size:40px;text-align:end;text-anchor:end;fill:#333333;font-family:Whois;-inkscape-font-specification:Whois"
           id="path3946"
           inkscape:connector-curvature="0" />
        <path
           d="m 587.60718,102.85437 c -2.34375,0 -3.8086,0.74219 -5,1.73828 l -0.35156,-1.73828 -2.20704,0 0,19.49219 2.5586,0 0,-12.30469 c 0,-4.35546 2.94922,-5 5.19531,-4.64844 1.64062,0.25391 2.36328,0.89844 2.91016,1.89453 0.54687,0.9961 0.68359,2.5586 0.68359,4.45313 l 0,10.60547 2.55859,0 0,-10.60547 c 0,-2.05078 -0.0586,-4.14063 -1.25,-5.99609 -1.1914,-1.85547 -2.7539,-2.89063 -5.09765,-2.89063"
           style="font-size:40px;text-align:end;text-anchor:end;fill:#333333;font-family:Whois;-inkscape-font-specification:Whois"
           id="path3948"
           inkscape:connector-curvature="0" />
        <path
           d="m 606.45483,102.85437 c -2.85156,0 -5.05859,1.44531 -6.25,3.33984 -1.1914,1.89453 -1.69921,4.23829 -1.69921,6.34766 0,2.10937 0.46875,4.55078 1.66015,6.44531 1.19141,1.89453 3.39844,3.35938 6.25,3.35938 2.85156,0 5.0586,-1.46485 6.25,-3.35938 1.19141,-1.89453 1.73828,-4.33594 1.73828,-6.44531 0,-2.10937 -0.54687,-4.45313 -1.73828,-6.34766 -1.1914,-1.89453 -3.35938,-3.33984 -6.21094,-3.33984 m 0,2.53906 c 2.05078,0 3.24219,0.85938 4.10157,2.20703 0.85937,1.34766 1.30859,3.24219 1.30859,4.94141 0,1.69922 -0.48828,3.75 -1.34766,5.09766 -0.85937,1.34765 -1.99219,2.20703 -4.10156,2.20703 -2.10937,0 -3.24219,-0.85938 -4.10156,-2.20703 -0.85938,-1.34766 -1.25,-3.39844 -1.25,-5.09766 0,-1.69922 0.48828,-3.59375 1.34766,-4.94141 0.85937,-1.34765 1.99218,-2.20703 4.04296,-2.20703"
           style="font-size:40px;text-align:end;text-anchor:end;fill:#333333;font-family:Whois;-inkscape-font-specification:Whois"
           id="path3950"
           inkscape:connector-curvature="0" />
      </g>
    </g>
  </g>
</svg>
